<svg xmlns="http://www.w3.org/2000/svg" viewBox="0 0 16104 509.47"><defs><style>.a{fill:#92ddd0;}.b{fill:#80cec4;}.c,.d,.f{fill:#3d3d3d;}.c{opacity:0.1;}.d{opacity:0.3;}.e{fill:#37474f;}.f{opacity:0.8;}.g{fill:#218471;}.h{fill:#107562;}.i{fill:#0a5d50;}.j{fill:#679b92;}.k{fill:#80aaa2;}.l{fill:#a3c1bb;}.m{fill:#c5d3d1;}.n{fill:#dae0df;}.o{fill:#455a64;}.p{fill:none;stroke:#242a2b;stroke-miterlimit:10;}.q{fill:#4c4c4c;}</style></defs><title>colors</title><rect class="a" x="1.44" width="16100.4" height="509.21"/><rect class="b" x="2.45" y="198.8" width="16100.4" height="157.77"/><path class="c" d="M16098.36.47H12183.65a2.8,2.8,0,0,0-1.15.25L11078.87,501.13a2.8,2.8,0,0,0,1.15,5.34h5018.34a2.8,2.8,0,0,0,2.8-2.8V3.26A2.8,2.8,0,0,0,16098.36.47Z" transform="translate(0.68 0)"/><path class="d" d="M16069.92.47H12818.28a31.23,31.23,0,0,0-12.9,2.79l-978.19,443.53c-30.61,13.88-20.71,59.68,12.9,59.68h4229.83a31.23,31.23,0,0,0,31.23-31.23V31.7A31.23,31.23,0,0,0,16069.92.47Z" transform="translate(0.68 0)"/><path class="d" d="M16101.16.47h-2558.3a12.88,12.88,0,0,0-5.32,1.15L12478.41,481.85c-12.63,5.73-8.54,24.62,5.32,24.62h3592.48a12.89,12.89,0,0,0,12.89-12.89V139.25C16089.1,62.6,16091.05,80.26,16101.16.47Z" transform="translate(0.68 0)"/><line class="e" x1="1929.39" y1="343.85" x2="1949.54" y2="343.85"/><polygon class="f" points="16101.84 0.47 14205.97 0.47 13090.01 506.47 16101.84 506.47 16101.84 0.47"/><path class="g" d="M16035.06,310c-5242.64.71-11272.85,1.51-11507.27,1.51-396.05,0-2479.47-2.3-2691.47-2.54v0h-18v0l-628,1c-439.09.71-944.46.46-964.1.46-35,0-226.87-1.5-226.87-1.5v197.5h16104V310Z" transform="translate(0.68 0)"/><rect class="h" x="2.45" y="320.65" width="16099.55" height="188.82"/><polygon class="i" points="0.42 404 16102.68 404 16102 509.21 0.42 509.21 0.42 404"/><polygon class="j" points="11254.63 403.47 11058.96 474.45 14450.23 466.47 14618.81 403.47 11254.63 403.47"/><polygon class="k" points="12346.63 403.47 12172.96 466.47 14559.23 466.47 14727.81 403.47 12346.63 403.47"/><polygon class="l" points="14428.63 403.47 14254.96 466.47 14674.23 466.47 14842.81 403.47 14428.63 403.47"/><polygon class="m" points="14548.63 403.47 14374.96 466.47 14794.23 466.47 14962.81 403.47 14548.63 403.47"/><polygon class="n" points="14739.63 403.47 14565.96 466.47 14985.23 466.47 15153.81 403.47 14739.63 403.47"/><polygon class="n" points="15078.63 403.47 14904.96 466.47 16102 466.47 16102 403.47 15078.63 403.47"/><polygon class="j" points="14839.88 321.79 14432.36 321.79 14030.96 466.47 14450.23 466.47 14839.88 321.79"/><polygon class="l" points="15063.88 321.79 14656.36 321.79 14254.96 466.47 14674.23 466.47 15063.88 321.79"/><polygon class="m" points="15183.88 321.79 14776.36 321.79 14374.96 466.47 14794.23 466.47 15183.88 321.79"/><polygon class="j" points="14839.88 321.79 11484.89 321.79 11083.49 466.47 14450.23 466.47 14839.88 321.79"/><polygon class="n" points="16101.18 321.79 14967.36 321.79 14565.96 466.47 16102 466.47 16101.18 321.79"/><polygon class="k" points="14948.88 321.79 12577.93 321.79 12176.53 466.47 14559.23 466.47 14948.88 321.79"/><polygon class="l" points="15063.88 321.79 14656.36 321.79 14254.96 466.47 14674.23 466.47 15063.88 321.79"/><polygon class="m" points="15183.88 321.79 14776.36 321.79 14374.96 466.47 14794.23 466.47 15183.88 321.79"/><polygon class="n" points="16101.18 321.79 14967.36 321.79 14565.96 466.47 16102 466.47 16101.18 321.79"/><rect class="o" x="0.42" y="373.83" width="16101.58" height="30.17"/><polygon class="e" points="2341.06 415.97 1398.69 415.97 1549.01 373.83 2496.57 373.83 2341.06 415.97"/><rect class="e" x="0.42" y="381.86" width="16101.58" height="11.83"/><polyline class="j" points="11340.93 373.83 16101.18 373.83 16101.18 403.87 11257.58 403.47"/><polyline class="k" points="12435.64 373.83 16101.18 373.83 16101.18 403.87 12352.29 403.47"/><polyline class="l" points="14513.44 373.83 16102 373.96 16102 404 14430.08 403.47"/><polyline class="m" points="14635.1 373.83 16101.58 373.83 16101.58 403.87 14551.74 403.47"/><polyline class="n" points="14821.82 373.83 16101.18 373.83 16101.18 403.87 14738.46 403.47"/><line class="p" x1="4868.08" y1="391.23" x2="0.42" y2="391.23"/><line class="p" x1="0.42" y1="384.32" x2="4868.08" y2="384.32"/><polygon class="q" points="16087.89 392.5 16091.73 392.5 16046.24 383.12 16042.4 383.12 16087.89 392.5"/><polygon class="q" points="16047.86 392.5 16051.7 392.5 16006.22 383.12 16002.37 383.12 16047.86 392.5"/><polygon class="q" points="16007.83 392.5 16011.67 392.5 15966.19 383.12 15962.35 383.12 16007.83 392.5"/><polygon class="q" points="15967.79 392.5 15971.64 392.5 15926.17 383.12 15922.33 383.12 15967.79 392.5"/><polygon class="q" points="15927.76 392.5 15931.61 392.5 15886.15 383.12 15882.3 383.12 15927.76 392.5"/><polygon class="q" points="15887.73 392.5 15891.58 392.5 15846.12 383.12 15842.28 383.12 15887.73 392.5"/><polygon class="q" points="15847.7 392.5 15851.54 392.5 15806.1 383.12 15802.26 383.12 15847.7 392.5"/><polygon class="q" points="15807.67 392.5 15811.51 392.5 15766.08 383.12 15762.23 383.12 15807.67 392.5"/><polygon class="q" points="15767.64 392.5 15771.48 392.5 15726.06 383.12 15722.21 383.12 15767.64 392.5"/><polygon class="q" points="15727.6 392.5 15731.45 392.5 15686.03 383.12 15682.19 383.12 15727.6 392.5"/><polygon class="q" points="15687.57 392.5 15691.42 392.5 15646.01 383.12 15642.16 383.12 15687.57 392.5"/><polygon class="q" points="15647.54 392.5 15651.39 392.5 15605.99 383.12 15602.14 383.12 15647.54 392.5"/><polygon class="q" points="15607.51 392.5 15611.35 392.5 15565.96 383.12 15562.12 383.12 15607.51 392.5"/><polygon class="q" points="15567.48 392.5 15571.32 392.5 15525.94 383.12 15522.09 383.12 15567.48 392.5"/><polygon class="q" points="15527.44 392.5 15531.29 392.5 15485.92 383.12 15482.07 383.12 15527.44 392.5"/><polygon class="q" points="15487.41 392.5 15491.26 392.5 15445.89 383.12 15442.05 383.12 15487.41 392.5"/><polygon class="q" points="15447.38 392.5 15451.23 392.5 15405.87 383.12 15402.03 383.12 15447.38 392.5"/><polygon class="q" points="15407.35 392.5 15411.19 392.5 15365.85 383.12 15362 383.12 15407.35 392.5"/><polygon class="q" points="15367.32 392.5 15371.16 392.5 15325.82 383.12 15321.98 383.12 15367.32 392.5"/><polygon class="q" points="15327.29 392.5 15331.13 392.5 15285.8 383.12 15281.96 383.12 15327.29 392.5"/><polygon class="q" points="15287.25 392.5 15291.1 392.5 15245.78 383.12 15241.93 383.12 15287.25 392.5"/><polygon class="q" points="15247.22 392.5 15251.07 392.5 15205.75 383.12 15201.91 383.12 15247.22 392.5"/><polygon class="q" points="15207.19 392.5 15211.04 392.5 15165.73 383.12 15161.89 383.12 15207.19 392.5"/><polygon class="q" points="15167.16 392.5 15171 392.5 15125.71 383.12 15121.86 383.12 15167.16 392.5"/><polygon class="q" points="15127.13 392.5 15130.97 392.5 15085.69 383.12 15081.84 383.12 15127.13 392.5"/><polygon class="q" points="15087.1 392.5 15090.94 392.5 15045.66 383.12 15041.82 383.12 15087.1 392.5"/><polygon class="q" points="15047.07 392.5 15050.91 392.5 15005.64 383.12 15001.8 383.12 15047.07 392.5"/><polygon class="q" points="15007.03 392.5 15010.88 392.5 14965.62 383.12 14961.77 383.12 15007.03 392.5"/><polygon class="q" points="14967 392.5 14970.84 392.5 14925.59 383.12 14921.75 383.12 14967 392.5"/><polygon class="q" points="14926.97 392.5 14930.81 392.5 14885.57 383.12 14881.73 383.12 14926.97 392.5"/><polygon class="q" points="14886.94 392.5 14890.78 392.5 14845.55 383.12 14841.7 383.12 14886.94 392.5"/><polygon class="q" points="14846.91 392.5 14850.75 392.5 14805.52 383.12 14801.68 383.12 14846.91 392.5"/><polygon class="q" points="14806.87 392.5 14810.72 392.5 14765.5 383.12 14761.66 383.12 14806.87 392.5"/><polygon class="q" points="14766.84 392.5 14770.69 392.5 14725.48 383.12 14721.64 383.12 14766.84 392.5"/><polygon class="q" points="14726.81 392.5 14730.66 392.5 14685.46 383.12 14681.61 383.12 14726.81 392.5"/><polygon class="q" points="14686.78 392.5 14690.62 392.5 14645.43 383.12 14641.59 383.12 14686.78 392.5"/><polygon class="q" points="14646.75 392.5 14650.59 392.5 14605.41 383.12 14601.57 383.12 14646.75 392.5"/><polygon class="q" points="14606.72 392.5 14610.56 392.5 14565.39 383.12 14561.54 383.12 14606.72 392.5"/><polygon class="q" points="14566.68 392.5 14570.53 392.5 14525.36 383.12 14521.52 383.12 14566.68 392.5"/><polygon class="q" points="14526.65 392.5 14530.5 392.5 14485.34 383.12 14481.5 383.12 14526.65 392.5"/><polygon class="q" points="14486.62 392.5 14490.47 392.5 14445.32 383.12 14441.47 383.12 14486.62 392.5"/><polygon class="q" points="14446.59 392.5 14450.43 392.5 14405.3 383.12 14401.45 383.12 14446.59 392.5"/><polygon class="q" points="14406.56 392.5 14410.4 392.5 14365.27 383.12 14361.43 383.12 14406.56 392.5"/><polygon class="q" points="14366.52 392.5 14370.37 392.5 14325.25 383.12 14321.4 383.12 14366.52 392.5"/><polygon class="q" points="14326.49 392.5 14330.34 392.5 14285.23 383.12 14281.38 383.12 14326.49 392.5"/><polygon class="q" points="14286.46 392.5 14290.31 392.5 14245.2 383.12 14241.36 383.12 14286.46 392.5"/><polygon class="q" points="14246.43 392.5 14250.27 392.5 14205.18 383.12 14201.33 383.12 14246.43 392.5"/><polygon class="q" points="14206.4 392.5 14210.24 392.5 14165.16 383.12 14161.31 383.12 14206.4 392.5"/><polygon class="q" points="14166.37 392.5 14170.21 392.5 14125.13 383.12 14121.29 383.12 14166.37 392.5"/><polygon class="q" points="14126.33 392.5 14130.18 392.5 14085.11 383.12 14081.27 383.12 14126.33 392.5"/><polygon class="q" points="14086.3 392.5 14090.15 392.5 14045.09 383.12 14041.24 383.12 14086.3 392.5"/><polygon class="q" points="14046.27 392.5 14050.12 392.5 14005.06 383.12 14001.22 383.12 14046.27 392.5"/><polygon class="q" points="14006.24 392.5 14010.08 392.5 13965.04 383.12 13961.2 383.12 14006.24 392.5"/><polygon class="q" points="13966.21 392.5 13970.05 392.5 13925.02 383.12 13921.17 383.12 13966.21 392.5"/><polygon class="q" points="13926.18 392.5 13930.02 392.5 13885 383.12 13881.15 383.12 13926.18 392.5"/><polygon class="q" points="13886.15 392.5 13889.99 392.5 13844.97 383.12 13841.13 383.12 13886.15 392.5"/><polygon class="q" points="13846.11 392.5 13849.96 392.5 13804.95 383.12 13801.1 383.12 13846.11 392.5"/><polygon class="q" points="13806.08 392.5 13809.92 392.5 13764.93 383.12 13761.08 383.12 13806.08 392.5"/><polygon class="q" points="13766.05 392.5 13769.89 392.5 13724.9 383.12 13721.06 383.12 13766.05 392.5"/><polygon class="q" points="13726.02 392.5 13729.86 392.5 13684.88 383.12 13681.04 383.12 13726.02 392.5"/><polygon class="q" points="13685.99 392.5 13689.83 392.5 13644.86 383.12 13641.01 383.12 13685.99 392.5"/><polygon class="q" points="13645.95 392.5 13649.8 392.5 13604.83 383.12 13600.99 383.12 13645.95 392.5"/><polygon class="q" points="13605.92 392.5 13609.77 392.5 13564.81 383.12 13560.97 383.12 13605.92 392.5"/><polygon class="q" points="13565.89 392.5 13569.74 392.5 13524.79 383.12 13520.94 383.12 13565.89 392.5"/><polygon class="q" points="13525.86 392.5 13529.7 392.5 13484.76 383.12 13480.92 383.12 13525.86 392.5"/><polygon class="q" points="13485.83 392.5 13489.67 392.5 13444.74 383.12 13440.9 383.12 13485.83 392.5"/><polygon class="q" points="13445.8 392.5 13449.64 392.5 13404.72 383.12 13400.88 383.12 13445.8 392.5"/><polygon class="q" points="13405.76 392.5 13409.61 392.5 13364.7 383.12 13360.85 383.12 13405.76 392.5"/><polygon class="q" points="13365.73 392.5 13369.58 392.5 13324.67 383.12 13320.83 383.12 13365.73 392.5"/><polygon class="q" points="13325.7 392.5 13329.55 392.5 13284.65 383.12 13280.81 383.12 13325.7 392.5"/><polygon class="q" points="13285.67 392.5 13289.51 392.5 13244.63 383.12 13240.78 383.12 13285.67 392.5"/><polygon class="q" points="13245.64 392.5 13249.48 392.5 13204.6 383.12 13200.76 383.12 13245.64 392.5"/><polygon class="q" points="13205.6 392.5 13209.45 392.5 13164.58 383.12 13160.74 383.12 13205.6 392.5"/><polygon class="q" points="13165.57 392.5 13169.42 392.5 13124.56 383.12 13120.71 383.12 13165.57 392.5"/><polygon class="q" points="13125.54 392.5 13129.39 392.5 13084.53 383.12 13080.69 383.12 13125.54 392.5"/><polygon class="q" points="13085.51 392.5 13089.35 392.5 13044.51 383.12 13040.67 383.12 13085.51 392.5"/><polygon class="q" points="13045.48 392.5 13049.32 392.5 13004.49 383.12 13000.64 383.12 13045.48 392.5"/><polygon class="q" points="13005.45 392.5 13009.29 392.5 12964.47 383.12 12960.62 383.12 13005.45 392.5"/><polygon class="q" points="12965.42 392.5 12969.26 392.5 12924.44 383.12 12920.6 383.12 12965.42 392.5"/><polygon class="q" points="12925.38 392.5 12929.23 392.5 12884.42 383.12 12880.58 383.12 12925.38 392.5"/><polygon class="q" points="12885.35 392.5 12889.2 392.5 12844.4 383.12 12840.55 383.12 12885.35 392.5"/><polygon class="q" points="12845.32 392.5 12849.16 392.5 12804.37 383.12 12800.53 383.12 12845.32 392.5"/><polygon class="q" points="12805.29 392.5 12809.13 392.5 12764.35 383.12 12760.51 383.12 12805.29 392.5"/><polygon class="q" points="12765.26 392.5 12769.1 392.5 12724.33 383.12 12720.48 383.12 12765.26 392.5"/><polygon class="q" points="12725.23 392.5 12729.07 392.5 12684.3 383.12 12680.46 383.12 12725.23 392.5"/><polygon class="q" points="12685.19 392.5 12689.04 392.5 12644.28 383.12 12640.44 383.12 12685.19 392.5"/><polygon class="q" points="12645.16 392.5 12649 392.5 12604.26 383.12 12600.41 383.12 12645.16 392.5"/><polygon class="q" points="12605.13 392.5 12608.97 392.5 12564.24 383.12 12560.39 383.12 12605.13 392.5"/><polygon class="q" points="12565.1 392.5 12568.94 392.5 12524.21 383.12 12520.37 383.12 12565.1 392.5"/><polygon class="q" points="12525.07 392.5 12528.91 392.5 12484.19 383.12 12480.34 383.12 12525.07 392.5"/><polygon class="q" points="12485.03 392.5 12488.88 392.5 12444.17 383.12 12440.32 383.12 12485.03 392.5"/><polygon class="q" points="12445 392.5 12448.85 392.5 12404.14 383.12 12400.3 383.12 12445 392.5"/><polygon class="q" points="12404.97 392.5 12408.82 392.5 12364.12 383.12 12360.28 383.12 12404.97 392.5"/><polygon class="q" points="12364.94 392.5 12368.78 392.5 12324.1 383.12 12320.25 383.12 12364.94 392.5"/><polygon class="q" points="12324.91 392.5 12328.75 392.5 12284.07 383.12 12280.23 383.12 12324.91 392.5"/><polygon class="q" points="12284.88 392.5 12288.72 392.5 12244.05 383.12 12240.21 383.12 12284.88 392.5"/><polygon class="q" points="12244.84 392.5 12248.69 392.5 12204.03 383.12 12200.18 383.12 12244.84 392.5"/><polygon class="q" points="12204.81 392.5 12208.66 392.5 12164 383.12 12160.16 383.12 12204.81 392.5"/><polygon class="q" points="12164.78 392.5 12168.63 392.5 12123.98 383.12 12120.14 383.12 12164.78 392.5"/><polygon class="q" points="12124.75 392.5 12128.59 392.5 12083.96 383.12 12080.11 383.12 12124.75 392.5"/><polygon class="q" points="12084.72 392.5 12088.56 392.5 12043.94 383.12 12040.09 383.12 12084.72 392.5"/><polygon class="q" points="12044.68 392.5 12048.53 392.5 12003.91 383.12 12000.07 383.12 12044.68 392.5"/><polygon class="q" points="12004.65 392.5 12008.5 392.5 11963.89 383.12 11960.05 383.12 12004.65 392.5"/><polygon class="q" points="11964.62 392.5 11968.47 392.5 11923.87 383.12 11920.02 383.12 11964.62 392.5"/><polygon class="q" points="11924.59 392.5 11928.43 392.5 11883.84 383.12 11880 383.12 11924.59 392.5"/><polygon class="q" points="11884.56 392.5 11888.4 392.5 11843.82 383.12 11839.98 383.12 11884.56 392.5"/><polygon class="q" points="11844.53 392.5 11848.37 392.5 11803.8 383.12 11799.95 383.12 11844.53 392.5"/><polygon class="q" points="11804.5 392.5 11808.34 392.5 11763.77 383.12 11759.93 383.12 11804.5 392.5"/><polygon class="q" points="11764.46 392.5 11768.31 392.5 11723.75 383.12 11719.91 383.12 11764.46 392.5"/><polygon class="q" points="11724.43 392.5 11728.28 392.5 11683.73 383.12 11679.88 383.12 11724.43 392.5"/><polygon class="q" points="11684.4 392.5 11688.24 392.5 11643.7 383.12 11639.86 383.12 11684.4 392.5"/><polygon class="q" points="11644.37 392.5 11648.21 392.5 11603.68 383.12 11599.84 383.12 11644.37 392.5"/><polygon class="q" points="11604.34 392.5 11608.18 392.5 11563.66 383.12 11559.82 383.12 11604.34 392.5"/><polygon class="q" points="11564.31 392.5 11568.15 392.5 11523.64 383.12 11519.79 383.12 11564.31 392.5"/><polygon class="q" points="11524.27 392.5 11528.12 392.5 11483.61 383.12 11479.77 383.12 11524.27 392.5"/><polygon class="q" points="11484.24 392.5 11488.08 392.5 11443.59 383.12 11439.75 383.12 11484.24 392.5"/><polygon class="q" points="11444.21 392.5 11448.05 392.5 11403.57 383.12 11399.72 383.12 11444.21 392.5"/><polygon class="q" points="11404.18 392.5 11408.02 392.5 11363.54 383.12 11359.7 383.12 11404.18 392.5"/><polygon class="q" points="11364.15 392.5 11367.99 392.5 11323.52 383.12 11319.68 383.12 11364.15 392.5"/><polygon class="q" points="11324.11 392.5 11327.96 392.5 11283.5 383.12 11279.65 383.12 11324.11 392.5"/><polygon class="q" points="11284.08 392.5 11287.93 392.5 11243.48 383.12 11239.63 383.12 11284.08 392.5"/><polygon class="q" points="11244.05 392.5 11247.9 392.5 11203.45 383.12 11199.61 383.12 11244.05 392.5"/><polygon class="q" points="11204.02 392.5 11207.86 392.5 11163.43 383.12 11159.58 383.12 11204.02 392.5"/><polygon class="q" points="11163.99 392.5 11167.83 392.5 11123.41 383.12 11119.56 383.12 11163.99 392.5"/><polygon class="q" points="11123.96 392.5 11127.8 392.5 11083.38 383.12 11079.54 383.12 11123.96 392.5"/><polygon class="q" points="11083.92 392.5 11087.77 392.5 11043.36 383.12 11039.52 383.12 11083.92 392.5"/><polygon class="q" points="11043.89 392.5 11047.74 392.5 11003.34 383.12 10999.49 383.12 11043.89 392.5"/><polygon class="q" points="11003.86 392.5 11007.7 392.5 10963.31 383.12 10959.47 383.12 11003.86 392.5"/><polygon class="q" points="10963.83 392.5 10967.67 392.5 10923.29 383.12 10919.45 383.12 10963.83 392.5"/><polygon class="q" points="10923.8 392.5 10927.64 392.5 10883.27 383.12 10879.42 383.12 10923.8 392.5"/><polygon class="q" points="10883.76 392.5 10887.61 392.5 10843.25 383.12 10839.4 383.12 10883.76 392.5"/><polygon class="q" points="10843.73 392.5 10847.58 392.5 10803.22 383.12 10799.38 383.12 10843.73 392.5"/><polygon class="q" points="10803.7 392.5 10807.55 392.5 10763.2 383.12 10759.35 383.12 10803.7 392.5"/><polygon class="q" points="10763.67 392.5 10767.51 392.5 10723.18 383.12 10719.33 383.12 10763.67 392.5"/><polygon class="q" points="10723.64 392.5 10727.48 392.5 10683.15 383.12 10679.31 383.12 10723.64 392.5"/><polygon class="q" points="10683.61 392.5 10687.45 392.5 10643.13 383.12 10639.28 383.12 10683.61 392.5"/><polygon class="q" points="10643.58 392.5 10647.42 392.5 10603.11 383.12 10599.26 383.12 10643.58 392.5"/><polygon class="q" points="10603.54 392.5 10607.39 392.5 10563.08 383.12 10559.24 383.12 10603.54 392.5"/><polygon class="q" points="10563.51 392.5 10567.36 392.5 10523.06 383.12 10519.22 383.12 10563.51 392.5"/><polygon class="q" points="10523.48 392.5 10527.32 392.5 10483.04 383.12 10479.19 383.12 10523.48 392.5"/><polygon class="q" points="10483.45 392.5 10487.29 392.5 10443.01 383.12 10439.17 383.12 10483.45 392.5"/><polygon class="q" points="10443.42 392.5 10447.26 392.5 10402.99 383.12 10399.15 383.12 10443.42 392.5"/><polygon class="q" points="10403.39 392.5 10407.23 392.5 10362.97 383.12 10359.12 383.12 10403.39 392.5"/><polygon class="q" points="10363.35 392.5 10367.2 392.5 10322.94 383.12 10319.1 383.12 10363.35 392.5"/><polygon class="q" points="10323.32 392.5 10327.17 392.5 10282.92 383.12 10279.08 383.12 10323.32 392.5"/><polygon class="q" points="10283.29 392.5 10287.13 392.5 10242.9 383.12 10239.06 383.12 10283.29 392.5"/><polygon class="q" points="10243.26 392.5 10247.1 392.5 10202.88 383.12 10199.03 383.12 10243.26 392.5"/><polygon class="q" points="10203.23 392.5 10207.07 392.5 10162.85 383.12 10159.01 383.12 10203.23 392.5"/><polygon class="q" points="10163.19 392.5 10167.04 392.5 10122.83 383.12 10118.99 383.12 10163.19 392.5"/><polygon class="q" points="10123.16 392.5 10127.01 392.5 10082.81 383.12 10078.96 383.12 10123.16 392.5"/><polygon class="q" points="10083.13 392.5 10086.98 392.5 10042.78 383.12 10038.94 383.12 10083.13 392.5"/><polygon class="q" points="10043.1 392.5 10046.94 392.5 10002.76 383.12 9998.92 383.12 10043.1 392.5"/><polygon class="q" points="10003.07 392.5 10006.91 392.5 9962.74 383.12 9958.89 383.12 10003.07 392.5"/><polygon class="q" points="9963.04 392.5 9966.88 392.5 9922.72 383.12 9918.87 383.12 9963.04 392.5"/><polygon class="q" points="9923 392.5 9926.85 392.5 9882.69 383.12 9878.85 383.12 9923 392.5"/><polygon class="q" points="9882.97 392.5 9886.82 392.5 9842.67 383.12 9838.83 383.12 9882.97 392.5"/><polygon class="q" points="9842.94 392.5 9846.78 392.5 9802.65 383.12 9798.8 383.12 9842.94 392.5"/><polygon class="q" points="9802.91 392.5 9806.75 392.5 9762.62 383.12 9758.78 383.12 9802.91 392.5"/><polygon class="q" points="9762.88 392.5 9766.72 392.5 9722.6 383.12 9718.76 383.12 9762.88 392.5"/><polygon class="q" points="9722.84 392.5 9726.69 392.5 9682.58 383.12 9678.73 383.12 9722.84 392.5"/><polygon class="q" points="9682.81 392.5 9686.66 392.5 9642.55 383.12 9638.71 383.12 9682.81 392.5"/><polygon class="q" points="9642.78 392.5 9646.63 392.5 9602.53 383.12 9598.69 383.12 9642.78 392.5"/><polygon class="q" points="9602.75 392.5 9606.59 392.5 9562.51 383.12 9558.66 383.12 9602.75 392.5"/><polygon class="q" points="9562.72 392.5 9566.56 392.5 9522.49 383.12 9518.64 383.12 9562.72 392.5"/><polygon class="q" points="9522.69 392.5 9526.53 392.5 9482.46 383.12 9478.62 383.12 9522.69 392.5"/><polygon class="q" points="9482.66 392.5 9486.5 392.5 9442.44 383.12 9438.59 383.12 9482.66 392.5"/><polygon class="q" points="9442.62 392.5 9446.47 392.5 9402.42 383.12 9398.57 383.12 9442.62 392.5"/><polygon class="q" points="9402.59 392.5 9406.44 392.5 9362.39 383.12 9358.55 383.12 9402.59 392.5"/><polygon class="q" points="9362.56 392.5 9366.4 392.5 9322.37 383.12 9318.52 383.12 9362.56 392.5"/><polygon class="q" points="9322.53 392.5 9326.37 392.5 9282.35 383.12 9278.5 383.12 9322.53 392.5"/><polygon class="q" points="9282.5 392.5 9286.34 392.5 9242.32 383.12 9238.48 383.12 9282.5 392.5"/><polygon class="q" points="9242.47 392.5 9246.31 392.5 9202.3 383.12 9198.46 383.12 9242.47 392.5"/><polygon class="q" points="9202.43 392.5 9206.28 392.5 9162.28 383.12 9158.43 383.12 9202.43 392.5"/><polygon class="q" points="9162.4 392.5 9166.25 392.5 9122.25 383.12 9118.41 383.12 9162.4 392.5"/><polygon class="q" points="9122.37 392.5 9126.21 392.5 9082.23 383.12 9078.39 383.12 9122.37 392.5"/><polygon class="q" points="9082.34 392.5 9086.18 392.5 9042.21 383.12 9038.36 383.12 9082.34 392.5"/><polygon class="q" points="9042.31 392.5 9046.15 392.5 9002.18 383.12 8998.34 383.12 9042.31 392.5"/><polygon class="q" points="9002.27 392.5 9006.12 392.5 8962.16 383.12 8958.32 383.12 9002.27 392.5"/><polygon class="q" points="8962.24 392.5 8966.09 392.5 8922.14 383.12 8918.3 383.12 8962.24 392.5"/><polygon class="q" points="8922.21 392.5 8926.06 392.5 8882.12 383.12 8878.27 383.12 8922.21 392.5"/><polygon class="q" points="8882.18 392.5 8886.02 392.5 8842.09 383.12 8838.25 383.12 8882.18 392.5"/><polygon class="q" points="8842.15 392.5 8845.99 392.5 8802.07 383.12 8798.23 383.12 8842.15 392.5"/><polygon class="q" points="8802.12 392.5 8805.96 392.5 8762.05 383.12 8758.2 383.12 8802.12 392.5"/><polygon class="q" points="8762.08 392.5 8765.93 392.5 8722.02 383.12 8718.18 383.12 8762.08 392.5"/><polygon class="q" points="8722.05 392.5 8725.9 392.5 8682 383.12 8678.16 383.12 8722.05 392.5"/><polygon class="q" points="8682.02 392.5 8685.86 392.5 8641.98 383.12 8638.13 383.12 8682.02 392.5"/><polygon class="q" points="8641.99 392.5 8645.83 392.5 8601.95 383.12 8598.11 383.12 8641.99 392.5"/><polygon class="q" points="8601.96 392.5 8605.8 392.5 8561.93 383.12 8558.09 383.12 8601.96 392.5"/><polygon class="q" points="8561.93 392.5 8565.77 392.5 8521.91 383.12 8518.07 383.12 8561.93 392.5"/><polygon class="q" points="8521.89 392.5 8525.74 392.5 8481.89 383.12 8478.04 383.12 8521.89 392.5"/><polygon class="q" points="8481.86 392.5 8485.71 392.5 8441.86 383.12 8438.02 383.12 8481.86 392.5"/><polygon class="q" points="8441.83 392.5 8445.67 392.5 8401.84 383.12 8398 383.12 8441.83 392.5"/><polygon class="q" points="8401.8 392.5 8405.64 392.5 8361.82 383.12 8357.97 383.12 8401.8 392.5"/><polygon class="q" points="8361.77 392.5 8365.61 392.5 8321.79 383.12 8317.95 383.12 8361.77 392.5"/><polygon class="q" points="8321.74 392.5 8325.58 392.5 8281.77 383.12 8277.93 383.12 8321.74 392.5"/><polygon class="q" points="8281.7 392.5 8285.55 392.5 8241.75 383.12 8237.9 383.12 8281.7 392.5"/><polygon class="q" points="8241.67 392.5 8245.52 392.5 8201.73 383.12 8197.88 383.12 8241.67 392.5"/><polygon class="q" points="8201.64 392.5 8205.48 392.5 8161.7 383.12 8157.86 383.12 8201.64 392.5"/><polygon class="q" points="8161.61 392.5 8165.45 392.5 8121.68 383.12 8117.83 383.12 8161.61 392.5"/><polygon class="q" points="8121.58 392.5 8125.42 392.5 8081.66 383.12 8077.81 383.12 8121.58 392.5"/><polygon class="q" points="8081.55 392.5 8085.39 392.5 8041.63 383.12 8037.79 383.12 8081.55 392.5"/><polygon class="q" points="8041.51 392.5 8045.36 392.5 8001.61 383.12 7997.77 383.12 8041.51 392.5"/><polygon class="q" points="8001.48 392.5 8005.33 392.5 7961.59 383.12 7957.74 383.12 8001.48 392.5"/><polygon class="q" points="7961.45 392.5 7965.29 392.5 7921.56 383.12 7917.72 383.12 7961.45 392.5"/><polygon class="q" points="7921.42 392.5 7925.26 392.5 7881.54 383.12 7877.7 383.12 7921.42 392.5"/><polygon class="q" points="7881.39 392.5 7885.23 392.5 7841.52 383.12 7837.67 383.12 7881.39 392.5"/><polygon class="q" points="7841.35 392.5 7845.2 392.5 7801.49 383.12 7797.65 383.12 7841.35 392.5"/><polygon class="q" points="7801.32 392.5 7805.17 392.5 7761.47 383.12 7757.63 383.12 7801.32 392.5"/><polygon class="q" points="7761.29 392.5 7765.14 392.5 7721.45 383.12 7717.6 383.12 7761.29 392.5"/><polygon class="q" points="7721.26 392.5 7725.1 392.5 7681.43 383.12 7677.58 383.12 7721.26 392.5"/><polygon class="q" points="7681.23 392.5 7685.07 392.5 7641.4 383.12 7637.56 383.12 7681.23 392.5"/><polygon class="q" points="7641.2 392.5 7645.04 392.5 7601.38 383.12 7597.53 383.12 7641.2 392.5"/><polygon class="q" points="7601.16 392.5 7605.01 392.5 7561.36 383.12 7557.51 383.12 7601.16 392.5"/><polygon class="q" points="7561.13 392.5 7564.98 392.5 7521.33 383.12 7517.49 383.12 7561.13 392.5"/><polygon class="q" points="7521.1 392.5 7524.94 392.5 7481.31 383.12 7477.47 383.12 7521.1 392.5"/><polygon class="q" points="7481.07 392.5 7484.91 392.5 7441.29 383.12 7437.44 383.12 7481.07 392.5"/><polygon class="q" points="7441.04 392.5 7444.88 392.5 7401.26 383.12 7397.42 383.12 7441.04 392.5"/><polygon class="q" points="7401.01 392.5 7404.85 392.5 7361.24 383.12 7357.4 383.12 7401.01 392.5"/><polygon class="q" points="7360.97 392.5 7364.82 392.5 7321.22 383.12 7317.37 383.12 7360.97 392.5"/><polygon class="q" points="7320.94 392.5 7324.79 392.5 7281.19 383.12 7277.35 383.12 7320.94 392.5"/><polygon class="q" points="7280.91 392.5 7284.76 392.5 7241.17 383.12 7237.33 383.12 7280.91 392.5"/><polygon class="q" points="7240.88 392.5 7244.72 392.5 7201.15 383.12 7197.31 383.12 7240.88 392.5"/><polygon class="q" points="7200.85 392.5 7204.69 392.5 7161.13 383.12 7157.28 383.12 7200.85 392.5"/><polygon class="q" points="7160.81 392.5 7164.66 392.5 7121.1 383.12 7117.26 383.12 7160.81 392.5"/><polygon class="q" points="7120.78 392.5 7124.63 392.5 7081.08 383.12 7077.24 383.12 7120.78 392.5"/><polygon class="q" points="7080.75 392.5 7084.6 392.5 7041.06 383.12 7037.21 383.12 7080.75 392.5"/><polygon class="q" points="7040.72 392.5 7044.56 392.5 7001.03 383.12 6997.19 383.12 7040.72 392.5"/><polygon class="q" points="7000.69 392.5 7004.53 392.5 6961.01 383.12 6957.17 383.12 7000.69 392.5"/><polygon class="q" points="6960.66 392.5 6964.5 392.5 6920.99 383.12 6917.14 383.12 6960.66 392.5"/><polygon class="q" points="6920.63 392.5 6924.47 392.5 6880.97 383.12 6877.12 383.12 6920.63 392.5"/><polygon class="q" points="6880.59 392.5 6884.44 392.5 6840.94 383.12 6837.1 383.12 6880.59 392.5"/><polygon class="q" points="6840.56 392.5 6844.41 392.5 6800.92 383.12 6797.07 383.12 6840.56 392.5"/><polygon class="q" points="6800.53 392.5 6804.37 392.5 6760.9 383.12 6757.05 383.12 6800.53 392.5"/><polygon class="q" points="6760.5 392.5 6764.34 392.5 6720.87 383.12 6717.03 383.12 6760.5 392.5"/><polygon class="q" points="6720.47 392.5 6724.31 392.5 6680.85 383.12 6677.01 383.12 6720.47 392.5"/><polygon class="q" points="6680.44 392.5 6684.28 392.5 6640.83 383.12 6636.98 383.12 6680.44 392.5"/><polygon class="q" points="6640.4 392.5 6644.25 392.5 6600.8 383.12 6596.96 383.12 6640.4 392.5"/><polygon class="q" points="6600.37 392.5 6604.22 392.5 6560.78 383.12 6556.94 383.12 6600.37 392.5"/><polygon class="q" points="6560.34 392.5 6564.18 392.5 6520.76 383.12 6516.91 383.12 6560.34 392.5"/><polygon class="q" points="6520.31 392.5 6524.15 392.5 6480.73 383.12 6476.89 383.12 6520.31 392.5"/><polygon class="q" points="6480.28 392.5 6484.12 392.5 6440.71 383.12 6436.87 383.12 6480.28 392.5"/><polygon class="q" points="6440.24 392.5 6444.09 392.5 6400.69 383.12 6396.84 383.12 6440.24 392.5"/><polygon class="q" points="6400.21 392.5 6404.06 392.5 6360.66 383.12 6356.82 383.12 6400.21 392.5"/><polygon class="q" points="6360.18 392.5 6364.02 392.5 6320.64 383.12 6316.8 383.12 6360.18 392.5"/><polygon class="q" points="6320.15 392.5 6323.99 392.5 6280.62 383.12 6276.77 383.12 6320.15 392.5"/><polygon class="q" points="6280.12 392.5 6283.96 392.5 6240.6 383.12 6236.75 383.12 6280.12 392.5"/><polygon class="q" points="6240.09 392.5 6243.93 392.5 6200.57 383.12 6196.73 383.12 6240.09 392.5"/><polygon class="q" points="6200.05 392.5 6203.9 392.5 6160.55 383.12 6156.71 383.12 6200.05 392.5"/><polygon class="q" points="6160.02 392.5 6163.87 392.5 6120.53 383.12 6116.68 383.12 6160.02 392.5"/><polygon class="q" points="6119.99 392.5 6123.84 392.5 6080.5 383.12 6076.66 383.12 6119.99 392.5"/><polygon class="q" points="6079.96 392.5 6083.8 392.5 6040.48 383.12 6036.64 383.12 6079.96 392.5"/><polygon class="q" points="6039.93 392.5 6043.77 392.5 6000.46 383.12 5996.61 383.12 6039.93 392.5"/><polygon class="q" points="5999.9 392.5 6003.74 392.5 5960.44 383.12 5956.59 383.12 5999.9 392.5"/><polygon class="q" points="5959.86 392.5 5963.71 392.5 5920.41 383.12 5916.57 383.12 5959.86 392.5"/><polygon class="q" points="5919.83 392.5 5923.68 392.5 5880.39 383.12 5876.55 383.12 5919.83 392.5"/><polygon class="q" points="5879.8 392.5 5883.64 392.5 5840.37 383.12 5836.52 383.12 5879.8 392.5"/><polygon class="q" points="5839.77 392.5 5843.61 392.5 5800.34 383.12 5796.5 383.12 5839.77 392.5"/><polygon class="q" points="5799.74 392.5 5803.58 392.5 5760.32 383.12 5756.48 383.12 5799.74 392.5"/><polygon class="q" points="5759.7 392.5 5763.55 392.5 5720.3 383.12 5716.45 383.12 5759.7 392.5"/><polygon class="q" points="5719.67 392.5 5723.52 392.5 5680.27 383.12 5676.43 383.12 5719.67 392.5"/><polygon class="q" points="5679.64 392.5 5683.49 392.5 5640.25 383.12 5636.41 383.12 5679.64 392.5"/><polygon class="q" points="5639.61 392.5 5643.45 392.5 5600.23 383.12 5596.38 383.12 5639.61 392.5"/><polygon class="q" points="5599.58 392.5 5603.42 392.5 5560.2 383.12 5556.36 383.12 5599.58 392.5"/><polygon class="q" points="5559.55 392.5 5563.39 392.5 5520.18 383.12 5516.34 383.12 5559.55 392.5"/><polygon class="q" points="5519.52 392.5 5523.36 392.5 5480.16 383.12 5476.31 383.12 5519.52 392.5"/><polygon class="q" points="5479.48 392.5 5483.33 392.5 5440.14 383.12 5436.29 383.12 5479.48 392.5"/><polygon class="q" points="5439.45 392.5 5443.3 392.5 5400.11 383.12 5396.27 383.12 5439.45 392.5"/><polygon class="q" points="5399.42 392.5 5403.26 392.5 5360.09 383.12 5356.24 383.12 5399.42 392.5"/><polygon class="q" points="5359.39 392.5 5363.23 392.5 5320.07 383.12 5316.22 383.12 5359.39 392.5"/><polygon class="q" points="5319.36 392.5 5323.2 392.5 5280.04 383.12 5276.2 383.12 5319.36 392.5"/><polygon class="q" points="5279.32 392.5 5283.17 392.5 5240.02 383.12 5236.18 383.12 5279.32 392.5"/><polygon class="q" points="5239.29 392.5 5243.14 392.5 5200 383.12 5196.15 383.12 5239.29 392.5"/><polygon class="q" points="5199.26 392.5 5203.1 392.5 5159.97 383.12 5156.13 383.12 5199.26 392.5"/><polygon class="q" points="5159.23 392.5 5163.07 392.5 5119.95 383.12 5116.11 383.12 5159.23 392.5"/><polygon class="q" points="5119.2 392.5 5123.04 392.5 5079.93 383.12 5076.08 383.12 5119.2 392.5"/><polygon class="q" points="5079.17 392.5 5083.01 392.5 5039.9 383.12 5036.06 383.12 5079.17 392.5"/><polygon class="q" points="5039.13 392.5 5042.98 392.5 4999.88 383.12 4996.04 383.12 5039.13 392.5"/><polygon class="q" points="4999.1 392.5 5002.95 392.5 4959.86 383.12 4956.02 383.12 4999.1 392.5"/><polygon class="q" points="4959.07 392.5 4962.91 392.5 4919.84 383.12 4915.99 383.12 4959.07 392.5"/><polygon class="q" points="4919.04 392.5 4922.88 392.5 4879.81 383.12 4875.97 383.12 4919.04 392.5"/><polygon class="q" points="4879.01 392.5 4882.85 392.5 4839.79 383.12 4835.95 383.12 4879.01 392.5"/><polygon class="q" points="4838.98 392.5 4842.82 392.5 4799.77 383.12 4795.92 383.12 4838.98 392.5"/><polygon class="q" points="4798.94 392.5 4802.79 392.5 4759.74 383.12 4755.9 383.12 4798.94 392.5"/><polygon class="q" points="4758.91 392.5 4762.76 392.5 4719.72 383.12 4715.88 383.12 4758.91 392.5"/><polygon class="q" points="4718.88 392.5 4722.72 392.5 4679.7 383.12 4675.85 383.12 4718.88 392.5"/><polygon class="q" points="4678.85 392.5 4682.69 392.5 4639.68 383.12 4635.83 383.12 4678.85 392.5"/><polygon class="q" points="4638.82 392.5 4642.66 392.5 4599.65 383.12 4595.81 383.12 4638.82 392.5"/><polygon class="q" points="4598.78 392.5 4602.63 392.5 4559.63 383.12 4555.78 383.12 4598.78 392.5"/><polygon class="q" points="4558.75 392.5 4562.6 392.5 4519.61 383.12 4515.76 383.12 4558.75 392.5"/><polygon class="q" points="4518.72 392.5 4522.57 392.5 4479.58 383.12 4475.74 383.12 4518.72 392.5"/><polygon class="q" points="4478.69 392.5 4482.53 392.5 4439.56 383.12 4435.72 383.12 4478.69 392.5"/><polygon class="q" points="4438.66 392.5 4442.5 392.5 4399.54 383.12 4395.69 383.12 4438.66 392.5"/><polygon class="q" points="4398.63 392.5 4402.47 392.5 4359.51 383.12 4355.67 383.12 4398.63 392.5"/><polygon class="q" points="4358.6 392.5 4362.44 392.5 4319.49 383.12 4315.65 383.12 4358.6 392.5"/><polygon class="q" points="4318.56 392.5 4322.41 392.5 4279.47 383.12 4275.62 383.12 4318.56 392.5"/><polygon class="q" points="4278.53 392.5 4282.38 392.5 4239.44 383.12 4235.6 383.12 4278.53 392.5"/><polygon class="q" points="4238.5 392.5 4242.34 392.5 4199.42 383.12 4195.58 383.12 4238.5 392.5"/><polygon class="q" points="4198.47 392.5 4202.31 392.5 4159.4 383.12 4155.55 383.12 4198.47 392.5"/><polygon class="q" points="4158.44 392.5 4162.28 392.5 4119.38 383.12 4115.53 383.12 4158.44 392.5"/><polygon class="q" points="4118.4 392.5 4122.25 392.5 4079.35 383.12 4075.51 383.12 4118.4 392.5"/><polygon class="q" points="4078.37 392.5 4082.22 392.5 4039.33 383.12 4035.49 383.12 4078.37 392.5"/><polygon class="q" points="4038.34 392.5 4042.18 392.5 3999.31 383.12 3995.46 383.12 4038.34 392.5"/><polygon class="q" points="3998.31 392.5 4002.15 392.5 3959.28 383.12 3955.44 383.12 3998.31 392.5"/><polygon class="q" points="3958.28 392.5 3962.12 392.5 3919.26 383.12 3915.42 383.12 3958.28 392.5"/><polygon class="q" points="3918.25 392.5 3922.09 392.5 3879.24 383.12 3875.39 383.12 3918.25 392.5"/><polygon class="q" points="3878.21 392.5 3882.06 392.5 3839.21 383.12 3835.37 383.12 3878.21 392.5"/><polygon class="q" points="3838.18 392.5 3842.03 392.5 3799.19 383.12 3795.35 383.12 3838.18 392.5"/><polygon class="q" points="3798.15 392.5 3801.99 392.5 3759.17 383.12 3755.32 383.12 3798.15 392.5"/><polygon class="q" points="3758.12 392.5 3761.96 392.5 3719.14 383.12 3715.3 383.12 3758.12 392.5"/><polygon class="q" points="3718.09 392.5 3721.93 392.5 3679.12 383.12 3675.28 383.12 3718.09 392.5"/><polygon class="q" points="3678.05 392.5 3681.9 392.5 3639.1 383.12 3635.26 383.12 3678.05 392.5"/><polygon class="q" points="3638.02 392.5 3641.87 392.5 3599.08 383.12 3595.23 383.12 3638.02 392.5"/><polygon class="q" points="3597.99 392.5 3601.84 392.5 3559.05 383.12 3555.21 383.12 3597.99 392.5"/><polygon class="q" points="3557.96 392.5 3561.8 392.5 3519.03 383.12 3515.19 383.12 3557.96 392.5"/><polygon class="q" points="3517.93 392.5 3521.77 392.5 3479.01 383.12 3475.16 383.12 3517.93 392.5"/><polygon class="q" points="3477.9 392.5 3481.74 392.5 3438.98 383.12 3435.14 383.12 3477.9 392.5"/><polygon class="q" points="3437.86 392.5 3441.71 392.5 3398.96 383.12 3395.12 383.12 3437.86 392.5"/><polygon class="q" points="3397.83 392.5 3401.68 392.5 3358.94 383.12 3355.09 383.12 3397.83 392.5"/><polygon class="q" points="3357.8 392.5 3361.65 392.5 3318.91 383.12 3315.07 383.12 3357.8 392.5"/><polygon class="q" points="3317.77 392.5 3321.61 392.5 3278.89 383.12 3275.05 383.12 3317.77 392.5"/><polygon class="q" points="3277.74 392.5 3281.58 392.5 3238.87 383.12 3235.03 383.12 3277.74 392.5"/><polygon class="q" points="3237.71 392.5 3241.55 392.5 3198.85 383.12 3195 383.12 3237.71 392.5"/><polygon class="q" points="3197.68 392.5 3201.52 392.5 3158.82 383.12 3154.98 383.12 3197.68 392.5"/><polygon class="q" points="3157.64 392.5 3161.49 392.5 3118.8 383.12 3114.96 383.12 3157.64 392.5"/><polygon class="q" points="3117.61 392.5 3121.45 392.5 3078.78 383.12 3074.93 383.12 3117.61 392.5"/><polygon class="q" points="3077.58 392.5 3081.42 392.5 3038.75 383.12 3034.91 383.12 3077.58 392.5"/><polygon class="q" points="3037.55 392.5 3041.39 392.5 2998.73 383.12 2994.89 383.12 3037.55 392.5"/><polygon class="q" points="2997.52 392.5 3001.36 392.5 2958.71 383.12 2954.86 383.12 2997.52 392.5"/><polygon class="q" points="2957.48 392.5 2961.33 392.5 2918.68 383.12 2914.84 383.12 2957.48 392.5"/><polygon class="q" points="2917.45 392.5 2921.3 392.5 2878.66 383.12 2874.82 383.12 2917.45 392.5"/><polygon class="q" points="2877.42 392.5 2881.26 392.5 2838.64 383.12 2834.79 383.12 2877.42 392.5"/><polygon class="q" points="2837.39 392.5 2841.23 392.5 2798.61 383.12 2794.77 383.12 2837.39 392.5"/><polygon class="q" points="2797.36 392.5 2801.2 392.5 2758.59 383.12 2754.75 383.12 2797.36 392.5"/><polygon class="q" points="2757.33 392.5 2761.17 392.5 2718.57 383.12 2714.72 383.12 2757.33 392.5"/><polygon class="q" points="2717.29 392.5 2721.14 392.5 2678.55 383.12 2674.7 383.12 2717.29 392.5"/><polygon class="q" points="2677.26 392.5 2681.11 392.5 2638.52 383.12 2634.68 383.12 2677.26 392.5"/><polygon class="q" points="2637.23 392.5 2641.07 392.5 2598.5 383.12 2594.66 383.12 2637.23 392.5"/><polygon class="q" points="2597.2 392.5 2601.04 392.5 2558.48 383.12 2554.63 383.12 2597.2 392.5"/><polygon class="q" points="2557.17 392.5 2561.01 392.5 2518.45 383.12 2514.61 383.12 2557.17 392.5"/><polygon class="q" points="2517.14 392.5 2520.98 392.5 2478.43 383.12 2474.59 383.12 2517.14 392.5"/><polygon class="q" points="2477.1 392.5 2480.95 392.5 2438.41 383.12 2434.56 383.12 2477.1 392.5"/><polygon class="q" points="2437.07 392.5 2440.92 392.5 2398.39 383.12 2394.54 383.12 2437.07 392.5"/><polygon class="q" points="2397.04 392.5 2400.88 392.5 2358.36 383.12 2354.52 383.12 2397.04 392.5"/><polygon class="q" points="2357.01 392.5 2360.85 392.5 2318.34 383.12 2314.49 383.12 2357.01 392.5"/><polygon class="q" points="2316.98 392.5 2320.82 392.5 2278.32 383.12 2274.47 383.12 2316.98 392.5"/><polygon class="q" points="2276.95 392.5 2280.79 392.5 2238.29 383.12 2234.45 383.12 2276.95 392.5"/><polygon class="q" points="2236.91 392.5 2240.76 392.5 2198.27 383.12 2194.43 383.12 2236.91 392.5"/><polygon class="q" points="2196.88 392.5 2200.73 392.5 2158.25 383.12 2154.4 383.12 2196.88 392.5"/><polygon class="q" points="2156.85 392.5 2160.69 392.5 2118.22 383.12 2114.38 383.12 2156.85 392.5"/><polygon class="q" points="2116.82 392.5 2120.66 392.5 2078.2 383.12 2074.36 383.12 2116.82 392.5"/><polygon class="q" points="2076.79 392.5 2080.63 392.5 2038.18 383.12 2034.33 383.12 2076.79 392.5"/><polygon class="q" points="2036.76 392.5 2040.6 392.5 1998.15 383.12 1994.31 383.12 2036.76 392.5"/><polygon class="q" points="1996.72 392.5 2000.57 392.5 1958.13 383.12 1954.29 383.12 1996.72 392.5"/><polygon class="q" points="1956.69 392.5 1960.54 392.5 1918.11 383.12 1914.27 383.12 1956.69 392.5"/><polygon class="q" points="1916.66 392.5 1920.5 392.5 1878.09 383.12 1874.24 383.12 1916.66 392.5"/><polygon class="q" points="1876.63 392.5 1880.47 392.5 1838.06 383.12 1834.22 383.12 1876.63 392.5"/><polygon class="q" points="1836.6 392.5 1840.44 392.5 1798.04 383.12 1794.2 383.12 1836.6 392.5"/><polygon class="q" points="1796.56 392.5 1800.41 392.5 1758.02 383.12 1754.17 383.12 1796.56 392.5"/><polygon class="q" points="1756.53 392.5 1760.38 392.5 1717.99 383.12 1714.15 383.12 1756.53 392.5"/><polygon class="q" points="1716.5 392.5 1720.35 392.5 1677.97 383.12 1674.13 383.12 1716.5 392.5"/><polygon class="q" points="1676.47 392.5 1680.31 392.5 1637.95 383.12 1634.1 383.12 1676.47 392.5"/><polygon class="q" points="1636.44 392.5 1640.28 392.5 1597.92 383.12 1594.08 383.12 1636.44 392.5"/><polygon class="q" points="1596.41 392.5 1600.25 392.5 1557.9 383.12 1554.06 383.12 1596.41 392.5"/><polygon class="q" points="1556.37 392.5 1560.22 392.5 1517.88 383.12 1514.03 383.12 1556.37 392.5"/><polygon class="q" points="1516.34 392.5 1520.19 392.5 1477.86 383.12 1474.01 383.12 1516.34 392.5"/><polygon class="q" points="1476.31 392.5 1480.15 392.5 1437.83 383.12 1433.99 383.12 1476.31 392.5"/><polygon class="q" points="1436.28 392.5 1440.12 392.5 1397.81 383.12 1393.96 383.12 1436.28 392.5"/><polygon class="q" points="1396.25 392.5 1400.09 392.5 1357.79 383.12 1353.94 383.12 1396.25 392.5"/><polygon class="q" points="1356.21 392.5 1360.06 392.5 1317.76 383.12 1313.92 383.12 1356.21 392.5"/><polygon class="q" points="1316.18 392.5 1320.03 392.5 1277.74 383.12 1273.9 383.12 1316.18 392.5"/><polygon class="q" points="1276.15 392.5 1280 392.5 1237.72 383.12 1233.87 383.12 1276.15 392.5"/><polygon class="q" points="1236.12 392.5 1239.96 392.5 1197.69 383.12 1193.85 383.12 1236.12 392.5"/><polygon class="q" points="1196.09 392.5 1199.93 392.5 1157.67 383.12 1153.83 383.12 1196.09 392.5"/><polygon class="q" points="1156.06 392.5 1159.9 392.5 1117.65 383.12 1113.8 383.12 1156.06 392.5"/><polygon class="q" points="1116.03 392.5 1119.87 392.5 1077.63 383.12 1073.78 383.12 1116.03 392.5"/><polygon class="q" points="1075.99 392.5 1079.84 392.5 1037.6 383.12 1033.76 383.12 1075.99 392.5"/><polygon class="q" points="1035.96 392.5 1039.81 392.5 997.58 383.12 993.74 383.12 1035.96 392.5"/><polygon class="q" points="995.93 392.5 999.77 392.5 957.56 383.12 953.71 383.12 995.93 392.5"/><polygon class="q" points="955.9 392.5 959.74 392.5 917.53 383.12 913.69 383.12 955.9 392.5"/><polygon class="q" points="915.87 392.5 919.71 392.5 877.51 383.12 873.67 383.12 915.87 392.5"/><polygon class="q" points="875.84 392.5 879.68 392.5 837.49 383.12 833.64 383.12 875.84 392.5"/><polygon class="q" points="835.8 392.5 839.65 392.5 797.46 383.12 793.62 383.12 835.8 392.5"/><polygon class="q" points="795.77 392.5 799.62 392.5 757.44 383.12 753.6 383.12 795.77 392.5"/><polygon class="q" points="755.74 392.5 759.58 392.5 717.42 383.12 713.57 383.12 755.74 392.5"/><polygon class="q" points="715.71 392.5 719.55 392.5 677.39 383.12 673.55 383.12 715.71 392.5"/><polygon class="q" points="675.68 392.5 679.52 392.5 637.37 383.12 633.53 383.12 675.68 392.5"/><polygon class="q" points="635.64 392.5 639.49 392.5 597.35 383.12 593.5 383.12 635.64 392.5"/><polygon class="q" points="595.61 392.5 599.46 392.5 557.33 383.12 553.48 383.12 595.61 392.5"/><polygon class="q" points="555.58 392.5 559.42 392.5 517.3 383.12 513.46 383.12 555.58 392.5"/><polygon class="q" points="515.55 392.5 519.39 392.5 477.28 383.12 473.44 383.12 515.55 392.5"/><polygon class="q" points="475.52 392.5 479.36 392.5 437.26 383.12 433.41 383.12 475.52 392.5"/><polygon class="q" points="435.49 392.5 439.33 392.5 397.23 383.12 393.39 383.12 435.49 392.5"/></svg>