<?xml version="1.0" encoding="utf-8"?>
<!-- Generator: Adobe Illustrator 21.0.0, SVG Export Plug-In . SVG Version: 6.00 Build 0)  -->
<svg version="1.1" id="Calque_1" xmlns="http://www.w3.org/2000/svg" xmlns:xlink="http://www.w3.org/1999/xlink" x="0px" y="0px"
	 viewBox="0 0 472 467" style="enable-background:new 0 0 472 467;" xml:space="preserve">
<style type="text/css">
	.st0{fill:#F4F4F4;}
	.st1{fill:#FFFFFF;}
</style>
<title>montagne_front</title>
<desc>Created with Sketch.</desc>
<g id="Page-1">
	<g id="montagne_front">
		<path id="Shape_1_" class="st0" d="M0.5,322.5C2.6,322.5,238.6,126,363.8,1h107.4l0.2,465.4l-54-29.4l-206.6-26.7
			c0,0,71.9-130.2,27.9-144.5c-73-23.9-103.3,95.1-103.3,95.1L0.5,322.5z M363.8,1C238.6,126,2.6,322.5,0.5,322.6l134.9,38.3
			c0,0,18.5-72.7,61.4-93.1l26.9-34.1l31.3-63.9l84.4-50c0,0,58.6-73.6,94.5-118.8H363.8z"/>
		<path id="Shape" class="st1" d="M201.1,410c12.8-4.8,3.9-2.4,20.3-4.5c16.5-2.1,4.5-5.3,16.2-4.4c11.8,0.9,19.7,10.9,26,10.4
			c6.3-0.5,13.7,8.1,19.5,8.9c5.8,0.7,11-8.7,25.7-9.6c14.7-1,33.9,8.1,34.9,11.1c1,3,1.6,8.6-2.5,9.1c-4.1,0.5-12.2-0.2-20.5-1.2
			c-8.3-1.1-20.2-2.9-27.5-2.7c-7.3,0.1-11.2,0.3-15.2-1.1c-4.1-1.4-12.8-3.9-12.8-3.9s0.9-0.3-10.8-1.6
			c-11.7-1.4-21.9-1.7-21.9-1.7l-4.8,0.1c-5.1,0.1-10.1-1.1-14.5-3.5h-0.1C211.3,414.2,201.1,410,201.1,410z"/>
	</g>
</g>
</svg>
