<svg xmlns="http://www.w3.org/2000/svg" viewBox="0 0 16101 75.25"><defs><style>.a{fill:#084439;}</style></defs><title>plan1</title><path class="a" d="M16101.32,465.6c-24,.05-46.93.11-69.1.19a25.38,25.38,0,0,0-49.75-6.16l-1,0a18.09,18.09,0,0,0-13.87,6.46c-93.08.48-151,1-159.91.41-24.13-1.58-34.05-.59-34.05-.59a17.48,17.48,0,0,0-21.94-1.45,17.21,17.21,0,0,0-15.19-8.55c-7.1,0-13.2,3.58-15.93,10.58H15360a20.67,20.67,0,0,0-19.84-16.07,20.39,20.39,0,0,0-12.07,4.11,18.58,18.58,0,0,0-16.74,12h-116.66a23.74,23.74,0,0,0-23.51-23.78,23.33,23.33,0,0,0-18,8.26,20.52,20.52,0,0,0-2.1.11,19.66,19.66,0,0,0-19.23,15.41h-169.36a7.67,7.67,0,0,0-6.29-2.51,10.15,10.15,0,0,0-2.12.08,15.72,15.72,0,0,0-13.81-7.78,15.91,15.91,0,0,0-14.78,10.21h-19.12v1H14844a20.67,20.67,0,0,0-19.84-16.07,20.39,20.39,0,0,0-12.07,4.11,18.58,18.58,0,0,0-16.74,12h-116.66a23.74,23.74,0,0,0-23.51-23.78,23.33,23.33,0,0,0-18,8.26,20.53,20.53,0,0,0-2.1.11,19.66,19.66,0,0,0-19.23,15.41h-169.36a7.67,7.67,0,0,0-6.29-2.51,10.15,10.15,0,0,0-2.12.08,15.72,15.72,0,0,0-13.81-7.78,15.91,15.91,0,0,0-14.78,10.21h-19.12V465.6c-24,.05-46.93.11-69.1.19a25.38,25.38,0,0,0-49.75-6.16l-1,0a18.09,18.09,0,0,0-13.87,6.46c-93.08.48-158,1.26-164.07,2.51-23.69,4.87-29.9-2.69-29.9-2.69a17.48,17.48,0,0,0-21.94-1.45,17.21,17.21,0,0,0-15.19-8.55c-7.1,0-13.2,3.58-15.93,10.58H13649a20.67,20.67,0,0,0-19.84-16.07,20.39,20.39,0,0,0-12.07,4.11,18.58,18.58,0,0,0-16.74,12h-116.66a23.74,23.74,0,0,0-23.51-23.78,23.33,23.33,0,0,0-18,8.26,20.53,20.53,0,0,0-2.1.11,19.66,19.66,0,0,0-19.23,15.41h-169.36a7.67,7.67,0,0,0-6.29-2.51,10.15,10.15,0,0,0-2.12.08,15.72,15.72,0,0,0-13.81-7.78,15.91,15.91,0,0,0-14.78,10.21h-19.12v-.87c-24,.05-46.93.11-69.1.19a25.38,25.38,0,0,0-49.75-6.16l-1,0a18.09,18.09,0,0,0-13.87,6.46c-93.08.48-158,1.26-164.07,2.51-23.69,4.87-29.9-2.69-29.9-2.69a17.48,17.48,0,0,0-21.94-1.45,17.21,17.21,0,0,0-15.19-8.55c-7.1,0-13.2,3.58-15.93,10.58H12454a20.67,20.67,0,0,0-19.84-16.07,20.39,20.39,0,0,0-12.07,4.11,18.58,18.58,0,0,0-16.74,12h-116.66a23.74,23.74,0,0,0-23.51-23.78,23.33,23.33,0,0,0-18,8.26,20.53,20.53,0,0,0-2.1.11,19.66,19.66,0,0,0-19.23,15.41h-169.36a7.67,7.67,0,0,0-6.29-2.51,10.15,10.15,0,0,0-2.12.08,15.72,15.72,0,0,0-13.81-7.78,15.91,15.91,0,0,0-14.78,10.21h-19.12v-.87c-24,.05-46.93.11-69.1.19a25.38,25.38,0,0,0-49.75-6.16l-1,0a18.09,18.09,0,0,0-13.87,6.46c-93.08.48-158,1.26-164.07,2.51-23.69,4.87-29.9-2.69-29.9-2.69a17.48,17.48,0,0,0-21.94-1.45,17.21,17.21,0,0,0-15.19-8.55c-7.1,0-13.2,3.58-15.93,10.58H11259a20.67,20.67,0,0,0-19.84-16.07,20.39,20.39,0,0,0-12.07,4.11,18.58,18.58,0,0,0-16.74,12h-116.66a23.74,23.74,0,0,0-23.51-23.78,23.33,23.33,0,0,0-18,8.26,20.53,20.53,0,0,0-2.1.11,19.66,19.66,0,0,0-19.23,15.41h-169.36a7.67,7.67,0,0,0-6.29-2.51,10.15,10.15,0,0,0-2.12.08,15.72,15.72,0,0,0-13.81-7.78,15.91,15.91,0,0,0-14.78,10.21h-19.12v-.87c-24,.05-46.93.11-69.1.19a25.38,25.38,0,0,0-49.75-6.16l-1,0a18.09,18.09,0,0,0-13.87,6.46c-93.08.48-158,1.26-164.07,2.51-23.69,4.87-29.9-2.69-29.9-2.69a17.48,17.48,0,0,0-21.94-1.45,17.21,17.21,0,0,0-15.19-8.55c-7.1,0-13.2,3.58-15.93,10.58H10064a20.67,20.67,0,0,0-19.84-16.07,20.39,20.39,0,0,0-12.07,4.11,18.58,18.58,0,0,0-16.74,12H9898.65a23.74,23.74,0,0,0-23.51-23.78,23.33,23.33,0,0,0-18,8.26,20.53,20.53,0,0,0-2.1.11,19.66,19.66,0,0,0-19.23,15.41H9666.44a7.67,7.67,0,0,0-6.29-2.51,10.15,10.15,0,0,0-2.12.08,15.72,15.72,0,0,0-13.81-7.78,15.91,15.91,0,0,0-14.78,10.21h-19.12v-.87c-24,.05-46.93.11-69.1.19a25.38,25.38,0,0,0-49.75-6.16l-1,0a18.09,18.09,0,0,0-13.87,6.46c-93.08.48-158,1.26-164.07,2.51-23.69,4.87-29.9-2.69-29.9-2.69a17.48,17.48,0,0,0-21.94-1.45,17.21,17.21,0,0,0-15.19-8.55c-7.1,0-13.2,3.58-15.93,10.58H8869a20.67,20.67,0,0,0-19.84-16.07,20.39,20.39,0,0,0-12.07,4.11,18.58,18.58,0,0,0-16.74,12H8703.65a23.74,23.74,0,0,0-23.51-23.78,23.33,23.33,0,0,0-18,8.26,20.53,20.53,0,0,0-2.1.11,19.66,19.66,0,0,0-19.23,15.41H8471.44a7.67,7.67,0,0,0-6.29-2.51,10.15,10.15,0,0,0-2.12.08,15.72,15.72,0,0,0-13.81-7.78,15.91,15.91,0,0,0-14.78,10.21h-6.12v-.87c-24,.05-46.93.11-69.1.19a25.38,25.38,0,0,0-49.75-6.16l-1,0a18.09,18.09,0,0,0-13.87,6.46c-93.08.48-158,1.26-164.07,2.51-23.69,4.87-29.9-2.69-29.9-2.69a17.48,17.48,0,0,0-21.94-1.45,17.21,17.21,0,0,0-15.19-8.55c-7.1,0-13.2,3.58-15.93,10.58H7687a20.67,20.67,0,0,0-19.84-16.07,20.39,20.39,0,0,0-12.07,4.11,18.58,18.58,0,0,0-16.74,12H7521.65a23.74,23.74,0,0,0-23.51-23.78,23.33,23.33,0,0,0-18,8.26,20.53,20.53,0,0,0-2.1.11,19.66,19.66,0,0,0-19.23,15.41H7289.44a7.67,7.67,0,0,0-6.29-2.51,10.15,10.15,0,0,0-2.12.08,15.95,15.95,0,0,0-28.21,1.56c-23.09,0-45.2.11-66.6.18a25.38,25.38,0,0,0-49.75-6.16l-1,0a18.09,18.09,0,0,0-13.87,6.46c-93.08.48-158,1.26-164.07,2.51-23.69,4.87-29.9-2.69-29.9-2.69a17.48,17.48,0,0,0-21.94-1.45,17.21,17.21,0,0,0-15.19-8.55c-7.1,0-13.2,3.58-15.93,10.58H6514a20.67,20.67,0,0,0-19.84-16.07,20.39,20.39,0,0,0-12.07,4.11,18.58,18.58,0,0,0-16.74,12H6348.65a23.74,23.74,0,0,0-23.51-23.78,23.33,23.33,0,0,0-18,8.26,20.53,20.53,0,0,0-2.1.11,19.66,19.66,0,0,0-19.23,15.41H6116.44a7.67,7.67,0,0,0-6.29-2.51,10.15,10.15,0,0,0-2.12.08,15.72,15.72,0,0,0-13.81-7.78,15.91,15.91,0,0,0-14.78,10.21h-17.12v-.87c-24,.05-46.93.11-69.1.19a25.38,25.38,0,0,0-49.75-6.16l-1,0a18.09,18.09,0,0,0-13.87,6.46c-93.08.48-158,1.26-164.07,2.51-23.69,4.87-29.9-2.69-29.9-2.69a17.48,17.48,0,0,0-21.94-1.45,17.21,17.21,0,0,0-15.19-8.55c-7.1,0-13.2,3.58-15.93,10.58H5321a20.67,20.67,0,0,0-19.84-16.07,20.39,20.39,0,0,0-12.07,4.11,18.58,18.58,0,0,0-16.74,12H5155.65a23.74,23.74,0,0,0-23.51-23.78,23.33,23.33,0,0,0-18,8.26,20.53,20.53,0,0,0-2.1.11,19.66,19.66,0,0,0-19.23,15.41H4923.44a7.67,7.67,0,0,0-6.29-2.51,10.15,10.15,0,0,0-2.12.08,15.72,15.72,0,0,0-13.81-7.78,15.91,15.91,0,0,0-14.78,10.21h-19.12v.13c-24,.05-46.93.11-69.1.19a25.38,25.38,0,0,0-49.75-6.16l-1,0a18.09,18.09,0,0,0-13.87,6.46c-93.08.48-158,1.26-164.07,2.51-23.69,4.87-29.9-2.69-29.9-2.69a17.48,17.48,0,0,0-21.94-1.45,17.21,17.21,0,0,0-15.19-8.55c-7.1,0-13.2,3.58-15.93,10.58H4126a20.67,20.67,0,0,0-19.84-16.07,20.39,20.39,0,0,0-12.07,4.11,18.58,18.58,0,0,0-16.74,12H3960.65a23.74,23.74,0,0,0-23.51-23.78,23.33,23.33,0,0,0-18,8.26,20.53,20.53,0,0,0-2.1.11,19.66,19.66,0,0,0-19.23,15.41H3728.44a7.67,7.67,0,0,0-6.29-2.51,10.15,10.15,0,0,0-2.12.08,15.72,15.72,0,0,0-13.81-7.78,15.91,15.91,0,0,0-14.78,10.21h-19.12v-.59s-32-.08-83.66-.17c0-.47-.15-.93-.15-1.41a26.31,26.31,0,0,0-50.7-9.77,18.39,18.39,0,0,0-28.92,11.05l-57.86-.07A26.23,26.23,0,0,0,3412,452a25.87,25.87,0,0,0-43.84,14.46l-42.87,0a26.19,26.19,0,0,0-23.35-14.26c-10.18,0-19,5.31-23.34,14.31h-4.83a16.8,16.8,0,0,0-7.07-1.45,18.29,18.29,0,0,0-7.07,1.39h-67.28a20.37,20.37,0,0,0-24.25-16,32,32,0,0,0-59.76,16v0c-51,.06-100.56.16-145.87.31a25.48,25.48,0,0,0-49.93-6.16l-1,0a18.12,18.12,0,0,0-13.88,6.46c-93.08.48-158,1.26-164.07,2.51-23.69,4.87-29.9-2.69-29.9-2.69a17.48,17.48,0,0,0-21.94-1.45,17.21,17.21,0,0,0-15.19-8.55c-7.1,0-13.2,3.58-15.93,10.58H2289.93a20.67,20.67,0,0,0-19.84-16.07,20.39,20.39,0,0,0-12.07,4.11,18.58,18.58,0,0,0-16.74,12H2124.63a23.74,23.74,0,0,0-23.51-23.78,23.33,23.33,0,0,0-18,8.26,20.52,20.52,0,0,0-2.1.11,19.66,19.66,0,0,0-19.23,15.41H1892.42a7.67,7.67,0,0,0-6.29-2.51,10.15,10.15,0,0,0-2.12.08,15.72,15.72,0,0,0-13.81-7.78,15.91,15.91,0,0,0-14.78,10.21h-19.1v-.59s-31.86-.08-83.51-.17c0-.47-.07-.93-.07-1.41a26.27,26.27,0,0,0-50.64-9.77,18.38,18.38,0,0,0-28.91,11.05l-57.85-.07A26.22,26.22,0,0,0,1576.28,452a25.87,25.87,0,0,0-43.84,14.46l-42.87,0a26.18,26.18,0,0,0-23.35-14.26c-10.18,0-19,5.31-23.34,14.31H1438A16.8,16.8,0,0,0,1431,465a18.29,18.29,0,0,0-7.07,1.39h-67.28a20.37,20.37,0,0,0-24.25-16,32.15,32.15,0,0,0-60.06,16v0c-51,.06-100.41.16-145.73.31a25.42,25.42,0,0,0-49.82-6.16l-1,0a18.11,18.11,0,0,0-13.88,6.46c-93.08.48-158,1.26-164.07,2.51-23.69,4.87-29.9-2.69-29.9-2.69A17.48,17.48,0,0,0,846,465.44a17.21,17.21,0,0,0-15.19-8.55c-7.1,0-13.2,3.58-15.93,10.58H454.23a20.67,20.67,0,0,0-19.84-16.07,20.39,20.39,0,0,0-12.07,4.11,18.58,18.58,0,0,0-16.74,12H288.92a23.74,23.74,0,0,0-23.51-23.78,23.33,23.33,0,0,0-18,8.26,20.53,20.53,0,0,0-2.1.11,19.66,19.66,0,0,0-19.23,15.41H56.71A7.67,7.67,0,0,0,50.42,465a10.15,10.15,0,0,0-2.12.08,15.72,15.72,0,0,0-13.81-7.78,15.91,15.91,0,0,0-14.78,10.21H.32v42h4867v-1h9523v1h1195v-1h516Z" transform="translate(-0.32 -434.22)"/></svg>