<svg xmlns="http://www.w3.org/2000/svg" viewBox="0 0 15586.51 108.31"><defs><style>.a{fill:#0f2d59;}.b{fill:#0e1011;opacity:0.2;}.c{fill:#316476;}.d{fill:#fffff9;}.e{fill:#132e5b;}.f{fill:#021e4b;}.g{fill:#41897b;}.h{fill:#1a6d5f;}.i{opacity:0.1;}.j{fill:#fef3d7;}.k{fill:#666;}.l{fill:#4c4c4c;}.m{fill:#679b92;}.n{fill:#455a64;}.o{fill:#748d96;}.p{fill:#fff;}</style></defs><title>plan2</title><polygon class="a" points="535.66 44.64 565.58 44.64 537.99 69.1 508.83 68.04 535.66 44.64"/><polygon class="b" points="577.5 108.31 495.41 108.31 508.5 99.45 591.05 99.45 577.5 108.31"/><rect class="c" x="508.83" y="67.92" width="30.07" height="31.53"/><rect class="c" x="576.27" y="77.8" width="20.54" height="21.44"/><polygon class="a" points="595.05 71.47 610.17 71.47 596.69 83.24 581.49 83.3 595.05 71.47"/><polygon class="b" points="617.96 103.47 585.22 103.25 591.32 99.26 623.15 98.99 617.96 103.47"/><polygon class="d" points="610.13 71.49 596.69 83.24 596.69 99.17 623.16 99.17 623.16 83.24 610.13 71.49"/><path class="e" d="M639.36,441.25a3.82,3.82,0,0,1,7.65,0" transform="translate(-32.74 -358.6)"/><rect class="e" x="607.21" y="87.3" width="6.46" height="6.42"/><polygon class="d" points="565.5 44.67 538.9 67.92 538.9 99.45 591.28 99.45 591.28 67.92 565.5 44.67"/><rect class="f" x="519.02" y="79.08" width="8.25" height="10.19"/><path class="e" d="M591.29,425.35a7.56,7.56,0,1,1,15.13,0" transform="translate(-32.74 -358.6)"/><rect class="e" x="549.57" y="75.2" width="12.13" height="15.52"/><polygon class="e" points="571.88 75.68 582.55 75.68 582.55 99.45 570.91 99.45 570.91 75.68 571.88 75.68"/><polygon class="a" points="104.11 29.85 134.02 29.85 106.44 54.32 77.28 53.25 104.11 29.85"/><polygon class="b" points="145.94 93.52 63.85 93.52 76.95 84.66 159.49 84.66 145.94 93.52"/><rect class="c" x="77.28" y="53.13" width="30.07" height="31.53"/><rect class="c" x="144.72" y="63.01" width="20.54" height="21.44"/><polygon class="a" points="163.5 56.69 178.62 56.69 165.13 68.45 149.94 68.51 163.5 56.69"/><polygon class="b" points="186.41 88.68 153.67 88.46 159.76 84.47 191.6 84.2 186.41 88.68"/><polygon class="d" points="178.58 56.7 165.13 68.45 165.13 84.39 191.61 84.39 191.61 68.45 178.58 56.7"/><path class="e" d="M207.8,426.46a3.82,3.82,0,0,1,7.65,0" transform="translate(-32.74 -358.6)"/><rect class="e" x="175.66" y="72.52" width="6.46" height="6.42"/><polygon class="d" points="133.94 29.88 107.35 53.13 107.35 84.66 159.73 84.66 159.73 53.13 133.94 29.88"/><rect class="f" x="87.46" y="64.29" width="8.25" height="10.19"/><path class="e" d="M159.73,410.57a7.56,7.56,0,0,1,15.13,0" transform="translate(-32.74 -358.6)"/><rect class="e" x="118.02" y="60.41" width="12.13" height="15.52"/><polygon class="e" points="140.33 60.89 151 60.89 151 84.66 139.36 84.66 139.36 60.89 140.33 60.89"/><polygon class="a" points="1071.87 17.07 1101.79 17.07 1074.2 41.53 1045.04 40.46 1071.87 17.07"/><polygon class="b" points="1113.71 80.74 1031.62 80.74 1044.71 71.87 1127.26 71.87 1113.71 80.74"/><rect class="c" x="1045.04" y="40.35" width="30.07" height="31.53"/><rect class="c" x="1112.48" y="50.22" width="20.54" height="21.44"/><polygon class="a" points="1131.26 43.9 1146.38 43.9 1132.9 55.67 1117.7 55.73 1131.26 43.9"/><polygon class="b" points="1154.17 75.89 1121.43 75.68 1127.53 71.69 1159.36 71.42 1154.17 75.89"/><polygon class="d" points="1146.34 43.92 1132.9 55.67 1132.9 71.6 1159.37 71.6 1159.37 55.67 1146.34 43.92"/><path class="e" d="M1175.57,413.68a3.82,3.82,0,1,1,7.65,0" transform="translate(-32.74 -358.6)"/><rect class="e" x="1143.42" y="59.73" width="6.46" height="6.42"/><polygon class="d" points="1101.71 17.1 1075.11 40.35 1075.11 71.87 1127.49 71.87 1127.49 40.35 1101.71 17.1"/><rect class="f" x="1055.23" y="51.5" width="8.25" height="10.19"/><path class="e" d="M1127.5,397.78a7.56,7.56,0,0,1,15.13,0" transform="translate(-32.74 -358.6)"/><rect class="e" x="1085.78" y="47.62" width="12.13" height="15.52"/><polygon class="e" points="1108.09 48.11 1118.76 48.11 1118.76 71.87 1107.12 71.87 1107.12 48.11 1108.09 48.11"/><polygon class="a" points="3409.13 17.07 3439.04 17.07 3411.46 41.53 3382.3 40.46 3409.13 17.07"/><polygon class="b" points="3450.97 80.74 3368.87 80.74 3381.97 71.87 3464.51 71.87 3450.97 80.74"/><rect class="c" x="3382.3" y="40.35" width="30.07" height="31.53"/><rect class="c" x="3449.74" y="50.22" width="20.54" height="21.44"/><polygon class="a" points="3468.52 43.9 3483.64 43.9 3470.16 55.67 3454.96 55.73 3468.52 43.9"/><polygon class="b" points="3491.43 75.89 3458.69 75.68 3464.78 71.69 3496.62 71.42 3491.43 75.89"/><polygon class="d" points="3483.6 43.92 3470.16 55.67 3470.16 71.6 3496.63 71.6 3496.63 55.67 3483.6 43.92"/><path class="e" d="M3512.82,413.68a3.82,3.82,0,1,1,7.65,0" transform="translate(-32.74 -358.6)"/><rect class="e" x="3480.68" y="59.73" width="6.46" height="6.42"/><polygon class="d" points="3438.97 17.1 3412.37 40.35 3412.37 71.87 3464.75 71.87 3464.75 40.35 3438.97 17.1"/><rect class="f" x="3392.48" y="51.5" width="8.25" height="10.19"/><path class="e" d="M3464.75,397.78a7.56,7.56,0,1,1,15.13,0" transform="translate(-32.74 -358.6)"/><rect class="e" x="3423.04" y="47.62" width="12.13" height="15.52"/><polygon class="e" points="3445.35 48.11 3456.02 48.11 3456.02 71.87 3444.38 71.87 3444.38 48.11 3445.35 48.11"/><polygon class="a" points="1451.98 29.85 1481.9 29.85 1454.32 54.32 1425.15 53.25 1451.98 29.85"/><polygon class="b" points="1493.82 93.52 1411.73 93.52 1424.83 84.66 1507.37 84.66 1493.82 93.52"/><rect class="c" x="1425.16" y="53.13" width="30.07" height="31.53"/><rect class="c" x="1492.6" y="63.01" width="20.54" height="21.44"/><polygon class="a" points="1511.38 56.69 1526.5 56.69 1513.01 68.45 1497.82 68.51 1511.38 56.69"/><polygon class="b" points="1534.29 88.68 1501.55 88.46 1507.64 84.47 1539.48 84.2 1534.29 88.68"/><polygon class="d" points="1526.46 56.7 1513.01 68.45 1513.01 84.39 1539.49 84.39 1539.49 68.45 1526.46 56.7"/><path class="e" d="M1555.68,426.46a3.82,3.82,0,1,1,7.65,0" transform="translate(-32.74 -358.6)"/><rect class="e" x="1523.54" y="72.52" width="6.46" height="6.42"/><polygon class="d" points="1481.82 29.88 1455.23 53.13 1455.23 84.66 1507.61 84.66 1507.61 53.13 1481.82 29.88"/><rect class="f" x="1435.34" y="64.29" width="8.25" height="10.19"/><path class="e" d="M1507.61,410.57a7.56,7.56,0,0,1,15.13,0" transform="translate(-32.74 -358.6)"/><rect class="e" x="1465.9" y="60.41" width="12.13" height="15.52"/><polygon class="e" points="1488.21 60.89 1498.88 60.89 1498.88 84.66 1487.24 84.66 1487.24 60.89 1488.21 60.89"/><polygon class="a" points="2464.07 29.85 2493.99 29.85 2466.41 54.32 2437.24 53.25 2464.07 29.85"/><polygon class="b" points="2505.91 93.52 2423.82 93.52 2436.91 84.66 2519.46 84.66 2505.91 93.52"/><rect class="c" x="2437.24" y="53.13" width="30.07" height="31.53"/><rect class="c" x="2504.69" y="63.01" width="20.54" height="21.44"/><polygon class="a" points="2523.46 56.69 2538.58 56.69 2525.1 68.45 2509.9 68.51 2523.46 56.69"/><polygon class="b" points="2546.37 88.68 2513.63 88.46 2519.73 84.47 2551.57 84.2 2546.37 88.68"/><polygon class="d" points="2538.54 56.7 2525.1 68.45 2525.1 84.39 2551.58 84.39 2551.58 68.45 2538.54 56.7"/><path class="e" d="M2567.77,426.46a3.82,3.82,0,1,1,7.65,0" transform="translate(-32.74 -358.6)"/><rect class="e" x="2535.63" y="72.52" width="6.46" height="6.42"/><polygon class="d" points="2493.91 29.88 2467.31 53.13 2467.31 84.66 2519.7 84.66 2519.7 53.13 2493.91 29.88"/><rect class="f" x="2447.43" y="64.29" width="8.25" height="10.19"/><path class="e" d="M2519.7,410.57a7.56,7.56,0,1,1,15.13,0" transform="translate(-32.74 -358.6)"/><rect class="e" x="2477.98" y="60.41" width="12.13" height="15.52"/><polygon class="e" points="2500.3 60.89 2510.97 60.89 2510.97 84.66 2499.33 84.66 2499.33 60.89 2500.3 60.89"/><path class="g" d="M660.54,384c-.74,1.86-14.08,37.5-14.08,37.5h28Z" transform="translate(-32.74 -358.6)"/><path class="h" d="M660.32,421.47h14.11l-14-37.56c0,.05-.15.07-.15.17Z" transform="translate(-32.74 -358.6)"/><path class="g" d="M959.06,417c-.74,1.86-14.08,37.5-14.08,37.5h28Z" transform="translate(-32.74 -358.6)"/><path class="h" d="M959.32,454.47H973l-13.72-37.2c0,.05.08.44.08.54Z" transform="translate(-32.74 -358.6)"/><path class="g" d="M1286.55,376c-.74,1.86-14.08,37.5-14.08,37.5h28Z" transform="translate(-32.74 -358.6)"/><path class="h" d="M1287.32,413.47h13.12L1287,375.61c0,.05.34-.23.34-.13Z" transform="translate(-32.74 -358.6)"/><path class="g" d="M499.5,383c-.74,1.86-14.08,37.5-14.08,37.5h28Z" transform="translate(-32.74 -358.6)"/><path class="h" d="M499.32,420.47h14.07l-13.93-37.38a1.26,1.26,0,0,0-.14.35Z" transform="translate(-32.74 -358.6)"/><path class="g" d="M322.23,389c-.74,1.86-14.08,37.5-14.08,37.5h28Z" transform="translate(-32.74 -358.6)"/><path class="h" d="M322.32,426.47h13.8l-13.8-37.2a4.55,4.55,0,0,0,0,.54Z" transform="translate(-32.74 -358.6)"/><path class="g" d="M376.65,385c-.74,1.86-14.08,37.5-14.08,37.5h28Z" transform="translate(-32.74 -358.6)"/><path class="h" d="M377.32,422.47h13.22L377,384.56c0,.05.29-.27.29-.17Z" transform="translate(-32.74 -358.6)"/><polyline class="i" points="329.83 63.09 311.33 72.06 357.8 63.09"/><polyline class="i" points="276.69 69.14 258.18 78.11 304.65 69.14"/><polyline class="i" points="452.68 62.46 434.18 71.42 480.65 62.46"/><polyline class="i" points="613.72 62.77 595.22 71.74 641.69 62.77"/><polyline class="i" points="912.24 96.83 893.74 105.79 940.21 96.83"/><polyline class="i" points="1239.73 54.18 1221.23 63.15 1267.7 54.18"/><path class="g" d="M1851.13,394c-.74,1.86-14.08,37.5-14.08,37.5h28Z" transform="translate(-32.74 -358.6)"/><path class="h" d="M1851.32,431.47H1865L1851.27,394c0,.05,0,.16,0,.26Z" transform="translate(-32.74 -358.6)"/><polyline class="i" points="1804.32 72.96 1785.81 81.92 1832.29 72.96"/><path class="g" d="M2015.35,389c-.74,1.86-14.08,37.5-14.08,37.5h28Z" transform="translate(-32.74 -358.6)"/><path class="h" d="M2015.32,426.47h13.93l-13.86-37.2a3.61,3.61,0,0,0-.06.54Z" transform="translate(-32.74 -358.6)"/><polyline class="i" points="1968.54 68.5 1950.03 77.47 1996.51 68.5"/><path class="g" d="M2212.36,406c-.74,1.86-14.08,37.5-14.08,37.5h28Z" transform="translate(-32.74 -358.6)"/><path class="g" d="M2212.36,406c-.74,1.86-14.08,37.5-14.08,37.5h28Z" transform="translate(-32.74 -358.6)"/><path class="h" d="M2212.32,443.47h13.93l-13.86-37.58c0,.05-.06,0-.06.15Z" transform="translate(-32.74 -358.6)"/><polyline class="i" points="2165.54 84.73 2147.03 93.7 2193.51 84.73"/><path class="g" d="M2698.36,397c-.74,1.86-14.08,37.5-14.08,37.5h28Z" transform="translate(-32.74 -358.6)"/><path class="h" d="M2698.32,434.47h13.93l-13.86-37.58c0,.05-.06,0-.06.15Z" transform="translate(-32.74 -358.6)"/><polyline class="i" points="2651.54 75.73 2633.03 84.7 2679.51 75.73"/><path class="g" d="M5208.36,393c-.74,1.86-14.08,37.5-14.08,37.5h28Z" transform="translate(-32.74 -358.6)"/><path class="h" d="M5208.32,430.47h13.93l-13.86-37.58c0,.05-.06,0-.06.15Z" transform="translate(-32.74 -358.6)"/><polyline class="i" points="5161.54 71.73 5143.03 80.7 5189.51 71.73"/><path class="g" d="M5354.36,395c-.74,1.86-14.08,37.5-14.08,37.5h28Z" transform="translate(-32.74 -358.6)"/><path class="h" d="M5354.32,432.47h13.93l-13.86-37.58c0,.05-.06,0-.06.15Z" transform="translate(-32.74 -358.6)"/><polyline class="i" points="5307.54 73.73 5289.03 82.7 5335.51 73.73"/><path class="g" d="M6387.36,393c-.74,1.86-14.08,37.5-14.08,37.5h28Z" transform="translate(-32.74 -358.6)"/><path class="h" d="M6387.32,430.47h13.93l-13.86-37.58c0,.05-.06,0-.06.15Z" transform="translate(-32.74 -358.6)"/><polyline class="i" points="6340.54 71.73 6322.03 80.7 6368.51 71.73"/><path class="g" d="M6633.36,391c-.74,1.86-14.08,37.5-14.08,37.5h28Z" transform="translate(-32.74 -358.6)"/><path class="h" d="M6633.32,428.47h13.93l-13.86-37.58c0,.05-.06,0-.06.15Z" transform="translate(-32.74 -358.6)"/><polyline class="i" points="6586.54 69.73 6568.03 78.7 6614.51 69.73"/><path class="g" d="M6684.36,404c-.74,1.86-14.08,37.5-14.08,37.5h28Z" transform="translate(-32.74 -358.6)"/><path class="h" d="M6684.32,441.47h13.93l-13.86-37.58c0,.05-.06,0-.06.15Z" transform="translate(-32.74 -358.6)"/><polyline class="i" points="6637.54 82.73 6619.03 91.7 6665.51 82.73"/><path class="g" d="M7075.36,390c-.74,1.86-14.08,37.5-14.08,37.5h28Z" transform="translate(-32.74 -358.6)"/><path class="h" d="M7075.32,427.47h13.93l-13.86-37.58c0,.05-.06,0-.06.15Z" transform="translate(-32.74 -358.6)"/><polyline class="i" points="7028.54 68.73 7010.03 77.7 7056.51 68.73"/><path class="g" d="M7691.36,393c-.74,1.86-14.08,37.5-14.08,37.5h28Z" transform="translate(-32.74 -358.6)"/><path class="h" d="M7691.32,430.47h13.93l-13.86-37.58c0,.05-.06,0-.06.15Z" transform="translate(-32.74 -358.6)"/><polyline class="i" points="7644.54 71.73 7626.03 80.7 7672.51 71.73"/><path class="g" d="M7795.36,388c-.74,1.86-14.08,37.5-14.08,37.5h28Z" transform="translate(-32.74 -358.6)"/><path class="h" d="M7795.32,425.47h13.93l-13.86-37.58c0,.05-.06,0-.06.15Z" transform="translate(-32.74 -358.6)"/><polyline class="i" points="7748.54 66.73 7730.03 75.7 7776.51 66.73"/><path class="g" d="M8185.36,404c-.74,1.86-14.08,37.5-14.08,37.5h28Z" transform="translate(-32.74 -358.6)"/><path class="h" d="M8185.32,441.47h13.93l-13.86-37.58c0,.05-.06,0-.06.15Z" transform="translate(-32.74 -358.6)"/><polyline class="i" points="8138.54 82.73 8120.03 91.7 8166.51 82.73"/><path class="g" d="M8067.36,384c-.74,1.86-14.08,37.5-14.08,37.5h28Z" transform="translate(-32.74 -358.6)"/><path class="h" d="M8067.32,421.47h13.93l-13.86-37.58c0,.05-.06,0-.06.15Z" transform="translate(-32.74 -358.6)"/><polyline class="i" points="8020.54 62.73 8002.03 71.7 8048.51 62.73"/><path class="g" d="M8400.36,381c-.74,1.86-14.08,37.5-14.08,37.5h28Z" transform="translate(-32.74 -358.6)"/><path class="h" d="M8400.32,418.47h13.93l-13.86-37.58c0,.05-.06,0-.06.15Z" transform="translate(-32.74 -358.6)"/><polyline class="i" points="8353.54 59.73 8335.03 68.7 8381.51 59.73"/><path class="g" d="M8789.36,385c-.74,1.86-14.08,37.5-14.08,37.5h28Z" transform="translate(-32.74 -358.6)"/><path class="h" d="M8789.32,422.47h13.93l-13.86-37.58c0,.05-.06,0-.06.15Z" transform="translate(-32.74 -358.6)"/><polyline class="i" points="8742.54 63.73 8724.03 72.7 8770.51 63.73"/><path class="g" d="M8726.36,389c-.74,1.86-14.08,37.5-14.08,37.5h28Z" transform="translate(-32.74 -358.6)"/><path class="h" d="M8726.32,426.47h13.93l-13.86-37.58c0,.05-.06,0-.06.15Z" transform="translate(-32.74 -358.6)"/><polyline class="i" points="8679.54 67.73 8661.03 76.7 8707.51 67.73"/><path class="g" d="M9033.36,394c-.74,1.86-14.08,37.5-14.08,37.5h28Z" transform="translate(-32.74 -358.6)"/><path class="h" d="M9033.32,431.47h13.93l-13.86-37.58c0,.05-.06,0-.06.15Z" transform="translate(-32.74 -358.6)"/><polyline class="i" points="8986.54 72.73 8968.03 81.7 9014.51 72.73"/><path class="g" d="M9163.36,388c-.74,1.86-14.08,37.5-14.08,37.5h28Z" transform="translate(-32.74 -358.6)"/><path class="h" d="M9163.32,425.47h13.93l-13.86-37.58c0,.05-.06,0-.06.15Z" transform="translate(-32.74 -358.6)"/><polyline class="i" points="9116.54 66.73 9098.03 75.7 9144.51 66.73"/><path class="g" d="M9250.36,392c-.74,1.86-14.08,37.5-14.08,37.5h28Z" transform="translate(-32.74 -358.6)"/><path class="h" d="M9250.32,429.47h13.93l-13.86-37.58c0,.05-.06,0-.06.15Z" transform="translate(-32.74 -358.6)"/><polyline class="i" points="9203.54 70.73 9185.03 79.7 9231.51 70.73"/><path class="g" d="M9600.36,383c-.74,1.86-14.08,37.5-14.08,37.5h28Z" transform="translate(-32.74 -358.6)"/><path class="h" d="M9600.32,420.47h13.93l-13.86-37.58c0,.05-.06,0-.06.15Z" transform="translate(-32.74 -358.6)"/><polyline class="i" points="9553.54 61.73 9535.03 70.7 9581.51 61.73"/><path class="g" d="M9698.36,390c-.74,1.86-14.08,37.5-14.08,37.5h28Z" transform="translate(-32.74 -358.6)"/><path class="h" d="M9698.32,427.47h13.93l-13.86-37.58c0,.05-.06,0-.06.15Z" transform="translate(-32.74 -358.6)"/><polyline class="i" points="9651.54 68.73 9633.03 77.7 9679.51 68.73"/><path class="g" d="M9792.36,381c-.74,1.86-14.08,37.5-14.08,37.5h28Z" transform="translate(-32.74 -358.6)"/><path class="h" d="M9792.32,418.47h13.93l-13.86-37.58c0,.05-.06,0-.06.15Z" transform="translate(-32.74 -358.6)"/><polyline class="i" points="9745.54 59.73 9727.03 68.7 9773.51 59.73"/><path class="g" d="M10009.36,406c-.74,1.86-14.08,37.5-14.08,37.5h28Z" transform="translate(-32.74 -358.6)"/><path class="h" d="M10009.32,443.47h13.93l-13.86-37.58c0,.05-.06,0-.06.15Z" transform="translate(-32.74 -358.6)"/><polyline class="i" points="9962.54 84.73 9944.03 93.7 9990.51 84.73"/><path class="g" d="M10093.36,390c-.74,1.86-14.08,37.5-14.08,37.5h28Z" transform="translate(-32.74 -358.6)"/><path class="h" d="M10093.32,427.47h13.93l-13.86-37.58c0,.05-.06,0-.06.15Z" transform="translate(-32.74 -358.6)"/><polyline class="i" points="10046.54 68.73 10028.03 77.7 10074.51 68.73"/><path class="g" d="M10346.36,381c-.74,1.86-14.08,37.5-14.08,37.5h28Z" transform="translate(-32.74 -358.6)"/><path class="h" d="M10346.32,418.47h13.93l-13.86-37.58c0,.05-.06,0-.06.15Z" transform="translate(-32.74 -358.6)"/><polyline class="i" points="10299.54 59.73 10281.03 68.7 10327.51 59.73"/><path class="g" d="M10404.36,400c-.74,1.86-14.08,37.5-14.08,37.5h28Z" transform="translate(-32.74 -358.6)"/><path class="h" d="M10404.32,437.47h13.93l-13.86-37.58c0,.05-.06,0-.06.15Z" transform="translate(-32.74 -358.6)"/><polyline class="i" points="10357.54 78.73 10339.03 87.7 10385.51 78.73"/><path class="g" d="M10572.36,388c-.74,1.86-14.08,37.5-14.08,37.5h28Z" transform="translate(-32.74 -358.6)"/><path class="h" d="M10572.32,425.47h13.93l-13.86-37.58c0,.05-.06,0-.06.15Z" transform="translate(-32.74 -358.6)"/><polyline class="i" points="10525.54 66.73 10507.03 75.7 10553.51 66.73"/><path class="g" d="M10830.36,377c-.74,1.86-14.08,37.5-14.08,37.5h28Z" transform="translate(-32.74 -358.6)"/><path class="h" d="M10830.32,414.47h13.93l-13.86-37.58c0,.05-.06,0-.06.15Z" transform="translate(-32.74 -358.6)"/><polyline class="i" points="10783.54 55.73 10765.03 64.7 10811.51 55.73"/><path class="g" d="M11467.36,393c-.74,1.86-14.08,37.5-14.08,37.5h28Z" transform="translate(-32.74 -358.6)"/><path class="h" d="M11467.32,430.47h13.93l-13.86-37.58c0,.05-.06,0-.06.15Z" transform="translate(-32.74 -358.6)"/><polyline class="i" points="11420.54 71.73 11402.03 80.7 11448.51 71.73"/><path class="g" d="M11297.36,399c-.74,1.86-14.08,37.5-14.08,37.5h28Z" transform="translate(-32.74 -358.6)"/><path class="h" d="M11297.32,436.47h13.93l-13.86-37.58c0,.05-.06,0-.06.15Z" transform="translate(-32.74 -358.6)"/><polyline class="i" points="11250.54 77.73 11232.03 86.7 11278.51 77.73"/><path class="g" d="M11158.36,395c-.74,1.86-14.08,37.5-14.08,37.5h28Z" transform="translate(-32.74 -358.6)"/><path class="h" d="M11158.32,432.47h13.93l-13.86-37.58c0,.05-.06,0-.06.15Z" transform="translate(-32.74 -358.6)"/><polyline class="i" points="11111.54 73.73 11093.03 82.7 11139.51 73.73"/><path class="g" d="M11831.36,408c-.74,1.86-14.08,37.5-14.08,37.5h28Z" transform="translate(-32.74 -358.6)"/><path class="h" d="M11831.32,445.47h13.93l-13.86-37.58c0,.05-.06,0-.06.15Z" transform="translate(-32.74 -358.6)"/><polyline class="i" points="11784.54 86.73 11766.03 95.7 11812.51 86.73"/><path class="g" d="M11735.36,380c-.74,1.86-14.08,37.5-14.08,37.5h28Z" transform="translate(-32.74 -358.6)"/><path class="h" d="M11735.32,417.47h13.93l-13.86-37.58c0,.05-.06,0-.06.15Z" transform="translate(-32.74 -358.6)"/><polyline class="i" points="11688.54 58.73 11670.03 67.7 11716.51 58.73"/><path class="g" d="M12211.36,390c-.74,1.86-14.08,37.5-14.08,37.5h28Z" transform="translate(-32.74 -358.6)"/><path class="h" d="M12211.32,427.47h13.93l-13.86-37.58c0,.05-.06,0-.06.15Z" transform="translate(-32.74 -358.6)"/><polyline class="i" points="12164.54 68.73 12146.03 77.7 12192.51 68.73"/><path class="g" d="M11995.36,395c-.74,1.86-14.08,37.5-14.08,37.5h28Z" transform="translate(-32.74 -358.6)"/><path class="h" d="M11995.32,432.47h13.93l-13.86-37.58c0,.05-.06,0-.06.15Z" transform="translate(-32.74 -358.6)"/><polyline class="i" points="11948.54 73.73 11930.03 82.7 11976.51 73.73"/><path class="g" d="M12506.36,381c-.74,1.86-14.08,37.5-14.08,37.5h28Z" transform="translate(-32.74 -358.6)"/><path class="h" d="M12506.32,418.47h13.93l-13.86-37.58c0,.05-.06,0-.06.15Z" transform="translate(-32.74 -358.6)"/><polyline class="i" points="12459.54 59.73 12441.03 68.7 12487.51 59.73"/><path class="g" d="M12386.36,395c-.74,1.86-14.08,37.5-14.08,37.5h28Z" transform="translate(-32.74 -358.6)"/><path class="h" d="M12386.32,432.47h13.93l-13.86-37.58c0,.05-.06,0-.06.15Z" transform="translate(-32.74 -358.6)"/><polyline class="i" points="12339.54 73.73 12321.03 82.7 12367.51 73.73"/><path class="g" d="M12785.36,376c-.74,1.86-14.08,37.5-14.08,37.5h28Z" transform="translate(-32.74 -358.6)"/><path class="h" d="M12785.32,413.47h13.93l-13.86-37.58c0,.05-.06,0-.06.15Z" transform="translate(-32.74 -358.6)"/><polyline class="i" points="12738.54 54.73 12720.03 63.7 12766.51 54.73"/><path class="g" d="M12938.36,404c-.74,1.86-14.08,37.5-14.08,37.5h28Z" transform="translate(-32.74 -358.6)"/><path class="h" d="M12938.32,441.47h13.93l-13.86-37.58c0,.05-.06,0-.06.15Z" transform="translate(-32.74 -358.6)"/><polyline class="i" points="12891.54 82.73 12873.03 91.7 12919.51 82.73"/><path class="g" d="M13167.36,385c-.74,1.86-14.08,37.5-14.08,37.5h28Z" transform="translate(-32.74 -358.6)"/><path class="h" d="M13167.32,422.47h13.93l-13.86-37.58c0,.05-.06,0-.06.15Z" transform="translate(-32.74 -358.6)"/><polyline class="i" points="13120.54 63.73 13102.03 72.7 13148.51 63.73"/><path class="g" d="M13503.36,391c-.74,1.86-14.08,37.5-14.08,37.5h28Z" transform="translate(-32.74 -358.6)"/><path class="h" d="M13503.32,428.47h13.93l-13.86-37.58c0,.05-.06,0-.06.15Z" transform="translate(-32.74 -358.6)"/><polyline class="i" points="13456.54 69.73 13438.03 78.7 13484.51 69.73"/><path class="g" d="M13601.36,404c-.74,1.86-14.08,37.5-14.08,37.5h28Z" transform="translate(-32.74 -358.6)"/><path class="h" d="M13601.32,441.47h13.93l-13.86-37.58c0,.05-.06,0-.06.15Z" transform="translate(-32.74 -358.6)"/><polyline class="i" points="13554.54 82.73 13536.03 91.7 13582.51 82.73"/><path class="g" d="M13697.36,385c-.74,1.86-14.08,37.5-14.08,37.5h28Z" transform="translate(-32.74 -358.6)"/><path class="h" d="M13697.32,422.47h13.93l-13.86-37.58c0,.05-.06,0-.06.15Z" transform="translate(-32.74 -358.6)"/><polyline class="i" points="13650.54 63.73 13632.03 72.7 13678.51 63.73"/><path class="g" d="M14001.36,382c-.74,1.86-14.08,37.5-14.08,37.5h28Z" transform="translate(-32.74 -358.6)"/><path class="h" d="M14001.32,419.47h13.93l-13.86-37.58c0,.05-.06,0-.06.15Z" transform="translate(-32.74 -358.6)"/><polyline class="i" points="13954.54 60.73 13936.03 69.7 13982.51 60.73"/><path class="g" d="M14090.36,401c-.74,1.86-14.08,37.5-14.08,37.5h28Z" transform="translate(-32.74 -358.6)"/><path class="h" d="M14090.32,438.47h13.93l-13.86-37.58c0,.05-.06,0-.06.15Z" transform="translate(-32.74 -358.6)"/><polyline class="i" points="14043.54 79.73 14025.03 88.7 14071.51 79.73"/><path class="g" d="M14232.36,376c-.74,1.86-14.08,37.5-14.08,37.5h28Z" transform="translate(-32.74 -358.6)"/><path class="h" d="M14232.32,413.47h13.93l-13.86-37.58c0,.05-.06,0-.06.15Z" transform="translate(-32.74 -358.6)"/><polyline class="i" points="14185.54 54.73 14167.03 63.7 14213.51 54.73"/><path class="g" d="M14580.36,381c-.74,1.86-14.08,37.5-14.08,37.5h28Z" transform="translate(-32.74 -358.6)"/><path class="h" d="M14580.32,418.47h13.93l-13.86-37.58c0,.05-.06,0-.06.15Z" transform="translate(-32.74 -358.6)"/><polyline class="i" points="14533.54 59.73 14515.03 68.7 14561.51 59.73"/><path class="g" d="M14506.36,409c-.74,1.86-14.08,37.5-14.08,37.5h28Z" transform="translate(-32.74 -358.6)"/><path class="h" d="M14506.32,446.47h13.93l-13.86-37.58c0,.05-.06,0-.06.15Z" transform="translate(-32.74 -358.6)"/><polyline class="i" points="14459.54 87.73 14441.03 96.7 14487.51 87.73"/><path class="g" d="M14891.36,381c-.74,1.86-14.08,37.5-14.08,37.5h28Z" transform="translate(-32.74 -358.6)"/><path class="h" d="M14891.32,418.47h13.93l-13.86-37.58c0,.05-.06,0-.06.15Z" transform="translate(-32.74 -358.6)"/><polyline class="i" points="14844.54 59.73 14826.03 68.7 14872.51 59.73"/><path class="g" d="M14754.36,402c-.74,1.86-14.08,37.5-14.08,37.5h28Z" transform="translate(-32.74 -358.6)"/><path class="h" d="M14754.32,439.47h13.93l-13.86-37.58c0,.05-.06,0-.06.15Z" transform="translate(-32.74 -358.6)"/><polyline class="i" points="14707.54 80.73 14689.03 89.7 14735.51 80.73"/><path class="g" d="M15228.36,390c-.74,1.86-14.08,37.5-14.08,37.5h28Z" transform="translate(-32.74 -358.6)"/><path class="h" d="M15228.32,427.47h13.93l-13.86-37.58c0,.05-.06,0-.06.15Z" transform="translate(-32.74 -358.6)"/><path class="g" d="M15442.36,395c-.74,1.86-14.08,37.5-14.08,37.5h28Z" transform="translate(-32.74 -358.6)"/><path class="h" d="M15442.32,432.47h13.93l-13.86-37.58c0,.05-.06,0-.06.15Z" transform="translate(-32.74 -358.6)"/><path class="g" d="M15605.36,388c-.74,1.86-14.08,37.5-14.08,37.5h28Z" transform="translate(-32.74 -358.6)"/><path class="h" d="M15605.32,425.47h13.93l-13.86-37.58c0,.05-.06,0-.06.15Z" transform="translate(-32.74 -358.6)"/><path class="g" d="M2881.36,392c-.74,1.86-14.08,37.5-14.08,37.5h28Z" transform="translate(-32.74 -358.6)"/><path class="h" d="M2881.32,429.47h13.93l-13.86-37.58c0,.05-.06,0-.06.15Z" transform="translate(-32.74 -358.6)"/><polyline class="i" points="2834.54 70.73 2816.03 79.7 2862.51 70.73"/><polyline class="i" points="2903.25 65.42 2888.11 72.76 2906.03 65.72"/><path class="g" d="M3271.36,384c-.74,1.86-14.08,37.5-14.08,37.5h28Z" transform="translate(-32.74 -358.6)"/><path class="h" d="M3271.32,421.47h13.93l-13.86-37.58c0,.05-.06,0-.06.15Z" transform="translate(-32.74 -358.6)"/><polyline class="i" points="3224.54 62.73 3206.03 71.7 3252.51 62.73"/><polygon class="a" points="3768.88 27.89 3798.8 27.89 3771.22 52.36 3742.05 51.29 3768.88 27.89"/><polygon class="b" points="3810.72 91.56 3728.63 91.56 3741.72 82.7 3824.27 82.7 3810.72 91.56"/><rect class="c" x="3742.05" y="51.17" width="30.07" height="31.53"/><rect class="c" x="3809.49" y="61.05" width="20.54" height="21.44"/><polygon class="a" points="3828.27 54.73 3843.39 54.73 3829.91 66.49 3814.71 66.55 3828.27 54.73"/><polygon class="b" points="3851.18 86.72 3818.44 86.5 3824.54 82.52 3856.38 82.24 3851.18 86.72"/><polygon class="d" points="3843.35 54.74 3829.91 66.49 3829.91 82.43 3856.39 82.43 3856.39 66.49 3843.35 54.74"/><path class="e" d="M3872.58,424.5a3.82,3.82,0,1,1,7.65,0" transform="translate(-32.74 -358.6)"/><rect class="e" x="3840.44" y="70.56" width="6.46" height="6.42"/><polygon class="d" points="3798.72 27.93 3772.12 51.17 3772.12 82.7 3824.51 82.7 3824.51 51.17 3798.72 27.93"/><rect class="f" x="3752.24" y="62.33" width="8.25" height="10.19"/><path class="e" d="M3824.51,408.61a7.56,7.56,0,0,1,15.13,0" transform="translate(-32.74 -358.6)"/><rect class="e" x="3782.79" y="58.45" width="12.13" height="15.52"/><polygon class="e" points="3805.11 58.94 3815.78 58.94 3815.78 82.7 3804.14 82.7 3804.14 58.94 3805.11 58.94"/><polygon class="a" points="4261.72 15.79 4291.64 15.79 4264.05 40.25 4234.89 39.18 4261.72 15.79"/><polygon class="b" points="4303.56 79.46 4221.46 79.46 4234.56 70.59 4317.1 70.59 4303.56 79.46"/><rect class="c" x="4234.89" y="39.07" width="30.07" height="31.53"/><rect class="c" x="4302.33" y="48.94" width="20.54" height="21.44"/><polygon class="a" points="4321.11 42.62 4336.23 42.62 4322.75 54.39 4307.55 54.45 4321.11 42.62"/><polygon class="b" points="4344.02 74.62 4311.28 74.4 4317.38 70.41 4349.21 70.14 4344.02 74.62"/><polygon class="d" points="4336.19 42.64 4322.75 54.39 4322.75 70.32 4349.22 70.32 4349.22 54.39 4336.19 42.64"/><path class="e" d="M4365.42,412.4a3.82,3.82,0,0,1,7.65,0" transform="translate(-32.74 -358.6)"/><rect class="e" x="4333.27" y="58.45" width="6.46" height="6.42"/><polygon class="d" points="4291.56 15.82 4264.96 39.07 4264.96 70.59 4317.34 70.59 4317.34 39.07 4291.56 15.82"/><rect class="f" x="4245.07" y="50.22" width="8.25" height="10.19"/><path class="e" d="M4317.35,396.5a7.56,7.56,0,0,1,15.13,0" transform="translate(-32.74 -358.6)"/><rect class="e" x="4275.63" y="46.34" width="12.13" height="15.52"/><polygon class="e" points="4297.94 46.83 4308.61 46.83 4308.61 70.59 4296.97 70.59 4296.97 46.83 4297.94 46.83"/><polygon class="a" points="6217.62 15.29 6247.54 15.29 6219.95 39.75 6190.79 38.68 6217.62 15.29"/><polygon class="b" points="6259.46 78.95 6177.37 78.95 6190.46 70.09 6273.01 70.09 6259.46 78.95"/><rect class="c" x="6190.79" y="38.57" width="30.07" height="31.53"/><rect class="c" x="6258.23" y="48.44" width="20.54" height="21.44"/><polygon class="a" points="6277.01 42.12 6292.13 42.12 6278.65 53.89 6263.45 53.95 6277.01 42.12"/><polygon class="b" points="6299.92 74.11 6267.18 73.9 6273.28 69.91 6305.11 69.64 6299.92 74.11"/><polygon class="d" points="6292.09 42.14 6278.65 53.89 6278.65 69.82 6305.12 69.82 6305.12 53.89 6292.09 42.14"/><path class="e" d="M6321.32,411.89a3.82,3.82,0,0,1,7.65,0" transform="translate(-32.74 -358.6)"/><rect class="e" x="6289.17" y="57.95" width="6.46" height="6.42"/><polygon class="d" points="6247.46 15.32 6220.86 38.57 6220.86 70.09 6273.24 70.09 6273.24 38.57 6247.46 15.32"/><rect class="f" x="6200.98" y="49.72" width="8.25" height="10.19"/><path class="e" d="M6273.25,396a7.56,7.56,0,0,1,15.13,0" transform="translate(-32.74 -358.6)"/><rect class="e" x="6231.53" y="45.84" width="12.13" height="15.52"/><polygon class="e" points="6253.84 46.33 6264.51 46.33 6264.51 70.09 6252.87 70.09 6252.87 46.33 6253.84 46.33"/><polygon class="a" points="5482.39 29.11 5512.31 29.11 5484.72 53.57 5455.56 52.51 5482.39 29.11"/><polygon class="b" points="5524.23 92.78 5442.13 92.78 5455.23 83.92 5537.77 83.92 5524.23 92.78"/><rect class="c" x="5455.56" y="52.39" width="30.07" height="31.53"/><rect class="c" x="5523" y="62.26" width="20.54" height="21.44"/><polygon class="a" points="5541.78 55.94 5556.9 55.94 5543.42 67.71 5528.22 67.77 5541.78 55.94"/><polygon class="b" points="5564.69 87.94 5531.95 87.72 5538.05 83.73 5569.88 83.46 5564.69 87.94"/><polygon class="d" points="5556.86 55.96 5543.42 67.71 5543.42 83.64 5569.89 83.64 5569.89 67.71 5556.86 55.96"/><path class="e" d="M5586.09,425.72a3.82,3.82,0,1,1,7.65,0" transform="translate(-32.74 -358.6)"/><rect class="e" x="5553.94" y="71.77" width="6.46" height="6.42"/><polygon class="d" points="5512.23 29.14 5485.63 52.39 5485.63 83.92 5538.01 83.92 5538.01 52.39 5512.23 29.14"/><rect class="f" x="5465.74" y="63.54" width="8.25" height="10.19"/><path class="e" d="M5538,409.82a7.56,7.56,0,0,1,15.13,0" transform="translate(-32.74 -358.6)"/><rect class="e" x="5496.3" y="59.66" width="12.13" height="15.52"/><polygon class="e" points="5518.61 60.15 5529.28 60.15 5529.28 83.92 5517.64 83.92 5517.64 60.15 5518.61 60.15"/><polygon class="a" points="4943.91 17.07 4973.83 17.07 4946.25 41.53 4917.09 40.46 4943.91 17.07"/><polygon class="b" points="4985.76 80.74 4903.66 80.74 4916.76 71.87 4999.3 71.87 4985.76 80.74"/><rect class="c" x="4917.09" y="40.35" width="30.07" height="31.53"/><rect class="c" x="4984.53" y="50.22" width="20.54" height="21.44"/><polygon class="a" points="5003.31 43.9 5018.43 43.9 5004.94 55.67 4989.74 55.73 5003.31 43.9"/><polygon class="b" points="5026.22 75.89 4993.48 75.68 4999.57 71.69 5031.41 71.42 5026.22 75.89"/><polygon class="d" points="5018.39 43.92 5004.94 55.67 5004.94 71.6 5031.42 71.6 5031.42 55.67 5018.39 43.92"/><path class="e" d="M5047.61,413.68a3.82,3.82,0,1,1,7.65,0" transform="translate(-32.74 -358.6)"/><rect class="e" x="5015.47" y="59.73" width="6.46" height="6.42"/><polygon class="d" points="4973.75 17.1 4947.16 40.35 4947.16 71.87 4999.54 71.87 4999.54 40.35 4973.75 17.1"/><rect class="f" x="4927.27" y="51.5" width="8.25" height="10.19"/><path class="e" d="M4999.54,397.78a7.56,7.56,0,1,1,15.13,0" transform="translate(-32.74 -358.6)"/><rect class="e" x="4957.83" y="47.62" width="12.13" height="15.52"/><polygon class="e" points="4980.14 48.11 4990.81 48.11 4990.81 71.87 4979.17 71.87 4979.17 48.11 4980.14 48.11"/><polygon class="a" points="6751.95 30.43 6781.86 30.43 6754.28 54.89 6725.12 53.83 6751.95 30.43"/><polygon class="b" points="6793.79 94.1 6711.69 94.1 6724.79 85.24 6807.33 85.24 6793.79 94.1"/><rect class="c" x="6725.12" y="53.71" width="30.07" height="31.53"/><rect class="c" x="6792.56" y="63.59" width="20.54" height="21.44"/><polygon class="a" points="6811.34 57.26 6826.46 57.26 6812.98 69.03 6797.78 69.09 6811.34 57.26"/><polygon class="b" points="6834.25 89.26 6801.51 89.04 6807.6 85.05 6839.44 84.78 6834.25 89.26"/><polygon class="d" points="6826.42 57.28 6812.98 69.03 6812.98 84.97 6839.45 84.97 6839.45 69.03 6826.42 57.28"/><path class="e" d="M6855.64,427a3.82,3.82,0,1,1,7.65,0" transform="translate(-32.74 -358.6)"/><rect class="e" x="6823.5" y="73.09" width="6.46" height="6.42"/><polygon class="d" points="6781.78 30.46 6755.19 53.71 6755.19 85.24 6807.57 85.24 6807.57 53.71 6781.78 30.46"/><rect class="f" x="6735.3" y="64.87" width="8.25" height="10.19"/><path class="e" d="M6807.57,411.14a7.56,7.56,0,1,1,15.13,0" transform="translate(-32.74 -358.6)"/><rect class="e" x="6765.86" y="60.99" width="12.13" height="15.52"/><polygon class="e" points="6788.17 61.47 6798.84 61.47 6798.84 85.24 6787.2 85.24 6787.2 61.47 6788.17 61.47"/><polygon class="a" points="7193.37 9.51 7223.29 9.51 7195.7 33.97 7166.54 32.9 7193.37 9.51"/><polygon class="a" points="7193.37 11.03 7223.29 11.03 7195.7 35.5 7166.54 34.43 7193.37 11.03"/><polygon class="b" points="7235.21 73.17 7153.12 73.17 7166.21 64.31 7248.76 64.31 7235.21 73.17"/><rect class="c" x="7166.54" y="32.79" width="30.07" height="31.53"/><rect class="c" x="7233.98" y="42.66" width="20.54" height="21.44"/><polygon class="a" points="7252.76 36.34 7267.88 36.34 7254.4 48.11 7239.2 48.16 7252.76 36.34"/><polygon class="b" points="7275.67 68.33 7242.93 68.12 7249.03 64.13 7280.86 63.85 7275.67 68.33"/><polygon class="d" points="7267.84 36.35 7254.4 48.11 7254.4 64.04 7280.87 64.04 7280.87 48.11 7267.84 36.35"/><path class="e" d="M7297.07,406.11a3.82,3.82,0,1,1,7.65,0" transform="translate(-32.74 -358.6)"/><rect class="e" x="7264.92" y="52.17" width="6.46" height="6.42"/><polygon class="d" points="7223.21 9.54 7196.61 32.79 7196.61 64.31 7248.99 64.31 7248.99 32.79 7223.21 9.54"/><rect class="f" x="7176.73" y="43.94" width="8.25" height="10.19"/><path class="e" d="M7249,390.22a7.56,7.56,0,0,1,15.13,0" transform="translate(-32.74 -358.6)"/><rect class="e" x="7207.28" y="40.06" width="12.13" height="15.52"/><polygon class="e" points="7229.59 40.55 7240.26 40.55 7240.26 64.31 7228.62 64.31 7228.62 40.55 7229.59 40.55"/><polygon class="a" points="7461.93 3.65 7491.85 3.65 7464.27 28.11 7435.1 27.04 7461.93 3.65"/><polygon class="b" points="7503.77 65.79 7421.68 65.79 7434.77 56.92 7517.32 56.92 7503.77 65.79"/><rect class="c" x="7435.1" y="25.4" width="30.07" height="31.53"/><rect class="c" x="7502.54" y="35.27" width="20.54" height="21.44"/><polygon class="a" points="7521.32 28.95 7536.44 28.95 7522.96 40.72 7507.76 40.78 7521.32 28.95"/><polygon class="b" points="7544.23 60.95 7511.49 60.73 7517.59 56.74 7549.42 56.47 7544.23 60.95"/><polygon class="d" points="7536.4 28.97 7522.96 40.72 7522.96 56.65 7549.43 56.65 7549.43 40.72 7536.4 28.97"/><path class="e" d="M7565.63,398.73a3.82,3.82,0,1,1,7.65,0" transform="translate(-32.74 -358.6)"/><rect class="e" x="7533.48" y="44.78" width="6.46" height="6.42"/><polygon class="d" points="7491.77 2.15 7465.17 25.4 7465.17 56.92 7517.55 56.92 7517.55 25.4 7491.77 2.15"/><rect class="f" x="7445.29" y="36.55" width="8.25" height="10.19"/><path class="e" d="M7517.56,382.83a7.56,7.56,0,0,1,15.13,0" transform="translate(-32.74 -358.6)"/><rect class="e" x="7475.84" y="32.67" width="12.13" height="15.52"/><polygon class="e" points="7498.15 33.16 7508.82 33.16 7508.82 56.92 7497.18 56.92 7497.18 33.16 7498.15 33.16"/><polygon class="a" points="7857.41 23.8 7887.33 23.8 7859.75 48.27 7830.58 47.2 7857.41 23.8"/><polygon class="b" points="7899.25 85.95 7817.16 85.95 7830.25 77.08 7912.8 77.08 7899.25 85.95"/><rect class="c" x="7830.58" y="45.56" width="30.07" height="31.53"/><rect class="c" x="7898.02" y="55.43" width="20.54" height="21.44"/><polygon class="a" points="7916.8 49.11 7931.92 49.11 7918.44 60.88 7903.24 60.94 7916.8 49.11"/><polygon class="b" points="7939.71 81.11 7906.97 80.89 7913.07 76.9 7944.91 76.63 7939.71 81.11"/><polygon class="d" points="7931.88 49.13 7918.44 60.88 7918.44 76.81 7944.92 76.81 7944.92 60.88 7931.88 49.13"/><path class="e" d="M7961.11,418.89a3.82,3.82,0,1,1,7.65,0" transform="translate(-32.74 -358.6)"/><rect class="e" x="7928.97" y="64.94" width="6.46" height="6.42"/><polygon class="d" points="7887.25 22.31 7860.65 45.56 7860.65 77.08 7913.04 77.08 7913.04 45.56 7887.25 22.31"/><rect class="f" x="7840.77" y="56.71" width="8.25" height="10.19"/><path class="e" d="M7913,403a7.56,7.56,0,1,1,15.13,0" transform="translate(-32.74 -358.6)"/><rect class="e" x="7871.32" y="52.83" width="12.13" height="15.52"/><polygon class="e" points="7893.64 53.32 7904.31 53.32 7904.31 77.08 7892.66 77.08 7892.66 53.32 7893.64 53.32"/><polygon class="a" points="8219.89 9.06 8249.81 9.06 8222.23 33.53 8193.06 32.46 8219.89 9.06"/><polygon class="b" points="8261.73 71.21 8179.64 71.21 8192.73 62.34 8275.28 62.34 8261.73 71.21"/><rect class="c" x="8193.06" y="30.82" width="30.07" height="31.53"/><rect class="c" x="8260.5" y="40.69" width="20.54" height="21.44"/><polygon class="a" points="8279.28 34.37 8294.4 34.37 8280.92 46.14 8265.72 46.2 8279.28 34.37"/><polygon class="b" points="8302.19 66.37 8269.45 66.15 8275.55 62.16 8307.38 61.89 8302.19 66.37"/><polygon class="d" points="8294.36 34.39 8280.92 46.14 8280.92 62.07 8307.4 62.07 8307.4 46.14 8294.36 34.39"/><path class="e" d="M8323.59,404.15a3.82,3.82,0,1,1,7.65,0" transform="translate(-32.74 -358.6)"/><rect class="e" x="8291.44" y="50.2" width="6.46" height="6.42"/><polygon class="d" points="8249.73 7.57 8223.13 30.82 8223.13 62.34 8275.51 62.34 8275.51 30.82 8249.73 7.57"/><rect class="f" x="8203.25" y="41.97" width="8.25" height="10.19"/><path class="e" d="M8275.52,388.25a7.56,7.56,0,1,1,15.13,0" transform="translate(-32.74 -358.6)"/><rect class="e" x="8233.8" y="38.09" width="12.13" height="15.52"/><polygon class="e" points="8256.11 38.58 8266.78 38.58 8266.78 62.34 8255.14 62.34 8255.14 38.58 8256.11 38.58"/><polygon class="a" points="8490.35 31.56 8520.27 31.56 8492.69 56.03 8463.52 54.96 8490.35 31.56"/><polygon class="b" points="8532.19 93.71 8450.1 93.71 8463.2 84.84 8545.74 84.84 8532.19 93.71"/><rect class="c" x="8463.52" y="53.32" width="30.07" height="31.53"/><rect class="c" x="8530.97" y="63.19" width="20.54" height="21.44"/><polygon class="a" points="8549.75 56.87 8564.87 56.87 8551.38 68.64 8536.18 68.7 8549.75 56.87"/><polygon class="b" points="8572.65 88.86 8539.91 88.65 8546.01 84.66 8577.85 84.39 8572.65 88.86"/><polygon class="d" points="8564.83 56.89 8551.38 68.64 8551.38 84.57 8577.86 84.57 8577.86 68.64 8564.83 56.89"/><path class="e" d="M8594.05,426.65a3.82,3.82,0,1,1,7.65,0" transform="translate(-32.74 -358.6)"/><rect class="e" x="8561.91" y="72.7" width="6.46" height="6.42"/><polygon class="d" points="8520.19 30.07 8493.6 53.32 8493.6 84.84 8545.98 84.84 8545.98 53.32 8520.19 30.07"/><rect class="f" x="8473.71" y="64.47" width="8.25" height="10.19"/><path class="e" d="M8546,410.75a7.56,7.56,0,1,1,15.13,0" transform="translate(-32.74 -358.6)"/><rect class="e" x="8504.27" y="60.59" width="12.13" height="15.52"/><polygon class="e" points="8526.58 61.08 8537.25 61.08 8537.25 84.84 8525.61 84.84 8525.61 61.08 8526.58 61.08"/><polygon class="a" points="9328.33 29.61 9358.25 29.61 9330.67 54.07 9301.5 53.01 9328.33 29.61"/><polygon class="b" points="9370.17 91.75 9288.08 91.75 9301.17 82.89 9383.72 82.89 9370.17 91.75"/><rect class="c" x="9301.5" y="51.36" width="30.07" height="31.53"/><rect class="c" x="9368.94" y="61.24" width="20.54" height="21.44"/><polygon class="a" points="9387.72 54.91 9402.84 54.91 9389.36 66.68 9374.16 66.74 9387.72 54.91"/><polygon class="b" points="9410.63 86.91 9377.89 86.69 9383.99 82.7 9415.82 82.43 9410.63 86.91"/><polygon class="d" points="9402.8 54.93 9389.36 66.68 9389.36 82.61 9415.83 82.61 9415.83 66.68 9402.8 54.93"/><path class="e" d="M9432,424.69a3.82,3.82,0,1,1,7.65,0" transform="translate(-32.74 -358.6)"/><rect class="e" x="9399.88" y="70.74" width="6.46" height="6.42"/><polygon class="d" points="9358.17 28.11 9331.57 51.36 9331.57 82.89 9383.95 82.89 9383.95 51.36 9358.17 28.11"/><rect class="f" x="9311.69" y="62.52" width="8.25" height="10.19"/><path class="e" d="M9384,408.79a7.56,7.56,0,1,1,15.13,0" transform="translate(-32.74 -358.6)"/><rect class="e" x="9342.24" y="58.64" width="12.13" height="15.52"/><polygon class="e" points="9364.55 59.12 9375.23 59.12 9375.23 82.89 9363.58 82.89 9363.58 59.12 9364.55 59.12"/><polygon class="a" points="9826.38 9.06 9856.3 9.06 9828.71 33.53 9799.55 32.46 9826.38 9.06"/><polygon class="b" points="9868.22 71.21 9786.12 71.21 9799.22 62.34 9881.76 62.34 9868.22 71.21"/><rect class="c" x="9799.55" y="30.82" width="30.07" height="31.53"/><rect class="c" x="9866.99" y="40.69" width="20.54" height="21.44"/><polygon class="a" points="9885.77 34.37 9900.89 34.37 9887.41 46.14 9872.21 46.2 9885.77 34.37"/><polygon class="b" points="9908.68 66.37 9875.94 66.15 9882.03 62.16 9913.87 61.89 9908.68 66.37"/><polygon class="d" points="9900.85 34.39 9887.41 46.14 9887.41 62.07 9913.88 62.07 9913.88 46.14 9900.85 34.39"/><path class="e" d="M9930.08,404.15a3.82,3.82,0,1,1,7.65,0" transform="translate(-32.74 -358.6)"/><rect class="e" x="9897.93" y="50.2" width="6.46" height="6.42"/><polygon class="d" points="9856.22 7.57 9829.62 30.82 9829.62 62.34 9882 62.34 9882 30.82 9856.22 7.57"/><rect class="f" x="9809.73" y="41.97" width="8.25" height="10.19"/><path class="e" d="M9882,388.25a7.56,7.56,0,0,1,15.13,0" transform="translate(-32.74 -358.6)"/><rect class="e" x="9840.29" y="38.09" width="12.13" height="15.52"/><polygon class="e" points="9862.6 38.58 9873.27 38.58 9873.27 62.34 9861.63 62.34 9861.63 38.58 9862.6 38.58"/><polygon class="a" points="10128.65 33.8 10158.57 33.8 10130.99 58.27 10101.82 57.2 10128.65 33.8"/><polygon class="b" points="10170.49 95.94 10088.4 95.94 10101.49 87.08 10184.04 87.08 10170.49 95.94"/><rect class="c" x="10101.82" y="55.56" width="30.07" height="31.53"/><rect class="c" x="10169.26" y="65.43" width="20.54" height="21.44"/><polygon class="a" points="10188.04 59.11 10203.16 59.11 10189.68 70.88 10174.48 70.94 10188.04 59.11"/><polygon class="b" points="10210.95 91.11 10178.21 90.89 10184.31 86.9 10216.14 86.63 10210.95 91.11"/><polygon class="d" points="10203.12 59.13 10189.68 70.88 10189.68 86.81 10216.16 86.81 10216.16 70.88 10203.12 59.13"/><path class="e" d="M10232.35,428.89a3.82,3.82,0,1,1,7.65,0" transform="translate(-32.74 -358.6)"/><rect class="e" x="10200.2" y="74.94" width="6.46" height="6.42"/><polygon class="d" points="10158.49 32.31 10131.89 55.56 10131.89 87.08 10184.27 87.08 10184.27 55.56 10158.49 32.31"/><rect class="f" x="10112.01" y="66.71" width="8.25" height="10.19"/><path class="e" d="M10184.28,413a7.56,7.56,0,0,1,15.13,0" transform="translate(-32.74 -358.6)"/><rect class="e" x="10142.56" y="62.83" width="12.13" height="15.52"/><polygon class="e" points="10164.87 63.32 10175.54 63.32 10175.54 87.08 10163.9 87.08 10163.9 63.32 10164.87 63.32"/><polygon class="a" points="10605.42 3.48 10635.34 3.48 10607.76 27.94 10578.6 26.88 10605.42 3.48"/><polygon class="b" points="10647.26 65.62 10565.17 65.62 10578.27 56.76 10660.81 56.76 10647.26 65.62"/><rect class="c" x="10578.6" y="25.23" width="30.07" height="31.53"/><rect class="c" x="10646.04" y="35.11" width="20.54" height="21.44"/><polygon class="a" points="10664.82 28.79 10679.94 28.79 10666.45 40.55 10651.25 40.61 10664.82 28.79"/><polygon class="b" points="10687.73 60.78 10654.99 60.56 10661.08 56.58 10692.92 56.3 10687.73 60.78"/><polygon class="d" points="10679.9 28.8 10666.45 40.55 10666.45 56.49 10692.93 56.49 10692.93 40.55 10679.9 28.8"/><path class="e" d="M10709.12,398.56a3.82,3.82,0,1,1,7.65,0" transform="translate(-32.74 -358.6)"/><rect class="e" x="10676.98" y="44.62" width="6.46" height="6.42"/><polygon class="d" points="10635.26 1.99 10608.67 25.23 10608.67 56.76 10661.05 56.76 10661.05 25.23 10635.26 1.99"/><rect class="f" x="10588.78" y="36.39" width="8.25" height="10.19"/><path class="e" d="M10661.05,382.67a7.56,7.56,0,1,1,15.13,0" transform="translate(-32.74 -358.6)"/><rect class="e" x="10619.34" y="32.51" width="12.13" height="15.52"/><polygon class="e" points="10641.65 32.99 10652.32 32.99 10652.32 56.76 10640.68 56.76 10640.68 32.99 10641.65 32.99"/><polygon class="a" points="10916.1 18.8 10946.01 18.8 10918.43 43.26 10889.27 42.19 10916.1 18.8"/><polygon class="b" points="10957.94 80.94 10875.84 80.94 10888.94 72.08 10971.48 72.08 10957.94 80.94"/><rect class="c" x="10889.27" y="40.55" width="30.07" height="31.53"/><rect class="c" x="10956.71" y="50.43" width="20.54" height="21.44"/><polygon class="a" points="10975.49 44.1 10990.61 44.1 10977.13 55.87 10961.93 55.93 10975.49 44.1"/><polygon class="b" points="10998.4 76.1 10965.66 75.88 10971.75 71.89 11003.59 71.62 10998.4 76.1"/><polygon class="d" points="10990.57 44.12 10977.13 55.87 10977.13 71.8 11003.6 71.8 11003.6 55.87 10990.57 44.12"/><path class="e" d="M11019.79,413.88a3.82,3.82,0,1,1,7.65,0" transform="translate(-32.74 -358.6)"/><rect class="e" x="10987.65" y="59.93" width="6.46" height="6.42"/><polygon class="d" points="10945.93 17.3 10919.34 40.55 10919.34 72.08 10971.72 72.08 10971.72 40.55 10945.93 17.3"/><rect class="f" x="10899.45" y="51.71" width="8.25" height="10.19"/><path class="e" d="M10971.72,398a7.56,7.56,0,0,1,15.13,0" transform="translate(-32.74 -358.6)"/><rect class="e" x="10930.01" y="47.83" width="12.13" height="15.52"/><polygon class="e" points="10952.32 48.31 10962.99 48.31 10962.99 72.08 10951.35 72.08 10951.35 48.31 10952.32 48.31"/><polygon class="a" points="11516.08 1.5 11545.99 1.5 11518.41 25.96 11489.25 24.89 11516.08 1.5"/><polygon class="b" points="11557.92 63.64 11475.82 63.64 11488.92 54.78 11571.46 54.78 11557.92 63.64"/><rect class="c" x="11489.25" y="23.25" width="30.07" height="31.53"/><rect class="c" x="11556.69" y="33.13" width="20.54" height="21.44"/><polygon class="a" points="11575.47 26.8 11590.59 26.8 11577.1 38.57 11561.91 38.63 11575.47 26.8"/><polygon class="b" points="11598.38 58.8 11565.64 58.58 11571.73 54.59 11603.57 54.32 11598.38 58.8"/><polygon class="d" points="11590.55 26.82 11577.1 38.57 11577.1 54.5 11603.58 54.5 11603.58 38.57 11590.55 26.82"/><path class="e" d="M11619.77,396.58a3.82,3.82,0,0,1,7.65,0" transform="translate(-32.74 -358.6)"/><rect class="e" x="11587.63" y="42.63" width="6.46" height="6.42"/><polygon class="d" points="11545.91 0 11519.32 23.25 11519.32 54.78 11571.7 54.78 11571.7 23.25 11545.91 0"/><rect class="f" x="11499.43" y="34.41" width="8.25" height="10.19"/><path class="e" d="M11571.7,380.68a7.56,7.56,0,0,1,15.13,0" transform="translate(-32.74 -358.6)"/><rect class="e" x="11529.99" y="30.53" width="12.13" height="15.52"/><polygon class="e" points="11552.3 31.01 11562.97 31.01 11562.97 54.78 11551.33 54.78 11551.33 31.01 11552.3 31.01"/><polygon class="a" points="12572.52 14.72 12602.44 14.72 12574.86 39.18 12545.69 38.11 12572.52 14.72"/><polygon class="b" points="12614.36 76.86 12532.27 76.86 12545.36 68 12627.91 68 12614.36 76.86"/><rect class="c" x="12545.69" y="36.47" width="30.07" height="31.53"/><rect class="c" x="12613.13" y="46.35" width="20.54" height="21.44"/><polygon class="a" points="12631.91 40.02 12647.03 40.02 12633.55 51.79 12618.35 51.85 12631.91 40.02"/><polygon class="b" points="12654.82 72.02 12622.08 71.8 12628.18 67.81 12660.02 67.54 12654.82 72.02"/><polygon class="d" points="12646.99 40.04 12633.55 51.79 12633.55 67.72 12660.03 67.72 12660.03 51.79 12646.99 40.04"/><path class="e" d="M12676.22,409.8a3.82,3.82,0,1,1,7.65,0" transform="translate(-32.74 -358.6)"/><rect class="e" x="12644.08" y="55.85" width="6.46" height="6.42"/><polygon class="d" points="12602.36 13.22 12575.76 36.47 12575.76 68 12628.15 68 12628.15 36.47 12602.36 13.22"/><rect class="j" x="12555.88" y="47.63" width="8.25" height="10.19"/><path class="j" d="M12628.15,393.9a7.56,7.56,0,1,1,15.13,0" transform="translate(-32.74 -358.6)"/><rect class="j" x="12586.43" y="43.75" width="12.13" height="15.52"/><polygon class="e" points="12608.75 44.23 12619.42 44.23 12619.42 68 12607.77 68 12607.77 44.23 12608.75 44.23"/><polygon class="a" points="13264.11 17.05 13294.02 17.05 13266.44 41.52 13237.28 40.45 13264.11 17.05"/><polygon class="b" points="13305.95 79.2 13223.85 79.2 13236.95 70.33 13319.49 70.33 13305.95 79.2"/><rect class="c" x="13237.28" y="38.81" width="30.07" height="31.53"/><rect class="c" x="13304.72" y="48.68" width="20.54" height="21.44"/><polygon class="a" points="13323.5 42.36 13338.62 42.36 13325.14 54.13 13309.94 54.19 13323.5 42.36"/><polygon class="b" points="13346.41 74.36 13313.67 74.14 13319.76 70.15 13351.6 69.88 13346.41 74.36"/><polygon class="d" points="13338.58 42.38 13325.14 54.13 13325.14 70.06 13351.61 70.06 13351.61 54.13 13338.58 42.38"/><path class="e" d="M13367.8,412.14a3.82,3.82,0,1,1,7.65,0" transform="translate(-32.74 -358.6)"/><rect class="e" x="13335.66" y="58.19" width="6.46" height="6.42"/><polygon class="d" points="13293.94 15.56 13267.35 38.81 13267.35 70.33 13319.73 70.33 13319.73 38.81 13293.94 15.56"/><rect class="f" x="13247.46" y="49.96" width="8.25" height="10.19"/><path class="j" d="M13319.73,396.24a7.56,7.56,0,1,1,15.13,0" transform="translate(-32.74 -358.6)"/><rect class="j" x="13278.02" y="46.08" width="12.13" height="15.52"/><polygon class="e" points="13300.33 46.57 13311 46.57 13311 70.33 13299.36 70.33 13299.36 46.57 13300.33 46.57"/><polygon class="a" points="13743.88 36.59 13773.8 36.59 13746.21 61.05 13717.05 59.99 13743.88 36.59"/><polygon class="b" points="13785.72 98.73 13703.63 98.73 13716.72 89.87 13799.26 89.87 13785.72 98.73"/><rect class="c" x="13717.05" y="58.34" width="30.07" height="31.53"/><rect class="c" x="13784.49" y="68.22" width="20.54" height="21.44"/><polygon class="a" points="13803.27 61.9 13818.39 61.9 13804.91 73.66 13789.71 73.72 13803.27 61.9"/><polygon class="b" points="13826.18 93.89 13793.44 93.67 13799.54 89.68 13831.37 89.41 13826.18 93.89"/><polygon class="d" points="13818.35 61.91 13804.91 73.66 13804.91 89.6 13831.38 89.6 13831.38 73.66 13818.35 61.91"/><path class="e" d="M13847.58,431.67a3.82,3.82,0,1,1,7.65,0" transform="translate(-32.74 -358.6)"/><rect class="e" x="13815.43" y="77.72" width="6.46" height="6.42"/><polygon class="d" points="13773.72 35.09 13747.12 58.34 13747.12 89.87 13799.5 89.87 13799.5 58.34 13773.72 35.09"/><rect class="f" x="13727.23" y="69.5" width="8.25" height="10.19"/><path class="j" d="M13799.51,415.77a7.56,7.56,0,0,1,15.13,0" transform="translate(-32.74 -358.6)"/><rect class="j" x="13757.79" y="65.62" width="12.13" height="15.52"/><polygon class="e" points="13780.1 66.1 13790.77 66.1 13790.77 89.87 13779.13 89.87 13779.13 66.1 13780.1 66.1"/><polygon class="a" points="14351.37 16.25 14381.29 16.25 14353.71 40.71 14324.55 39.64 14351.37 16.25"/><polygon class="b" points="14393.21 78.39 14311.12 78.39 14324.22 69.53 14406.76 69.53 14393.21 78.39"/><rect class="c" x="14324.54" y="38" width="30.07" height="31.53"/><rect class="c" x="14391.99" y="47.87" width="20.54" height="21.44"/><polygon class="a" points="14410.76 41.55 14425.89 41.55 14412.4 53.32 14397.2 53.38 14410.76 41.55"/><polygon class="b" points="14433.67 73.55 14400.93 73.33 14407.03 69.34 14438.87 69.07 14433.67 73.55"/><polygon class="d" points="14425.84 41.57 14412.4 53.32 14412.4 69.25 14438.88 69.25 14438.88 53.32 14425.84 41.57"/><path class="e" d="M14455.07,411.33a3.82,3.82,0,0,1,7.65,0" transform="translate(-32.74 -358.6)"/><rect class="e" x="14422.93" y="57.38" width="6.46" height="6.42"/><polygon class="d" points="14381.21 14.75 14354.62 38 14354.62 69.53 14407 69.53 14407 38 14381.21 14.75"/><rect class="f" x="14334.73" y="49.15" width="8.25" height="10.19"/><path class="j" d="M14407,395.43a7.56,7.56,0,0,1,15.13,0" transform="translate(-32.74 -358.6)"/><rect class="j" x="14365.29" y="45.27" width="12.13" height="15.52"/><polygon class="e" points="14387.6 45.76 14398.27 45.76 14398.27 69.53 14386.63 69.53 14386.63 45.76 14387.6 45.76"/><polygon class="a" points="14991.27 26.58 15021.19 26.58 14993.61 51.04 14964.44 49.98 14991.27 26.58"/><rect class="c" x="14964.44" y="48.33" width="30.07" height="31.53"/><rect class="c" x="15031.88" y="58.21" width="20.54" height="21.44"/><polygon class="a" points="15050.66 51.89 15065.78 51.89 15052.3 63.65 15037.1 63.71 15050.66 51.89"/><polygon class="d" points="15065.74 51.9 15052.3 63.65 15052.3 79.59 15078.77 79.59 15078.77 63.65 15065.74 51.9"/><path class="j" d="M15095,421.66a3.82,3.82,0,1,1,7.65,0" transform="translate(-32.74 -358.6)"/><rect class="j" x="15062.82" y="67.71" width="6.46" height="6.42"/><polygon class="d" points="15021.11 25.08 14994.51 48.33 14994.51 79.86 15046.89 79.86 15046.89 48.33 15021.11 25.08"/><rect class="j" x="14974.63" y="59.49" width="8.25" height="10.19"/><path class="j" d="M15046.9,405.76a7.56,7.56,0,1,1,15.13,0" transform="translate(-32.74 -358.6)"/><rect class="j" x="15005.18" y="55.61" width="12.13" height="15.52"/><polygon class="e" points="15027.49 56.09 15038.16 56.09 15038.16 79.86 15026.52 79.86 15026.52 56.09 15027.49 56.09"/><polygon class="a" points="6465.91 22.98 6495.82 22.98 6468.24 47.44 6439.08 46.38 6465.91 22.98"/><polygon class="b" points="6507.74 86.65 6425.65 86.65 6438.75 77.79 6521.29 77.79 6507.74 86.65"/><rect class="c" x="6439.08" y="46.26" width="30.07" height="31.53"/><rect class="c" x="6506.52" y="56.14" width="20.54" height="21.44"/><polygon class="a" points="6525.3 49.81 6540.42 49.81 6526.94 61.58 6511.74 61.64 6525.3 49.81"/><polygon class="b" points="6548.21 81.81 6515.47 81.59 6521.56 77.6 6553.4 77.33 6548.21 81.81"/><polygon class="d" points="6540.38 49.83 6526.94 61.58 6526.94 77.52 6553.41 77.52 6553.41 61.58 6540.38 49.83"/><path class="e" d="M6569.6,419.59a3.82,3.82,0,1,1,7.65,0" transform="translate(-32.74 -358.6)"/><rect class="e" x="6537.46" y="65.64" width="6.46" height="6.42"/><polygon class="d" points="6495.74 23.01 6469.15 46.26 6469.15 77.79 6521.53 77.79 6521.53 46.26 6495.74 23.01"/><rect class="f" x="6449.26" y="57.42" width="8.25" height="10.19"/><path class="e" d="M6521.53,403.69a7.56,7.56,0,1,1,15.13,0" transform="translate(-32.74 -358.6)"/><rect class="e" x="6479.82" y="53.54" width="12.13" height="15.52"/><polygon class="e" points="6502.13 54.02 6512.8 54.02 6512.8 77.79 6501.16 77.79 6501.16 54.02 6502.13 54.02"/><path class="g" d="M3050.36,411c-.74,1.86-14.08,37.5-14.08,37.5h28Z" transform="translate(-32.74 -358.6)"/><path class="h" d="M3050.32,448.47h13.93l-13.86-37.58c0,.05-.06,0-.06.15Z" transform="translate(-32.74 -358.6)"/><polyline class="i" points="3003.54 89.73 2985.03 98.7 3031.51 89.73"/><rect class="k" x="2903.42" y="46.47" width="2.6" height="19.24"/><rect class="l" x="2904.72" y="46.33" width="1.3" height="19.38"/><circle class="g" cx="2904.72" cy="39.15" r="10.9"/><line class="m" x1="14171.21" y1="44.87" x2="14254.56" y2="15.23"/><path class="h" d="M2948.22,397.75a10.92,10.92,0,0,0-10.9-10.9v21.81A10.92,10.92,0,0,0,2948.22,397.75Z" transform="translate(-32.74 -358.6)"/><polyline class="i" points="3064.25 60.42 3049.11 67.76 3067.03 60.72"/><rect class="k" x="3064.42" y="41.47" width="2.6" height="19.24"/><rect class="l" x="3065.72" y="41.33" width="1.3" height="19.38"/><circle class="g" cx="3065.72" cy="34.15" r="10.9"/><path class="h" d="M3109.22,392.75a10.92,10.92,0,0,0-10.9-10.9v21.81A10.92,10.92,0,0,0,3109.22,392.75Z" transform="translate(-32.74 -358.6)"/><polyline class="i" points="3166.25 72.42 3151.11 79.76 3169.03 72.72"/><rect class="k" x="3166.42" y="53.47" width="2.6" height="19.24"/><rect class="l" x="3167.72" y="53.33" width="1.3" height="19.38"/><circle class="g" cx="3167.72" cy="46.15" r="10.9"/><path class="h" d="M3211.22,404.75a10.92,10.92,0,0,0-10.9-10.9v21.81A10.92,10.92,0,0,0,3211.22,404.75Z" transform="translate(-32.74 -358.6)"/><polyline class="i" points="3663.03 61.03 3650.32 67.19 3665.36 61.28"/><rect class="k" x="3663.17" y="45.12" width="2.19" height="16.16"/><rect class="l" x="3664.27" y="45" width="1.09" height="16.28"/><circle class="g" cx="3664.27" cy="38.97" r="9.16"/><path class="h" d="M3706.47,397.57a9.19,9.19,0,0,0-9.16-9.16v18.31A9.19,9.19,0,0,0,3706.47,397.57Z" transform="translate(-32.74 -358.6)"/><polyline class="i" points="3614.03 85.03 3601.32 91.19 3616.36 85.28"/><rect class="k" x="3614.17" y="69.12" width="2.19" height="16.16"/><rect class="l" x="3615.27" y="69" width="1.09" height="16.28"/><circle class="g" cx="3615.27" cy="62.97" r="9.16"/><path class="h" d="M3657.47,421.57a9.19,9.19,0,0,0-9.16-9.16v18.31A9.19,9.19,0,0,0,3657.47,421.57Z" transform="translate(-32.74 -358.6)"/><polyline class="i" points="3964.03 63.03 3951.32 69.19 3966.36 63.28"/><rect class="k" x="3964.17" y="47.12" width="2.19" height="16.16" rx="1.09" ry="1.09"/><rect class="l" x="3965.27" y="47" width="1.09" height="16.28"/><circle class="g" cx="3965.27" cy="40.97" r="9.16"/><path class="h" d="M4007.47,399.57a9.2,9.2,0,0,0-7.93-9.07,1.1,1.1,0,0,0-1.23,1.09v16a1.1,1.1,0,0,0,1.23,1.09A9.2,9.2,0,0,0,4007.47,399.57Z" transform="translate(-32.74 -358.6)"/><polyline class="i" points="4014.53 89.5 4001.82 95.67 4016.86 89.75"/><rect class="k" x="4014.67" y="73.59" width="2.19" height="16.16" rx="1.09" ry="1.09"/><rect class="l" x="4015.77" y="73.48" width="1.09" height="16.28"/><circle class="g" cx="4015.77" cy="67.45" r="9.16"/><path class="h" d="M4058,426A9.2,9.2,0,0,0,4050,417a1.1,1.1,0,0,0-1.23,1.09v16a1.1,1.1,0,0,0,1.23,1.09A9.2,9.2,0,0,0,4058,426Z" transform="translate(-32.74 -358.6)"/><polyline class="i" points="4080.53 58.75 4067.82 64.91 4082.86 59"/><rect class="k" x="4080.67" y="42.84" width="2.19" height="16.16" rx="1.09" ry="1.09"/><rect class="l" x="4081.77" y="42.72" width="1.09" height="16.28"/><circle class="g" cx="4081.77" cy="36.69" r="9.16"/><path class="h" d="M4124,395.29a9.2,9.2,0,0,0-7.93-9.07,1.1,1.1,0,0,0-1.23,1.09v16a1.1,1.1,0,0,0,1.23,1.09A9.2,9.2,0,0,0,4124,395.29Z" transform="translate(-32.74 -358.6)"/><polyline class="i" points="3883.26 72.25 3870.54 78.42 3885.59 72.5"/><rect class="k" x="3883.4" y="56.34" width="2.19" height="16.16" rx="1.09" ry="1.09"/><rect class="l" x="3884.49" y="56.22" width="1.09" height="16.28"/><circle class="g" cx="3884.49" cy="50.2" r="9.16"/><path class="h" d="M3926.7,408.79a9.2,9.2,0,0,0-7.93-9.07,1.1,1.1,0,0,0-1.23,1.09v16a1.1,1.1,0,0,0,1.23,1.09A9.2,9.2,0,0,0,3926.7,408.79Z" transform="translate(-32.74 -358.6)"/><polyline class="i" points="3120.25 61.42 3105.11 68.76 3123.03 61.72"/><rect class="k" x="3120.42" y="42.47" width="2.6" height="19.24"/><rect class="l" x="3121.72" y="42.33" width="1.3" height="19.38"/><circle class="g" cx="3121.72" cy="35.15" r="10.9"/><path class="h" d="M3165.22,393.75a10.92,10.92,0,0,0-10.9-10.9v21.81A10.92,10.92,0,0,0,3165.22,393.75Z" transform="translate(-32.74 -358.6)"/><path class="g" d="M4839.36,384c-.74,1.86-14.08,37.5-14.08,37.5h28Z" transform="translate(-32.74 -358.6)"/><path class="h" d="M4839.32,421.47h13.93l-13.86-37.58c0,.05-.06,0-.06.15Z" transform="translate(-32.74 -358.6)"/><polyline class="i" points="4792.54 62.73 4774.03 71.7 4820.51 62.73"/><path class="g" d="M4618.36,411c-.74,1.86-14.08,37.5-14.08,37.5h28Z" transform="translate(-32.74 -358.6)"/><path class="h" d="M4618.32,448.47h13.93l-13.86-37.58c0,.05-.06,0-.06.15Z" transform="translate(-32.74 -358.6)"/><polyline class="i" points="4571.54 89.73 4553.03 98.7 4599.51 89.73"/><polyline class="i" points="4734.25 72.42 4719.11 79.76 4737.02 72.72"/><rect class="k" x="4734.42" y="53.47" width="2.6" height="19.24"/><rect class="l" x="4735.72" y="53.33" width="1.3" height="19.38"/><circle class="g" cx="4735.72" cy="46.15" r="10.9"/><path class="h" d="M4779.22,404.75a10.92,10.92,0,0,0-10.9-10.9v21.81A10.92,10.92,0,0,0,4779.22,404.75Z" transform="translate(-32.74 -358.6)"/><polyline class="i" points="4688.25 61.42 4673.11 68.76 4691.02 61.72"/><rect class="k" x="4688.42" y="42.47" width="2.6" height="19.24"/><rect class="l" x="4689.72" y="42.33" width="1.3" height="19.38"/><circle class="g" cx="4689.72" cy="35.15" r="10.9"/><path class="h" d="M4733.22,393.75a10.92,10.92,0,0,0-10.9-10.9v21.81A10.92,10.92,0,0,0,4733.22,393.75Z" transform="translate(-32.74 -358.6)"/><path class="g" d="M6093.36,384c-.74,1.86-14.08,37.5-14.08,37.5h28Z" transform="translate(-32.74 -358.6)"/><path class="h" d="M6093.32,421.47h13.93l-13.86-37.58c0,.05-.06,0-.06.15Z" transform="translate(-32.74 -358.6)"/><polyline class="i" points="6046.54 62.73 6028.03 71.7 6074.51 62.73"/><polyline class="i" points="5988.25 72.42 5973.11 79.76 5991.02 72.72"/><rect class="k" x="5988.42" y="53.47" width="2.6" height="19.24"/><rect class="l" x="5989.72" y="53.33" width="1.3" height="19.38"/><circle class="g" cx="5989.72" cy="46.15" r="10.9"/><path class="h" d="M6033.22,404.75a10.92,10.92,0,0,0-10.9-10.9v21.81A10.92,10.92,0,0,0,6033.22,404.75Z" transform="translate(-32.74 -358.6)"/><polyline class="i" points="5942.25 61.42 5927.11 68.76 5945.02 61.72"/><rect class="k" x="5942.42" y="42.47" width="2.6" height="19.24"/><rect class="l" x="5943.72" y="42.33" width="1.3" height="19.38"/><circle class="g" cx="5943.72" cy="35.15" r="10.9"/><path class="h" d="M5987.22,393.75a10.92,10.92,0,0,0-10.9-10.9v21.81A10.92,10.92,0,0,0,5987.22,393.75Z" transform="translate(-32.74 -358.6)"/><polyline class="i" points="5737.25 76.42 5722.11 83.76 5740.02 76.72"/><rect class="k" x="5737.42" y="57.47" width="2.6" height="19.24"/><rect class="l" x="5738.72" y="57.33" width="1.3" height="19.38"/><circle class="g" cx="5738.72" cy="50.15" r="10.9"/><path class="h" d="M5782.22,408.75a10.92,10.92,0,0,0-10.9-10.9v21.81A10.92,10.92,0,0,0,5782.22,408.75Z" transform="translate(-32.74 -358.6)"/><polyline class="i" points="5385.25 68.42 5370.11 75.76 5388.02 68.72"/><rect class="k" x="5385.42" y="49.47" width="2.6" height="19.24"/><rect class="l" x="5386.72" y="49.33" width="1.3" height="19.38"/><circle class="g" cx="5386.72" cy="42.15" r="10.9"/><path class="h" d="M5430.22,400.75a10.92,10.92,0,0,0-10.9-10.9v21.81A10.92,10.92,0,0,0,5430.22,400.75Z" transform="translate(-32.74 -358.6)"/><path class="n" d="M10572.7,446.64c0-3.92,3.93-7.1,8.77-7.1s8.77,3.18,8.77,7.1" transform="translate(-32.74 -358.6)"/><path class="o" d="M10590.34,446.64c0-4-3.93-7.1-8.77-7.1v7.1Z" transform="translate(-32.74 -358.6)"/><path class="n" d="M10591,446.64c0-2.64,2.46-4.78,5.5-4.78s5.5,2.14,5.5,4.78" transform="translate(-32.74 -358.6)"/><path class="o" d="M10602,446.64c0-3-2.48-4.78-5.48-4.78v4.78Z" transform="translate(-32.74 -358.6)"/><polyline class="i" points="10569.31 88.04 10559.62 92.5 10530.27 92.5 10539.96 88.04"/><path class="n" d="M10435.7,419c0-3.92,3.93-7.1,8.77-7.1s8.77,3.18,8.77,7.1" transform="translate(-32.74 -358.6)"/><path class="o" d="M10453.34,419c0-4-3.93-7.1-8.77-7.1V419Z" transform="translate(-32.74 -358.6)"/><path class="n" d="M10454,419c0-2.64,2.46-4.78,5.5-4.78s5.5,2.14,5.5,4.78" transform="translate(-32.74 -358.6)"/><path class="o" d="M10465,419c0-3-2.48-4.78-5.48-4.78V419Z" transform="translate(-32.74 -358.6)"/><polyline class="i" points="10432.31 60.43 10422.62 64.89 10393.27 64.89 10402.96 60.43"/><path class="n" d="M9968,412.66c0-3.92,3.93-7.1,8.77-7.1s8.77,3.18,8.77,7.1" transform="translate(-32.74 -358.6)"/><path class="o" d="M9985.62,412.66c0-4-3.93-7.1-8.77-7.1v7.1Z" transform="translate(-32.74 -358.6)"/><path class="n" d="M9986.27,412.66c0-2.64,2.46-4.78,5.5-4.78s5.5,2.14,5.5,4.78" transform="translate(-32.74 -358.6)"/><path class="o" d="M9997.33,412.66c0-3-2.48-4.78-5.48-4.78v4.78Z" transform="translate(-32.74 -358.6)"/><polyline class="i" points="9964.59 54.06 9954.9 58.52 9925.55 58.52 9935.24 54.06"/><path class="n" d="M9719.74,437.62c0-3.92,3.93-7.1,8.77-7.1s8.77,3.18,8.77,7.1" transform="translate(-32.74 -358.6)"/><path class="o" d="M9737.38,437.62c0-4-3.93-7.1-8.77-7.1v7.1Z" transform="translate(-32.74 -358.6)"/><path class="n" d="M9738,437.62c0-2.64,2.46-4.78,5.5-4.78s5.5,2.14,5.5,4.78" transform="translate(-32.74 -358.6)"/><path class="o" d="M9749.09,437.62c0-3-2.48-4.78-5.48-4.78v4.78Z" transform="translate(-32.74 -358.6)"/><polyline class="i" points="9716.35 79.02 9706.66 83.48 9677.31 83.48 9687 79.02"/><path class="n" d="M9504.49,412c0-3.92,3.93-7.1,8.77-7.1s8.77,3.18,8.77,7.1" transform="translate(-32.74 -358.6)"/><path class="o" d="M9522.13,412c0-4-3.93-7.1-8.77-7.1V412Z" transform="translate(-32.74 -358.6)"/><path class="n" d="M9522.78,412c0-2.64,2.46-4.78,5.5-4.78s5.5,2.14,5.5,4.78" transform="translate(-32.74 -358.6)"/><path class="o" d="M9533.84,412c0-3-2.48-4.78-5.48-4.78V412Z" transform="translate(-32.74 -358.6)"/><polyline class="i" points="9501.1 53.44 9491.41 57.9 9462.06 57.9 9471.75 53.44"/><path class="n" d="M9077,418.56c0-3.92,3.93-7.1,8.77-7.1s8.77,3.18,8.77,7.1" transform="translate(-32.74 -358.6)"/><path class="o" d="M9094.63,418.56c0-4-3.93-7.1-8.77-7.1v7.1Z" transform="translate(-32.74 -358.6)"/><path class="n" d="M9095.28,418.56c0-2.64,2.46-4.78,5.5-4.78s5.5,2.14,5.5,4.78" transform="translate(-32.74 -358.6)"/><path class="o" d="M9106.34,418.56c0-3-2.48-4.78-5.48-4.78v4.78Z" transform="translate(-32.74 -358.6)"/><polyline class="i" points="9073.6 59.96 9063.91 64.42 9034.56 64.42 9044.25 59.96"/><path class="n" d="M8645.19,413.24c0-3.92,3.93-7.1,8.77-7.1s8.77,3.18,8.77,7.1" transform="translate(-32.74 -358.6)"/><path class="o" d="M8662.83,413.24c0-4-3.93-7.1-8.77-7.1v7.1Z" transform="translate(-32.74 -358.6)"/><path class="n" d="M8663.48,413.24c0-2.64,2.46-4.78,5.5-4.78s5.5,2.14,5.5,4.78" transform="translate(-32.74 -358.6)"/><path class="o" d="M8674.54,413.24c0-3-2.48-4.78-5.48-4.78v4.78Z" transform="translate(-32.74 -358.6)"/><polyline class="i" points="8641.8 54.64 8632.11 59.1 8602.76 59.1 8612.45 54.64"/><path class="n" d="M8439.69,427.65c0-3.92,3.93-7.1,8.77-7.1s8.77,3.18,8.77,7.1" transform="translate(-32.74 -358.6)"/><path class="o" d="M8457.33,427.65c0-4-3.93-7.1-8.77-7.1v7.1Z" transform="translate(-32.74 -358.6)"/><path class="n" d="M8458,427.65c0-2.64,2.46-4.78,5.5-4.78s5.5,2.14,5.5,4.78" transform="translate(-32.74 -358.6)"/><path class="o" d="M8469,427.65c0-3-2.48-4.78-5.48-4.78v4.78Z" transform="translate(-32.74 -358.6)"/><polyline class="i" points="8436.3 69.06 8426.61 73.51 8397.26 73.51 8406.95 69.06"/><path class="n" d="M8129,420.51c0-3.92,3.93-7.1,8.77-7.1s8.77,3.18,8.77,7.1" transform="translate(-32.74 -358.6)"/><path class="o" d="M8146.62,420.51c0-4-3.93-7.1-8.77-7.1v7.1Z" transform="translate(-32.74 -358.6)"/><path class="n" d="M8147.27,420.51c0-2.64,2.46-4.78,5.5-4.78s5.5,2.14,5.5,4.78" transform="translate(-32.74 -358.6)"/><path class="o" d="M8158.33,420.51c0-3-2.48-4.78-5.48-4.78v4.78Z" transform="translate(-32.74 -358.6)"/><polyline class="i" points="8125.59 61.91 8115.9 66.37 8086.55 66.37 8096.24 61.91"/><path class="n" d="M7381.69,428.66c0-3.92,3.93-7.1,8.77-7.1s8.77,3.18,8.77,7.1" transform="translate(-32.74 -358.6)"/><path class="o" d="M7399.33,428.66c0-4-3.93-7.1-8.77-7.1v7.1Z" transform="translate(-32.74 -358.6)"/><path class="n" d="M7400,428.66c0-2.64,2.46-4.78,5.5-4.78s5.5,2.14,5.5,4.78" transform="translate(-32.74 -358.6)"/><path class="o" d="M7411,428.66c0-3-2.48-4.78-5.48-4.78v4.78Z" transform="translate(-32.74 -358.6)"/><polyline class="i" points="7378.3 70.07 7368.61 74.52 7339.26 74.52 7348.95 70.07"/><path class="n" d="M7126.9,415.5c0-3.92,3.93-7.1,8.77-7.1s8.77,3.18,8.77,7.1" transform="translate(-32.74 -358.6)"/><path class="o" d="M7144.54,415.5c0-4-3.93-7.1-8.77-7.1v7.1Z" transform="translate(-32.74 -358.6)"/><path class="n" d="M7145.19,415.5c0-2.64,2.46-4.78,5.5-4.78s5.5,2.14,5.5,4.78" transform="translate(-32.74 -358.6)"/><path class="o" d="M7156.25,415.5c0-3-2.48-4.78-5.48-4.78v4.78Z" transform="translate(-32.74 -358.6)"/><polyline class="i" points="7123.51 56.9 7113.82 61.36 7084.47 61.36 7094.16 56.9"/><path class="n" d="M6715.83,417.77c0-3.92,3.93-7.1,8.77-7.1s8.77,3.18,8.77,7.1" transform="translate(-32.74 -358.6)"/><path class="o" d="M6733.47,417.77c0-4-3.93-7.1-8.77-7.1v7.1Z" transform="translate(-32.74 -358.6)"/><path class="n" d="M6734.12,417.77c0-2.64,2.46-4.78,5.5-4.78s5.5,2.14,5.5,4.78" transform="translate(-32.74 -358.6)"/><path class="o" d="M6745.18,417.77c0-3-2.48-4.78-5.48-4.78v4.78Z" transform="translate(-32.74 -358.6)"/><polyline class="i" points="6712.44 59.17 6702.75 63.63 6673.4 63.63 6683.09 59.17"/><path class="n" d="M6427.33,414.81c0-3.92,3.93-7.1,8.77-7.1s8.77,3.18,8.77,7.1" transform="translate(-32.74 -358.6)"/><path class="o" d="M6445,414.81c0-4-3.93-7.1-8.77-7.1v7.1Z" transform="translate(-32.74 -358.6)"/><path class="n" d="M6445.62,414.81c0-2.64,2.46-4.78,5.5-4.78s5.5,2.14,5.5,4.78" transform="translate(-32.74 -358.6)"/><path class="o" d="M6456.68,414.81c0-3-2.48-4.78-5.48-4.78v4.78Z" transform="translate(-32.74 -358.6)"/><polyline class="i" points="6423.94 56.22 6414.25 60.67 6384.9 60.67 6394.59 56.22"/><path class="n" d="M5861.13,431.62c0-3.92,3.93-7.1,8.77-7.1s8.77,3.18,8.77,7.1" transform="translate(-32.74 -358.6)"/><path class="o" d="M5878.77,431.62c0-4-3.93-7.1-8.77-7.1v7.1Z" transform="translate(-32.74 -358.6)"/><path class="n" d="M5879.42,431.62c0-2.64,2.46-4.78,5.5-4.78s5.5,2.14,5.5,4.78" transform="translate(-32.74 -358.6)"/><path class="o" d="M5890.48,431.62c0-3-2.48-4.78-5.48-4.78v4.78Z" transform="translate(-32.74 -358.6)"/><polyline class="i" points="5857.74 73.02 5848.05 77.48 5818.7 77.48 5828.39 73.02"/><path class="n" d="M5660.35,421c0-3.92,3.93-7.1,8.77-7.1s8.77,3.18,8.77,7.1" transform="translate(-32.74 -358.6)"/><path class="o" d="M5678,421c0-4-3.93-7.1-8.77-7.1V421Z" transform="translate(-32.74 -358.6)"/><path class="n" d="M5678.64,421c0-2.64,2.46-4.78,5.5-4.78s5.5,2.14,5.5,4.78" transform="translate(-32.74 -358.6)"/><path class="o" d="M5689.7,421c0-3-2.48-4.78-5.48-4.78V421Z" transform="translate(-32.74 -358.6)"/><polyline class="i" points="5656.96 62.38 5647.27 66.83 5617.93 66.83 5627.61 62.38"/><path class="n" d="M5432.41,443.56c0-3.92,3.93-7.1,8.77-7.1s8.77,3.18,8.77,7.1" transform="translate(-32.74 -358.6)"/><path class="o" d="M5450,443.56c0-4-3.93-7.1-8.77-7.1v7.1Z" transform="translate(-32.74 -358.6)"/><path class="n" d="M5450.7,443.56c0-2.64,2.46-4.78,5.5-4.78s5.5,2.14,5.5,4.78" transform="translate(-32.74 -358.6)"/><path class="o" d="M5461.76,443.56c0-3-2.48-4.78-5.48-4.78v4.78Z" transform="translate(-32.74 -358.6)"/><polyline class="i" points="5429.02 84.97 5419.33 89.42 5389.98 89.42 5399.67 84.97"/><path class="n" d="M5256,419.91c0-3.92,3.93-7.1,8.77-7.1s8.77,3.18,8.77,7.1" transform="translate(-32.74 -358.6)"/><path class="o" d="M5273.65,419.91c0-4-3.93-7.1-8.77-7.1v7.1Z" transform="translate(-32.74 -358.6)"/><path class="n" d="M5274.3,419.91c0-2.64,2.46-4.78,5.5-4.78s5.5,2.14,5.5,4.78" transform="translate(-32.74 -358.6)"/><path class="o" d="M5285.36,419.91c0-3-2.48-4.78-5.48-4.78v4.78Z" transform="translate(-32.74 -358.6)"/><polyline class="i" points="5252.62 61.31 5242.93 65.77 5213.58 65.77 5223.27 61.31"/><path class="n" d="M5119.39,419.91c0-3.92,3.93-7.1,8.77-7.1s8.77,3.18,8.77,7.1" transform="translate(-32.74 -358.6)"/><path class="o" d="M5137,419.91c0-4-3.93-7.1-8.77-7.1v7.1Z" transform="translate(-32.74 -358.6)"/><path class="n" d="M5137.68,419.91c0-2.64,2.46-4.78,5.5-4.78s5.5,2.14,5.5,4.78" transform="translate(-32.74 -358.6)"/><path class="o" d="M5148.74,419.91c0-3-2.48-4.78-5.48-4.78v4.78Z" transform="translate(-32.74 -358.6)"/><polyline class="i" points="5116 61.31 5106.31 65.77 5076.96 65.77 5086.65 61.31"/><path class="n" d="M4868,428.68c0-3.92,3.93-7.1,8.77-7.1s8.77,3.18,8.77,7.1" transform="translate(-32.74 -358.6)"/><path class="o" d="M4885.68,428.68c0-4-3.93-7.1-8.77-7.1v7.1Z" transform="translate(-32.74 -358.6)"/><path class="n" d="M4886.33,428.68c0-2.64,2.46-4.78,5.5-4.78s5.5,2.14,5.5,4.78" transform="translate(-32.74 -358.6)"/><path class="o" d="M4897.39,428.68c0-3-2.48-4.78-5.48-4.78v4.78Z" transform="translate(-32.74 -358.6)"/><polyline class="i" points="4864.65 70.08 4854.96 74.54 4825.61 74.54 4835.3 70.08"/><path class="n" d="M4180.9,427.37c0-3.92,3.93-7.1,8.77-7.1s8.77,3.18,8.77,7.1" transform="translate(-32.74 -358.6)"/><path class="o" d="M4198.53,427.37c0-4-3.93-7.1-8.77-7.1v7.1Z" transform="translate(-32.74 -358.6)"/><path class="n" d="M4199.19,427.37c0-2.64,2.46-4.78,5.5-4.78s5.5,2.14,5.5,4.78" transform="translate(-32.74 -358.6)"/><path class="o" d="M4210.24,427.37c0-3-2.48-4.78-5.48-4.78v4.78Z" transform="translate(-32.74 -358.6)"/><polyline class="i" points="4177.51 68.77 4167.82 73.23 4138.47 73.23 4148.16 68.77"/><path class="n" d="M3965.4,441.53c0-3.92,3.93-7.1,8.77-7.1s8.77,3.18,8.77,7.1" transform="translate(-32.74 -358.6)"/><path class="o" d="M3983,441.53c0-4-3.93-7.1-8.77-7.1v7.1Z" transform="translate(-32.74 -358.6)"/><path class="n" d="M3983.69,441.53c0-2.64,2.46-4.78,5.5-4.78s5.5,2.14,5.5,4.78" transform="translate(-32.74 -358.6)"/><path class="o" d="M3994.74,441.53c0-3-2.48-4.78-5.48-4.78v4.78Z" transform="translate(-32.74 -358.6)"/><polyline class="i" points="3962.01 82.94 3952.32 87.39 3922.97 87.39 3932.66 82.94"/><path class="n" d="M3702.65,435.25c0-3.92,3.93-7.1,8.77-7.1s8.77,3.18,8.77,7.1" transform="translate(-32.74 -358.6)"/><path class="o" d="M3720.28,435.25c0-4-3.93-7.1-8.77-7.1v7.1Z" transform="translate(-32.74 -358.6)"/><path class="n" d="M3720.94,435.25c0-2.64,2.46-4.78,5.5-4.78s5.5,2.14,5.5,4.78" transform="translate(-32.74 -358.6)"/><path class="o" d="M3732,435.25c0-3-2.48-4.78-5.48-4.78v4.78Z" transform="translate(-32.74 -358.6)"/><polyline class="i" points="3699.26 76.66 3689.57 81.11 3660.22 81.11 3669.91 76.66"/><path class="n" d="M3315.9,424c0-3.92,3.93-7.1,8.77-7.1s8.77,3.18,8.77,7.1" transform="translate(-32.74 -358.6)"/><path class="o" d="M3333.53,424c0-4-3.93-7.1-8.77-7.1V424Z" transform="translate(-32.74 -358.6)"/><path class="n" d="M3334.19,424c0-2.64,2.46-4.78,5.5-4.78s5.5,2.14,5.5,4.78" transform="translate(-32.74 -358.6)"/><path class="o" d="M3345.24,424c0-3-2.48-4.78-5.48-4.78V424Z" transform="translate(-32.74 -358.6)"/><polyline class="i" points="3312.51 65.43 3302.82 69.89 3273.47 69.89 3283.16 65.43"/><path class="n" d="M3003.36,421.8c0-3.92,3.93-7.1,8.77-7.1s8.77,3.18,8.77,7.1" transform="translate(-32.74 -358.6)"/><path class="o" d="M3021,421.8c0-4-3.93-7.1-8.77-7.1v7.1Z" transform="translate(-32.74 -358.6)"/><path class="n" d="M3021.65,421.8c0-2.64,2.46-4.78,5.5-4.78s5.5,2.14,5.5,4.78" transform="translate(-32.74 -358.6)"/><path class="o" d="M3032.71,421.8c0-3-2.48-4.78-5.48-4.78v4.78Z" transform="translate(-32.74 -358.6)"/><polyline class="i" points="2999.97 63.2 2990.28 67.66 2960.93 67.66 2970.62 63.2"/><path class="n" d="M2769.7,420.33c0-3.92,3.93-7.1,8.77-7.1s8.77,3.18,8.77,7.1" transform="translate(-32.74 -358.6)"/><path class="o" d="M2787.34,420.33c0-4-3.93-7.1-8.77-7.1v7.1Z" transform="translate(-32.74 -358.6)"/><path class="n" d="M2788,420.33c0-2.64,2.46-4.78,5.5-4.78s5.5,2.14,5.5,4.78" transform="translate(-32.74 -358.6)"/><path class="o" d="M2799,420.33c0-3-2.48-4.78-5.48-4.78v4.78Z" transform="translate(-32.74 -358.6)"/><polyline class="i" points="2766.31 61.73 2756.62 66.19 2727.27 66.19 2736.96 61.73"/><path class="n" d="M2390.2,428.09c0-3.92,3.93-7.1,8.77-7.1s8.77,3.18,8.77,7.1" transform="translate(-32.74 -358.6)"/><path class="o" d="M2407.84,428.09c0-4-3.93-7.1-8.77-7.1v7.1Z" transform="translate(-32.74 -358.6)"/><path class="n" d="M2408.49,428.09c0-2.64,2.46-4.78,5.5-4.78s5.5,2.14,5.5,4.78" transform="translate(-32.74 -358.6)"/><path class="o" d="M2419.55,428.09c0-3-2.48-4.78-5.48-4.78v4.78Z" transform="translate(-32.74 -358.6)"/><polyline class="i" points="2386.81 69.49 2377.12 73.95 2347.77 73.95 2357.46 69.49"/><path class="n" d="M2069,427c0-3.92,3.93-7.1,8.77-7.1s8.77,3.18,8.77,7.1" transform="translate(-32.74 -358.6)"/><path class="o" d="M2086.59,427c0-4-3.93-7.1-8.77-7.1V427Z" transform="translate(-32.74 -358.6)"/><path class="n" d="M2087.24,427c0-2.64,2.46-4.78,5.5-4.78s5.5,2.14,5.5,4.78" transform="translate(-32.74 -358.6)"/><path class="o" d="M2098.3,427c0-3-2.48-4.78-5.48-4.78V427Z" transform="translate(-32.74 -358.6)"/><polyline class="i" points="2065.56 68.43 2055.87 72.88 2026.52 72.88 2036.21 68.43"/><path class="n" d="M1768.45,411.1c0-3.92,3.93-7.1,8.77-7.1s8.77,3.18,8.77,7.1" transform="translate(-32.74 -358.6)"/><path class="o" d="M1786.09,411.1c0-4-3.93-7.1-8.77-7.1v7.1Z" transform="translate(-32.74 -358.6)"/><path class="n" d="M1786.74,411.1c0-2.64,2.46-4.78,5.5-4.78s5.5,2.14,5.5,4.78" transform="translate(-32.74 -358.6)"/><path class="o" d="M1797.8,411.1c0-3-2.48-4.78-5.48-4.78v4.78Z" transform="translate(-32.74 -358.6)"/><polyline class="i" points="1765.06 52.51 1755.38 56.96 1726.03 56.96 1735.71 52.51"/><path class="n" d="M996.88,420.29c0-3.92,3.93-7.1,8.77-7.1s8.77,3.18,8.77,7.1" transform="translate(-32.74 -358.6)"/><path class="o" d="M1014.51,420.29c0-4-3.93-7.1-8.77-7.1v7.1Z" transform="translate(-32.74 -358.6)"/><path class="n" d="M1015.17,420.29c0-2.64,2.46-4.78,5.5-4.78s5.5,2.14,5.5,4.78" transform="translate(-32.74 -358.6)"/><path class="o" d="M1026.23,420.29c0-3-2.48-4.78-5.48-4.78v4.78Z" transform="translate(-32.74 -358.6)"/><polyline class="i" points="993.49 61.69 983.8 66.15 954.45 66.15 964.14 61.69"/><path class="n" d="M762.63,430.8c0-3.92,3.93-7.1,8.77-7.1s8.77,3.18,8.77,7.1" transform="translate(-32.74 -358.6)"/><path class="o" d="M780.26,430.8c0-4-3.93-7.1-8.77-7.1v7.1Z" transform="translate(-32.74 -358.6)"/><path class="n" d="M780.92,430.8c0-2.64,2.46-4.78,5.5-4.78s5.5,2.14,5.5,4.78" transform="translate(-32.74 -358.6)"/><path class="o" d="M792,430.8c0-3-2.48-4.78-5.48-4.78v4.78Z" transform="translate(-32.74 -358.6)"/><polyline class="i" points="759.24 72.2 749.55 76.65 720.2 76.65 729.89 72.2"/><path class="n" d="M415.43,429.25c0-3.92,3.93-7.1,8.77-7.1s8.77,3.18,8.77,7.1" transform="translate(-32.74 -358.6)"/><path class="o" d="M433.07,429.25c0-4-3.93-7.1-8.77-7.1v7.1Z" transform="translate(-32.74 -358.6)"/><path class="n" d="M433.72,429.25c0-2.64,2.46-4.78,5.5-4.78s5.5,2.14,5.5,4.78" transform="translate(-32.74 -358.6)"/><path class="o" d="M444.78,429.25c0-3-2.48-4.78-5.48-4.78v4.78Z" transform="translate(-32.74 -358.6)"/><polyline class="i" points="412.04 70.65 402.35 75.11 373 75.11 382.69 70.65"/><path class="n" d="M42.43,424.21c0-3.92,3.93-7.1,8.77-7.1s8.77,3.18,8.77,7.1" transform="translate(-32.74 -358.6)"/><path class="o" d="M60.07,424.21c0-4-3.93-7.1-8.77-7.1v7.1Z" transform="translate(-32.74 -358.6)"/><path class="n" d="M60.72,424.21c0-2.64,2.46-4.78,5.5-4.78s5.5,2.14,5.5,4.78" transform="translate(-32.74 -358.6)"/><path class="o" d="M71.78,424.21c0-3-2.48-4.78-5.48-4.78v4.78Z" transform="translate(-32.74 -358.6)"/><polyline class="i" points="39.04 65.61 29.35 70.07 0 70.07 9.69 65.61"/><path class="p" d="M15226.76,397c.66-1.74-.23-3.23,1-2.85s1.21.56,1.59,1.4a11.66,11.66,0,0,1,.55,1.46l.47,1.18.39-1.68-.15-2.11-.59-2-1.11-2.67s.1-2.54-.69-.81,0-.31-.79,1.74-.54,0-.77,2-.29,2.42-.29,2.42l-.1,1.68Z" transform="translate(-32.74 -358.6)"/><path class="p" d="M14752.76,408c.66-1.74-.23-3.23,1-2.85s1.21.56,1.59,1.4a11.66,11.66,0,0,1,.55,1.46l.47,1.18.39-1.68-.15-2.11-.59-2-1.11-2.67s.1-2.54-.69-.81,0-.31-.79,1.74-.54,0-.77,2-.29,2.42-.29,2.42l-.1,1.68Z" transform="translate(-32.74 -358.6)"/><path class="p" d="M14889.76,386c.66-1.74-.23-3.23,1-2.85s1.21.56,1.59,1.4a11.66,11.66,0,0,1,.55,1.46l.47,1.18.39-1.68-.15-2.11-.59-2-1.11-2.67s.1-2.54-.69-.81,0-.31-.79,1.74-.54,0-.77,2-.29,2.42-.29,2.42l-.1,1.68Z" transform="translate(-32.74 -358.6)"/><path class="p" d="M15603.76,394c.66-1.74-.23-3.23,1-2.85s1.21.56,1.59,1.4a11.66,11.66,0,0,1,.55,1.46l.47,1.18.39-1.68-.15-2.11-.59-2-1.11-2.67s.1-2.54-.69-.81,0-.31-.79,1.74-.54,0-.77,2-.29,2.42-.29,2.42l-.1,1.68Z" transform="translate(-32.74 -358.6)"/><path class="p" d="M15440.76,402c.66-1.74-.23-3.23,1-2.85s1.21.56,1.59,1.4a11.66,11.66,0,0,1,.55,1.46l.47,1.18.39-1.68-.15-2.11-.59-2-1.11-2.67s.1-2.54-.69-.81,0-.31-.79,1.74-.54,0-.77,2-.29,2.42-.29,2.42l-.1,1.68Z" transform="translate(-32.74 -358.6)"/></svg>