<svg xmlns="http://www.w3.org/2000/svg" viewBox="0 0 572.44 205.28"><defs><style>.a{fill:#bbe7e3;}.b{fill:#f4e9d0;}.c{fill:#fef3d7;}</style></defs><title>sunandclouds</title><path class="a" d="M529.47,192.79a21.08,21.08,0,1,1,42.16,0" transform="translate(-95.16 -34.34)"/><path class="a" d="M503.15,195.39a21.08,21.08,0,1,0,42.16,0" transform="translate(-95.16 -34.34)"/><path class="a" d="M552.66,195.39a21.08,21.08,0,1,0,42.16,0" transform="translate(-95.16 -34.34)"/><path class="a" d="M508.56,60.4a22.59,22.59,0,1,1,45.17,0" transform="translate(-95.16 -34.34)"/><path class="a" d="M560.08,60.4a22.59,22.59,0,1,1,45.17,0" transform="translate(-95.16 -34.34)"/><path class="a" d="M531.89,63.18a22.59,22.59,0,1,0,45.17,0" transform="translate(-95.16 -34.34)"/><path class="a" d="M584.93,63.18a22.59,22.59,0,0,0,45.17,0" transform="translate(-95.16 -34.34)"/><path class="a" d="M233.24,80.73a18.94,18.94,0,0,1,37.88,0" transform="translate(-95.16 -34.34)"/><path class="a" d="M276.45,80.73a18.94,18.94,0,1,1,37.88,0" transform="translate(-95.16 -34.34)"/><path class="a" d="M252.81,83.06a18.94,18.94,0,1,0,37.88,0" transform="translate(-95.16 -34.34)"/><path class="a" d="M120.68,176.44a20.44,20.44,0,1,1,40.88,0" transform="translate(-95.16 -34.34)"/><path class="a" d="M95.16,179A20.44,20.44,0,1,0,136,179" transform="translate(-95.16 -34.34)"/><path class="a" d="M529.47,192.79a21.08,21.08,0,1,1,42.16,0" transform="translate(-95.16 -34.34)"/><path class="a" d="M503.15,195.39a21.08,21.08,0,1,0,42.16,0" transform="translate(-95.16 -34.34)"/><path class="a" d="M552.66,195.39a21.08,21.08,0,1,0,42.16,0" transform="translate(-95.16 -34.34)"/><path class="a" d="M508.56,60.4a22.59,22.59,0,1,1,45.17,0" transform="translate(-95.16 -34.34)"/><path class="a" d="M560.08,60.4a22.59,22.59,0,1,1,45.17,0" transform="translate(-95.16 -34.34)"/><path class="a" d="M531.89,63.18a22.59,22.59,0,1,0,45.17,0" transform="translate(-95.16 -34.34)"/><path class="a" d="M584.93,63.18a22.59,22.59,0,0,0,45.17,0" transform="translate(-95.16 -34.34)"/><path class="a" d="M233.24,80.73a18.94,18.94,0,0,1,37.88,0" transform="translate(-95.16 -34.34)"/><path class="a" d="M276.45,80.73a18.94,18.94,0,1,1,37.88,0" transform="translate(-95.16 -34.34)"/><path class="a" d="M252.81,83.06a18.94,18.94,0,1,0,37.88,0" transform="translate(-95.16 -34.34)"/><path class="a" d="M120.68,176.44a20.44,20.44,0,1,1,40.88,0" transform="translate(-95.16 -34.34)"/><path class="a" d="M95.16,179A20.44,20.44,0,1,0,136,179" transform="translate(-95.16 -34.34)"/><circle class="a" cx="398.24" cy="112.52" r="3.38"/><circle class="a" cx="328.27" cy="186.95" r="3.38"/><circle class="a" cx="253.55" cy="3.38" r="3.38"/><circle class="a" cx="361.39" cy="6.44" r="3.05"/><circle class="a" cx="273.37" cy="202.22" r="3.05"/><circle class="a" cx="187.81" cy="167.08" r="3.05"/><circle class="b" cx="542.07" cy="146.03" r="30.37"/><path class="c" d="M637.24,150a30.25,30.25,0,0,0-20.12,7.62A30.36,30.36,0,0,0,660,200.48,30.36,30.36,0,0,0,637.24,150Z" transform="translate(-95.16 -34.34)"/></svg>