<svg id="clouds" xmlns="http://www.w3.org/2000/svg" viewBox="0 0 11416.5 180.08"><defs><style>.cls-1{fill:#bde1e0;}</style></defs><title>clouds</title><g id="cloud4"><path class="cls-1" d="M253.32,98.08a21.08,21.08,0,0,1,42.16,0" transform="translate(-227 -28.44)"/><path class="cls-1" d="M227,100.68a21.08,21.08,0,0,0,42.16,0" transform="translate(-227 -28.44)"/><path class="cls-1" d="M276.51,100.68a21.08,21.08,0,0,0,42.16,0" transform="translate(-227 -28.44)"/></g><g id="cloud4-2" data-name="cloud4"><path class="cls-1" d="M1140.3,65a21.08,21.08,0,1,1,42.16,0" transform="translate(-227 -28.44)"/><path class="cls-1" d="M1114,67.57a21.08,21.08,0,0,0,42.16,0" transform="translate(-227 -28.44)"/><path class="cls-1" d="M1163.49,67.57a21.08,21.08,0,0,0,42.16,0" transform="translate(-227 -28.44)"/></g><g id="cloud4-3" data-name="cloud4"><path class="cls-1" d="M2216.67,184.84a21.08,21.08,0,0,1,42.16,0" transform="translate(-227 -28.44)"/><path class="cls-1" d="M2190.35,187.44a21.08,21.08,0,0,0,42.16,0" transform="translate(-227 -28.44)"/><path class="cls-1" d="M2239.86,187.44a21.08,21.08,0,0,0,42.16,0" transform="translate(-227 -28.44)"/></g><g id="cloud4-4" data-name="cloud4"><path class="cls-1" d="M3876.75,60.06a21.08,21.08,0,1,1,42.16,0" transform="translate(-227 -28.44)"/><path class="cls-1" d="M3850.43,62.66a21.08,21.08,0,0,0,42.16,0" transform="translate(-227 -28.44)"/><path class="cls-1" d="M3899.94,62.66a21.08,21.08,0,0,0,42.16,0" transform="translate(-227 -28.44)"/></g><g id="cloud4-5" data-name="cloud4"><path class="cls-1" d="M4995.16,49.52a21.08,21.08,0,0,1,42.16,0" transform="translate(-227 -28.44)"/><path class="cls-1" d="M4968.84,52.12a21.08,21.08,0,0,0,42.16,0" transform="translate(-227 -28.44)"/><path class="cls-1" d="M5018.35,52.12a21.08,21.08,0,1,0,42.16,0" transform="translate(-227 -28.44)"/></g><g id="cloud4-6" data-name="cloud4"><path class="cls-1" d="M6110.25,122.09a21.08,21.08,0,0,1,42.16,0" transform="translate(-227 -28.44)"/><path class="cls-1" d="M6083.93,124.69a21.08,21.08,0,0,0,42.16,0" transform="translate(-227 -28.44)"/><path class="cls-1" d="M6133.44,124.69a21.08,21.08,0,1,0,42.16,0" transform="translate(-227 -28.44)"/></g><g id="cloud4-7" data-name="cloud4"><path class="cls-1" d="M9289.17,51a21.08,21.08,0,1,1,42.16,0" transform="translate(-227 -28.44)"/><path class="cls-1" d="M9262.85,53.59a21.08,21.08,0,0,0,42.16,0" transform="translate(-227 -28.44)"/><path class="cls-1" d="M9312.36,53.59a21.08,21.08,0,0,0,42.16,0" transform="translate(-227 -28.44)"/></g><g id="cloud4-8" data-name="cloud4"><path class="cls-1" d="M10252.13,49.69a21.08,21.08,0,1,1,42.16,0" transform="translate(-227 -28.44)"/><path class="cls-1" d="M10225.81,52.29a21.08,21.08,0,0,0,42.16,0" transform="translate(-227 -28.44)"/><path class="cls-1" d="M10275.32,52.29a21.08,21.08,0,1,0,42.16,0" transform="translate(-227 -28.44)"/></g><g id="cloud4-9" data-name="cloud4"><path class="cls-1" d="M11263.5,51a21.08,21.08,0,1,1,42.16,0" transform="translate(-227 -28.44)"/><path class="cls-1" d="M11237.18,53.59a21.08,21.08,0,0,0,42.16,0" transform="translate(-227 -28.44)"/><path class="cls-1" d="M11286.69,53.59a21.08,21.08,0,0,0,42.16,0" transform="translate(-227 -28.44)"/></g><g id="cloud3"><path class="cls-1" d="M375.68,172.95a22.59,22.59,0,1,1,45.17-1q0,.48,0,1" transform="translate(-227 -28.44)"/><path class="cls-1" d="M427.21,172.95a22.59,22.59,0,0,1,45.17-1q0,.48,0,1" transform="translate(-227 -28.44)"/><path class="cls-1" d="M399,175.73a22.59,22.59,0,0,0,45.17,0" transform="translate(-227 -28.44)"/><path class="cls-1" d="M452,175.73a22.59,22.59,0,0,0,45.17,1q0-.48,0-1" transform="translate(-227 -28.44)"/></g><g id="cloud3-2" data-name="cloud3"><path class="cls-1" d="M1737.66,63.34a22.59,22.59,0,1,1,45.17-1q0,.48,0,1" transform="translate(-227 -28.44)"/><path class="cls-1" d="M1789.19,63.34a22.59,22.59,0,1,1,45.17-1q0,.48,0,1" transform="translate(-227 -28.44)"/><path class="cls-1" d="M1761,66.12a22.59,22.59,0,0,0,45.17,0" transform="translate(-227 -28.44)"/><path class="cls-1" d="M1814,66.12a22.59,22.59,0,0,0,45.17,1q0-.48,0-1" transform="translate(-227 -28.44)"/></g><g id="cloud3-3" data-name="cloud3"><path class="cls-1" d="M2584.31,82.28a22.59,22.59,0,1,1,45.17-1q0,.48,0,1" transform="translate(-227 -28.44)"/><path class="cls-1" d="M2635.84,82.28a22.59,22.59,0,1,1,45.17-1q0,.48,0,1" transform="translate(-227 -28.44)"/><path class="cls-1" d="M2607.67,85.06a22.59,22.59,0,0,0,45.17,0" transform="translate(-227 -28.44)"/><path class="cls-1" d="M2660.67,85.06a22.59,22.59,0,0,0,45.17,1q0-.48,0-1" transform="translate(-227 -28.44)"/></g><g id="cloud3-4" data-name="cloud3"><path class="cls-1" d="M4058,131.8a22.59,22.59,0,1,1,45.17-1q0,.48,0,1" transform="translate(-227 -28.44)"/><path class="cls-1" d="M4109.51,131.8a22.59,22.59,0,1,1,45.17-1q0,.48,0,1" transform="translate(-227 -28.44)"/><path class="cls-1" d="M4081.34,134.58a22.59,22.59,0,0,0,45.17,0" transform="translate(-227 -28.44)"/><path class="cls-1" d="M4134.34,134.58a22.59,22.59,0,0,0,45.17,1q0-.48,0-1" transform="translate(-227 -28.44)"/></g><g id="cloud3-5" data-name="cloud3"><path class="cls-1" d="M5562.58,107.34a22.59,22.59,0,1,1,45.17-1q0,.48,0,1" transform="translate(-227 -28.44)"/><path class="cls-1" d="M5614.11,107.34a22.59,22.59,0,0,1,45.17-1q0,.48,0,1" transform="translate(-227 -28.44)"/><path class="cls-1" d="M5585.94,110.12a22.59,22.59,0,0,0,45.17,0" transform="translate(-227 -28.44)"/><path class="cls-1" d="M5638.94,110.12a22.59,22.59,0,0,0,45.17,1q0-.48,0-1" transform="translate(-227 -28.44)"/></g><g id="cloud3-6" data-name="cloud3"><path class="cls-1" d="M7145,94.42a22.59,22.59,0,1,1,45.17-1q0,.48,0,1" transform="translate(-227 -28.44)"/><path class="cls-1" d="M7196.51,94.42a22.59,22.59,0,1,1,45.17-1q0,.48,0,1" transform="translate(-227 -28.44)"/><path class="cls-1" d="M7168.34,97.2a22.59,22.59,0,0,0,45.17,0" transform="translate(-227 -28.44)"/><path class="cls-1" d="M7221.34,97.2a22.59,22.59,0,0,0,45.17,1q0-.48,0-1" transform="translate(-227 -28.44)"/></g><g id="cloud3-7" data-name="cloud3"><path class="cls-1" d="M9546.52,114.68a22.59,22.59,0,1,1,45.17-1q0,.48,0,1" transform="translate(-227 -28.44)"/><path class="cls-1" d="M9598,114.68a22.59,22.59,0,1,1,45.17-1q0,.48,0,1" transform="translate(-227 -28.44)"/><path class="cls-1" d="M9569.88,117.46a22.59,22.59,0,0,0,45.17,0" transform="translate(-227 -28.44)"/><path class="cls-1" d="M9622.88,117.46a22.59,22.59,0,0,0,45.17,1q0-.48,0-1" transform="translate(-227 -28.44)"/></g><g id="cloud2"><path class="cls-1" d="M739.72,66.27a18.94,18.94,0,0,1,37.88,0" transform="translate(-227 -28.44)"/><path class="cls-1" d="M782.93,66.27a18.94,18.94,0,0,1,37.88,0" transform="translate(-227 -28.44)"/><path class="cls-1" d="M759.29,68.6a18.94,18.94,0,0,0,37.88,0" transform="translate(-227 -28.44)"/><path class="cls-1" d="M947.26,119a18.94,18.94,0,0,1,37.88,0" transform="translate(-227 -28.44)"/><path class="cls-1" d="M923.62,121.36a18.94,18.94,0,0,0,37.88,0" transform="translate(-227 -28.44)"/><path class="cls-1" d="M2439.63,120.5a18.94,18.94,0,0,1,37.88,0" transform="translate(-227 -28.44)"/><path class="cls-1" d="M2416,122.83a18.94,18.94,0,0,0,37.88,0" transform="translate(-227 -28.44)"/><path class="cls-1" d="M4259.4,61.49a18.94,18.94,0,0,1,37.88,0" transform="translate(-227 -28.44)"/><path class="cls-1" d="M4235.76,63.82a18.94,18.94,0,0,0,37.88,0" transform="translate(-227 -28.44)"/><path class="cls-1" d="M5226.1,133.79a18.94,18.94,0,0,1,37.88,0" transform="translate(-227 -28.44)"/><path class="cls-1" d="M5202.46,136.12a18.94,18.94,0,0,0,37.88,0" transform="translate(-227 -28.44)"/><path class="cls-1" d="M6493.07,69.63a18.94,18.94,0,0,1,37.88,0" transform="translate(-227 -28.44)"/><path class="cls-1" d="M6469.43,72a18.94,18.94,0,0,0,37.88,0" transform="translate(-227 -28.44)"/><path class="cls-1" d="M7675,93.25a18.94,18.94,0,0,1,37.88,0" transform="translate(-227 -28.44)"/><path class="cls-1" d="M7651.35,95.58a18.94,18.94,0,0,0,37.88,0" transform="translate(-227 -28.44)"/><path class="cls-1" d="M8607.62,73.4a18.94,18.94,0,0,1,37.88,0" transform="translate(-227 -28.44)"/><path class="cls-1" d="M8584,75.73a18.94,18.94,0,0,0,37.88,0" transform="translate(-227 -28.44)"/><path class="cls-1" d="M10705.56,123.15a18.94,18.94,0,0,1,37.88,0" transform="translate(-227 -28.44)"/><path class="cls-1" d="M10681.92,125.48a18.94,18.94,0,0,0,37.88,0" transform="translate(-227 -28.44)"/><path class="cls-1" d="M11605.62,100.71a18.94,18.94,0,0,1,37.88,0" transform="translate(-227 -28.44)"/><path class="cls-1" d="M11582,103a18.94,18.94,0,0,0,37.88,0" transform="translate(-227 -28.44)"/></g><g id="cloud2-2" data-name="cloud2"><path class="cls-1" d="M1192.91,175.47a18.94,18.94,0,0,1,37.88,0" transform="translate(-227 -28.44)"/><path class="cls-1" d="M1236.12,175.47a18.94,18.94,0,0,1,37.88,0" transform="translate(-227 -28.44)"/><path class="cls-1" d="M1212.48,177.8a18.94,18.94,0,0,0,37.88,0" transform="translate(-227 -28.44)"/></g><g id="cloud2-3" data-name="cloud2"><path class="cls-1" d="M1470.22,86.85a18.94,18.94,0,0,1,37.88,0" transform="translate(-227 -28.44)"/><path class="cls-1" d="M1513.43,86.85a18.94,18.94,0,0,1,37.88,0" transform="translate(-227 -28.44)"/><path class="cls-1" d="M1489.79,89.18a18.94,18.94,0,0,0,37.88,0" transform="translate(-227 -28.44)"/></g><g id="cloud2-4" data-name="cloud2"><path class="cls-1" d="M1881.13,152.21a18.94,18.94,0,0,1,37.88,0" transform="translate(-227 -28.44)"/><path class="cls-1" d="M1924.34,152.21a18.94,18.94,0,0,1,37.88,0" transform="translate(-227 -28.44)"/><path class="cls-1" d="M1900.7,154.54a18.94,18.94,0,0,0,37.88,0" transform="translate(-227 -28.44)"/></g><g id="cloud2-5" data-name="cloud2"><path class="cls-1" d="M2178.74,66.75a18.94,18.94,0,0,1,37.88,0" transform="translate(-227 -28.44)"/><path class="cls-1" d="M2221.95,66.75a18.94,18.94,0,0,1,37.88,0" transform="translate(-227 -28.44)"/><path class="cls-1" d="M2198.31,69.08a18.94,18.94,0,0,0,37.88,0" transform="translate(-227 -28.44)"/></g><g id="cloud2-6" data-name="cloud2"><path class="cls-1" d="M2802.7,131.14a18.94,18.94,0,0,1,37.88,0" transform="translate(-227 -28.44)"/><path class="cls-1" d="M2845.91,131.14a18.94,18.94,0,0,1,37.88,0" transform="translate(-227 -28.44)"/><path class="cls-1" d="M2822.27,133.47a18.94,18.94,0,0,0,37.88,0" transform="translate(-227 -28.44)"/></g><g id="cloud2-7" data-name="cloud2"><path class="cls-1" d="M3183.85,80.29a18.94,18.94,0,0,1,37.88,0" transform="translate(-227 -28.44)"/><path class="cls-1" d="M3227.06,80.29a18.94,18.94,0,0,1,37.88,0" transform="translate(-227 -28.44)"/><path class="cls-1" d="M3203.42,82.62a18.94,18.94,0,0,0,37.88,0" transform="translate(-227 -28.44)"/></g><g id="cloud2-8" data-name="cloud2"><path class="cls-1" d="M3652.41,174.82a18.94,18.94,0,0,1,37.88,0" transform="translate(-227 -28.44)"/><path class="cls-1" d="M3695.62,174.82a18.94,18.94,0,0,1,37.88,0" transform="translate(-227 -28.44)"/><path class="cls-1" d="M3672,177.15a18.94,18.94,0,0,0,37.88,0" transform="translate(-227 -28.44)"/></g><g id="cloud2-9" data-name="cloud2"><path class="cls-1" d="M4453.06,101.22a18.94,18.94,0,0,1,37.88,0" transform="translate(-227 -28.44)"/><path class="cls-1" d="M4496.27,101.22a18.94,18.94,0,0,1,37.88,0" transform="translate(-227 -28.44)"/><path class="cls-1" d="M4472.63,103.55a18.94,18.94,0,0,0,37.88,0" transform="translate(-227 -28.44)"/></g><g id="cloud2-10" data-name="cloud2"><path class="cls-1" d="M5862.06,70.8a18.94,18.94,0,0,1,37.88,0" transform="translate(-227 -28.44)"/><path class="cls-1" d="M5905.27,70.8a18.94,18.94,0,0,1,37.88,0" transform="translate(-227 -28.44)"/><path class="cls-1" d="M5881.63,73.13a18.94,18.94,0,0,0,37.88,0" transform="translate(-227 -28.44)"/></g><g id="cloud2-11" data-name="cloud2"><path class="cls-1" d="M6346.72,163.79a18.94,18.94,0,0,1,37.88,0" transform="translate(-227 -28.44)"/><path class="cls-1" d="M6389.93,163.79a18.94,18.94,0,0,1,37.88,0" transform="translate(-227 -28.44)"/><path class="cls-1" d="M6366.29,166.12a18.94,18.94,0,0,0,37.88,0" transform="translate(-227 -28.44)"/></g><g id="cloud2-12" data-name="cloud2"><path class="cls-1" d="M6928.65,103.62a18.94,18.94,0,0,1,37.88,0" transform="translate(-227 -28.44)"/><path class="cls-1" d="M6971.86,103.62a18.94,18.94,0,0,1,37.88,0" transform="translate(-227 -28.44)"/><path class="cls-1" d="M6948.22,105.95a18.94,18.94,0,0,0,37.88,0" transform="translate(-227 -28.44)"/></g><g id="cloud2-13" data-name="cloud2"><path class="cls-1" d="M7410.56,134.36a18.94,18.94,0,0,1,37.88,0" transform="translate(-227 -28.44)"/><path class="cls-1" d="M7453.77,134.36a18.94,18.94,0,0,1,37.88,0" transform="translate(-227 -28.44)"/><path class="cls-1" d="M7430.13,136.69a18.94,18.94,0,0,0,37.88,0" transform="translate(-227 -28.44)"/></g><g id="cloud2-14" data-name="cloud2"><path class="cls-1" d="M7859.62,52.29a18.94,18.94,0,0,1,37.88,0" transform="translate(-227 -28.44)"/><path class="cls-1" d="M7902.83,52.29a18.94,18.94,0,0,1,37.88,0" transform="translate(-227 -28.44)"/><path class="cls-1" d="M7879.19,54.62a18.94,18.94,0,0,0,37.88,0" transform="translate(-227 -28.44)"/></g><g id="cloud2-15" data-name="cloud2"><path class="cls-1" d="M8412,157a18.94,18.94,0,0,1,37.88,0" transform="translate(-227 -28.44)"/><path class="cls-1" d="M8455.22,157a18.94,18.94,0,0,1,37.88,0" transform="translate(-227 -28.44)"/><path class="cls-1" d="M8431.58,159.32a18.94,18.94,0,0,0,37.88,0" transform="translate(-227 -28.44)"/></g><g id="cloud2-16" data-name="cloud2"><path class="cls-1" d="M8884,92a18.94,18.94,0,0,1,37.88,0" transform="translate(-227 -28.44)"/><path class="cls-1" d="M8927.21,92a18.94,18.94,0,0,1,37.88,0" transform="translate(-227 -28.44)"/><path class="cls-1" d="M8903.57,94.32a18.94,18.94,0,0,0,37.88,0" transform="translate(-227 -28.44)"/></g><g id="cloud2-17" data-name="cloud2"><path class="cls-1" d="M9906.18,122a18.94,18.94,0,0,1,37.88,0" transform="translate(-227 -28.44)"/><path class="cls-1" d="M9949.39,122a18.94,18.94,0,0,1,37.88,0" transform="translate(-227 -28.44)"/><path class="cls-1" d="M9925.75,124.32a18.94,18.94,0,0,0,37.88,0" transform="translate(-227 -28.44)"/></g><g id="cloud2-18" data-name="cloud2"><path class="cls-1" d="M10383.52,101.88a18.94,18.94,0,1,1,37.88,0" transform="translate(-227 -28.44)"/><path class="cls-1" d="M10426.73,101.88a18.94,18.94,0,0,1,37.88,0" transform="translate(-227 -28.44)"/><path class="cls-1" d="M10403.09,104.21a18.94,18.94,0,0,0,37.88,0" transform="translate(-227 -28.44)"/></g><g id="cloud2-19" data-name="cloud2"><path class="cls-1" d="M10928.52,81.78a18.94,18.94,0,1,1,37.88,0" transform="translate(-227 -28.44)"/><path class="cls-1" d="M10971.73,81.78a18.94,18.94,0,0,1,37.88,0" transform="translate(-227 -28.44)"/><path class="cls-1" d="M10948.09,84.11a18.94,18.94,0,0,0,37.88,0" transform="translate(-227 -28.44)"/></g><g id="cloud2-20" data-name="cloud2"><path class="cls-1" d="M11417.47,151.47a18.94,18.94,0,1,1,37.88,0" transform="translate(-227 -28.44)"/><path class="cls-1" d="M11460.68,151.47a18.94,18.94,0,0,1,37.88,0" transform="translate(-227 -28.44)"/><path class="cls-1" d="M11437,153.8a18.94,18.94,0,0,0,37.88,0" transform="translate(-227 -28.44)"/></g></svg>