<svg xmlns="http://www.w3.org/2000/svg" viewBox="0 0 2562.77 1600"><defs><style>.a{fill:#92ddd0;}.b{fill:#78c1ba;}.c{fill:#8ad6cb;}.d{fill:#80cec4;}.e{fill:#5daca2;}.f{fill:#44998a;}.g{fill:#218471;}.h{fill:#455a64;}.i{fill:#37474f;}.j{fill:#4c4c4c;}.k{fill:none;stroke:#242a2b;stroke-miterlimit:10;}.l{fill:#0a5d50;}.m{fill:#93adbe;}.n{fill:#2f768f;}.o{fill:#fffbf4;}.p{fill:#fef3d7;}.q{fill:#237469;}.r{fill:#ffe097;}.ag,.r{opacity:0.2;}.s{fill:#ffa726;}.t{fill:#283593;}.u{fill:#e0e0e0;}.v{fill:#90a4ae;}.w{fill:#1e88e5;}.x{fill:#e8eaf6;opacity:0.05;}.y{opacity:0.1;}.z{fill:#cfede9;}.aa{fill:#0f2d59;}.ab{fill:#316476;}.ac{fill:#fffff9;}.ad{fill:#021e4b;}.ae{fill:#132e5b;}.af{fill:#ffec95;}.ag{fill:#0e1011;}.ah{fill:#3b6c7e;}.ai{fill:#4b888d;}.aj{fill:#b2dcd4;}.ak{fill:#41897b;}.al{fill:#1a6d5f;}.am{fill:#529b8f;}.an{fill:#347e71;}.ao{fill:#bbe7e3;}.ap{fill:#084439;}</style></defs><title>background</title><rect class="a" x="1.52" width="2558.98" height="1174.61"/><rect class="b" x="1.52" y="772.21" width="2558.98" height="387.8"/><rect class="c" x="2.77" y="385.58" width="2560" height="237.7"/><rect class="d" x="2.77" y="609.86" width="2560" height="165.49"/><path class="e" d="M2559,921.45c-55.31-27.16-600-72-876.28-63.29s-331.66,59.69-484,44.69-597.9-33-709.65,0S25.7,966.71,1.7,924.71L-1,1359H2561.25Z" transform="translate(1.52 0)"/><path class="f" d="M2431.93,1083.65s104.19-146.3-320.38-146.3-2053,133.14-2053,133.14V1132h2500Z" transform="translate(1.52 0)"/><path class="g" d="M446,979.92q-13.19,0-25.86.16c-9-4-20.87-6.38-33.8-6.32-14.83.07-28.11,3.35-37.29,8.53q-21.84,1.13-41.9,2.74c-9.21-6.87-24.83-11.35-42.47-11.27-25.57.12-46.52,9.8-49.77,22.26C12.39,1029.4-1,1103.06-1,1103.06V1175H2499v-61.94S870.53,979.92,446,979.92Z" transform="translate(1.52 0)"/><rect class="h" x="0.5" y="1174.61" width="2560" height="94.81"/><rect class="i" x="0.5" y="1199.86" width="2561.02" height="37.17"/><polygon class="j" points="2466.48 1233 2478.56 1233 2560.5 1204 2548.42 1204 2466.48 1233"/><polygon class="j" points="2406.84 1233 2418.91 1233 2500.86 1204 2488.78 1204 2406.84 1233"/><polygon class="j" points="2347.19 1233 2359.27 1233 2441.22 1204 2429.14 1204 2347.19 1233"/><polygon class="j" points="2287.55 1233 2299.63 1233 2381.57 1204 2369.49 1204 2287.55 1233"/><polygon class="j" points="2227.91 1233 2239.99 1233 2321.93 1204 2309.85 1204 2227.91 1233"/><polygon class="j" points="2168.27 1233 2180.35 1233 2262.29 1204 2250.21 1204 2168.27 1233"/><polygon class="j" points="2108.63 1233 2120.7 1233 2202.65 1204 2190.57 1204 2108.63 1233"/><polygon class="j" points="2048.98 1233 2061.06 1233 2143.01 1204 2130.93 1204 2048.98 1233"/><polygon class="j" points="1989.34 1233 2001.42 1233 2083.36 1204 2071.28 1204 1989.34 1233"/><polygon class="j" points="1929.7 1233 1941.78 1233 2023.72 1204 2011.64 1204 1929.7 1233"/><polygon class="j" points="1870.06 1233 1882.14 1233 1964.08 1204 1952 1204 1870.06 1233"/><polygon class="j" points="1810.41 1233 1822.49 1233 1904.44 1204 1892.36 1204 1810.41 1233"/><polygon class="j" points="1750.77 1233 1762.85 1233 1844.8 1204 1832.72 1204 1750.77 1233"/><polygon class="j" points="1691.13 1233 1703.21 1233 1785.15 1204 1773.07 1204 1691.13 1233"/><polygon class="j" points="1631.49 1233 1643.57 1233 1725.51 1204 1713.43 1204 1631.49 1233"/><polygon class="j" points="1571.85 1233 1583.93 1233 1665.87 1204 1653.79 1204 1571.85 1233"/><polygon class="j" points="1512.2 1233 1524.28 1233 1606.23 1204 1594.15 1204 1512.2 1233"/><polygon class="j" points="1452.56 1233 1464.64 1233 1546.59 1204 1534.51 1204 1452.56 1233"/><polygon class="j" points="1392.92 1233 1405 1233 1486.94 1204 1474.86 1204 1392.92 1233"/><polygon class="j" points="1333.28 1233 1345.36 1233 1427.3 1204 1415.22 1204 1333.28 1233"/><polygon class="j" points="1273.64 1233 1285.72 1233 1367.66 1204 1355.58 1204 1273.64 1233"/><polygon class="j" points="1213.99 1233 1226.07 1233 1308.02 1204 1295.94 1204 1213.99 1233"/><polygon class="j" points="1154.35 1233 1166.43 1233 1248.38 1204 1236.3 1204 1154.35 1233"/><polygon class="j" points="1094.71 1233 1106.79 1233 1188.73 1204 1176.65 1204 1094.71 1233"/><polygon class="j" points="1035.07 1233 1047.15 1233 1129.09 1204 1117.01 1204 1035.07 1233"/><polygon class="j" points="975.43 1233 987.51 1233 1069.45 1204 1057.37 1204 975.43 1233"/><polygon class="j" points="915.78 1233 927.86 1233 1009.81 1204 997.73 1204 915.78 1233"/><polygon class="j" points="856.14 1233 868.22 1233 950.16 1204 938.09 1204 856.14 1233"/><polygon class="j" points="796.5 1233 808.58 1233 890.52 1204 878.44 1204 796.5 1233"/><polygon class="j" points="736.86 1233 748.94 1233 830.88 1204 818.8 1204 736.86 1233"/><polygon class="j" points="677.22 1233 689.29 1233 771.24 1204 759.16 1204 677.22 1233"/><polygon class="j" points="617.57 1233 629.65 1233 711.6 1204 699.52 1204 617.57 1233"/><polygon class="j" points="557.93 1233 570.01 1233 651.95 1204 639.88 1204 557.93 1233"/><polygon class="j" points="498.29 1233 510.37 1233 592.31 1204 580.23 1204 498.29 1233"/><polygon class="j" points="438.65 1233 450.73 1233 532.67 1204 520.59 1204 438.65 1233"/><polygon class="j" points="379.01 1233 391.08 1233 473.03 1204 460.95 1204 379.01 1233"/><polygon class="j" points="319.36 1233 331.44 1233 413.39 1204 401.31 1204 319.36 1233"/><polygon class="j" points="259.72 1233 271.8 1233 353.74 1204 341.67 1204 259.72 1233"/><polygon class="j" points="200.08 1233 212.16 1233 294.1 1204 282.02 1204 200.08 1233"/><polygon class="j" points="140.44 1233 152.52 1233 234.46 1204 222.38 1204 140.44 1233"/><polygon class="j" points="80.8 1233 92.88 1233 174.82 1204 162.74 1204 80.8 1233"/><polygon class="j" points="21.15 1233 33.23 1233 115.18 1204 103.1 1204 21.15 1233"/><rect class="k" x="0.5" y="1203.81" width="2561.02" height="29.26"/><rect class="l" x="1.52" y="1266.85" width="2560" height="333.15"/><path class="m" d="M334.83,1134c99.86-94.12,261.85-245,261.85-245l336.56,291.44" transform="translate(1.52 0)"/><path class="n" d="M596.17,889.46c-10,9.31-164.74,153.49-261.34,244.54l241.69,18.75L562,1065H529.49l32.24-64L551,1007.41s5.62-29.25,6.45-29.58,21.33-11.95,21.33-11.95l9.62-17.9,1.42-3.36-1.11-1.85-8.47-22.46,17-20.17Z" transform="translate(1.52 0)"/><path class="o" d="M589.51,945.5,600,965.89l18.23-32L634,945.5l35.31,6.4h0L596.69,889S569,914.76,529.49,951.65c3.7,7.87,6.62,14.24,6.62,14.24l25.62-20.38,4,12.5Z" transform="translate(1.52 0)"/><path class="p" d="M596.17,889.46l-1.32,1.23-1,.93-.08.07-1.19,1.11-9.72,9.06-5.6,5.22-8.53,8-.7.65L563,920.41l-.88.82L560.19,923l-1.14,1.06-1.56,1.46-1.94,1.81-10.69,10-1.66,1.55-2.72,2.54-.29.27-2.41,2.25-1.64,1.53-6.65,6.21c3.7,7.87,6.62,14.24,6.62,14.24l25.62-20.38,4,12.5,23.76-12.5.37-.89-1.11-1.85-8.47-22.46,17-20.17Z" transform="translate(1.52 0)"/><polygon class="m" points="504.52 1035 504.52 1049 489.94 1045.48 504.52 1035"/><polygon class="n" points="630.52 1042 635.57 1086.83 615.94 1052.48 630.52 1042"/><path class="n" d="M686,1020l5,44.83-19.62-34.35C679.85,1035.95,684.6,1032.18,686,1020Z" transform="translate(1.52 0)"/><path class="m" d="M1449.83,1044c99.86-94.12,261.85-245,261.85-245l336.56,291.44" transform="translate(1.52 0)"/><path class="n" d="M1711.17,799.46c-10,9.31-164.74,153.49-261.34,244.54l241.69,18.75L1677,975h-32.51l32.24-64L1666,917.41s5.62-29.25,6.45-29.58,21.33-11.95,21.33-11.95l9.62-17.9,1.42-3.36-1.11-1.85-8.47-22.46,17-20.17Z" transform="translate(1.52 0)"/><path class="q" d="M2096.06,979.92c-99.32,0-266.93,9.13-465.43,23.13a602.41,602.41,0,0,0-77.88-4.71c-64.65,0-119.14,8.74-135.8,20.65-108.57,8.48-221.73,17.83-334.7,27.5-15.49-1.17-32.27-1.82-49.8-1.82-58.78,0-109.15,7.22-130.33,17.49C425.31,1104.3-1,1146.85-1,1146.85v27.77l2560,12.77v-71.55S2520.63,979.92,2096.06,979.92Z" transform="translate(1.52 0)"/><path class="o" d="M1704.51,855.5,1715,875.89l18.23-32L1749,855.5l35.31,6.4h0L1711.69,799s-27.67,25.78-67.19,62.67c3.7,7.87,6.62,14.24,6.62,14.24l25.62-20.38,4,12.5Z" transform="translate(1.52 0)"/><path class="p" d="M1711.17,799.46l-1.32,1.23-1,.93-.08.07-1.19,1.11-9.72,9.06-5.6,5.22-8.53,8-.7.65-5.06,4.72-.88.82-1.91,1.78-1.14,1.06-1.56,1.46-1.94,1.81-10.69,10-1.66,1.55-2.72,2.54-.29.27-2.41,2.25-1.64,1.53-6.65,6.21c3.7,7.87,6.62,14.24,6.62,14.24l25.62-20.38,4,12.5,23.76-12.5.37-.89-1.11-1.85-8.47-22.46,17-20.17Z" transform="translate(1.52 0)"/><polygon class="m" points="1619.52 945 1619.52 959 1604.94 955.48 1619.52 945"/><polygon class="n" points="1745.52 952 1750.57 996.83 1730.94 962.48 1745.52 952"/><path class="n" d="M1801,930l5,44.83-19.62-34.35C1794.85,945.95,1799.6,942.18,1801,930Z" transform="translate(1.52 0)"/><polyline class="r" points="2188.34 1181.11 2479.83 1194.88 2338.41 1243.21 2185.85 1187.38"/><path class="s" d="M2186.83,1182.58c0,5.89-.71,10.66-6.6,10.66a10.66,10.66,0,0,1,0-21.32C2186.12,1171.92,2186.83,1176.69,2186.83,1182.58Z" transform="translate(1.52 0)"/><circle class="h" cx="2038.66" cy="1206.37" r="14.7"/><circle class="h" cx="1765.57" cy="1206.37" r="14.7"/><rect class="i" x="2045.81" y="1190.38" width="54.6" height="29.63" transform="translate(4147.74 2410.39) rotate(-180)"/><rect class="i" x="1777.92" y="1190.38" width="43.4" height="26.86" transform="translate(3600.76 2407.62) rotate(-180)"/><circle class="h" cx="2092.89" cy="1207.37" r="14.7"/><circle class="h" cx="2054.42" cy="1207.37" r="14.7"/><circle class="h" cx="1818.83" cy="1207.37" r="14.7"/><circle class="h" cx="1780.36" cy="1207.37" r="14.7"/><path class="t" d="M2164.5,1160.93h-56.63a3.68,3.68,0,0,1-3.68-3.68v-20.81a3.68,3.68,0,0,1,3.68-3.68h11.62c19.17,8.59,36.28,18,47.89,26.77A3.66,3.66,0,0,1,2164.5,1160.93Z" transform="translate(1.52 0)"/><rect class="u" x="1711.5" y="1109.08" width="20.8" height="94.73"/><rect class="v" x="1711.5" y="1174.61" width="20.8" height="29.2"/><path class="o" d="M2010.87,1102.74c53.33,0,172,51.47,172,76.51s-23.19,30.14-23.19,30.14h-63.45c-10.06-7.87-17.33-9.07-24-9.07s-13.93,1.2-24,9.07H1824.65c-10.06-7.87-17.33-9.07-24-9.07s-13.93,1.2-24,9.07h-45.89V1102.74Z" transform="translate(1.52 0)"/><rect class="w" x="1738.77" y="1134.73" width="39.15" height="25.27" rx="2" ry="2" transform="translate(3518.21 2294.74) rotate(180)"/><rect class="w" x="1783.03" y="1134.73" width="39.15" height="25.27" rx="2" ry="2" transform="translate(3606.74 2294.74) rotate(180)"/><rect class="w" x="1827.37" y="1134.73" width="39.15" height="25.27" rx="2" ry="2" transform="translate(3695.4 2294.74) rotate(180)"/><rect class="w" x="1870.7" y="1134.73" width="39.15" height="25.27" rx="2" ry="2" transform="translate(3782.07 2294.74) rotate(180)"/><rect class="w" x="1915" y="1134.73" width="39.15" height="25.27" rx="2" ry="2" transform="translate(3870.68 2294.74) rotate(180)"/><rect class="w" x="1960" y="1134.73" width="39.15" height="25.27" rx="2" ry="2" transform="translate(3960.68 2294.74) rotate(180)"/><rect class="w" x="2004" y="1134.73" width="39.15" height="25.27" rx="2" ry="2" transform="translate(4048.68 2294.74) rotate(180)"/><rect class="w" x="2048.03" y="1134.73" width="23.14" height="25.27" rx="2" ry="2" transform="translate(4120.71 2294.74) rotate(180)"/><polygon class="x" points="2134.61 1160.01 2149.33 1160.01 2114.53 1134.73 2099.81 1134.73 2134.61 1160.01"/><polygon class="x" points="2114.29 1160.01 2120.89 1160.01 2086.09 1134.73 2079.49 1134.73 2114.29 1160.01"/><path class="w" d="M2123.82,1134.73H2078a2,2,0,0,0-2,2V1158a2,2,0,0,0,2,2h90C2157.26,1151.77,2141.57,1142.94,2123.82,1134.73Z" transform="translate(1.52 0)"/><path class="w" d="M2159.72,1199.39h-63.45c-10.06-7.87-17.33-9.07-24-9.07s-13.93,1.2-24,9.07H1824.65c-10.06-7.87-17.33-9.07-24-9.07s-13.93,1.2-24,9.07h-45.89v10h45.89c10.06-7.87,17.33-9.07,24-9.07s13.93,1.2,24,9.07h223.64c10.06-7.87,17.33-9.07,24-9.07s13.93,1.2,24,9.07h63.45s23.19-5.1,23.19-30.14a9.86,9.86,0,0,0-.62-3.26C2178.61,1195.23,2159.72,1199.39,2159.72,1199.39Z" transform="translate(1.52 0)"/><path class="s" d="M392.22,1182.58c0,5.89.71,10.66,6.6,10.66a10.66,10.66,0,0,0,0-21.32C392.93,1171.92,392.22,1176.69,392.22,1182.58Z" transform="translate(1.52 0)"/><circle class="h" cx="543.44" cy="1206.37" r="14.7"/><circle class="h" cx="816.53" cy="1206.37" r="14.7"/><rect class="i" x="480.17" y="1190.38" width="54.6" height="29.63"/><rect class="i" x="759.26" y="1190.38" width="43.4" height="26.86"/><circle class="h" cx="489.21" cy="1207.37" r="14.7"/><circle class="h" cx="527.67" cy="1207.37" r="14.7"/><circle class="h" cx="763.27" cy="1207.37" r="14.7"/><circle class="h" cx="801.73" cy="1207.37" r="14.7"/><path class="t" d="M414.55,1160.93h56.63a3.68,3.68,0,0,0,3.68-3.68v-20.81a3.68,3.68,0,0,0-3.68-3.68H459.57c-19.17,8.59-36.28,18-47.89,26.77A3.66,3.66,0,0,0,414.55,1160.93Z" transform="translate(1.52 0)"/><rect class="u" x="849.8" y="1109.08" width="20.8" height="94.73"/><rect class="v" x="849.8" y="1174.61" width="20.8" height="29.2"/><path class="o" d="M568.19,1102.74c-53.33,0-172,51.47-172,76.51s23.19,30.14,23.19,30.14h63.45c10.06-7.87,17.33-9.07,24-9.07s13.93,1.2,24,9.07H754.4c10.06-7.87,17.33-9.07,24-9.07s13.93,1.2,24,9.07h45.89V1102.74Z" transform="translate(1.52 0)"/><rect class="w" x="802.66" y="1134.73" width="39.15" height="25.27" rx="2" ry="2"/><rect class="w" x="758.39" y="1134.73" width="39.15" height="25.27" rx="2" ry="2"/><rect class="w" x="714.06" y="1134.73" width="39.15" height="25.27" rx="2" ry="2"/><rect class="w" x="670.73" y="1134.73" width="39.15" height="25.27" rx="2" ry="2"/><rect class="w" x="626.42" y="1134.73" width="39.15" height="25.27" rx="2" ry="2"/><rect class="w" x="581.42" y="1134.73" width="39.15" height="25.27" rx="2" ry="2"/><rect class="w" x="537.42" y="1134.73" width="39.15" height="25.27" rx="2" ry="2"/><rect class="w" x="509.41" y="1134.73" width="23.14" height="25.27" rx="2" ry="2"/><polygon class="x" points="447.49 1160.01 432.77 1160.01 467.56 1134.73 482.29 1134.73 447.49 1160.01"/><polygon class="x" points="467.81 1160.01 461.21 1160.01 496.01 1134.73 502.61 1134.73 467.81 1160.01"/><path class="w" d="M455.23,1134.73H501a2,2,0,0,1,2,2V1158a2,2,0,0,1-2,2H411C421.79,1151.77,437.49,1142.94,455.23,1134.73Z" transform="translate(1.52 0)"/><path class="w" d="M419.33,1199.39h63.45c10.06-7.87,17.33-9.07,24-9.07s13.93,1.2,24,9.07H754.4c10.06-7.87,17.33-9.07,24-9.07s13.93,1.2,24,9.07h45.89v10H802.39c-10.06-7.87-17.33-9.07-24-9.07s-13.93,1.2-24,9.07H530.76c-10.06-7.87-17.33-9.07-24-9.07s-13.93,1.2-24,9.07H419.33s-23.19-5.1-23.19-30.14a9.86,9.86,0,0,1,.62-3.26C400.44,1195.23,419.33,1199.39,419.33,1199.39Z" transform="translate(1.52 0)"/><circle class="h" cx="1680.5" cy="1206.37" r="14.7"/><rect class="i" x="1623.23" y="1190.38" width="43.4" height="26.86"/><circle class="h" cx="1627.24" cy="1207.37" r="14.7"/><circle class="h" cx="1665.71" cy="1207.37" r="14.7"/><circle class="h" cx="1401.6" cy="1206.37" r="14.7"/><rect class="i" x="1344.33" y="1190.38" width="43.4" height="26.86"/><circle class="h" cx="1348.34" cy="1207.37" r="14.7"/><circle class="h" cx="1386.8" cy="1207.37" r="14.7"/><path class="o" d="M1712,1209V1103H1311.36c-3.53,0-7.36-.15-11.36.06v106.33l69.78-11.31,208.06,11.31c14.4-7.87,54.52-8.84,62.43-13.67" transform="translate(1.52 0)"/><rect class="w" x="1666.63" y="1134.73" width="39.15" height="25.27" rx="2" ry="2"/><rect class="w" x="1622.37" y="1134.73" width="39.15" height="25.27" rx="2" ry="2"/><rect class="w" x="1578.03" y="1134.73" width="39.15" height="25.27" rx="2" ry="2"/><rect class="w" x="1534.7" y="1134.73" width="39.15" height="25.27" rx="2" ry="2"/><rect class="w" x="1490.4" y="1134.73" width="39.15" height="25.27" rx="2" ry="2"/><rect class="w" x="1445.4" y="1134.73" width="39.15" height="25.27" rx="2" ry="2"/><rect class="w" x="1401.4" y="1134.73" width="39.15" height="25.27" rx="2" ry="2"/><rect class="w" x="1355.4" y="1134.73" width="39.15" height="25.27" rx="2" ry="2"/><rect class="w" x="1310.05" y="1134.73" width="39.15" height="25.27" rx="2" ry="2"/><path class="w" d="M1300.18,1199.39h46.57c10.06-7.87,17.33-9.07,24-9.07s13.93,1.2,24,9.07h223.64c10.06-7.87,17.33-9.07,24-9.07s13.93,1.2,24,9.07h45.89v10h-45.89c-10.06-7.87-17.33-9.07-24-9.07s-13.93,1.2-24,9.07H1394.73c-10.06-7.87-17.33-9.07-24-9.07s-13.93,1.2-24,9.07h-46.57" transform="translate(1.52 0)"/><rect class="u" x="1280.5" y="1109.08" width="20.8" height="94.73"/><rect class="v" x="1280.5" y="1174.61" width="20.8" height="29.2"/><circle class="h" cx="1249.5" cy="1206.37" r="14.7"/><rect class="i" x="1192.23" y="1190.38" width="43.4" height="26.86"/><circle class="h" cx="1196.24" cy="1207.37" r="14.7"/><circle class="h" cx="1234.71" cy="1207.37" r="14.7"/><circle class="h" cx="970.6" cy="1206.37" r="14.7"/><rect class="i" x="913.33" y="1190.38" width="43.4" height="26.86"/><circle class="h" cx="917.34" cy="1207.37" r="14.7"/><circle class="h" cx="955.8" cy="1207.37" r="14.7"/><path class="o" d="M1281,1209V1103H880.36c-3.53,0-7.36-.15-11.36.06v106.33l69.78-11.31,208.06,11.31c14.4-7.87,54.52-8.84,62.43-13.67" transform="translate(1.52 0)"/><rect class="w" x="1235.63" y="1134.73" width="39.15" height="25.27" rx="2" ry="2"/><rect class="w" x="1191.37" y="1134.73" width="39.15" height="25.27" rx="2" ry="2"/><rect class="w" x="1147.03" y="1134.73" width="39.15" height="25.27" rx="2" ry="2"/><rect class="w" x="1103.7" y="1134.73" width="39.15" height="25.27" rx="2" ry="2"/><rect class="w" x="1059.4" y="1134.73" width="39.15" height="25.27" rx="2" ry="2"/><rect class="w" x="1014.4" y="1134.73" width="39.15" height="25.27" rx="2" ry="2"/><rect class="w" x="970.4" y="1134.73" width="39.15" height="25.27" rx="2" ry="2"/><rect class="w" x="924.4" y="1134.73" width="39.15" height="25.27" rx="2" ry="2"/><rect class="w" x="879.05" y="1134.73" width="39.15" height="25.27" rx="2" ry="2"/><polygon class="y" points="2098.8 1255 331.3 1255 401.3 1219.05 2168.8 1219.05 2098.8 1255"/><path class="w" d="M869.18,1199.39h46.57c10.06-7.87,17.33-9.07,24-9.07s13.93,1.2,24,9.07h223.64c10.06-7.87,17.33-9.07,24-9.07s13.93,1.2,24,9.07h45.89v10h-45.89c-10.06-7.87-17.33-9.07-24-9.07s-13.93,1.2-24,9.07H963.73c-10.06-7.87-17.33-9.07-24-9.07s-13.93,1.2-24,9.07H869.18" transform="translate(1.52 0)"/><circle class="z" cx="2184.43" cy="371.11" r="138.42"/><path class="aa" d="M1778.54,917.81h55.66a2,2,0,0,1,1.33,3.5l-52.33,46.41a2,2,0,0,1-1.4.5l-54.28-2a2,2,0,0,1-1.24-3.51l50.94-44.42A2,2,0,0,1,1778.54,917.81Z" transform="translate(1.52 0)"/><rect class="ab" x="1723.99" y="965.81" width="62" height="65" rx="2" ry="2"/><path class="ac" d="M1838,919l-52.81,46.17a2,2,0,0,0-.68,1.51v62.09a2,2,0,0,0,2,2h104a2,2,0,0,0,2-2V966.7a2,2,0,0,0-.66-1.49l-51.19-46.15A2,2,0,0,0,1838,919Z" transform="translate(1.52 0)"/><rect class="ad" x="1744.99" y="988.81" width="17" height="21" rx="2" ry="2"/><path class="ae" d="M1825,963.41a15.6,15.6,0,0,1,31.19,0" transform="translate(1.52 0)"/><rect class="af" x="1807.99" y="986.81" width="25" height="32" rx="2" ry="2"/><rect class="ae" x="1807.99" y="980.81" width="25" height="32" rx="2" ry="2"/><path class="af" d="M1849.91,977.81h25.56a2,2,0,0,1,2,2v49a2,2,0,0,1-2,2h-26a2,2,0,0,1-2-2v-49a2,2,0,0,1,2-2Z" transform="translate(1.52 0)"/><path class="ae" d="M1852.47,981.81h20a2,2,0,0,1,2,2v45a2,2,0,0,1-2,2h-20a2,2,0,0,1-2-2v-45a2,2,0,0,1,2-2Z" transform="translate(1.52 0)"/><polygon class="aa" points="912.25 891.45 973.93 891.45 917.06 941.88 856.93 939.68 912.25 891.45"/><polygon class="ag" points="999.19 1022.72 829.93 1022.72 856.93 1004.45 1027.12 1004.45 999.19 1022.72"/><polygon class="ag" points="1865.73 1049.14 1696.47 1049.14 1723.47 1030.86 1893.66 1030.86 1865.73 1049.14"/><rect class="ab" x="856.93" y="939.45" width="62" height="65"/><polygon class="ac" points="973.76 891.51 918.93 939.45 918.93 1004.45 1026.93 1004.45 1026.93 939.45 973.76 891.51"/><polygon class="ah" points="1425.52 890.33 1452.74 890.33 1427.64 912.59 1401.1 911.62 1425.52 890.33"/><rect class="ai" x="1401.1" y="911.51" width="27.37" height="28.69"/><polygon class="aj" points="1452.67 890.36 1428.47 911.51 1428.47 940.2 1476.14 940.2 1476.14 911.51 1452.67 890.36"/><polygon class="ah" points="707.17 884.64 734.39 884.64 709.29 906.9 682.75 905.93 707.17 884.64"/><rect class="ai" x="682.75" y="905.83" width="27.37" height="28.69"/><polygon class="aj" points="734.32 884.67 710.12 905.83 710.12 934.52 757.79 934.52 757.79 905.83 734.32 884.67"/><rect class="ad" x="877.93" y="962.45" width="17" height="21"/><path class="ae" d="M957.91,937a15.6,15.6,0,0,1,31.19,0" transform="translate(1.52 0)"/><rect class="af" x="940.93" y="960.45" width="25" height="32"/><rect class="ae" x="940.93" y="954.45" width="25" height="32"/><polygon class="af" points="984.37 951.45 1011.93 951.45 1011.93 1004.45 981.93 1004.45 981.93 951.45 984.37 951.45"/><polygon class="ae" points="986.93 955.45 1008.93 955.45 1008.93 1004.45 984.93 1004.45 984.93 955.45 986.93 955.45"/><polygon class="aa" points="1069.14 1247.61 1163.14 1247.61 1076.47 1324.48 984.83 1321.13 1069.14 1247.61"/><polygon class="ag" points="1201.63 1447.67 943.69 1447.67 984.83 1419.82 1244.2 1419.82 1201.63 1447.67"/><rect class="ab" x="984.83" y="1320.76" width="94.49" height="99.06"/><polygon class="ac" points="1162.89 1247.71 1079.32 1320.76 1079.32 1419.82 1243.91 1419.82 1243.91 1320.76 1162.89 1247.71"/><rect class="ad" x="1016.84" y="1355.81" width="25.91" height="32"/><path class="ae" d="M1139.53,1317.1a23.77,23.77,0,1,1,47.54,0" transform="translate(1.52 0)"/><rect class="ae" x="1112.85" y="1343.62" width="38.1" height="48.77"/><polygon class="ae" points="1182.95 1345.15 1216.48 1345.15 1216.48 1419.82 1179.9 1419.82 1179.9 1345.15 1182.95 1345.15"/><path class="ak" d="M310.94,1020.18C308.61,1026,266.71,1138,266.71,1138h87.88Z" transform="translate(1.52 0)"/><path class="al" d="M311,1138h43.59l-43.48-117.88a1.75,1.75,0,0,0-.12.69Z" transform="translate(1.52 0)"/><path class="ak" d="M206.94,1044.18C204.61,1050,162.71,1162,162.71,1162h87.88Z" transform="translate(1.52 0)"/><path class="al" d="M207,1162h43.59l-43.48-117.88a1.75,1.75,0,0,0-.12.69Z" transform="translate(1.52 0)"/><path class="ak" d="M113.94,1028.18C111.61,1034,69.71,1146,69.71,1146h87.88Z" transform="translate(1.52 0)"/><path class="al" d="M114,1146h43.59l-43.48-117.88a1.75,1.75,0,0,0-.12.69Z" transform="translate(1.52 0)"/><path class="ak" d="M1352.94,949.18c-2.33,5.83-44.23,117.82-44.23,117.82h87.88Z" transform="translate(1.52 0)"/><path class="al" d="M1353,1067h43.59l-43.48-117.88a1.75,1.75,0,0,0-.12.69Z" transform="translate(1.52 0)"/><path class="am" d="M1121.77,905.36c-.94,2.36-17.89,47.64-17.89,47.64h35.53Z" transform="translate(1.52 0)"/><path class="an" d="M1122,953h17.42l-17.48-47.72c0,.07.06.09.06.23Z" transform="translate(1.52 0)"/><path class="am" d="M1074.77,893.36c-.94,2.36-17.89,47.64-17.89,47.64h35.53Z" transform="translate(1.52 0)"/><path class="an" d="M1075,941h17.42l-17.48-47.72c0,.07.06.09.06.23Z" transform="translate(1.52 0)"/><path class="am" d="M1056.77,921.36c-.94,2.36-17.89,47.64-17.89,47.64h35.53Z" transform="translate(1.52 0)"/><path class="an" d="M1057,969h17.42l-17.48-47.72c0,.07.06.09.06.23Z" transform="translate(1.52 0)"/><path class="am" d="M1166.77,897.36c-.94,2.36-17.89,47.64-17.89,47.64h35.53Z" transform="translate(1.52 0)"/><path class="an" d="M1167,945h17.42l-17.48-47.72c0,.07.06.09.06.23Z" transform="translate(1.52 0)"/><path class="ak" d="M1248.94,973.18c-2.33,5.83-44.23,117.82-44.23,117.82h87.88Z" transform="translate(1.52 0)"/><path class="al" d="M1249,1091h43.59l-43.48-117.88a1.75,1.75,0,0,0-.12.69Z" transform="translate(1.52 0)"/><path class="ak" d="M1155.94,957.18c-2.33,5.83-44.23,117.82-44.23,117.82h87.88Z" transform="translate(1.52 0)"/><path class="al" d="M1156,1075h43.59l-43.48-117.88a1.75,1.75,0,0,0-.12.69Z" transform="translate(1.52 0)"/><path class="ak" d="M2204.94,913.18c-2.33,5.83-44.23,117.82-44.23,117.82h87.88Z" transform="translate(1.52 0)"/><path class="al" d="M2205,1031h43.59l-43.48-117.88a1.75,1.75,0,0,0-.12.69Z" transform="translate(1.52 0)"/><path class="ak" d="M2100.94,937.18c-2.33,5.83-44.23,117.82-44.23,117.82h87.88Z" transform="translate(1.52 0)"/><path class="al" d="M2101,1055h43.59l-43.48-117.88a1.75,1.75,0,0,0-.12.69Z" transform="translate(1.52 0)"/><path class="ak" d="M2007.94,921.18c-2.33,5.83-44.23,117.82-44.23,117.82h87.88Z" transform="translate(1.52 0)"/><path class="al" d="M2008,1039h43.59l-43.48-117.88a1.75,1.75,0,0,0-.12.69Z" transform="translate(1.52 0)"/><path class="ao" d="M1795,613.6a81.13,81.13,0,0,1,162.27,0" transform="translate(1.52 0)"/><path class="ao" d="M1693.76,623.6a81.13,81.13,0,0,0,162.27,0" transform="translate(1.52 0)"/><path class="ao" d="M1884.31,623.6a81.13,81.13,0,1,0,162.27,0" transform="translate(1.52 0)"/><path class="ao" d="M1465.74,333.75a81.13,81.13,0,0,1,162.27,0" transform="translate(1.52 0)"/><path class="ao" d="M1650.81,333.75a81.13,81.13,0,0,1,162.27,0" transform="translate(1.52 0)"/><path class="ao" d="M1549.53,343.75a81.13,81.13,0,0,0,162.27,0" transform="translate(1.52 0)"/><path class="ao" d="M1740.08,343.75a81.13,81.13,0,0,0,162.27,0" transform="translate(1.52 0)"/><path class="ao" d="M656,221.44a81.13,81.13,0,1,1,162.27,0" transform="translate(1.52 0)"/><path class="ao" d="M841.11,221.44a81.13,81.13,0,1,1,162.27,0" transform="translate(1.52 0)"/><path class="ao" d="M739.83,231.44a81.13,81.13,0,1,0,162.27,0" transform="translate(1.52 0)"/><path class="ao" d="M342.28,522.47a81.13,81.13,0,1,1,162.27,0" transform="translate(1.52 0)"/><path class="ao" d="M241,532.47a81.13,81.13,0,0,0,162.27,0" transform="translate(1.52 0)"/><circle class="ao" cx="1818.83" cy="598.9" r="10.96"/><circle class="ao" cx="1103.7" cy="241.14" r="14.7"/><circle class="ao" cx="1573.85" cy="733.71" r="9.59"/><circle class="ao" cx="2079.49" cy="579.48" r="9.59"/><circle class="ao" cx="797.54" cy="128.12" r="9.59"/><circle class="ao" cx="520.98" cy="743.3" r="9.59"/><circle class="ao" cx="252.12" cy="632.87" r="9.59"/><path class="ap" d="M2320.94,1501.58c-162,5.37-223.76-94.58-374.11-94.58-24.1,0-48.79.27-74.41,1.12a69.21,69.21,0,0,0-50-32.95,69.2,69.2,0,0,0-129.33,49.16c-76.32,11.55-162.45,30.57-263.19,61.62a69.2,69.2,0,0,0-120.35,2.14l-.85,0a69.21,69.21,0,0,0-66.73,50.89c-147.86,17.87-201.9-70.24-425.77-92.32a69.16,69.16,0,0,0-121.5-44,69.2,69.2,0,0,0-90.24,42.64C230.32,1466.8,99.82,1561.82-1,1566.93L1,1595H2561l.25-122.06C2401.95,1501.58,2483,1496.21,2320.94,1501.58Z" transform="translate(1.52 0)"/></svg>