<?xml version="1.0" encoding="UTF-8"?>
<svg width="434px" height="364px" viewBox="0 0 434 364" version="1.1" xmlns="http://www.w3.org/2000/svg" xmlns:xlink="http://www.w3.org/1999/xlink">
    <!-- Generator: Sketch 41 (35326) - http://www.bohemiancoding.com/sketch -->
    <title>montagne_back</title>
    <desc>Created with Sketch.</desc>
    <defs></defs>
    <g id="Page-1" stroke="none" stroke-width="1" fill="none" fill-rule="evenodd">
        <g id="montagne_back">
            <rect id="Rectangle-path" fill="#93ADBE" x="129.61" y="240.41" width="238.16" height="118.52"></rect>
            <path d="M363.78,0 C238.57,125 2.62,321.54 0.5,321.56 L135.44,359.84 C135.44,359.84 153.91,287.13 196.86,266.78 L223.75,232.69 L255.02,168.78 L339.46,118.78 C339.46,118.78 398.05,45.22 433.94,0 L363.78,0 Z" id="Shape" fill="#EFEFEF"></path>
            <path d="M0.5,321.32 C13.9,318.5 4.7,319.49 21.27,319.92 C37.84,320.35 26.51,315.39 37.98,318.08 C49.45,320.77 55.83,331.82 62.13,332.24 C68.43,332.66 74.48,342.36 80.07,343.96 C85.66,345.56 92.22,337.06 106.95,338.33 C121.68,339.6 139.24,351.5 139.81,354.62 C140.38,357.74 140.09,363.4 135.99,363.26 C131.89,363.12 123.99,361.26 115.88,358.93 C107.77,356.6 96.34,353.06 89.11,352.07 C81.88,351.08 78.01,350.65 74.21,348.67 C70.41,346.69 62.13,342.86 62.13,342.86 C62.13,342.86 63.05,342.72 51.72,339.6 C40.39,336.48 30.33,334.6 30.33,334.6 L25.53,333.97 C20.5022895,333.295389 15.7345491,331.331796 11.69,328.27 L11.64,328.27 C9.94,327 0.5,321.32 0.5,321.32 Z" id="Shape" fill="#FFFFFF"></path>
        </g>
    </g>
</svg>