<?xml version="1.0" encoding="UTF-8"?>
<svg width="83px" height="115px" viewBox="0 0 83 115" version="1.1" xmlns="http://www.w3.org/2000/svg" xmlns:xlink="http://www.w3.org/1999/xlink">
    <!-- Generator: Sketch 41 (35326) - http://www.bohemiancoding.com/sketch -->
    <title>bonhomme</title>
    <desc>Created with Sketch.</desc>
    <defs></defs>
    <g id="Page-1" stroke="none" stroke-width="1" fill="none" fill-rule="evenodd">
        <g id="Buddytrain/01-Copy-5" transform="translate(-32615.000000, -386.000000)">
            <g id="Group-4" transform="translate(32574.000000, 78.000000)">
                <g id="Group-3" transform="translate(0.000000, 308.000000)">
                    <g id="Group-2" transform="translate(41.650855, 0.000000)">
                        <g id="Page-1" transform="translate(0.104127, 0.000000)">
                            <g id="bonhomme">
                                <path d="M8.71014921,53.237735 C4.58113768,53.237735 1.22196257,49.8731771 1.22196257,45.737549 C1.22196257,41.601921 4.58113768,38.237363 8.71014921,38.237363 C12.8391607,38.237363 16.1983359,41.601921 16.1983359,45.737549 C16.1983359,49.8731771 12.8391607,53.237735 8.71014921,53.237735" id="Fill-1" fill="#DDA48E"></path>
                                <path d="M8.71027141,37.0130752 C3.9079585,37.0130752 0.000122196259,40.9271735 0.000122196259,45.7371819 C0.000122196259,50.5484141 3.9079585,54.4612885 8.71027141,54.4612885 C13.5125843,54.4612885 17.4204206,50.5484141 17.4204206,45.7371819 C17.4204206,40.9271735 13.5125843,37.0130752 8.71027141,37.0130752 M8.71027141,39.4609166 C12.1708694,39.4609166 14.9764955,42.2710385 14.9764955,45.7371819 C14.9764955,49.2033253 12.1708694,52.0134472 8.71027141,52.0134472 C5.24967341,52.0134472 2.44404734,49.2033253 2.44404734,45.7371819 C2.44404734,42.2710385 5.24967341,39.4609166 8.71027141,39.4609166" id="Fill-3" fill="#525252"></path>
                                <path d="M39.8672621,90.560095 C25.8757906,90.560095 14.533534,95.8339692 14.533534,102.340332 C14.533534,102.449261 14.5628612,102.554518 14.568971,102.663447 C21.2103375,109.021715 30.205204,112.935813 40.1189864,112.935813 C49.7529393,112.935813 58.5254086,109.243244 65.108121,103.1983 C65.1521116,102.91435 65.2009901,102.630401 65.2009901,102.340332 C65.2009901,95.8339692 53.8587335,90.560095 39.8672621,90.560095" id="Fill-9" fill="#96A1CF"></path>
                                <path d="M39.8672621,90.560095 C25.8757906,90.560095 14.533534,95.8339692 14.533534,102.340332 C14.533534,102.449261 14.5628612,102.554518 14.568971,102.663447 C21.2103375,109.021715 30.205204,112.935813 40.1189864,112.935813 C49.7529393,112.935813 58.5254086,109.243244 65.108121,103.1983 C65.1521116,102.91435 65.2009901,102.630401 65.2009901,102.340332 C65.2009901,95.8339692 53.8587335,90.560095 39.8672621,90.560095 L39.8672621,90.560095 Z" id="Stroke-11" stroke="#18405B" stroke-width="2.44608"></path>
                                <path d="M27.6157431,92.0316148 C27.3799044,92.8381785 27.2406006,93.6777881 27.2406006,94.5455479 C27.2406006,100.376306 32.8933995,105.103088 39.8671399,105.103088 C46.8408803,105.103088 52.4936792,100.376306 52.4936792,94.5455479 C52.4936792,93.6777881 52.3555974,92.8381785 52.1185366,92.0316148 C48.4868639,91.0965394 44.3138617,90.5604621 39.8671399,90.5604621 C35.4216401,90.5604621 31.2474159,91.0965394 27.6157431,92.0316148" id="Fill-13" fill="#FFFFFF"></path>
                                <path d="M27.6157431,92.0316148 C27.3799044,92.8381785 27.2406006,93.6777881 27.2406006,94.5455479 C27.2406006,100.376306 32.8933995,105.103088 39.8671399,105.103088 C46.8408803,105.103088 52.4936792,100.376306 52.4936792,94.5455479 C52.4936792,93.6777881 52.3555974,92.8381785 52.1185366,92.0316148 C48.4868639,91.0965394 44.3138617,90.5604621 39.8671399,90.5604621 C35.4216401,90.5604621 31.2474159,91.0965394 27.6157431,92.0316148 L27.6157431,92.0316148 Z" id="Stroke-15" stroke="#18405B" stroke-width="2.44608"></path>
                                <path d="M39.8672621,98.5155795 L39.8672621,98.5155795 C35.1614842,98.5155795 31.3452951,94.6944991 31.3452951,89.9799566 L31.3452951,84.4086696 C31.3452951,79.6941271 35.1614842,75.8730467 39.8672621,75.8730467 L39.8672621,75.8730467 C44.57304,75.8730467 48.3892291,79.6941271 48.3892291,84.4086696 L48.3892291,89.9799566 C48.3892291,94.6944991 44.57304,98.5155795 39.8672621,98.5155795" id="Fill-17" fill="#DDA48E"></path>
                                <path d="M39.8672621,98.5155795 L39.8672621,98.5155795 C35.1614842,98.5155795 31.3452951,94.6944991 31.3452951,89.9799566 L31.3452951,84.4086696 C31.3452951,79.6941271 35.1614842,75.8730467 39.8672621,75.8730467 L39.8672621,75.8730467 C44.57304,75.8730467 48.3892291,79.6941271 48.3892291,84.4086696 L48.3892291,89.9799566 C48.3892291,94.6944991 44.57304,98.5155795 39.8672621,98.5155795 L39.8672621,98.5155795 Z" id="Stroke-19" stroke="#18405B" stroke-width="2.44608"></path>
                                <path d="M81.9969879,50.632987 C81.9969879,47.2109048 79.2597917,44.4411722 75.8615138,44.3701848 L75.8615138,43.1425924 C75.8615138,26.1460058 61.9763531,12.2385949 45.0069589,12.2385949 L45.0069589,12.2385949 C28.0363427,12.2385949 14.1524039,26.1460058 14.1524039,43.1425924 L14.1524039,65.1731648 C14.1524039,82.1709754 28.5104641,93.5179441 44.904314,93.5179441 L45.0069589,93.5179441 C57.4807528,93.5179441 75.8615138,82.1709754 75.8615138,65.1731648 L75.8615138,56.8957892 C79.2597917,56.8248018 81.9969879,54.0550693 81.9969879,50.632987" id="Fill-21" fill="#2B2B2B" opacity="0.367244112"></path>
                                <path d="M70.8423026,54.4616557 C66.713291,54.4616557 63.3541159,51.0970977 63.3541159,46.9614697 C63.3541159,42.8258417 66.713291,39.4612837 70.8423026,39.4612837 C74.972536,39.4612837 78.3317112,42.8258417 78.3317112,46.9614697 C78.3317112,51.0970977 74.972536,54.4616557 70.8423026,54.4616557" id="Fill-23" fill="#DDA48E"></path>
                                <path d="M70.8426691,38.2369959 C66.0403562,38.2369959 62.1325199,42.1510942 62.1325199,46.9611026 C62.1325199,51.7723348 66.0403562,55.6852092 70.8426691,55.6852092 C75.644982,55.6852092 79.5528184,51.7723348 79.5528184,46.9611026 C79.5528184,42.1510942 75.644982,38.2369959 70.8426691,38.2369959 M70.8426691,40.6848372 C74.3032671,40.6848372 77.1088932,43.4949592 77.1088932,46.9611026 C77.1088932,50.4272459 74.3032671,53.2373679 70.8426691,53.2373679 C67.3820711,53.2373679 64.5764451,50.4272459 64.5764451,46.9611026 C64.5764451,43.4949592 67.3820711,40.6848372 70.8426691,40.6848372" id="Fill-25" fill="#525252"></path>
                                <path d="M40.0169525,84.9502545 C21.7889368,84.9502545 8.04185788,72.2386142 8.04185788,55.3827784 L8.04185788,33.352206 C8.04185788,15.6371779 22.4316891,1.22428787 40.1183754,1.22428787 C57.8050617,1.22428787 72.1948929,15.6371779 72.1948929,33.352206 L72.1948929,55.3827784 C72.1948929,73.1577786 52.8891062,84.9502545 40.1183754,84.9502545 L40.0169525,84.9502545 Z" id="Fill-27" fill="#DDA48E"></path>
                                <path d="M40.1186198,0 C21.7574102,0 6.8201397,14.9612065 6.8201397,33.3518388 L6.8201397,55.3824113 C6.8201397,64.1101897 10.3931583,72.0595546 16.8793356,77.7679207 C23.0404709,83.1886654 31.2581692,86.173808 40.0171969,86.173808 L40.1186198,86.173808 C47.0850284,86.173808 55.3760445,82.979375 61.7559111,77.8352363 C69.2758687,71.7731571 73.4170999,63.7993138 73.4170999,55.3824113 L73.4170999,33.3518388 C73.4170999,14.9612065 58.4798294,0 40.1186198,0 M40.1186198,2.44784138 C57.088014,2.44784138 70.9731747,16.3540283 70.9731747,33.3518388 L70.9731747,55.3824113 C70.9731747,72.3802218 52.5924137,83.7259666 40.1186198,83.7259666 L40.0171969,83.7259666 C23.6221251,83.7259666 9.26406485,72.3802218 9.26406485,55.3824113 L9.26406485,33.3518388 C9.26406485,16.3540283 23.1480036,2.44784138 40.1186198,2.44784138 L40.1186198,2.44784138" id="Fill-29" fill="#525252"></path>
                                <path d="M70.9731747,33.3517164 C70.9731747,16.3551298 57.089236,2.44771899 40.1186198,2.44771899 C23.1480036,2.44771899 9.26406485,16.3551298 9.26406485,33.3517164 L9.26406485,50.3825728 C12.6244619,54.9722754 15.0683871,50.3825728 15.0683871,50.3825728 C15.0683871,50.3825728 13.5409339,12.2390845 26.5242862,14.839916 C26.5242862,14.839916 32.0231178,15.4518763 37.369204,15.4518763 L42.2570543,15.4518763 C47.6031406,15.4518763 53.1019721,14.839916 53.1019721,14.839916 C66.0853245,12.2390845 64.5578712,50.3825728 64.5578712,50.3825728 C64.5578712,50.3825728 67.0017964,54.9722754 70.3621935,50.3825728 L70.9731747,49.9211547 L70.9731747,33.3517164 Z" id="Fill-31" fill="#A88D8A"></path>
                                <path d="M32.0651533,34.0657518 C30.0379174,30.9802477 24.8445764,29.5274538 21.3729808,34.0657518" id="Stroke-33" stroke="#1D4A68" stroke-width="2.44608" stroke-linecap="round"></path>
                                <path d="M56.8091622,34.0657518 C54.7819263,30.9802477 49.5885853,29.5274538 46.1169897,34.0657518" id="Stroke-35" stroke="#1D4A68" stroke-width="2.44608" stroke-linecap="round"></path>
                                <path d="M28.7135543,42.6331966 C28.7135543,44.0419293 27.5734632,45.1826234 26.1682063,45.1826234 C24.7617274,45.1826234 23.6216363,44.0419293 23.6216363,42.6331966 C23.6216363,41.2244639 24.7617274,40.0837698 26.1682063,40.0837698 C27.5734632,40.0837698 28.7135543,41.2244639 28.7135543,42.6331966" id="Fill-37" fill="#1D4A68"></path>
                                <path d="M55.1384949,42.6331966 C55.1384949,44.0419293 53.9984039,45.1826234 52.5931469,45.1826234 C51.186668,45.1826234 50.0465769,44.0419293 50.0465769,42.6331966 C50.0465769,41.2244639 51.186668,40.0837698 52.5931469,40.0837698 C53.9984039,40.0837698 55.1384949,41.2244639 55.1384949,42.6331966" id="Fill-39" fill="#1D4A68"></path>
                                <path d="M26.719067,62.1139751 C28.450588,64.5618164 43.632251,69.7634794 52.5929025,62.1139751" id="Stroke-41" stroke="#1D4A68" stroke-width="2.44608" stroke-linecap="round"></path>
                                <path d="M45.1423523,52.4230934 C45.1423523,55.1291821 43.0002519,57.321224 38.851689,57.321224 C34.7019041,57.321224 32.5610257,55.1291821 32.5610257,52.4230934" id="Stroke-43" stroke="#1D4A68" stroke-width="2.44608" stroke-linecap="round"></path>
                                <path d="M42.4012459,78.4988461 L37.8359937,78.4988461 C35.9456176,78.4988461 34.398613,76.9493625 34.398613,75.0559572 L34.398613,75.0559572 C34.398613,73.1625519 35.9456176,71.6142922 37.8359937,71.6142922 L42.4012459,71.6142922 C44.291622,71.6142922 45.8386266,73.1625519 45.8386266,75.0559572 L45.8386266,75.0559572 C45.8386266,76.9493625 44.291622,78.4988461 42.4012459,78.4988461" id="Fill-45" fill="#A88D8A"></path>
                            </g>
                        </g>
                    </g>
                </g>
            </g>
        </g>
    </g>
</svg>