<svg xmlns="http://www.w3.org/2000/svg" viewBox="0 0 16101 180.6"><defs><style>.a{fill:#084439;}.b{opacity:0.1;}.c{fill:#fff;}</style></defs><title>Plan 1</title><path class="a" d="M1752.81,466.72c0-.47-.07-.93-.07-1.41a26.27,26.27,0,0,0-50.64-9.77,18.38,18.38,0,0,0-28.91,11.05l-57.86-.07A26.22,26.22,0,0,0,1576.28,452a25.87,25.87,0,0,0-43.84,14.46l-42.87,0a26.19,26.19,0,0,0-23.35-14.26c-10.18,0-19,5.31-23.34,14.31H1438A16.8,16.8,0,0,0,1431,465a18.29,18.29,0,0,0-7.07,1.39h-67.28a20.37,20.37,0,0,0-24.25-16,32.15,32.15,0,0,0-60.06,16v0c-51,.06-100.41.16-145.73.31a25.42,25.42,0,0,0-49.82-6.16l-1,0a18.1,18.1,0,0,0-13.88,6.46c-93.08.48-158,1.26-164.07,2.51-23.69,4.87-29.9-2.69-29.9-2.69A17.48,17.48,0,0,0,846,465.44a17.21,17.21,0,0,0-15.19-8.55c-7.1,0-13.2,3.58-15.93,10.58H454.23a20.67,20.67,0,0,0-19.84-16.07,20.39,20.39,0,0,0-12.07,4.11,18.58,18.58,0,0,0-16.74,12H288.92a23.74,23.74,0,0,0-23.51-23.78,23.33,23.33,0,0,0-18,8.26,20.53,20.53,0,0,0-2.1.11,19.66,19.66,0,0,0-19.23,15.41H56.71A7.67,7.67,0,0,0,50.42,465a10.15,10.15,0,0,0-2.12.08,15.72,15.72,0,0,0-13.81-7.78,15.91,15.91,0,0,0-14.78,10.21H.32v42h1836V466.88S1804.46,466.81,1752.81,466.72Z" transform="translate(-0.32 -328.86)"/><path class="a" d="M3588.66,466.72c0-.47-.15-.93-.15-1.41a26.31,26.31,0,0,0-50.7-9.77,18.39,18.39,0,0,0-28.92,11.05l-57.86-.07A26.23,26.23,0,0,0,3412,452a25.87,25.87,0,0,0-43.84,14.46l-42.87,0a26.19,26.19,0,0,0-23.35-14.26c-10.18,0-19,5.31-23.34,14.31h-4.83a16.8,16.8,0,0,0-7.07-1.45,18.29,18.29,0,0,0-7.07,1.39h-67.28a20.37,20.37,0,0,0-24.25-16,32,32,0,0,0-59.76,16v0c-51,.06-100.56.16-145.87.31a25.48,25.48,0,0,0-49.93-6.16l-1,0a18.12,18.12,0,0,0-13.88,6.46c-93.08.48-158,1.26-164.07,2.51-23.69,4.87-29.9-2.69-29.9-2.69a17.48,17.48,0,0,0-21.94-1.45,17.21,17.21,0,0,0-15.19-8.55c-7.1,0-13.2,3.58-15.93,10.58H2289.93a20.67,20.67,0,0,0-19.84-16.07,20.39,20.39,0,0,0-12.07,4.11,18.58,18.58,0,0,0-16.74,12H2124.63a23.74,23.74,0,0,0-23.51-23.78,23.33,23.33,0,0,0-18,8.26,20.53,20.53,0,0,0-2.1.11,19.66,19.66,0,0,0-19.23,15.41H1892.42a7.67,7.67,0,0,0-6.29-2.51,10.15,10.15,0,0,0-2.12.08,15.72,15.72,0,0,0-13.81-7.78,15.91,15.91,0,0,0-14.78,10.21h-19.1v42h1836V466.88S3640.31,466.81,3588.66,466.72Z" transform="translate(-0.32 -328.86)"/><path class="b" d="M339.4,493.41a13,13,0,1,1,26,0" transform="translate(-0.32 -328.86)"/><path class="b" d="M199,488.23a13,13,0,0,1,26,0" transform="translate(-0.32 -328.86)"/><path class="b" d="M734.27,490.11a13,13,0,0,1,26,0" transform="translate(-0.32 -328.86)"/><path class="b" d="M583.34,486.92a13,13,0,1,1,26,0" transform="translate(-0.32 -328.86)"/><path class="b" d="M1020.64,496.6a13,13,0,0,1,26,0" transform="translate(-0.32 -328.86)"/><path class="b" d="M1305.66,480.42a13,13,0,1,1,26,0" transform="translate(-0.32 -328.86)"/><path class="b" d="M1542.68,496.6a13,13,0,1,1,26,0" transform="translate(-0.32 -328.86)"/><path class="b" d="M1705.1,490.11a13,13,0,0,1,26,0" transform="translate(-0.32 -328.86)"/><path class="a" d="M4867.32,466.6c-24,.05-46.93.11-69.1.19a25.38,25.38,0,0,0-49.75-6.16l-1,0a18.09,18.09,0,0,0-13.87,6.46c-93.08.48-158,1.26-164.07,2.51-23.69,4.87-29.9-2.69-29.9-2.69a17.48,17.48,0,0,0-21.94-1.45,17.21,17.21,0,0,0-15.19-8.55c-7.1,0-13.2,3.58-15.93,10.58H4126a20.67,20.67,0,0,0-19.84-16.07,20.39,20.39,0,0,0-12.07,4.11,18.58,18.58,0,0,0-16.74,12H3960.65a23.74,23.74,0,0,0-23.51-23.78,23.33,23.33,0,0,0-18,8.26,20.53,20.53,0,0,0-2.1.11,19.66,19.66,0,0,0-19.23,15.41H3728.44a7.67,7.67,0,0,0-6.29-2.51,10.15,10.15,0,0,0-2.12.08,15.72,15.72,0,0,0-13.81-7.78,15.91,15.91,0,0,0-14.78,10.21h-19.12v42h1195Z" transform="translate(-0.32 -328.86)"/><path class="a" d="M6062.32,465.6c-24,.05-46.93.11-69.1.19a25.38,25.38,0,0,0-49.75-6.16l-1,0a18.09,18.09,0,0,0-13.87,6.46c-93.08.48-158,1.26-164.07,2.51-23.69,4.87-29.9-2.69-29.9-2.69a17.48,17.48,0,0,0-21.94-1.45,17.21,17.21,0,0,0-15.19-8.55c-7.1,0-13.2,3.58-15.93,10.58H5321a20.67,20.67,0,0,0-19.84-16.07,20.39,20.39,0,0,0-12.07,4.11,18.58,18.58,0,0,0-16.74,12H5155.65a23.74,23.74,0,0,0-23.51-23.78,23.33,23.33,0,0,0-18,8.26,20.53,20.53,0,0,0-2.1.11,19.66,19.66,0,0,0-19.23,15.41H4923.44a7.67,7.67,0,0,0-6.29-2.51,10.15,10.15,0,0,0-2.12.08,15.72,15.72,0,0,0-13.81-7.78,15.91,15.91,0,0,0-14.78,10.21h-19.12v42h1195Z" transform="translate(-0.32 -328.86)"/><path class="a" d="M7255.32,465.6c-24,.05-46.93.11-69.1.19a25.38,25.38,0,0,0-49.75-6.16l-1,0a18.09,18.09,0,0,0-13.87,6.46c-93.08.48-158,1.26-164.07,2.51-23.69,4.87-29.9-2.69-29.9-2.69a17.48,17.48,0,0,0-21.94-1.45,17.21,17.21,0,0,0-15.19-8.55c-7.1,0-13.2,3.58-15.93,10.58H6514a20.67,20.67,0,0,0-19.84-16.07,20.39,20.39,0,0,0-12.07,4.11,18.58,18.58,0,0,0-16.74,12H6348.65a23.74,23.74,0,0,0-23.51-23.78,23.33,23.33,0,0,0-18,8.26,20.53,20.53,0,0,0-2.1.11,19.66,19.66,0,0,0-19.23,15.41H6116.44a7.67,7.67,0,0,0-6.29-2.51,10.15,10.15,0,0,0-2.12.08,15.72,15.72,0,0,0-13.81-7.78,15.91,15.91,0,0,0-14.78,10.21h-19.12v42h1195Z" transform="translate(-0.32 -328.86)"/><path class="a" d="M8428.32,465.6c-24,.05-46.93.11-69.1.19a25.38,25.38,0,0,0-49.75-6.16l-1,0a18.09,18.09,0,0,0-13.87,6.46c-93.08.48-158,1.26-164.07,2.51-23.69,4.87-29.9-2.69-29.9-2.69a17.48,17.48,0,0,0-21.94-1.45,17.21,17.21,0,0,0-15.19-8.55c-7.1,0-13.2,3.58-15.93,10.58H7687a20.67,20.67,0,0,0-19.84-16.07,20.39,20.39,0,0,0-12.07,4.11,18.58,18.58,0,0,0-16.74,12H7521.65a23.74,23.74,0,0,0-23.51-23.78,23.33,23.33,0,0,0-18,8.26,20.53,20.53,0,0,0-2.1.11,19.66,19.66,0,0,0-19.23,15.41H7289.44a7.67,7.67,0,0,0-6.29-2.51,10.15,10.15,0,0,0-2.12.08,15.72,15.72,0,0,0-13.81-7.78,15.91,15.91,0,0,0-14.78,10.21h-19.12v42h1195Z" transform="translate(-0.32 -328.86)"/><path class="a" d="M9610.32,465.6c-24,.05-46.93.11-69.1.19a25.38,25.38,0,0,0-49.75-6.16l-1,0a18.09,18.09,0,0,0-13.87,6.46c-93.08.48-158,1.26-164.07,2.51-23.69,4.87-29.9-2.69-29.9-2.69a17.48,17.48,0,0,0-21.94-1.45,17.21,17.21,0,0,0-15.19-8.55c-7.1,0-13.2,3.58-15.93,10.58H8869a20.67,20.67,0,0,0-19.84-16.07,20.39,20.39,0,0,0-12.07,4.11,18.58,18.58,0,0,0-16.74,12H8703.65a23.74,23.74,0,0,0-23.51-23.78,23.33,23.33,0,0,0-18,8.26,20.53,20.53,0,0,0-2.1.11,19.66,19.66,0,0,0-19.23,15.41H8471.44a7.67,7.67,0,0,0-6.29-2.51,10.15,10.15,0,0,0-2.12.08,15.72,15.72,0,0,0-13.81-7.78,15.91,15.91,0,0,0-14.78,10.21h-19.12v42h1195Z" transform="translate(-0.32 -328.86)"/><path class="a" d="M10805.32,465.6c-24,.05-46.93.11-69.1.19a25.38,25.38,0,0,0-49.75-6.16l-1,0a18.09,18.09,0,0,0-13.87,6.46c-93.08.48-158,1.26-164.07,2.51-23.69,4.87-29.9-2.69-29.9-2.69a17.48,17.48,0,0,0-21.94-1.45,17.21,17.21,0,0,0-15.19-8.55c-7.1,0-13.2,3.58-15.93,10.58H10064a20.67,20.67,0,0,0-19.84-16.07,20.39,20.39,0,0,0-12.07,4.11,18.58,18.58,0,0,0-16.74,12H9898.65a23.74,23.74,0,0,0-23.51-23.78,23.33,23.33,0,0,0-18,8.26,20.53,20.53,0,0,0-2.1.11,19.66,19.66,0,0,0-19.23,15.41H9666.44a7.67,7.67,0,0,0-6.29-2.51,10.15,10.15,0,0,0-2.12.08,15.72,15.72,0,0,0-13.81-7.78,15.91,15.91,0,0,0-14.78,10.21h-19.12v42h1195Z" transform="translate(-0.32 -328.86)"/><path class="a" d="M12000.32,465.6c-24,.05-46.93.11-69.1.19a25.38,25.38,0,0,0-49.75-6.16l-1,0a18.09,18.09,0,0,0-13.87,6.46c-93.08.48-158,1.26-164.07,2.51-23.69,4.87-29.9-2.69-29.9-2.69a17.48,17.48,0,0,0-21.94-1.45,17.21,17.21,0,0,0-15.19-8.55c-7.1,0-13.2,3.58-15.93,10.58H11259a20.67,20.67,0,0,0-19.84-16.07,20.39,20.39,0,0,0-12.07,4.11,18.58,18.58,0,0,0-16.74,12h-116.66a23.74,23.74,0,0,0-23.51-23.78,23.33,23.33,0,0,0-18,8.26,20.53,20.53,0,0,0-2.1.11,19.66,19.66,0,0,0-19.23,15.41h-169.36a7.67,7.67,0,0,0-6.29-2.51,10.15,10.15,0,0,0-2.12.08,15.72,15.72,0,0,0-13.81-7.78,15.91,15.91,0,0,0-14.78,10.21h-19.12v42h1195Z" transform="translate(-0.32 -328.86)"/><path class="a" d="M13195.32,465.6c-24,.05-46.93.11-69.1.19a25.38,25.38,0,0,0-49.75-6.16l-1,0a18.09,18.09,0,0,0-13.87,6.46c-93.08.48-158,1.26-164.07,2.51-23.69,4.87-29.9-2.69-29.9-2.69a17.48,17.48,0,0,0-21.94-1.45,17.21,17.21,0,0,0-15.19-8.55c-7.1,0-13.2,3.58-15.93,10.58H12454a20.67,20.67,0,0,0-19.84-16.07,20.39,20.39,0,0,0-12.07,4.11,18.58,18.58,0,0,0-16.74,12h-116.66a23.74,23.74,0,0,0-23.51-23.78,23.33,23.33,0,0,0-18,8.26,20.53,20.53,0,0,0-2.1.11,19.66,19.66,0,0,0-19.23,15.41h-169.36a7.67,7.67,0,0,0-6.29-2.51,10.15,10.15,0,0,0-2.12.08,15.72,15.72,0,0,0-13.81-7.78,15.91,15.91,0,0,0-14.78,10.21h-19.12v42h1195Z" transform="translate(-0.32 -328.86)"/><path class="a" d="M14390.32,465.6c-24,.05-46.93.11-69.1.19a25.38,25.38,0,0,0-49.75-6.16l-1,0a18.09,18.09,0,0,0-13.87,6.46c-93.08.48-158,1.26-164.07,2.51-23.69,4.87-29.9-2.69-29.9-2.69a17.48,17.48,0,0,0-21.94-1.45,17.21,17.21,0,0,0-15.19-8.55c-7.1,0-13.2,3.58-15.93,10.58H13649a20.67,20.67,0,0,0-19.84-16.07,20.39,20.39,0,0,0-12.07,4.11,18.58,18.58,0,0,0-16.74,12h-116.66a23.74,23.74,0,0,0-23.51-23.78,23.33,23.33,0,0,0-18,8.26,20.53,20.53,0,0,0-2.1.11,19.66,19.66,0,0,0-19.23,15.41h-169.36a7.67,7.67,0,0,0-6.29-2.51,10.15,10.15,0,0,0-2.12.08,15.72,15.72,0,0,0-13.81-7.78,15.91,15.91,0,0,0-14.78,10.21h-19.12v42h1195Z" transform="translate(-0.32 -328.86)"/><path class="a" d="M15585.32,465.6c-24,.05-46.93.11-69.1.19a25.38,25.38,0,0,0-49.75-6.16l-1,0a18.09,18.09,0,0,0-13.87,6.46c-93.08.48-158,1.26-164.07,2.51-23.69,4.87-29.9-2.69-29.9-2.69a17.48,17.48,0,0,0-21.94-1.45,17.21,17.21,0,0,0-15.19-8.55c-7.1,0-13.2,3.58-15.93,10.58H14844a20.67,20.67,0,0,0-19.84-16.07,20.39,20.39,0,0,0-12.07,4.11,18.58,18.58,0,0,0-16.74,12h-116.66a23.74,23.74,0,0,0-23.51-23.78,23.33,23.33,0,0,0-18,8.26,20.53,20.53,0,0,0-2.1.11,19.66,19.66,0,0,0-19.23,15.41h-169.36a7.67,7.67,0,0,0-6.29-2.51,10.15,10.15,0,0,0-2.12.08,15.72,15.72,0,0,0-13.81-7.78,15.91,15.91,0,0,0-14.78,10.21h-19.12v42h1195Z" transform="translate(-0.32 -328.86)"/><path class="a" d="M16101.32,465.6c-24,.05-46.93.11-69.1.19a25.38,25.38,0,0,0-49.75-6.16l-1,0a18.09,18.09,0,0,0-13.87,6.46c-93.08.48-158,1.26-164.07,2.51-23.69,4.87-29.9-2.69-29.9-2.69a17.48,17.48,0,0,0-21.94-1.45,17.21,17.21,0,0,0-15.19-8.55c-7.1,0-13.2,3.58-15.93,10.58H15360a20.67,20.67,0,0,0-19.84-16.07,20.39,20.39,0,0,0-12.07,4.11,18.58,18.58,0,0,0-16.74,12h-116.66a23.74,23.74,0,0,0-23.51-23.78,23.33,23.33,0,0,0-18,8.26,20.53,20.53,0,0,0-2.1.11,19.66,19.66,0,0,0-19.23,15.41h-169.36a7.67,7.67,0,0,0-6.29-2.51,10.15,10.15,0,0,0-2.12.08,15.72,15.72,0,0,0-13.81-7.78,15.91,15.91,0,0,0-14.78,10.21h-19.12v42h1195Z" transform="translate(-0.32 -328.86)"/><path class="c" d="M15221.8,331.78c-3.17-1.46-.94-.69-5.08-1.52s-1-1.42-4-1.4-5.21,2.4-6.79,2.15-3.64,1.82-5.11,1.9-2.63-2.4-6.35-2.91-8.76,1.45-9.07,2.19-.57,2.16.46,2.36a27,27,0,0,0,5.24.06,59.84,59.84,0,0,1,7-.19,11.28,11.28,0,0,0,3.89,0c1.05-.28,3.33-.76,3.33-.76s-.22-.09,2.77-.22,5.59,0,5.59,0l1.23.11a7.49,7.49,0,0,0,3.76-.64h0C15219.14,332.66,15221.8,331.78,15221.8,331.78Z" transform="translate(-0.32 -328.86)"/><path class="c" d="M15031.31,436.81c-3.17-1.46-.94-.69-5.08-1.52s-1-1.42-4-1.4-5.21,2.4-6.79,2.15-3.64,1.82-5.11,1.9-2.63-2.4-6.35-2.91-8.76,1.45-9.07,2.19-.57,2.16.46,2.36a27,27,0,0,0,5.24.06,59.85,59.85,0,0,1,7-.19,11.28,11.28,0,0,0,3.89,0c1.05-.28,3.33-.76,3.33-.76s-.22-.09,2.77-.22,5.59,0,5.59,0l1.23.11a7.49,7.49,0,0,0,3.76-.64h0C15028.65,437.69,15031.31,436.81,15031.31,436.81Z" transform="translate(-0.32 -328.86)"/><path class="c" d="M15029.32,353.26c1,.17.27.82,1.74.77s1.42-.54,2.16-.38,1.66-.17,1.9.39.36.5.06.92-3,.51-3,.51a9.77,9.77,0,0,0-2.36-.65c-.74,0-.55-1.24-.55-1.24Z" transform="translate(-0.32 -328.86)"/><path class="c" d="M15032.32,353.26c1,.17.27.82,1.74.77s1.42-.54,2.16-.38,1.66-.17,1.9.39.36.5.06.92-3,.51-3,.51a9.77,9.77,0,0,0-2.36-.65c-.74,0-.55-1.24-.55-1.24Z" transform="translate(-0.32 -328.86)"/><path class="c" d="M15007.32,427.23c1,.17.27.82,2.22.77s1.84-.54,2.82-.38,2.18-.17,2.5.39.47.5.07.92-3.91.51-3.91.51a15.1,15.1,0,0,0-3.05-.65c-1,0-.65-1.24-.65-1.24Z" transform="translate(-0.32 -328.86)"/></svg>