<?xml version="1.0" encoding="UTF-8"?>
<svg width="380px" height="368px" viewBox="0 0 380 368" version="1.1" xmlns="http://www.w3.org/2000/svg" xmlns:xlink="http://www.w3.org/1999/xlink">
    <!-- Generator: Sketch 41 (35326) - http://www.bohemiancoding.com/sketch -->
    <title>Group 2</title>
    <desc>Created with Sketch.</desc>
    <defs>
        <polygon id="path-1" points="356.64476 371.531218 360.582638 367.610235 360.582638 363.676451 364.28963 359.746934 360.582638 355.813151 352.997627 355.813151 348.77328 355.813151 345.117596 348.244244 345.117596 344.318994 345.117596 336.455693 345.117596 332.526176 348.77328 328.827054 348.77328 324.901804 348.77328 321.253881 345.117596 317.04277 340.893249 317.04277 336.955371 313.399114 336.955371 309.469597 340.893249 309.469597 345.117596 309.469597 348.77328 309.469597 352.997627 305.488881 356.64476 301.555097 360.582638 297.62558 356.64476 293.986191 356.64476 290.052407 352.997627 286.12289 352.997627 282.19764 356.64476 282.19764 356.64476 278.498518 356.64476 274.334339 352.997627 270.639484 352.997627 266.705701 356.64476 266.705701 352.997627 262.78045 352.997627 259.136794 356.64476 259.136794 360.582638 259.136794 360.582638 254.91715 356.64476 247.348243 352.997627 247.348243 352.997627 251.282027 348.77328 251.282027 345.117596 259.136794 336.955371 262.78045 333.308238 254.91715 336.955371 247.348243 345.117596 239.719604 345.117596 235.794354 348.77328 231.864837 356.64476 231.864837 364.28963 227.931054 368.223232 220.302415 368.223232 216.377164 372.16111 212.447647 376.103264 216.377164 380.32761 220.302415 383.983295 212.447647 387.912621 216.377164 387.912621 204.584347 391.619614 200.663363 391.619614 197.023973 391.619614 189.391068 391.619614 185.226889 395.792652 181.297372 395.792652 177.602517 399.499645 170.025077 403.664132 165.813966 411.309002 158.240793 407.371125 154.30701 403.664132 154.30701 399.499645 154.30701 395.792652 150.326294 387.912621 150.326294 380.32761 146.396777 376.103264 142.75312 372.16111 134.894087 368.223232 127.039319 360.582638 127.039319 356.64476 123.340197 352.997627 123.340197 348.77328 123.340197 345.117596 127.039319 345.117596 123.340197 340.893249 119.41068 336.955371 115.48543 333.308238 115.48543 333.308238 111.551647 329.366085 107.912257 329.366085 103.692613 325.659092 100.283618 325.659092 96.1194394 321.494605 96.1194394 321.494605 100.283618 317.787612 100.283618 313.618849 100.283618 309.676696 96.1194394 313.618849 92.1899224 313.618849 88.4993338 313.618849 80.6360333 309.676696 80.6360333 305.969703 80.6360333 302.040377 80.6360333 298.098223 73.06286 298.098223 69.1333431 294.160346 69.1333431 290.226744 69.1333431 290.226744 65.1483606 290.226744 61.2188437 286.288866 61.2188437 282.577598 61.2188437 282.577598 57.2850602 278.63972 53.3640764 278.63972 49.7161535 278.63972 45.7951697 278.63972 41.8613861 270.759689 41.8613861 266.830362 41.8613861 262.888209 41.8613861 258.950331 41.8613861 255.303198 41.8613861 251.36532 45.7951697 251.36532 49.7161535 251.36532 53.3640764 247.654052 57.2850602 247.654052 61.2188437 247.654052 69.1333431 247.654052 73.06286 243.489565 73.06286 239.551687 73.06286 235.609533 76.7022498 231.620348 76.7022498 224.031061 80.6360333 216.155306 84.3351551 208.283826 84.3351551 200.63468 84.3351551 200.63468 88.4993338 204.576833 88.4993338 212.221703 92.1899224 216.155306 96.1194394 212.221703 96.1194394 212.221703 100.283618 204.576833 96.1194394 196.696802 96.1194394 188.825322 96.1194394 188.825322 92.1899224 180.945291 92.1899224 173.36028 88.4993338 165.4888 84.3351551 165.4888 88.4993338 157.54891 84.3351551 161.546647 80.6360333 157.54891 76.7022498 157.54891 73.06286 161.546647 69.1333431 157.54891 69.1333431 153.901777 69.1333431 149.959623 65.1483606 146.030297 65.1483606 146.030297 69.1333431 141.797399 73.06286 141.797399 80.6360333 141.797399 84.3351551 146.030297 92.1899224 141.797399 96.1194394 141.797399 100.283618 141.797399 103.692613 146.030297 107.912257 146.030297 111.551647 138.150265 111.551647 133.925919 107.912257 130.278786 107.912257 126.571793 107.912257 130.278786 103.692613 122.633915 103.692613 114.753884 103.692613 110.820282 100.283618 110.820282 103.692613 103.235271 103.692613 103.235271 100.283618 103.235271 92.1899224 99.0023732 92.1899224 95.3552399 92.1899224 95.3552399 88.4993338 99.0023732 84.3351551 95.3552399 88.4993338 87.4837601 84.3351551 83.5458823 88.4993338 83.5458823 92.1899224 75.8967364 92.1899224 75.8967364 88.4993338 68.0167053 88.4993338 63.7923587 88.4993338 60.1452254 84.3351551 55.9208788 88.4993338 52.5003552 88.4993338 48.5667531 88.4993338 44.6288753 88.4993338 44.6288753 92.1899224 48.5667531 92.1899224 52.5003552 92.1899224 55.9208788 92.1899224 55.9208788 96.1194394 55.9208788 100.283618 52.5003552 100.283618 52.5003552 103.692613 48.5667531 103.692613 44.6288753 103.692613 40.6909976 107.912257 44.6288753 107.912257 48.5667531 111.551647 52.5003552 119.41068 52.5003552 115.48543 60.1452254 119.41068 60.1452254 115.48543 63.7923587 115.48543 63.7923587 119.41068 71.6723898 127.039319 75.8967364 127.039319 75.8967364 130.968836 79.5438697 130.968836 79.5438697 134.894087 79.5438697 138.823603 87.4837601 138.823603 95.3552399 138.823603 91.1308933 142.75312 95.3552399 142.75312 99.0023732 146.396777 95.3552399 154.30701 99.0023732 154.30701 103.235271 158.240793 110.820282 158.240793 103.235271 158.240793 103.235271 162.17031 106.647243 162.17031 106.647243 165.813966 99.0023732 173.673 99.0023732 177.602517 103.235271 185.226889 106.647243 185.226889 106.647243 193.09019 110.820282 197.023973 110.820282 200.663363 118.691762 204.584347 122.633915 200.663363 122.633915 204.584347 122.633915 208.513864 118.691762 212.447647 122.633915 212.447647 118.691762 216.377164 118.691762 224.231932 118.691762 227.931054 114.753884 231.864837 114.753884 235.794354 118.691762 235.794354 118.691762 239.719604 118.691762 243.418726 122.633915 247.348243 122.633915 251.282027 122.633915 259.136794 122.633915 262.78045 118.691762 259.136794 118.691762 254.91715 118.691762 251.282027 114.753884 247.348243 114.753884 243.418726 110.820282 239.719604 110.820282 235.794354 106.647243 239.719604 106.647243 251.282027 106.647243 254.91715 103.235271 259.136794 103.235271 266.705701 99.0023732 266.705701 106.647243 270.639484 103.235271 274.334339 95.3552399 274.334339 95.3552399 278.498518 95.3552399 282.19764 91.1308933 286.12289 91.1308933 290.052407 87.4837601 290.052407 87.4837601 297.62558 83.5458823 297.62558 79.5438697 301.555097 79.5438697 305.488881 71.6723898 313.399114 63.7923587 321.253881 68.0167053 324.901804 71.6723898 328.827054 71.6723898 332.526176 71.6723898 336.455693 75.8967364 336.455693 79.5438697 336.455693 87.4837601 344.318994 91.1308933 344.318994 95.3552399 352.173761 99.0023732 352.173761 103.235271 352.173761 106.647243 355.813151 114.753884 363.676451 118.691762 363.676451 126.571793 367.610235 130.278786 367.610235 130.278786 371.531218 139.488545 372.056007 148.399009 369.449129 153.089402 372.631995 154.714151 377.31243 153.901777 383.089374 157.54891 387.023158 161.546647 387.023158 165.4888 387.023158 169.135933 387.023158 173.36028 390.948408 177.298158 394.877925 180.945291 394.877925 188.825322 394.877925 192.7632 398.291186 197.222708 399.093303 200.63468 398.291186 204.576833 398.291186 207.471451 400.138614 211.930959 396.443759 210.135184 395.172319 209.032065 393.030497 208.283826 390.948408 212.221703 387.023158 208.283826 383.089374 212.221703 375.23034 212.221703 371.531218 216.155306 367.610235 220.093183 367.610235 224.031061 363.676451 227.973215 363.676451 231.620348 363.676451 235.609533 363.676451 239.551687 359.746934 243.489565 355.813151 247.654052 355.813151 251.36532 359.746934 255.303198 363.676451 258.950331 363.676451 266.830362 363.676451 266.830362 371.531218 270.759689 367.610235 274.701842 367.610235 278.63972 363.676451 282.577598 363.676451 282.577598 367.610235 282.577598 371.531218 286.288866 371.531218 290.226744 371.531218 290.226744 375.23034 290.226744 379.164124 294.160346 375.23034 298.098223 379.164124 302.040377 383.089374 302.040377 387.023158 305.969703 390.948408 309.676696 390.948408 313.618849 390.948408 317.787612 390.948408 321.494605 390.948408 325.659092 390.948408 329.366085 387.023158 329.366085 383.089374 329.366085 379.164124 333.308238 379.164124 336.955371 379.164124 340.893249 379.164124 340.893249 375.23034 345.117596 375.23034 348.77328 375.23034 348.77328 379.164124 356.64476 371.531218 352.997627 375.23034"></polygon>
    </defs>
    <g id="Page-1" stroke="none" stroke-width="1" fill="none" fill-rule="evenodd">
        <g id="Buddytrain/01-Copy-5" transform="translate(-35717.000000, -303.000000)">
            <g id="Group-11" transform="translate(35627.000000, 269.000000)">
                <g id="Group-2" transform="translate(74.000000, 0.000000)">
                    <mask id="mask-2" fill="white">
                        <use xlink:href="#path-1"></use>
                    </mask>
                    <use id="Mask" fill="#E7E7E7" opacity="0.634341033" transform="translate(226.000000, 221.000000) rotate(-15.000000) translate(-226.000000, -221.000000) " xlink:href="#path-1"></use>
                    <path d="M230.383333,149.383588 L322,350" id="Line" stroke="#ADADAD" stroke-width="2.20000005" stroke-linecap="square" stroke-dasharray="1.100000023841858,8.800000190734863" mask="url(#mask-2)"></path>
                    <path d="M151,248 L323,350" id="Line" stroke="#ADADAD" stroke-width="2.20000005" stroke-linecap="square" stroke-dasharray="1.100000023841858,8.800000190734863" mask="url(#mask-2)"></path>
                    <path d="M151,248 L234,148" id="Line" stroke="#ADADAD" stroke-width="2.20000005" stroke-linecap="square" stroke-dasharray="1.100000023841858,8.800000190734863" mask="url(#mask-2)"></path>
                    <circle id="Oval-4" fill-opacity="0.304347826" fill="#CE8080" opacity="0.256906703" mask="url(#mask-2)" cx="230.5" cy="143.5" r="28.5"></circle>
                    <circle id="Oval-4" fill-opacity="0.304347826" fill="#CE8080" opacity="0.140851449" mask="url(#mask-2)" cx="230.5" cy="143.5" r="49.5"></circle>
                    <ellipse id="Oval-4-Copy" fill="#80CEC4" opacity="0.256906703" mask="url(#mask-2)" cx="323" cy="352" rx="16" ry="16"></ellipse>
                    <circle id="Oval-4-Copy-3" fill="#80CEC4" opacity="0.256906703" mask="url(#mask-2)" cx="149" cy="246" r="11"></circle>
                    <circle id="Oval-4" fill="#CE8080" mask="url(#mask-2)" cx="230" cy="144" r="22"></circle>
                    <circle id="Oval-4" fill="#CE8080" mask="url(#mask-2)" cx="230" cy="144" r="22"></circle>
                    <ellipse id="Oval-4-Copy-2" fill="#80CEC4" mask="url(#mask-2)" cx="323.5" cy="352.5" rx="12.5" ry="12.5"></ellipse>
                    <ellipse id="Oval-4-Copy-4" fill="#80CEC4" mask="url(#mask-2)" cx="150" cy="247" rx="9" ry="9"></ellipse>
                    <polygon id="Star" fill="#FFFFFF" mask="url(#mask-2)" points="230 148.5 224.709933 151.281153 225.720246 145.390576 221.440491 141.218847 227.354966 140.359424 230 135 232.645034 140.359424 238.559509 141.218847 234.279754 145.390576 235.290067 151.281153"></polygon>
                </g>
            </g>
        </g>
    </g>
</svg>