<?xml version="1.0" encoding="UTF-8"?>
<svg width="472px" height="467px" viewBox="0 0 472 467" version="1.1" xmlns="http://www.w3.org/2000/svg" xmlns:xlink="http://www.w3.org/1999/xlink">
    <!-- Generator: Sketch 41 (35326) - http://www.bohemiancoding.com/sketch -->
    <title>montagne_front</title>
    <desc>Created with Sketch.</desc>
    <defs></defs>
    <g id="Page-1" stroke="none" stroke-width="1" fill="none" fill-rule="evenodd">
        <g id="montagne_front">
            <path d="M201.05,409.98 C213.87,405.17 204.92,407.54 221.37,405.45 C237.82,403.36 225.86,400.18 237.61,401.1 C249.36,402.02 257.33,411.98 263.61,411.45 C269.89,410.92 277.35,419.59 283.12,420.32 C288.89,421.05 294.12,411.66 308.84,410.7 C323.56,409.74 342.75,418.84 343.78,421.83 C344.81,424.82 345.39,430.47 341.31,430.95 C337.23,431.43 329.11,430.79 320.78,429.71 C312.45,428.63 300.57,426.86 293.28,426.98 C285.99,427.1 282.1,427.26 278.04,425.87 C273.98,424.48 265.22,421.96 265.22,421.96 C265.22,421.96 266.1,421.68 254.43,420.31 C242.76,418.94 232.54,418.64 232.54,418.64 L227.7,418.74 C222.629175,418.833433 217.620361,417.613956 213.16,415.2 L213.1,415.2 C211.26,414.17 201.05,409.98 201.05,409.98 Z" id="Shape" fill="#FFFFFF"></path>
            <path d="M0.5,322.53 C2.62,322.53 238.57,125.97 363.78,0.97 L471.21,0.97 L471.37,466.34 L417.37,436.92 L210.8,410.2 C210.8,410.2 282.73,280.03 238.73,265.66 C165.73,241.81 135.47,360.8 135.47,360.8 L0.5,322.53 Z M363.78,1 C238.57,126 2.62,322.54 0.5,322.56 L135.44,360.84 C135.44,360.84 153.91,288.13 196.86,267.78 L223.75,233.69 L255.02,169.78 L339.46,119.78 C339.46,119.78 398.05,46.22 433.94,1 L363.78,1 Z" id="Shape" fill="#F4F4F4"></path>
        </g>
    </g>
</svg>