<svg xmlns="http://www.w3.org/2000/svg" viewBox="0 0 15902.36 496.14"><defs><style>.a{opacity:0.1;}.b{fill:#fff;}.c{fill:#f4f4f4;}</style></defs><title>montagne front</title><path class="a" d="M339.4,493.41a13,13,0,1,1,26,0" transform="translate(-198.95 -0.47)"/><path class="a" d="M199,488.23a13,13,0,0,1,26,0" transform="translate(-198.95 -0.47)"/><path class="a" d="M734.27,490.11a13,13,0,0,1,26,0" transform="translate(-198.95 -0.47)"/><path class="a" d="M583.34,486.92a13,13,0,1,1,26,0" transform="translate(-198.95 -0.47)"/><path class="a" d="M1020.64,496.6a13,13,0,0,1,26,0" transform="translate(-198.95 -0.47)"/><path class="a" d="M1305.66,480.42a13,13,0,1,1,26,0" transform="translate(-198.95 -0.47)"/><path class="a" d="M1542.68,496.6a13,13,0,1,1,26,0" transform="translate(-198.95 -0.47)"/><path class="a" d="M1705.1,490.11a13,13,0,0,1,26,0" transform="translate(-198.95 -0.47)"/><path class="b" d="M15831,409.45c12.82-4.81,3.87-2.44,20.32-4.53s4.49-5.27,16.24-4.35,19.72,10.88,26,10.35,13.74,8.14,19.51,8.87,11-8.66,25.72-9.62,33.91,8.14,34.94,11.13,1.61,8.64-2.47,9.12-12.2-.16-20.53-1.24-20.21-2.85-27.5-2.73-11.18.28-15.24-1.11-12.82-3.91-12.82-3.91.88-.28-10.79-1.65-21.89-1.67-21.89-1.67l-4.84.1a29.41,29.41,0,0,1-14.54-3.54l-.06,0C15841.21,413.64,15831,409.45,15831,409.45Z" transform="translate(-198.95 -0.47)"/><path class="c" d="M15630.45,322c2.12,0,238.07-196.56,363.28-321.56h107.43l.16,465.37-54-29.42-206.57-26.72s71.93-130.17,27.93-144.54c-73-23.85-103.26,95.14-103.26,95.14ZM15993.73.47c-125.21,125-361.16,321.54-363.28,321.56l134.94,38.28s18.47-72.71,61.42-93.06l26.89-34.09,31.27-63.91,84.44-50S16028,45.69,16063.89.47Z" transform="translate(-198.95 -0.47)"/></svg>