<svg xmlns="http://www.w3.org/2000/svg" viewBox="0 0 15864.94 496.14"><defs><style>.a{fill:#93adbe;}.b{opacity:0.1;}.c{fill:#efefef;}.d{fill:#fff;}</style></defs><title>montagne back</title><rect class="a" x="15560.61" y="240.41" width="238.16" height="118.52"/><path class="b" d="M339.4,493.41a13,13,0,1,1,26,0" transform="translate(-198.95 -0.47)"/><path class="b" d="M199,488.23a13,13,0,0,1,26,0" transform="translate(-198.95 -0.47)"/><path class="b" d="M734.27,490.11a13,13,0,0,1,26,0" transform="translate(-198.95 -0.47)"/><path class="b" d="M583.34,486.92a13,13,0,1,1,26,0" transform="translate(-198.95 -0.47)"/><path class="b" d="M1020.64,496.6a13,13,0,0,1,26,0" transform="translate(-198.95 -0.47)"/><path class="b" d="M1305.66,480.42a13,13,0,1,1,26,0" transform="translate(-198.95 -0.47)"/><path class="b" d="M1542.68,496.6a13,13,0,1,1,26,0" transform="translate(-198.95 -0.47)"/><path class="b" d="M1705.1,490.11a13,13,0,0,1,26,0" transform="translate(-198.95 -0.47)"/><path class="c" d="M15993.73.47c-125.21,125-361.16,321.54-363.28,321.56l134.94,38.28s18.47-72.71,61.42-93.06l26.89-34.09,31.27-63.91,84.44-50S16028,45.69,16063.89.47Z" transform="translate(-198.95 -0.47)"/><path class="d" d="M15630.45,321.79c13.4-2.82,4.2-1.83,20.77-1.4s5.24-4.53,16.71-1.84,17.85,13.74,24.15,14.16,12.35,10.12,17.94,11.72,12.15-6.9,26.88-5.63,32.29,13.17,32.86,16.29.28,8.78-3.82,8.64-12-2-20.11-4.33-19.54-5.87-26.77-6.86-11.1-1.42-14.9-3.4-12.08-5.81-12.08-5.81.92-.14-10.41-3.26-21.39-5-21.39-5l-4.8-.63a29.41,29.41,0,0,1-13.84-5.7l-.05,0C15639.89,327.47,15630.45,321.79,15630.45,321.79Z" transform="translate(-198.95 -0.47)"/></svg>