<svg xmlns="http://www.w3.org/2000/svg" viewBox="0 0 16101 239.83"><defs><style>.a{fill:#5daca2;}.b{fill:#93adbe;}.c{fill:#2f768f;}.d{fill:#fffbf4;}.e{fill:#fef3d7;}.f{fill:#529b8f;}.g{fill:#347e71;}.h{fill:#3b6c7e;}.i{fill:#4b888d;}.j{fill:#b2dcd4;}.k{fill:#a3c1bb;opacity:0.5;}.l{opacity:0.1;}.m{fill:#666;}.n{fill:#41897b;}.o{fill:#316476;}.p{fill:#0f2d59;}.q{fill:#132e5b;}.r{fill:#0e1011;opacity:0.2;}</style></defs><title>plan4</title><path class="a" d="M16095.94,298.47s0-.15,0-.23c0-6.49-58.77-11.73-131.26-11.73s-131.26,5.24-131.26,11.73c0,.09,0,.24,0,.24h-438.58c-3.66-4-93.32-6.58-203.39-6.58-64.39,0-121.78.88-159.07,2.41-18.07-4.55-66.64-7.8-123.72-7.8-72.5,0-131.26,5.24-131.26,11.73,0,.09,0,.24,0,.24h-438.58c-3.66-4-93.32-6.58-203.4-6.58s-199.74,2.58-203.4,6.58h-42.16s0-.15,0-.23c0-6.49-58.77-11.73-131.26-11.73s-131.26,5.24-131.26,11.73c0,.09,0,.24,0,.24h-438.58c-3.66-4-93.32-6.58-203.4-6.58s-199.74,2.58-203.4,6.58h-56.16s0-.15,0-.23c0-6.49-58.77-11.73-131.26-11.73s-131.26,5.24-131.26,11.73c0,.09,0,.24,0,.24h-438.58c-3.66-4-93.32-6.58-203.4-6.58s-199.74,2.58-203.4,6.58h-22.16s0-.15,0-.23c0-6.49-58.77-11.73-131.26-11.73s-131.26,5.24-131.26,11.73c0,.09,0,.24,0,.24h-438.58c-3.66-4-93.32-6.58-203.4-6.58s-199.74,2.58-203.4,6.58h-76.16s0-.15,0-.23c0-6.49-58.77-11.73-131.26-11.73s-131.26,5.24-131.26,11.73c0,.09,0,.24,0,.24H9710.89c-3.66-4-93.32-6.58-203.4-6.58s-199.74,2.58-203.4,6.58h-92.78v13h6890v-13Z" transform="translate(-0.32 -217.64)"/><path class="a" d="M9211.32,311.47v-13h-5.38s0-.15,0-.23c0-6.49-58.77-11.73-131.26-11.73s-131.26,5.24-131.26,11.73c0,.09,0,.24,0,.24H8504.89c-3.66-4-93.32-6.58-203.4-6.58s-199.74,2.58-203.4,6.58h-.16s0-.15,0-.23c0-6.49-58.77-11.73-131.26-11.73s-131.26,5.24-131.26,11.73c0,.09,0,.24,0,.24H7396.89c-3.08-3.37-67.34-5.74-153.43-6.39-23.12-3.35-64.52-5.57-111.75-5.57-64.85,0-118.71,4.19-129.35,9.72-7.25.68-11.51,1.44-12.25,2.24H6561.89c-3.66-4-93.32-6.58-203.4-6.58s-199.74,2.58-203.4,6.58h-92.16s0-.15,0-.23c0-6.49-58.77-11.73-131.26-11.73s-131.26,5.24-131.26,11.73c0,.09,0,.24,0,.24H5361.89c-3.66-4-93.32-6.58-203.4-6.58s-199.74,2.58-203.4,6.58h-93.16s0-.15,0-.23c0-6.49-58.77-11.73-131.26-11.73s-131.26,5.24-131.26,11.73c0,.09,0,.24,0,.24H4160.89c-3.66-4-93.32-6.58-203.4-6.58s-199.74,2.58-203.4,6.58h-192c-33.65-9-107.67-14.21-193.59-14.21s-159.95,5.21-193.59,14.21H3025s0-.15,0-.23c0-6.49-58.24-11.73-130.07-11.73s-130.07,5.24-130.07,11.73c0,.09,0,.24,0,.24h-434.6c-3.62-4-92.47-6.58-201.55-6.58s-197.93,2.58-201.55,6.58H1727.31c-33.65-9-107.67-14.21-193.59-14.21s-159.95,5.21-193.59,14.21H1190.26s0-.15,0-.23c0-6.49-58.24-11.73-130.07-11.73s-130.07,5.24-130.07,11.73c0,.09,0,.24,0,.24H495.57c-3.62-4-92.47-6.58-201.55-6.58s-197.93,2.58-201.55,6.58H.32v13Z" transform="translate(-0.32 -217.64)"/><path class="b" d="M314.4,310.47l3.37-.19-82.82-71.57s-45,41.76-76.83,71.76Z" transform="translate(-0.32 -217.64)"/><path class="c" d="M224.18,310.47l-.28-16H213.56l10.26-20.09-3.4,2.18s1.79-9.24,2.05-9.34,6.79-3.77,6.79-3.77l3.06-5.68.45-1.06-.35-.58L229.73,249l5.41-6.42-.36-3.59c-3,2.76-45.94,42.51-76.67,71.51Z" transform="translate(-0.32 -217.64)"/><path class="d" d="M232.66,257l3.34,6.49,5.8-10.17,5,3.68,11.24,2h0l-23.13-20s-8.81,8.2-21.38,19.94c1.18,2.51,2.11,4.53,2.11,4.53l8.15-6.49,1.28,4Z" transform="translate(-0.32 -217.64)"/><path class="e" d="M234.78,239.16l-.42.39-.32.3,0,0-.38.35-3.09,2.88-1.78,1.66L226,247.3l-.22.21-1.61,1.5-.28.26-.61.57-.36.34-.5.46-.62.57-3.4,3.17-.53.49-.87.81-.09.09-.77.72-.52.49-2.12,2c1.18,2.51,2.11,4.53,2.11,4.53l8.15-6.49,1.28,4,7.56-4,.12-.28-.35-.59L229.73,249l5.41-6.42Z" transform="translate(-0.32 -217.64)"/><polygon class="b" points="205 67.84 205 72.3 200.36 71.17 205 67.84"/><polygon class="c" points="244.91 70.07 246.51 84.33 240.27 73.4 244.91 70.07"/><path class="c" d="M263.37,280.7,265,295,258.73,284C261.41,285.78,262.92,284.58,263.37,280.7Z" transform="translate(-0.32 -217.64)"/><path class="b" d="M2128.77,291.89c28.56,0,55.73.18,80.35.51l-78-66.76s-40,37.27-71.26,66.62C2081.36,292,2104.57,291.89,2128.77,291.89Z" transform="translate(-0.32 -217.64)"/><path class="c" d="M2120.25,291.8l-.18-10.33h-10.35L2120,261.19l-3.4,2.09s1.79-9.28,2.05-9.39,6.79-3.79,6.79-3.79l3.06-5.69.45-1.07-.35-.59-2.69-7.15,5.41-6.42-.36-3.4c-2.79,2.6-41,38.16-71.1,66.42C2078.82,292,2099.12,291.83,2120.25,291.8Z" transform="translate(-0.32 -217.64)"/><path class="d" d="M2128.83,243.63l3.34,6.49,5.8-10.17,5,3.68,11.24,2h0l-23.13-20s-8.81,8.2-21.38,19.94c1.18,2.51,2.11,4.53,2.11,4.53l8.15-6.49,1.28,4Z" transform="translate(-0.32 -217.64)"/><path class="e" d="M2131,225.79l-.42.39-.32.3,0,0-.38.35-3.09,2.88-1.78,1.66-2.71,2.53-.22.21-1.61,1.5-.28.26-.61.57-.36.34-.5.46-.62.57-3.4,3.17-.53.49-.87.81-.09.09-.77.72-.52.49-2.12,2c1.18,2.51,2.11,4.53,2.11,4.53l8.15-6.49,1.28,4,7.56-4,.12-.28-.35-.59-2.69-7.15,5.41-6.42Z" transform="translate(-0.32 -217.64)"/><polygon class="b" points="2101 54.47 2101 58.93 2096.36 57.81 2101 54.47"/><polygon class="c" points="2141.08 56.7 2142.69 70.97 2136.44 60.03 2141.08 56.7"/><path class="b" d="M2895,286.5c38.24,0,72.63,1.49,96.43,3.86l4.76-.5-83-72.22s-43.21,40.25-74.9,70C2855.37,286.92,2874.62,286.5,2895,286.5Z" transform="translate(-0.32 -217.64)"/><path class="c" d="M2895,286.5c2.46,0,4.9-.09,7.33-.08l-.22-13h-10.34L2902,253.19l-3.4,2.09s1.79-9.28,2.05-9.39,6.79-3.79,6.79-3.79l3.06-5.69.45-1.07-.35-.59-2.69-7.15,5.41-6.42-.36-3.4c-2.9,2.7-44.17,41.16-74.73,69.88C2855.37,286.92,2874.62,286.5,2895,286.5Z" transform="translate(-0.32 -217.64)"/><path class="d" d="M2910.83,235.63l3.34,6.49,5.8-10.17,5,3.68,11.24,2h0l-23.13-20s-8.81,8.2-21.38,19.94c1.18,2.51,2.11,4.53,2.11,4.53l8.15-6.49,1.28,4Z" transform="translate(-0.32 -217.64)"/><path class="e" d="M2913,217.79l-.42.39-.32.3,0,0-.38.35-3.09,2.88-1.78,1.66-2.71,2.53-.22.21-1.61,1.5-.28.26-.61.57-.36.34-.5.46-.62.57-3.4,3.17-.53.49-.87.81-.09.09-.77.72-.52.49-2.12,2c1.18,2.51,2.11,4.53,2.11,4.53l8.15-6.49,1.28,4,7.56-4,.12-.28-.35-.59-2.69-7.15,5.41-6.42Z" transform="translate(-0.32 -217.64)"/><polygon class="b" points="2883 46.47 2883 50.93 2878.36 49.81 2883 46.47"/><polygon class="c" points="2923.08 48.7 2924.69 62.97 2918.44 52.03 2923.08 48.7"/><path class="b" d="M3025,298.24c0,.09,0,.23,0,.23h106.79l2.61-.32-83.29-70.51s-36.05,33.58-66.45,62.1C3009.54,291.87,3025,294.89,3025,298.24Z" transform="translate(-0.32 -217.64)"/><path class="c" d="M3025,298.24c0,.09,0,.23,0,.23h15.32l-.25-15h-10.34L3040,263.19l-3.4,2.09s1.79-9.28,2.05-9.39,6.79-3.79,6.79-3.79l3.06-5.69.45-1.07-.35-.59-2.69-7.15,5.41-6.42-.36-3.4c-2.64,2.46-37.07,34.54-66.28,61.95C3009.54,291.87,3025,294.89,3025,298.24Z" transform="translate(-0.32 -217.64)"/><path class="d" d="M3048.83,245.63l3.34,6.49,5.8-10.17,5,3.68,11.24,2h0l-23.13-20s-8.81,8.2-21.38,19.94c1.18,2.51,2.11,4.53,2.11,4.53l8.15-6.49,1.28,4Z" transform="translate(-0.32 -217.64)"/><path class="e" d="M3051,227.79l-.42.39-.32.3,0,0-.38.35-3.09,2.88-1.78,1.66-2.71,2.53-.22.21-1.61,1.5-.28.26-.61.57-.36.34-.5.46-.62.57-3.4,3.17-.53.49-.87.81-.09.09-.77.72-.52.49-2.12,2c1.18,2.51,2.11,4.53,2.11,4.53l8.15-6.49,1.28,4,7.56-4,.12-.28-.35-.59-2.69-7.15,5.41-6.42Z" transform="translate(-0.32 -217.64)"/><polygon class="b" points="3021 56.47 3021 60.93 3016.36 59.81 3021 56.47"/><polygon class="c" points="3061.08 58.7 3062.69 72.97 3056.44 62.03 3061.08 58.7"/><path class="b" d="M3174.88,298.47c16-4.29,41.25-7.72,72.55-10.13l-67.31-57.7s-41.12,38.3-72.55,67.83Z" transform="translate(-0.32 -217.64)"/><path class="b" d="M3174.88,298.47q3.25-.87,7-1.69l-59.76-51.14s-28.76,26.79-56.56,52.83Z" transform="translate(-0.32 -217.64)"/><path class="c" d="M3102.34,298.47l8.65-17.18-3.4,2s1.79-9.31,2.05-9.41,6.79-3.8,6.79-3.8l3.06-5.7.45-1.07-.35-.59-2.69-7.15,5.41-6.42-.36-3.4c-2.35,2.19-29.81,27.77-56.4,52.68Z" transform="translate(-0.32 -217.64)"/><path class="d" d="M3119.83,263.63l3.34,6.49,5.8-10.17,5,3.68,11.24,2h0l-23.13-20s-8.81,8.2-21.38,19.94c1.18,2.51,2.11,4.53,2.11,4.53l8.15-6.49,1.28,4Z" transform="translate(-0.32 -217.64)"/><path class="e" d="M3122,245.79l-.42.39-.32.3,0,0-.38.35-3.09,2.88-1.78,1.66-2.71,2.53-.22.21-1.61,1.5-.28.26-.61.57-.36.34-.5.46-.62.57-3.4,3.17-.53.49-.87.81-.09.09-.77.72-.52.49-2.12,2c1.18,2.51,2.11,4.53,2.11,4.53l8.15-6.49,1.28,4,7.56-4,.12-.28-.35-.59-2.69-7.15,5.41-6.42Z" transform="translate(-0.32 -217.64)"/><polygon class="b" points="3092 74.47 3092 78.93 3087.36 77.81 3092 74.47"/><path class="c" d="M3169.28,298.47l-.2-12h-10.34L3169,266.19l-3.4,2.09s1.79-9.28,2.05-9.39,6.79-3.79,6.79-3.79l3.06-5.69.45-1.07-.35-.59-2.69-7.15,5.41-6.42-.36-3.4c-2.83,2.63-42.1,39.23-72.39,67.68Z" transform="translate(-0.32 -217.64)"/><path class="d" d="M3177.83,248.63l3.34,6.49,5.8-10.17,5,3.68,11.24,2h0l-23.13-20s-8.81,8.2-21.38,19.94c1.18,2.51,2.11,4.53,2.11,4.53l8.15-6.49,1.28,4Z" transform="translate(-0.32 -217.64)"/><path class="e" d="M3180,230.79l-.42.39-.32.3,0,0-.38.35-3.09,2.88-1.78,1.66-2.71,2.53-.22.21-1.61,1.5-.28.26-.61.57-.36.34-.5.46-.62.57-3.4,3.17-.53.49-.87.81-.09.09-.77.72-.52.49-2.12,2c1.18,2.51,2.11,4.53,2.11,4.53l8.15-6.49,1.28,4,7.56-4,.12-.28-.35-.59-2.69-7.15,5.41-6.42Z" transform="translate(-0.32 -217.64)"/><polygon class="b" points="3150 59.47 3150 63.93 3145.36 62.81 3150 59.47"/><polygon class="c" points="3190.08 61.7 3191.69 75.97 3185.44 65.03 3190.08 61.7"/><path class="b" d="M3506.89,289.84l-57.77-50.2s-23.2,21.61-48.06,44.88C3441.1,285.16,3477.47,287,3506.89,289.84Z" transform="translate(-0.32 -217.64)"/><path class="c" d="M3432.88,285.3l5.11-10.11-3.4,2.09s1.79-9.28,2.05-9.39,6.79-3.79,6.79-3.79l3.06-5.69.45-1.07-.35-.59-2.69-7.15,5.41-6.42-.36-3.4c-2.1,2-24.24,22.59-47.9,44.72C3412,284.69,3422.59,285,3432.88,285.3Z" transform="translate(-0.32 -217.64)"/><path class="d" d="M3446.83,257.63l3.34,6.49,5.8-10.17,5,3.68,11.24,2h0l-23.13-20s-8.81,8.2-21.38,19.94c1.18,2.51,2.11,4.53,2.11,4.53l8.15-6.49,1.28,4Z" transform="translate(-0.32 -217.64)"/><path class="e" d="M3449,239.79l-.42.39-.32.3,0,0-.38.35-3.09,2.88-1.78,1.66-2.71,2.53-.22.21-1.61,1.5-.28.26-.61.57-.36.34-.5.46-.62.57-3.4,3.17-.53.49-.87.81-.09.09-.77.72-.52.49-2.12,2c1.18,2.51,2.11,4.53,2.11,4.53l8.15-6.49,1.28,4,7.56-4,.12-.28-.35-.59-2.69-7.15,5.41-6.42Z" transform="translate(-0.32 -217.64)"/><path class="b" d="M3562.07,298.47h45.78l-81.73-70.83s-33.48,31.19-63.11,59C3506.59,289,3541.72,293,3562.07,298.47Z" transform="translate(-0.32 -217.64)"/><path class="c" d="M3515.2,290.6l-.12-7.13h-10.34L3515,263.19l-3.4,2.09s1.79-9.28,2.05-9.39,6.79-3.79,6.79-3.79l3.06-5.69.45-1.07-.35-.59-2.69-7.15,5.41-6.42-.36-3.4c-2.54,2.37-34.52,32.11-62.95,58.77C3482.23,287.6,3499.81,288.93,3515.2,290.6Z" transform="translate(-0.32 -217.64)"/><path class="d" d="M3523.83,245.63l3.34,6.49,5.8-10.17,5,3.68,11.24,2h0l-23.13-20s-8.81,8.2-21.38,19.94c1.18,2.51,2.11,4.53,2.11,4.53l8.15-6.49,1.28,4Z" transform="translate(-0.32 -217.64)"/><path class="e" d="M3526,227.79l-.42.39-.32.3,0,0-.38.35-3.09,2.88-1.78,1.66-2.71,2.53-.22.21-1.61,1.5-.28.26-.61.57-.36.34-.5.46-.62.57-3.4,3.17-.53.49-.87.81-.09.09-.77.72-.52.49-2.12,2c1.18,2.51,2.11,4.53,2.11,4.53l8.15-6.49,1.28,4,7.56-4,.12-.28-.35-.59-2.69-7.15,5.41-6.42Z" transform="translate(-0.32 -217.64)"/><polygon class="c" points="3536.08 58.7 3537.69 72.97 3531.44 62.03 3536.08 58.7"/><path class="b" d="M3562.07,298.47H3691l-80.89-69.83s-38.87,36.21-69.92,65.36C3548.68,295.36,3556,296.85,3562.07,298.47Z" transform="translate(-0.32 -217.64)"/><path class="c" d="M3562.07,298.47h37.25l-.24-14h-10.34L3599,264.19l-3.4,2.09s1.79-9.28,2.05-9.39,6.79-3.79,6.79-3.79l3.06-5.69.45-1.07-.35-.59-2.69-7.15,5.41-6.42-.36-3.4c-2.75,2.56-39.88,37.15-69.75,65.21C3548.68,295.36,3556,296.85,3562.07,298.47Z" transform="translate(-0.32 -217.64)"/><path class="d" d="M3607.83,246.63l3.34,6.49,5.8-10.17,5,3.68,11.24,2h0l-23.13-20s-8.81,8.2-21.38,19.94c1.18,2.51,2.11,4.53,2.11,4.53l8.15-6.49,1.28,4Z" transform="translate(-0.32 -217.64)"/><path class="e" d="M3610,228.79l-.42.39-.32.3,0,0-.38.35-3.09,2.88-1.78,1.66-2.71,2.53-.22.21-1.61,1.5-.28.26-.61.57-.36.34-.5.46-.62.57-3.4,3.17-.53.49-.87.81-.09.09-.77.72-.52.49-2.12,2c1.18,2.51,2.11,4.53,2.11,4.53l8.15-6.49,1.28,4,7.56-4,.12-.28-.35-.59-2.69-7.15,5.41-6.42Z" transform="translate(-0.32 -217.64)"/><polygon class="c" points="3620.08 59.7 3621.69 73.97 3615.44 63.03 3620.08 59.7"/><path class="b" d="M4517.26,298.47l-68.15-58.83s-33.37,31.08-63,58.83Z" transform="translate(-0.32 -217.64)"/><path class="c" d="M4438.13,298.47l0-3h-10.34L4438,275.19l-3.4,2.09s1.79-9.28,2.05-9.39,6.79-3.79,6.79-3.79l3.06-5.69.45-1.07-.35-.59-2.69-7.15,5.41-6.42-.36-3.4c-2.54,2.36-34.4,32.05-62.8,58.68Z" transform="translate(-0.32 -217.64)"/><path class="d" d="M4446.83,257.63l3.34,6.49,5.8-10.17,5,3.68,11.24,2h0l-23.13-20s-8.81,8.2-21.38,19.94c1.18,2.51,2.11,4.53,2.11,4.53l8.15-6.49,1.28,4Z" transform="translate(-0.32 -217.64)"/><path class="e" d="M4449,239.79l-.42.39-.32.3,0,0-.38.35-3.09,2.88-1.78,1.66-2.71,2.53-.22.21-1.61,1.5-.28.26-.61.57-.36.34-.5.46-.62.57-3.4,3.17-.53.49-.87.81-.09.09-.77.72-.52.49-2.12,2c1.18,2.51,2.11,4.53,2.11,4.53l8.15-6.49,1.28,4,7.56-4,.12-.28-.35-.59-2.69-7.15,5.41-6.42Z" transform="translate(-0.32 -217.64)"/><polygon class="c" points="4459.08 70.7 4460.69 84.97 4454.44 74.03 4459.08 70.7"/><path class="b" d="M4599.48,298.47s0-.15,0-.24c0-3.39,16-6.43,41.63-8.57l-80-69s-51.39,47.87-83.18,77.83Z" transform="translate(-0.32 -217.64)"/><path class="c" d="M4550.45,298.47l-.37-22h-10.34L4550,256.19l-3.4,2.09s1.79-9.28,2.05-9.39,6.79-3.79,6.79-3.79l3.06-5.69.45-1.07-.35-.59-2.69-7.15,5.41-6.42-.36-3.4c-3.17,3-52.26,48.69-83,77.68Z" transform="translate(-0.32 -217.64)"/><path class="d" d="M4558.83,238.63l3.34,6.49,5.8-10.17,5,3.68,11.24,2h0l-23.13-20s-8.81,8.2-21.38,19.94c1.18,2.51,2.11,4.53,2.11,4.53l8.15-6.49,1.28,4Z" transform="translate(-0.32 -217.64)"/><path class="e" d="M4561,220.79l-.42.39-.32.3,0,0-.38.35-3.09,2.88-1.78,1.66-2.71,2.53-.22.21-1.61,1.5-.28.26-.61.57-.36.34-.5.46-.62.57-3.4,3.17-.53.49-.87.81-.09.09-.77.72-.52.49-2.12,2c1.18,2.51,2.11,4.53,2.11,4.53l8.15-6.49,1.28,4,7.56-4,.12-.28-.35-.59-2.69-7.15,5.41-6.42Z" transform="translate(-0.32 -217.64)"/><polygon class="c" points="4571.08 51.7 4572.69 65.97 4566.44 55.03 4571.08 51.7"/><path class="b" d="M4730.71,286.5c8.08,0,16,.07,23.66.19l-67.25-58.06S4650,263.24,4619.31,292C4642.49,288.7,4683.71,286.5,4730.71,286.5Z" transform="translate(-0.32 -217.64)"/><path class="c" d="M4676.13,287.47l0-3h-10.34L4676,264.19l-3.4,2.09s1.79-9.28,2.05-9.39,6.79-3.79,6.79-3.79l3.06-5.69.45-1.07-.35-.59-2.69-7.15,5.41-6.42-.36-3.4c-2.68,2.5-38.16,35.51-67.65,63.18C4632.88,290,4652.64,288.42,4676.13,287.47Z" transform="translate(-0.32 -217.64)"/><path class="d" d="M4684.83,246.63l3.34,6.49,5.8-10.17,5,3.68,11.24,2h0l-23.13-20s-8.81,8.2-21.38,19.94c1.18,2.51,2.11,4.53,2.11,4.53l8.15-6.49,1.28,4Z" transform="translate(-0.32 -217.64)"/><path class="e" d="M4687,228.79l-.42.39-.32.3,0,0-.38.35-3.09,2.88-1.78,1.66-2.71,2.53-.22.21-1.61,1.5-.28.26-.61.57-.36.34-.5.46-.62.57-3.4,3.17-.53.49-.87.81-.09.09-.77.72-.52.49-2.12,2c1.18,2.51,2.11,4.53,2.11,4.53l8.15-6.49,1.28,4,7.56-4,.12-.28-.35-.59-2.69-7.15,5.41-6.42Z" transform="translate(-0.32 -217.64)"/><polygon class="c" points="4697.08 49.7 4698.69 63.97 4692.44 53.03 4697.08 49.7"/><path class="b" d="M5784,298.47l-80.89-69.83s-43,40.06-74.68,69.83Z" transform="translate(-0.32 -217.64)"/><path class="c" d="M5692.32,298.47l-.24-14h-10.34L5692,264.19l-3.4,2.09s1.79-9.28,2.05-9.39,6.79-3.79,6.79-3.79l3.06-5.69.45-1.07-.35-.59-2.69-7.15,5.41-6.42-.36-3.4c-2.89,2.7-44,41-74.51,69.68Z" transform="translate(-0.32 -217.64)"/><path class="d" d="M5700.83,246.63l3.34,6.49,5.8-10.17,5,3.68,11.24,2h0l-23.13-20s-8.81,8.2-21.38,19.94c1.18,2.51,2.11,4.53,2.11,4.53l8.15-6.49,1.28,4Z" transform="translate(-0.32 -217.64)"/><path class="e" d="M5703,228.79l-.42.39-.32.3,0,0-.38.35-3.09,2.88-1.78,1.66-2.71,2.53-.22.21-1.61,1.5-.28.26-.61.57-.36.34-.5.46-.62.57-3.4,3.17-.53.49-.87.81-.09.09-.77.72-.52.49-2.12,2c1.18,2.51,2.11,4.53,2.11,4.53l8.15-6.49,1.28,4,7.56-4,.12-.28-.35-.59-2.69-7.15,5.41-6.42Z" transform="translate(-0.32 -217.64)"/><polygon class="c" points="5713.08 59.7 5714.69 73.97 5708.44 63.03 5713.08 59.7"/><path class="b" d="M5800.48,298.47s0-.15,0-.24c0-4.41,27.2-8.25,67.41-10.25l-68.74-59.34s-43,40.06-74.68,69.83Z" transform="translate(-0.32 -217.64)"/><path class="c" d="M5788.32,298.47l-.24-14h-10.35L5788,264.19l-3.4,2.09s1.79-9.28,2.05-9.39,6.79-3.79,6.79-3.79l3.06-5.69.45-1.07-.35-.59-2.69-7.15,5.41-6.42-.36-3.4c-2.89,2.7-44,41-74.52,69.68Z" transform="translate(-0.32 -217.64)"/><path class="d" d="M5796.83,246.63l3.34,6.49,5.8-10.17,5,3.68,11.24,2h0l-23.13-20s-8.81,8.2-21.38,19.94c1.18,2.51,2.11,4.53,2.11,4.53l8.15-6.49,1.28,4Z" transform="translate(-0.32 -217.64)"/><path class="e" d="M5799,228.79l-.42.39-.32.3,0,0-.38.35-3.09,2.88-1.78,1.66-2.71,2.53-.22.21-1.61,1.5-.28.26-.61.57-.36.34-.5.46-.62.57-3.4,3.17-.53.49-.87.81-.09.09-.77.72-.52.49-2.12,2c1.18,2.51,2.11,4.53,2.11,4.53l8.15-6.49,1.28,4,7.56-4,.12-.28-.35-.59-2.69-7.15,5.41-6.42Z" transform="translate(-0.32 -217.64)"/><polygon class="c" points="5809.08 59.7 5810.69 73.97 5804.44 63.03 5809.08 59.7"/><path class="b" d="M6872.25,311.23l7.55-.63-85.68-74s-47.85,44.57-79.77,74.62Z" transform="translate(-0.32 -217.64)"/><path class="c" d="M6783.4,311.15l-.32-18.68h-10.35L6783,272.19l-3.4,2.09s1.79-9.28,2.05-9.39,6.79-3.79,6.79-3.79l3.06-5.69.45-1.07-.35-.59-2.69-7.15,5.41-6.42-.36-3.4c-3.06,2.85-48.76,45.39-79.6,74.42Q6748.66,311.2,6783.4,311.15Z" transform="translate(-0.32 -217.64)"/><path class="d" d="M6791.83,254.63l3.34,6.49,5.8-10.17,5,3.68,11.24,2h0l-23.13-20s-8.81,8.2-21.38,19.94c1.18,2.51,2.11,4.53,2.11,4.53l8.15-6.49,1.28,4Z" transform="translate(-0.32 -217.64)"/><path class="e" d="M6794,236.79l-.42.39-.32.3,0,0-.38.35-3.09,2.88-1.78,1.66-2.71,2.53-.22.21-1.61,1.5-.28.26-.61.57-.36.34-.5.46-.62.57-3.4,3.17-.53.49-.87.81-.09.09-.77.72-.52.49-2.12,2c1.18,2.51,2.11,4.53,2.11,4.53l8.15-6.49,1.28,4,7.56-4,.12-.28-.35-.59-2.69-7.15,5.41-6.42Z" transform="translate(-0.32 -217.64)"/><polygon class="c" points="6804.08 67.7 6805.69 81.97 6799.44 71.03 6804.08 67.7"/><path class="b" d="M6897.32,298.47h92.78a1.06,1.06,0,0,1,.19-.16l-84.18-72.67s-46,42.84-77.87,72.83Z" transform="translate(-0.32 -217.64)"/><path class="c" d="M6906,225.79c-3.18,3-52.43,48.85-83.17,77.83l72.74,4-.44-26h-10.35L6895,261.29l-3.4,2s1.79-9.31,2.05-9.41,6.79-3.8,6.79-3.8l3.06-5.7.45-1.07-.35-.59-2.69-7.15,5.41-6.42Z" transform="translate(-0.32 -217.64)"/><path class="d" d="M6903.83,243.63l3.34,6.49,5.8-10.17,5,3.68,11.24,2h0l-23.13-20s-8.81,8.2-21.38,19.94c1.18,2.51,2.11,4.53,2.11,4.53l8.15-6.49,1.28,4Z" transform="translate(-0.32 -217.64)"/><path class="e" d="M6906,225.79l-.42.39-.32.3,0,0-.38.35-3.09,2.88-1.78,1.66-2.71,2.53-.22.21-1.61,1.5-.28.26-.61.57-.36.34-.5.46-.62.57-3.4,3.17-.53.49-.87.81-.09.09-.77.72-.52.49-2.12,2c1.18,2.51,2.11,4.53,2.11,4.53l8.15-6.49,1.28,4,7.56-4,.12-.28-.35-.59-2.69-7.15,5.41-6.42Z" transform="translate(-0.32 -217.64)"/><polygon class="c" points="6916.08 56.7 6917.69 70.97 6911.44 60.03 6916.08 56.7"/><path class="b" d="M6928.45,311.23l-77.33-66.83s-40.29,37.47-71.59,66.85Z" transform="translate(-0.32 -217.64)"/><path class="c" d="M6840.26,311.24l-.19-10.77h-10.35L6840,280.19l-3.4,2.09s1.79-9.28,2.05-9.39,6.79-3.79,6.79-3.79l3.06-5.69.45-1.07-.35-.59-2.69-7.15,5.41-6.42-.36-3.56c-2.8,2.61-41.27,38.34-71.42,66.62Z" transform="translate(-0.32 -217.64)"/><path class="d" d="M6848.83,262.63l3.34,6.49,5.8-10.17,5,3.68,11.24,2h0l-23.13-20s-8.81,8.2-21.38,19.94c1.18,2.51,2.11,4.53,2.11,4.53l8.15-6.49,1.28,4Z" transform="translate(-0.32 -217.64)"/><path class="e" d="M6851,244.79l-.42.39-.32.3,0,0-.38.35-3.09,2.88-1.78,1.66-2.71,2.53-.22.21-1.61,1.5-.28.26-.61.57-.36.34-.5.46-.62.57-3.4,3.17-.53.49-.87.81-.09.09-.77.72-.52.49-2.12,2c1.18,2.51,2.11,4.53,2.11,4.53l8.15-6.49,1.28,4,7.56-4,.12-.28-.35-.59-2.69-7.15,5.41-6.42Z" transform="translate(-0.32 -217.64)"/><polygon class="c" points="6861.08 75.7 6862.69 89.97 6856.44 79.03 6861.08 75.7"/><path class="b" d="M6537.84,295.33l-80.72-69.69s-39.73,37-70.93,66.31C6451.91,292.21,6507.66,293.43,6537.84,295.33Z" transform="translate(-0.32 -217.64)"/><path class="c" d="M6446.26,292.4l-.19-10.93h-10.35L6446,261.19l-3.4,2.09s1.79-9.28,2.05-9.39,6.79-3.79,6.79-3.79l3.06-5.69.45-1.07-.35-.59-2.69-7.15,5.41-6.42-.36-3.4c-2.78,2.59-40.72,37.89-70.77,66.11C6407.43,292,6427.63,292.12,6446.26,292.4Z" transform="translate(-0.32 -217.64)"/><path class="d" d="M6454.83,243.63l3.34,6.49,5.8-10.17,5,3.68,11.24,2h0l-23.13-20s-8.81,8.2-21.38,19.94c1.18,2.51,2.11,4.53,2.11,4.53l8.15-6.49,1.28,4Z" transform="translate(-0.32 -217.64)"/><path class="e" d="M6457,225.79l-.42.39-.32.3,0,0-.38.35-3.09,2.88-1.78,1.66-2.71,2.53-.22.21-1.61,1.5-.28.26-.61.57-.36.34-.5.46-.62.57-3.4,3.17-.53.49-.87.81-.09.09-.77.72-.52.49-2.12,2c1.18,2.51,2.11,4.53,2.11,4.53l8.15-6.49,1.28,4,7.56-4,.12-.28-.35-.59-2.69-7.15,5.41-6.42Z" transform="translate(-0.32 -217.64)"/><polygon class="c" points="6467.08 56.7 6468.69 70.97 6462.44 60.03 6467.08 56.7"/><path class="b" d="M6358.5,291.89c44.43,0,85.53.42,119,1.18l-65.37-56.44s-30.57,28.48-59.15,55.26Z" transform="translate(-0.32 -217.64)"/><path class="c" d="M6358.5,291.89c11.09,0,22,0,32.58.08l9.91-19.68-3.4,2s1.79-9.31,2.05-9.41,6.79-3.8,6.79-3.8l3.06-5.7.45-1.07-.35-.59-2.69-7.15,5.41-6.42-.36-3.4c-2.42,2.26-31.62,29.46-59,55.1Z" transform="translate(-0.32 -217.64)"/><path class="d" d="M6409.83,254.63l3.34,6.49,5.8-10.17,5,3.68,11.24,2h0l-23.13-20s-8.81,8.2-21.38,19.94c1.18,2.51,2.11,4.53,2.11,4.53l8.15-6.49,1.28,4Z" transform="translate(-0.32 -217.64)"/><path class="e" d="M6412,236.79l-.42.39-.32.3,0,0-.38.35-3.09,2.88-1.78,1.66-2.71,2.53-.22.21-1.61,1.5-.28.26-.61.57-.36.34-.5.46-.62.57-3.4,3.17-.53.49-.87.81-.09.09-.77.72-.52.49-2.12,2c1.18,2.51,2.11,4.53,2.11,4.53l8.15-6.49,1.28,4,7.56-4,.12-.28-.35-.59-2.69-7.15,5.41-6.42Z" transform="translate(-0.32 -217.64)"/><polygon class="c" points="6422.08 67.7 6423.69 81.97 6417.44 71.03 6422.08 67.7"/><path class="b" d="M6063,298.24c0,.09,0,.23,0,.23h92.16c1.36-1.48,14.55-2.77,36.23-3.8l-67.21-58s-33.8,31.48-63.53,59.36C6062.15,296.72,6063,297.47,6063,298.24Z" transform="translate(-0.32 -217.64)"/><path class="c" d="M6063,298.24c0,.09,0,.23,0,.23h50.24l-.1-6h-10.35L6113,272.19l-3.4,2.09s1.79-9.28,2.05-9.39,6.79-3.79,6.79-3.79l3.06-5.69.45-1.07-.35-.59-2.69-7.15,5.41-6.42-.36-3.4c-2.55,2.38-34.83,32.45-63.37,59.21C6062.15,296.72,6063,297.47,6063,298.24Z" transform="translate(-0.32 -217.64)"/><path class="d" d="M6121.83,254.63l3.34,6.49,5.8-10.17,5,3.68,11.24,2h0l-23.13-20s-8.81,8.2-21.38,19.94c1.18,2.51,2.11,4.53,2.11,4.53l8.15-6.49,1.28,4Z" transform="translate(-0.32 -217.64)"/><path class="e" d="M6124,236.79l-.42.39-.32.3,0,0-.38.35-3.09,2.88-1.78,1.66-2.71,2.53-.22.21-1.61,1.5-.28.26-.61.57-.36.34-.5.46-.62.57-3.4,3.17-.53.49-.87.81-.09.09-.77.72-.52.49-2.12,2c1.18,2.51,2.11,4.53,2.11,4.53l8.15-6.49,1.28,4,7.56-4,.12-.28-.35-.59-2.69-7.15,5.41-6.42Z" transform="translate(-0.32 -217.64)"/><polygon class="c" points="6134.08 67.7 6135.69 81.97 6129.44 71.03 6134.08 67.7"/><path class="b" d="M7396.89,298.47h93.32l-75.09-64.83s-34.78,32.4-64.82,60.58C7378.1,295.31,7395.33,296.76,7396.89,298.47Z" transform="translate(-0.32 -217.64)"/><path class="c" d="M7396.89,298.47h7.34l-.15-9h-10.35L7404,269.19l-3.4,2.09s1.79-9.28,2.05-9.39,6.79-3.79,6.79-3.79l3.06-5.69.45-1.07-.35-.59-2.69-7.15,5.41-6.42-.36-3.4c-2.59,2.41-35.81,33.37-64.66,60.42C7378.1,295.31,7395.33,296.76,7396.89,298.47Z" transform="translate(-0.32 -217.64)"/><path class="d" d="M7412.83,251.63l3.34,6.49,5.8-10.17,5,3.68,11.24,2h0l-23.13-20s-8.81,8.2-21.38,19.94c1.18,2.51,2.11,4.53,2.11,4.53l8.15-6.49,1.28,4Z" transform="translate(-0.32 -217.64)"/><path class="e" d="M7415,233.79l-.42.39-.32.3,0,0-.38.35-3.09,2.88-1.78,1.66-2.71,2.53-.22.21-1.61,1.5-.28.26-.61.57-.36.34-.5.46-.62.57-3.4,3.17-.53.49-.87.81-.09.09-.77.72-.52.49-2.12,2c1.18,2.51,2.11,4.53,2.11,4.53l8.15-6.49,1.28,4,7.56-4,.12-.28-.35-.59-2.69-7.15,5.41-6.42Z" transform="translate(-0.32 -217.64)"/><polygon class="c" points="7425.08 64.7 7426.69 78.97 7420.44 68.03 7425.08 64.7"/><path class="b" d="M7396.89,298.47h35.27l-82-70.83s-38.42,35.79-69.38,64.85C7347.52,293.47,7394.27,295.6,7396.89,298.47Z" transform="translate(-0.32 -217.64)"/><path class="c" d="M7339.25,293.72l-.17-10.25h-10.35L7339,263.19l-3.4,2.09s1.79-9.28,2.05-9.39,6.79-3.79,6.79-3.79l3.06-5.69.45-1.07-.35-.59-2.69-7.15,5.41-6.42-.36-3.4c-2.73,2.54-39.43,36.69-69.21,64.65C7302.7,292.76,7322.48,293.16,7339.25,293.72Z" transform="translate(-0.32 -217.64)"/><path class="d" d="M7347.83,245.63l3.34,6.49,5.8-10.17,5,3.68,11.24,2h0l-23.13-20s-8.81,8.2-21.38,19.94c1.18,2.51,2.11,4.53,2.11,4.53l8.15-6.49,1.28,4Z" transform="translate(-0.32 -217.64)"/><path class="e" d="M7350,227.79l-.42.39-.32.3,0,0-.38.35-3.09,2.88-1.78,1.66-2.71,2.53-.22.21-1.61,1.5-.28.26-.61.57-.36.34-.5.46-.62.57-3.4,3.17-.53.49-.87.81-.09.09-.77.72-.52.49-2.12,2c1.18,2.51,2.11,4.53,2.11,4.53l8.15-6.49,1.28,4,7.56-4,.12-.28-.35-.59-2.69-7.15,5.41-6.42Z" transform="translate(-0.32 -217.64)"/><polygon class="c" points="7360.08 58.7 7361.69 72.97 7355.44 62.03 7360.08 58.7"/><path class="b" d="M7359.86,294.63l-56.74-49s-24.3,22.64-49.82,46.52C7296.85,292.57,7334.17,293.42,7359.86,294.63Z" transform="translate(-0.32 -217.64)"/><path class="c" d="M7286.31,292.57l5.68-11.28-3.4,2s1.79-9.31,2.05-9.41,6.79-3.8,6.79-3.8l3.06-5.7.45-1.07-.35-.59-2.69-7.15,5.41-6.42-.36-3.4c-2.15,2-25.35,23.62-49.66,46.37C7264.77,292.27,7275.8,292.4,7286.31,292.57Z" transform="translate(-0.32 -217.64)"/><path class="d" d="M7300.83,263.63l3.34,6.49,5.8-10.17,5,3.68,11.24,2h0l-23.13-20s-8.81,8.2-21.38,19.94c1.18,2.51,2.11,4.53,2.11,4.53l8.15-6.49,1.28,4Z" transform="translate(-0.32 -217.64)"/><path class="e" d="M7303,245.79l-.42.39-.32.3,0,0-.38.35-3.09,2.88-1.78,1.66-2.71,2.53-.22.21-1.61,1.5-.28.26-.61.57-.36.34-.5.46-.62.57-3.4,3.17-.53.49-.87.81-.09.09-.77.72-.52.49-2.12,2c1.18,2.51,2.11,4.53,2.11,4.53l8.15-6.49,1.28,4,7.56-4,.12-.28-.35-.59-2.69-7.15,5.41-6.42Z" transform="translate(-0.32 -217.64)"/><path class="b" d="M7541.42,311.15l-64.3-55.51s-30.78,28.67-59.43,55.53Z" transform="translate(-0.32 -217.64)"/><path class="c" d="M7456,311.16l10-19.87-3.4,2s1.79-9.31,2.05-9.41,6.79-3.8,6.79-3.8l3.06-5.7.45-1.07-.35-.59-2.69-7.15,5.41-6.42-.36-3.4c-2.43,2.27-31.83,29.65-59.27,55.37Z" transform="translate(-0.32 -217.64)"/><path class="d" d="M7474.83,273.63l3.34,6.49,5.8-10.17,5,3.68,11.24,2h0l-23.13-20s-8.81,8.2-21.38,19.94c1.18,2.51,2.11,4.53,2.11,4.53l8.15-6.49,1.28,4Z" transform="translate(-0.32 -217.64)"/><path class="e" d="M7477,255.79l-.42.39-.32.3,0,0-.38.35-3.09,2.88-1.78,1.66-2.71,2.53-.22.21-1.61,1.5-.28.26-.61.57-.36.34-.5.46-.62.57-3.4,3.17-.53.49-.87.81-.09.09-.77.72-.52.49-2.12,2c1.18,2.51,2.11,4.53,2.11,4.53l8.15-6.49,1.28,4,7.56-4,.12-.28-.35-.59-2.69-7.15,5.41-6.42Z" transform="translate(-0.32 -217.64)"/><path class="b" d="M7881.74,311.1l-81.62-70.46s-43.64,40.65-75.37,70.49Z" transform="translate(-0.32 -217.64)"/><path class="c" d="M7789.33,311l-.25-14.55h-10.35L7789,276.19l-3.4,2.09s1.79-9.28,2.05-9.39,6.79-3.79,6.79-3.79l3.06-5.69.45-1.07-.35-.59-2.69-7.15,5.41-6.42-.36-3.4c-2.92,2.72-44.61,41.51-75.21,70.29Q7756.92,311.07,7789.33,311Z" transform="translate(-0.32 -217.64)"/><path class="d" d="M7797.83,258.63l3.34,6.49,5.8-10.17,5,3.68,11.24,2h0l-23.13-20s-8.81,8.2-21.38,19.94c1.18,2.51,2.11,4.53,2.11,4.53l8.15-6.49,1.28,4Z" transform="translate(-0.32 -217.64)"/><path class="e" d="M7800,240.79l-.42.39-.32.3,0,0-.38.35-3.09,2.88-1.78,1.66-2.71,2.53-.22.21-1.61,1.5-.28.26-.61.57-.36.34-.5.46-.62.57-3.4,3.17-.53.49-.87.81-.09.09-.77.72-.52.49-2.12,2c1.18,2.51,2.11,4.53,2.11,4.53l8.15-6.49,1.28,4,7.56-4,.12-.28-.35-.59-2.69-7.15,5.41-6.42Z" transform="translate(-0.32 -217.64)"/><polygon class="c" points="7810.08 71.7 7811.69 85.97 7805.44 75.03 7810.08 71.7"/><path class="b" d="M8157.27,311.07l5.53-.46-85.68-74s-47.67,44.4-79.59,74.45Z" transform="translate(-0.32 -217.64)"/><path class="c" d="M8066.39,311l-.32-18.51h-10.35L8066,272.19l-3.4,2.09s1.79-9.28,2.05-9.39,6.79-3.79,6.79-3.79l3.06-5.69.45-1.07-.35-.59-2.69-7.15,5.41-6.42-.36-3.4c-3.05,2.84-48.59,45.22-79.42,74.25Q8031.84,311,8066.39,311Z" transform="translate(-0.32 -217.64)"/><path class="d" d="M8074.83,254.63l3.34,6.49,5.8-10.17,5,3.68,11.24,2h0l-23.13-20s-8.81,8.2-21.38,19.94c1.18,2.51,2.11,4.53,2.11,4.53l8.15-6.49,1.28,4Z" transform="translate(-0.32 -217.64)"/><path class="e" d="M8077,236.79l-.42.39-.32.3,0,0-.38.35-3.09,2.88-1.78,1.66-2.71,2.53-.22.21-1.61,1.5-.28.26-.61.57-.36.34-.5.46-.62.57-3.4,3.17-.53.49-.87.81-.09.09-.77.72-.52.49-2.12,2c1.18,2.51,2.11,4.53,2.11,4.53l8.15-6.49,1.28,4,7.56-4,.12-.28-.35-.59-2.69-7.15,5.41-6.42Z" transform="translate(-0.32 -217.64)"/><polygon class="c" points="8087.08 67.7 8088.69 81.97 8082.44 71.03 8087.08 67.7"/><path class="b" d="M8301.5,291.89c33.45,0,65,.24,92.84.68l-75.22-64.93s-38.07,35.46-68.95,64.45C8266.57,292,8283.76,291.89,8301.5,291.89Z" transform="translate(-0.32 -217.64)"/><path class="c" d="M8301.5,291.89c2.25,0,4.49-.09,6.72-.09l-.14-8.33h-10.35L8308,263.19l-3.4,2.09s1.79-9.28,2.05-9.39,6.79-3.79,6.79-3.79l3.06-5.69.45-1.07-.35-.59-2.69-7.15,5.41-6.42-.36-3.4c-2.72,2.53-39.08,36.41-68.79,64.3C8266.57,292,8283.76,291.89,8301.5,291.89Z" transform="translate(-0.32 -217.64)"/><path class="d" d="M8316.83,245.63l3.34,6.49,5.8-10.17,5,3.68,11.24,2h0l-23.13-20s-8.81,8.2-21.38,19.94c1.18,2.51,2.11,4.53,2.11,4.53l8.15-6.49,1.28,4Z" transform="translate(-0.32 -217.64)"/><path class="e" d="M8319,227.79l-.42.39-.32.3,0,0-.38.35-3.09,2.88-1.78,1.66-2.71,2.53-.22.21-1.61,1.5-.28.26-.61.57-.36.34-.5.46-.62.57-3.4,3.17-.53.49-.87.81-.09.09-.77.72-.52.49-2.12,2c1.18,2.51,2.11,4.53,2.11,4.53l8.15-6.49,1.28,4,7.56-4,.12-.28-.35-.59-2.69-7.15,5.41-6.42Z" transform="translate(-0.32 -217.64)"/><polygon class="c" points="8329.08 58.7 8330.69 72.97 8324.44 62.03 8329.08 58.7"/><path class="b" d="M8504.89,298.47h96.53l-69.3-59.83s-31.29,29.15-60.14,56.19C8491.68,295.83,8503.61,297.06,8504.89,298.47Z" transform="translate(-0.32 -217.64)"/><path class="c" d="M8504.89,298.47h16.25l-.07-4h-10.35L8521,274.19l-3.4,2.09s1.79-9.28,2.05-9.39,6.79-3.79,6.79-3.79l3.06-5.69.45-1.07-.35-.59-2.69-7.15,5.41-6.42-.36-3.4c-2.45,2.29-32.33,30.13-60,56C8491.68,295.83,8503.61,297.06,8504.89,298.47Z" transform="translate(-0.32 -217.64)"/><path class="d" d="M8529.83,256.63l3.34,6.49,5.8-10.17,5,3.68,11.24,2h0l-23.13-20s-8.81,8.2-21.38,19.94c1.18,2.51,2.11,4.53,2.11,4.53l8.15-6.49,1.28,4Z" transform="translate(-0.32 -217.64)"/><path class="e" d="M8532,238.79l-.42.39-.32.3,0,0-.38.35-3.09,2.88-1.78,1.66-2.71,2.53-.22.21-1.61,1.5-.28.26-.61.57-.36.34-.5.46-.62.57-3.4,3.17-.53.49-.87.81-.09.09-.77.72-.52.49-2.12,2c1.18,2.51,2.11,4.53,2.11,4.53l8.15-6.49,1.28,4,7.56-4,.12-.28-.35-.59-2.69-7.15,5.41-6.42Z" transform="translate(-0.32 -217.64)"/><polygon class="c" points="8542.08 59.7 8543.69 73.97 8537.44 63.03 8542.08 59.7"/><path class="b" d="M8493.68,296.33l-79.56-68.69s-38,35.42-68.89,64.39C8414.55,292.49,8470.64,294,8493.68,296.33Z" transform="translate(-0.32 -217.64)"/><path class="c" d="M8403.23,292.63l-.16-9.16h-10.35L8403,263.19l-3.4,2.09s1.79-9.28,2.05-9.39,6.79-3.79,6.79-3.79l3.06-5.69.45-1.07-.35-.59-2.69-7.15,5.41-6.42-.36-3.4c-2.71,2.53-39,36.32-68.73,64.2C8365.92,292.12,8385.43,292.31,8403.23,292.63Z" transform="translate(-0.32 -217.64)"/><path class="d" d="M8411.83,245.63l3.34,6.49,5.8-10.17,5,3.68,11.24,2h0l-23.13-20s-8.81,8.2-21.38,19.94c1.18,2.51,2.11,4.53,2.11,4.53l8.15-6.49,1.28,4Z" transform="translate(-0.32 -217.64)"/><path class="e" d="M8414,227.79l-.42.39-.32.3,0,0-.38.35-3.09,2.88-1.78,1.66-2.71,2.53-.22.21-1.61,1.5-.28.26-.61.57-.36.34-.5.46-.62.57-3.4,3.17-.53.49-.87.81-.09.09-.77.72-.52.49-2.12,2c1.18,2.51,2.11,4.53,2.11,4.53l8.15-6.49,1.28,4,7.56-4,.12-.28-.35-.59-2.69-7.15,5.41-6.42Z" transform="translate(-0.32 -217.64)"/><polygon class="c" points="8424.08 58.7 8425.69 72.97 8419.44 62.03 8424.08 58.7"/><path class="b" d="M8933.47,298.47l-62.35-53.83s-29.5,27.48-57.63,53.83Z" transform="translate(-0.32 -217.64)"/><path class="c" d="M8850.84,298.47l9.16-18.18-3.4,2s1.79-9.31,2.05-9.41,6.79-3.8,6.79-3.8l3.06-5.7.45-1.07-.35-.59-2.69-7.15,5.41-6.42-.36-3.4c-2.38,2.22-30.55,28.46-57.46,53.68Z" transform="translate(-0.32 -217.64)"/><path class="d" d="M8868.83,262.63l3.34,6.49,5.8-10.17,5,3.68,11.24,2h0l-23.13-20s-8.81,8.2-21.38,19.94c1.18,2.51,2.11,4.53,2.11,4.53l8.15-6.49,1.28,4Z" transform="translate(-0.32 -217.64)"/><path class="e" d="M8871,244.79l-.42.39-.32.3,0,0-.38.35-3.09,2.88-1.78,1.66-2.71,2.53-.22.21-1.61,1.5-.28.26-.61.57-.36.34-.5.46-.62.57-3.4,3.17-.53.49-.87.81-.09.09-.77.72-.52.49-2.12,2c1.18,2.51,2.11,4.53,2.11,4.53l8.15-6.49,1.28,4,7.56-4,.12-.28-.35-.59-2.69-7.15,5.41-6.42Z" transform="translate(-0.32 -217.64)"/><polygon class="c" points="8881.08 75.7 8882.69 89.97 8876.44 79.03 8881.08 75.7"/><path class="b" d="M8943.48,298.47s0-.15,0-.24c0-5.25,38.44-9.68,91.5-11.18l-68.82-59.41s-44,41-75.74,70.83Z" transform="translate(-0.32 -217.64)"/><path class="c" d="M8943.48,298.47s0-.15,0-.24c0-1.74,4.23-3.48,11.8-5l-.17-9.8h-10.35L8955,263.19l-3.4,2.09s1.79-9.28,2.05-9.39,6.79-3.79,6.79-3.79l3.06-5.69.45-1.07-.35-.59-2.69-7.15,5.41-6.42-.36-3.4c-2.93,2.73-44.94,41.87-75.58,70.68Z" transform="translate(-0.32 -217.64)"/><path class="d" d="M8963.83,245.63l3.34,6.49,5.8-10.17,5,3.68,11.24,2h0l-23.13-20s-8.81,8.2-21.38,19.94c1.18,2.51,2.11,4.53,2.11,4.53l8.15-6.49,1.28,4Z" transform="translate(-0.32 -217.64)"/><path class="e" d="M8966,227.79l-.42.39-.32.3,0,0-.38.35-3.09,2.88-1.78,1.66-2.71,2.53-.22.21-1.61,1.5-.28.26-.61.57-.36.34-.5.46-.62.57-3.4,3.17-.53.49-.87.81-.09.09-.77.72-.52.49-2.12,2c1.18,2.51,2.11,4.53,2.11,4.53l8.15-6.49,1.28,4,7.56-4,.12-.28-.35-.59-2.69-7.15,5.41-6.42Z" transform="translate(-0.32 -217.64)"/><polygon class="c" points="8976.08 58.7 8977.69 72.97 8971.44 62.03 8976.08 58.7"/><path class="b" d="M9507.5,291.89c41.93,0,80.89.37,113.27,1.06l-75.65-65.31s-38,35.36-68.82,64.32C9486.47,291.91,9496.89,291.89,9507.5,291.89Z" transform="translate(-0.32 -217.64)"/><path class="c" d="M9507.5,291.89c9.06,0,18-.08,26.72,0l-.14-8.38h-10.35L9534,263.19l-3.4,2.09s1.79-9.28,2.05-9.39,6.79-3.79,6.79-3.79l3.06-5.69.45-1.07-.35-.59-2.69-7.15,5.41-6.42-.36-3.4c-2.71,2.53-39,36.31-68.65,64.17C9486.47,291.91,9496.89,291.89,9507.5,291.89Z" transform="translate(-0.32 -217.64)"/><path class="d" d="M9542.83,245.63l3.34,6.49,5.8-10.17,5,3.68,11.24,2h0l-23.13-20s-8.81,8.2-21.38,19.94c1.18,2.51,2.11,4.53,2.11,4.53l8.15-6.49,1.28,4Z" transform="translate(-0.32 -217.64)"/><path class="e" d="M9545,227.79l-.42.39-.32.3,0,0-.38.35-3.09,2.88-1.78,1.66-2.71,2.53-.22.21-1.61,1.5-.28.26-.61.57-.36.34-.5.46-.62.57-3.4,3.17-.53.49-.87.81-.09.09-.77.72-.52.49-2.12,2c1.18,2.51,2.11,4.53,2.11,4.53l8.15-6.49,1.28,4,7.56-4,.12-.28-.35-.59-2.69-7.15,5.41-6.42Z" transform="translate(-0.32 -217.64)"/><polygon class="c" points="9555.08 58.7 9556.69 72.97 9550.44 62.03 9555.08 58.7"/><path class="b" d="M9710.89,298.47h.26l-60-51.83s-23.92,22.28-49.22,46C9664.84,293.62,9708.37,295.71,9710.89,298.47Z" transform="translate(-0.32 -217.64)"/><path class="c" d="M9634.46,293.27l5.53-11-3.4,2s1.79-9.31,2.05-9.41,6.79-3.8,6.79-3.8l3.06-5.7.45-1.07-.35-.59-2.69-7.15,5.41-6.42-.36-3.4c-2.13,2-25,23.27-49.06,45.81C9613.45,292.79,9624.35,293,9634.46,293.27Z" transform="translate(-0.32 -217.64)"/><path class="d" d="M9648.83,264.63l3.34,6.49,5.8-10.17,5,3.68,11.24,2h0l-23.13-20s-8.81,8.2-21.38,19.94c1.18,2.51,2.11,4.53,2.11,4.53l8.15-6.49,1.28,4Z" transform="translate(-0.32 -217.64)"/><path class="e" d="M9651,246.79l-.42.39-.32.3,0,0-.38.35-3.09,2.88-1.78,1.66-2.71,2.53-.22.21-1.61,1.5-.28.26-.61.57-.36.34-.5.46-.62.57-3.4,3.17-.53.49-.87.81-.09.09-.77.72-.52.49-2.12,2c1.18,2.51,2.11,4.53,2.11,4.53l8.15-6.49,1.28,4,7.56-4,.12-.28-.35-.59-2.69-7.15,5.41-6.42Z" transform="translate(-0.32 -217.64)"/><polygon class="c" points="9661.08 77.7 9662.69 91.97 9656.44 81.03 9661.08 77.7"/><path class="b" d="M10149.48,298.47s0-.15,0-.24c0-1.39,2.69-2.71,7.61-3.95l-67.93-58.65s-36.67,34.16-67.22,62.83Z" transform="translate(-0.32 -217.64)"/><path class="c" d="M10078.2,298.47l-.12-7h-10.35l10.26-20.27-3.4,2.09s1.79-9.28,2.05-9.39,6.79-3.79,6.79-3.79l3.06-5.69.45-1.07-.35-.59-2.69-7.15,5.41-6.42-.36-3.4c-2.66,2.48-37.69,35.12-67.06,62.68Z" transform="translate(-0.32 -217.64)"/><path class="d" d="M10086.83,253.63l3.34,6.49,5.8-10.17,5,3.68,11.24,2h0l-23.13-20s-8.81,8.2-21.38,19.94c1.18,2.51,2.11,4.53,2.11,4.53l8.15-6.49,1.28,4Z" transform="translate(-0.32 -217.64)"/><path class="e" d="M10089,235.79l-.42.39-.32.3,0,0-.38.35-3.09,2.88-1.78,1.66-2.71,2.53-.22.21-1.61,1.5-.28.26-.61.57-.36.34-.5.46-.62.57-3.4,3.17-.53.49-.87.81-.09.09-.77.72-.52.49-2.12,2c1.18,2.51,2.11,4.53,2.11,4.53l8.15-6.49,1.28,4,7.56-4,.12-.28-.35-.59-2.69-7.15,5.41-6.42Z" transform="translate(-0.32 -217.64)"/><polygon class="c" points="10099.08 66.7 10100.69 80.97 10094.44 70.03 10099.08 66.7"/><path class="b" d="M10280.71,286.5l8,0-78.64-67.89s-51.56,48-83.34,78l22.72,1.26C10151.59,291.55,10209.53,286.5,10280.71,286.5Z" transform="translate(-0.32 -217.64)"/><path class="c" d="M10199.32,288.93l-.25-14.46h-10.35l10.26-20.27-3.4,2.09s1.79-9.28,2.05-9.39,6.79-3.79,6.79-3.79l3.06-5.69.45-1.07-.35-.59-2.69-7.15,5.41-6.42-.36-3.4c-3.18,3-52.43,48.85-83.17,77.83l22.72,1.21C10150.69,294.24,10169.9,291,10199.32,288.93Z" transform="translate(-0.32 -217.64)"/><path class="d" d="M10207.83,236.63l3.34,6.49,5.8-10.17,5,3.68,11.24,2h0l-23.13-20s-8.81,8.2-21.38,19.94c1.18,2.51,2.11,4.53,2.11,4.53l8.15-6.49,1.28,4Z" transform="translate(-0.32 -217.64)"/><path class="e" d="M10210,218.79l-.42.39-.32.3,0,0-.38.35-3.09,2.88-1.78,1.66-2.71,2.53-.22.21-1.61,1.5-.28.26-.61.57-.36.34-.5.46-.62.57-3.4,3.17-.53.49-.87.81-.09.09-.77.72-.52.49-2.12,2c1.18,2.51,2.11,4.53,2.11,4.53l8.15-6.49,1.28,4,7.56-4,.12-.28-.35-.59-2.69-7.15,5.41-6.42Z" transform="translate(-0.32 -217.64)"/><polygon class="c" points="10220.08 49.7 10221.69 63.97 10215.44 53.03 10220.08 49.7"/><path class="b" d="M10280.71,286.5c44.07,0,83.07,1.94,106.88,4.92l-85.46-73.78s-43,40.1-74.72,69.87C10243.69,286.86,10261.72,286.5,10280.71,286.5Z" transform="translate(-0.32 -217.64)"/><path class="c" d="M10280.71,286.5c3.57,0,7.1-.08,10.59-.06l-.22-13h-10.35l10.26-20.27-3.4,2.09s1.79-9.28,2.05-9.39,6.79-3.79,6.79-3.79l3.06-5.69.45-1.07-.35-.59-2.69-7.15,5.41-6.42-.36-3.4c-2.9,2.7-44,41-74.56,69.72C10243.69,286.86,10261.72,286.5,10280.71,286.5Z" transform="translate(-0.32 -217.64)"/><path class="d" d="M10299.83,235.63l3.34,6.49,5.8-10.17,5,3.68,11.24,2h0l-23.13-20s-8.81,8.2-21.38,19.94c1.18,2.51,2.11,4.53,2.11,4.53l8.15-6.49,1.28,4Z" transform="translate(-0.32 -217.64)"/><path class="e" d="M10302,217.79l-.42.39-.32.3,0,0-.38.35-3.09,2.88-1.78,1.66-2.71,2.53-.22.21-1.61,1.5-.28.26-.61.57-.36.34-.5.46-.62.57-3.4,3.17-.53.49-.87.81-.09.09-.77.72-.52.49-2.12,2c1.18,2.51,2.11,4.53,2.11,4.53l8.15-6.49,1.28,4,7.56-4,.12-.28-.35-.59-2.69-7.15,5.41-6.42Z" transform="translate(-0.32 -217.64)"/><polygon class="c" points="10312.08 48.7 10313.69 62.97 10307.44 52.03 10312.08 48.7"/><path class="b" d="M11020.78,310.68l-77.66-67s-40.42,37.65-71.74,67.07Z" transform="translate(-0.32 -217.64)"/><path class="c" d="M10932.27,310.6l-.19-11.13h-10.35l10.26-20.27-3.4,2.09s1.79-9.28,2.05-9.39,6.79-3.79,6.79-3.79l3.06-5.69.45-1.07-.35-.59-2.69-7.15,5.41-6.42-.36-3.4c-2.8,2.61-41.4,38.53-71.57,66.87Q10901.79,310.65,10932.27,310.6Z" transform="translate(-0.32 -217.64)"/><path class="d" d="M10940.83,261.63l3.34,6.49,5.8-10.17,5,3.68,11.24,2h0l-23.13-20s-8.81,8.2-21.38,19.94c1.18,2.51,2.11,4.53,2.11,4.53l8.15-6.49,1.28,4Z" transform="translate(-0.32 -217.64)"/><path class="e" d="M10943,243.79l-.42.39-.32.3,0,0-.38.35-3.09,2.88-1.78,1.66-2.71,2.53-.22.21-1.61,1.5-.28.26-.61.57-.36.34-.5.46-.62.57-3.4,3.17-.53.49-.87.81-.09.09-.77.72-.52.49-2.12,2c1.18,2.51,2.11,4.53,2.11,4.53l8.15-6.49,1.28,4,7.56-4,.12-.28-.35-.59-2.69-7.15,5.41-6.42Z" transform="translate(-0.32 -217.64)"/><polygon class="c" points="10953.08 74.7 10954.69 88.97 10948.44 78.03 10953.08 74.7"/><path class="b" d="M11141.76,310.67l-77.64-67s-40.4,37.63-71.72,67.05Z" transform="translate(-0.32 -217.64)"/><path class="c" d="M11053.27,310.59l-.19-11.12h-10.35l10.26-20.27-3.4,2.09s1.79-9.28,2.05-9.39,6.79-3.79,6.79-3.79l3.06-5.69.45-1.07-.35-.59-2.69-7.15,5.41-6.42-.36-3.4c-2.8,2.61-41.39,38.52-71.56,66.85Q11022.8,310.64,11053.27,310.59Z" transform="translate(-0.32 -217.64)"/><path class="d" d="M11061.83,261.63l3.34,6.49,5.8-10.17,5,3.68,11.24,2h0l-23.13-20s-8.81,8.2-21.38,19.94c1.18,2.51,2.11,4.53,2.11,4.53l8.15-6.49,1.28,4Z" transform="translate(-0.32 -217.64)"/><path class="e" d="M11064,243.79l-.42.39-.32.3,0,0-.38.35-3.09,2.88-1.78,1.66-2.71,2.53-.22.21-1.61,1.5-.28.26-.61.57-.36.34-.5.46-.62.57-3.4,3.17-.53.49-.87.81-.09.09-.77.72-.52.49-2.12,2c1.18,2.51,2.11,4.53,2.11,4.53l8.15-6.49,1.28,4,7.56-4,.12-.28-.35-.59-2.69-7.15,5.41-6.42Z" transform="translate(-0.32 -217.64)"/><polygon class="c" points="11074.08 74.7 11075.69 88.97 11069.44 78.03 11074.08 74.7"/><path class="b" d="M10873.46,295.5l-69.34-59.86s-31.5,29.34-60.43,56.46C10800.52,292.55,10847.59,293.75,10873.46,295.5Z" transform="translate(-0.32 -217.64)"/><path class="c" d="M10793.1,292.63l0-1.16h-10.35l10.26-20.27-3.4,2.09s1.79-9.28,2.05-9.39,6.79-3.79,6.79-3.79l3.06-5.69.45-1.07-.35-.59-2.69-7.15,5.41-6.42-.36-3.4c-2.46,2.29-32.54,30.27-60.26,56.26C10761.2,292.19,10777.78,292.35,10793.1,292.63Z" transform="translate(-0.32 -217.64)"/><path class="d" d="M10801.83,253.63l3.34,6.49,5.8-10.17,5,3.68,11.24,2h0l-23.13-20s-8.81,8.2-21.38,19.94c1.18,2.51,2.11,4.53,2.11,4.53l8.15-6.49,1.28,4Z" transform="translate(-0.32 -217.64)"/><path class="e" d="M10804,235.79l-.42.39-.32.3,0,0-.38.35-3.09,2.88-1.78,1.66-2.71,2.53-.22.21-1.61,1.5-.28.26-.61.57-.36.34-.5.46-.62.57-3.4,3.17-.53.49-.87.81-.09.09-.77.72-.52.49-2.12,2c1.18,2.51,2.11,4.53,2.11,4.53l8.15-6.49,1.28,4,7.56-4,.12-.28-.35-.59-2.69-7.15,5.41-6.42Z" transform="translate(-0.32 -217.64)"/><path class="b" d="M11333.48,298.47s0-.15,0-.24c0-6.49,58.77-11.73,131.26-11.73h1.76l-69.35-59.87s-45,41.89-76.81,71.83Z" transform="translate(-0.32 -217.64)"/><path class="c" d="M11333.48,298.47s0-.15,0-.24c0-3.85,20.73-7.36,52.74-9.5l-.11-6.27h-10.35l10.26-20.27-3.4,2.09s1.79-9.28,2.05-9.39,6.79-3.79,6.79-3.79l3.06-5.69.45-1.07-.35-.59-2.69-7.15,5.41-6.42-.36-3.4c-3,2.76-45.92,42.79-76.64,71.68Z" transform="translate(-0.32 -217.64)"/><path class="d" d="M11394.83,244.63l3.34,6.49,5.8-10.17,5,3.68,11.24,2h0l-23.13-20s-8.81,8.2-21.38,19.94c1.18,2.51,2.11,4.53,2.11,4.53l8.15-6.49,1.28,4Z" transform="translate(-0.32 -217.64)"/><path class="e" d="M11397,226.79l-.42.39-.32.3,0,0-.38.35-3.09,2.88-1.78,1.66-2.71,2.53-.22.21-1.61,1.5-.28.26-.61.57-.36.34-.5.46-.62.57-3.4,3.17-.53.49-.87.81-.09.09-.77.72-.52.49-2.12,2c1.18,2.51,2.11,4.53,2.11,4.53l8.15-6.49,1.28,4,7.56-4,.12-.28-.35-.59-2.69-7.15,5.41-6.42Z" transform="translate(-0.32 -217.64)"/><polygon class="c" points="11407.08 37.7 11408.69 51.97 11402.44 41.03 11407.08 37.7"/><path class="b" d="M12012.73,296.23l-80.61-69.59s-38.89,36.22-69.94,65.37C11932,292.44,11988.77,294,12012.73,296.23Z" transform="translate(-0.32 -217.64)"/><path class="c" d="M11921.25,292.59l-.17-10.12h-10.35l10.26-20.27-3.4,2.09s1.79-9.28,2.05-9.39,6.79-3.79,6.79-3.79l3.06-5.69.45-1.07-.35-.59-2.69-7.15,5.41-6.42-.36-3.4c-2.75,2.56-39.89,37.12-69.77,65.18C11883.23,292.09,11903.11,292.27,11921.25,292.59Z" transform="translate(-0.32 -217.64)"/><path class="d" d="M11929.83,244.63l3.34,6.49,5.8-10.17,5,3.68,11.24,2h0l-23.13-20s-8.81,8.2-21.38,19.94c1.18,2.51,2.11,4.53,2.11,4.53l8.15-6.49,1.28,4Z" transform="translate(-0.32 -217.64)"/><path class="e" d="M11932,226.79l-.42.39-.32.3,0,0-.38.35-3.09,2.88-1.78,1.66-2.71,2.53-.22.21-1.61,1.5-.28.26-.61.57-.36.34-.5.46-.62.57-3.4,3.17-.53.49-.87.81-.09.09-.77.72-.52.49-2.12,2c1.18,2.51,2.11,4.53,2.11,4.53l8.15-6.49,1.28,4,7.56-4,.12-.28-.35-.59-2.69-7.15,5.41-6.42Z" transform="translate(-0.32 -217.64)"/><polygon class="c" points="11942.08 57.7 11943.69 71.97 11937.44 61.03 11942.08 57.7"/><path class="b" d="M12024.89,298.47h19.66l46.25-3.86-85.68-74s-45.32,42.22-77.17,72.17C11984.33,293.9,12022.53,295.89,12024.89,298.47Z" transform="translate(-0.32 -217.64)"/><path class="c" d="M11994.39,294.86l-.31-18.39h-10.35l10.26-20.27-3.4,2.09s1.79-9.28,2.05-9.39,6.79-3.79,6.79-3.79l3.06-5.69.45-1.07-.35-.59-2.69-7.15,5.41-6.42-.36-3.4c-3,2.77-46.26,43.06-77,72C11954.89,293.28,11977.68,294,11994.39,294.86Z" transform="translate(-0.32 -217.64)"/><path class="d" d="M12002.83,238.63l3.34,6.49,5.8-10.17,5,3.68,11.24,2h0l-23.13-20s-8.81,8.2-21.38,19.94c1.18,2.51,2.11,4.53,2.11,4.53l8.15-6.49,1.28,4Z" transform="translate(-0.32 -217.64)"/><path class="e" d="M12005,220.79l-.42.39-.32.3,0,0-.38.35-3.09,2.88-1.78,1.66-2.71,2.53-.22.21-1.61,1.5-.28.26-.61.57-.36.34-.5.46-.62.57-3.4,3.17-.53.49-.87.81-.09.09-.77.72-.52.49-2.12,2c1.18,2.51,2.11,4.53,2.11,4.53l8.15-6.49,1.28,4,7.56-4,.12-.28-.35-.59-2.69-7.15,5.41-6.42Z" transform="translate(-0.32 -217.64)"/><polygon class="c" points="12015.08 51.7 12016.69 65.97 12010.44 55.03 12015.08 51.7"/><path class="b" d="M11821.5,291.89c11.58,0,22.93,0,34,.08l-73.37-63.34s-37.86,35.26-68.69,64.21C11744.74,292.23,11781.79,291.89,11821.5,291.89Z" transform="translate(-0.32 -217.64)"/><path class="c" d="M11771.21,292l-.13-7.52h-10.35l10.26-20.27-3.4,2.09s1.79-9.28,2.05-9.39,6.79-3.79,6.79-3.79l3.06-5.69.45-1.07-.35-.59-2.69-7.15,5.41-6.42-.36-3.4c-2.71,2.52-38.87,36.17-68.53,64C11731.05,292.45,11750.5,292.14,11771.21,292Z" transform="translate(-0.32 -217.64)"/><path class="d" d="M11779.83,246.63l3.34,6.49,5.8-10.17,5,3.68,11.24,2h0l-23.13-20s-8.81,8.2-21.38,19.94c1.18,2.51,2.11,4.53,2.11,4.53l8.15-6.49,1.28,4Z" transform="translate(-0.32 -217.64)"/><path class="e" d="M11782,228.79l-.42.39-.32.3,0,0-.38.35-3.09,2.88-1.78,1.66-2.71,2.53-.22.21-1.61,1.5-.28.26-.61.57-.36.34-.5.46-.62.57-3.4,3.17-.53.49-.87.81-.09.09-.77.72-.52.49-2.12,2c1.18,2.51,2.11,4.53,2.11,4.53l8.15-6.49,1.28,4,7.56-4,.12-.28-.35-.59-2.69-7.15,5.41-6.42Z" transform="translate(-0.32 -217.64)"/><polygon class="c" points="11792.08 59.7 11793.69 73.97 11787.44 63.03 11792.08 59.7"/><path class="b" d="M12261.06,298.47l-73.94-63.83s-37.53,35-68.29,63.83Z" transform="translate(-0.32 -217.64)"/><path class="c" d="M12176.21,298.47l-.13-8h-10.35l10.26-20.27-3.4,2.09s1.79-9.28,2.05-9.39,6.79-3.79,6.79-3.79l3.06-5.69.45-1.07-.35-.59-2.69-7.15,5.41-6.42-.36-3.4c-2.7,2.51-38.54,35.91-68.13,63.68Z" transform="translate(-0.32 -217.64)"/><path class="d" d="M12184.83,252.63l3.34,6.49,5.8-10.17,5,3.68,11.24,2h0l-23.13-20s-8.81,8.2-21.38,19.94c1.18,2.51,2.11,4.53,2.11,4.53l8.15-6.49,1.28,4Z" transform="translate(-0.32 -217.64)"/><path class="e" d="M12187,234.79l-.42.39-.32.3,0,0-.38.35-3.09,2.88-1.78,1.66-2.71,2.53-.22.21-1.61,1.5-.28.26-.61.57-.36.34-.5.46-.62.57-3.4,3.17-.53.49-.87.81-.09.09-.77.72-.52.49-2.12,2c1.18,2.51,2.11,4.53,2.11,4.53l8.15-6.49,1.28,4,7.56-4,.12-.28-.35-.59-2.69-7.15,5.41-6.42Z" transform="translate(-0.32 -217.64)"/><polygon class="c" points="12197.08 65.7 12198.69 79.97 12192.44 69.03 12197.08 65.7"/><path class="b" d="M12024.89,298.47h125.05l-65.83-56.83s-31.37,29.22-60.26,56.29A2.63,2.63,0,0,1,12024.89,298.47Z" transform="translate(-0.32 -217.64)"/><path class="c" d="M12078.9,251.61l5.41-6.42-.36-3.4c-2.46,2.29-32.42,30.2-60.09,56.14a2.63,2.63,0,0,1,1,.54h48.2v-1h-10.35l10.26-20.27-3.4,2.09s1.79-9.28,2.05-9.39,6.79-3.79,6.79-3.79l3.06-5.69.45-1.07-.35-.59Z" transform="translate(-0.32 -217.64)"/><path class="d" d="M12081.83,259.63l3.34,6.49,5.8-10.17,5,3.68,11.24,2h0l-23.13-20s-8.81,8.2-21.38,19.94c1.18,2.51,2.11,4.53,2.11,4.53l8.15-6.49,1.28,4Z" transform="translate(-0.32 -217.64)"/><path class="e" d="M12084,241.79l-.42.39-.32.3,0,0-.38.35-3.09,2.88-1.78,1.66-2.71,2.53-.22.21-1.61,1.5-.28.26-.61.57-.36.34-.5.46-.62.57-3.4,3.17-.53.49-.87.81-.09.09-.77.72-.52.49-2.12,2c1.18,2.51,2.11,4.53,2.11,4.53l8.15-6.49,1.28,4,7.56-4,.12-.28-.35-.59-2.69-7.15,5.41-6.42Z" transform="translate(-0.32 -217.64)"/><polygon class="c" points="12094.08 72.7 12095.69 86.97 12089.44 76.03 12094.08 72.7"/><path class="b" d="M12416.06,298.47l-73.94-63.83s-37.53,35-68.29,63.83Z" transform="translate(-0.32 -217.64)"/><path class="c" d="M12331.21,298.47l-.13-8h-10.35l10.26-20.27-3.4,2.09s1.79-9.28,2.05-9.39,6.79-3.79,6.79-3.79l3.06-5.69.45-1.07-.35-.59-2.69-7.15,5.41-6.42-.36-3.4c-2.7,2.51-38.54,35.91-68.13,63.68Z" transform="translate(-0.32 -217.64)"/><path class="d" d="M12339.83,252.63l3.34,6.49,5.8-10.17,5,3.68,11.24,2h0l-23.13-20s-8.81,8.2-21.38,19.94c1.18,2.51,2.11,4.53,2.11,4.53l8.15-6.49,1.28,4Z" transform="translate(-0.32 -217.64)"/><path class="e" d="M12342,234.79l-.42.39-.32.3,0,0-.38.35-3.09,2.88-1.78,1.66-2.71,2.53-.22.21-1.61,1.5-.28.26-.61.57-.36.34-.5.46-.62.57-3.4,3.17-.53.49-.87.81-.09.09-.77.72-.52.49-2.12,2c1.18,2.51,2.11,4.53,2.11,4.53l8.15-6.49,1.28,4,7.56-4,.12-.28-.35-.59-2.69-7.15,5.41-6.42Z" transform="translate(-0.32 -217.64)"/><polygon class="c" points="12352.08 65.7 12353.69 79.97 12347.44 69.03 12352.08 65.7"/><path class="b" d="M12463.48,298.47s0-.15,0-.24c0-4,22.33-7.52,56.44-9.64l-71.76-62s-45,41.89-76.81,71.83Z" transform="translate(-0.32 -217.64)"/><path class="c" d="M12437.35,298.47l-.27-16h-10.35l10.26-20.27-3.4,2.09s1.79-9.28,2.05-9.39,6.79-3.79,6.79-3.79l3.06-5.69.45-1.07-.35-.59-2.69-7.15,5.41-6.42-.36-3.4c-3,2.76-45.92,42.79-76.64,71.68Z" transform="translate(-0.32 -217.64)"/><path class="d" d="M12445.83,244.63l3.34,6.49,5.8-10.17,5,3.68,11.24,2h0l-23.13-20s-8.81,8.2-21.38,19.94c1.18,2.51,2.11,4.53,2.11,4.53l8.15-6.49,1.28,4Z" transform="translate(-0.32 -217.64)"/><path class="e" d="M12448,226.79l-.42.39-.32.3,0,0-.38.35-3.09,2.88-1.78,1.66-2.71,2.53-.22.21-1.61,1.5-.28.26-.61.57-.36.34-.5.46-.62.57-3.4,3.17-.53.49-.87.81-.09.09-.77.72-.52.49-2.12,2c1.18,2.51,2.11,4.53,2.11,4.53l8.15-6.49,1.28,4,7.56-4,.12-.28-.35-.59-2.69-7.15,5.41-6.42Z" transform="translate(-0.32 -217.64)"/><polygon class="c" points="12458.08 57.7 12459.69 71.97 12453.44 61.03 12458.08 57.7"/><path class="b" d="M12594.71,286.5c44.3,0,83.46,2,107.24,5l-65.82-56.83s-28.1,26.18-55.6,51.93Q12587.51,286.5,12594.71,286.5Z" transform="translate(-0.32 -217.64)"/><path class="c" d="M12594.71,286.5c7.51,0,14.87.06,22,.17l8.25-16.38-3.4,2s1.79-9.31,2.05-9.41,6.79-3.8,6.79-3.8l3.06-5.7.45-1.07-.35-.59-2.69-7.15,5.41-6.42-.36-3.4c-2.32,2.16-29.15,27.16-55.44,51.78Q12587.51,286.5,12594.71,286.5Z" transform="translate(-0.32 -217.64)"/><path class="d" d="M12633.83,252.63l3.34,6.49,5.8-10.17,5,3.68,11.24,2h0l-23.13-20s-8.81,8.2-21.38,19.94c1.18,2.51,2.11,4.53,2.11,4.53l8.15-6.49,1.28,4Z" transform="translate(-0.32 -217.64)"/><path class="e" d="M12636,234.79l-.42.39-.32.3,0,0-.38.35-3.09,2.88-1.78,1.66-2.71,2.53-.22.21-1.61,1.5-.28.26-.61.57-.36.34-.5.46-.62.57-3.4,3.17-.53.49-.87.81-.09.09-.77.72-.52.49-2.12,2c1.18,2.51,2.11,4.53,2.11,4.53l8.15-6.49,1.28,4,7.56-4,.12-.28-.35-.59-2.69-7.15,5.41-6.42Z" transform="translate(-0.32 -217.64)"/><polygon class="c" points="12646.08 65.7 12647.69 79.97 12641.44 69.03 12646.08 65.7"/><path class="b" d="M12963.48,291.93l-66.36-57.29s-33.82,31.5-63.56,59.39C12866.24,292.83,12912,292.09,12963.48,291.93Z" transform="translate(-0.32 -217.64)"/><path class="c" d="M12886.11,292.59l0-2.12h-10.35l10.26-20.27-3.4,2.09s1.79-9.28,2.05-9.39,6.79-3.79,6.79-3.79l3.06-5.69.45-1.07-.35-.59-2.69-7.15,5.41-6.42-.36-3.4c-2.55,2.38-34.85,32.42-63.4,59.19C12848.56,293.43,12866.31,292.93,12886.11,292.59Z" transform="translate(-0.32 -217.64)"/><path class="d" d="M12894.83,252.63l3.34,6.49,5.8-10.17,5,3.68,11.24,2h0l-23.13-20s-8.81,8.2-21.38,19.94c1.18,2.51,2.11,4.53,2.11,4.53l8.15-6.49,1.28,4Z" transform="translate(-0.32 -217.64)"/><path class="e" d="M12897,234.79l-.42.39-.32.3,0,0-.38.35-3.09,2.88-1.78,1.66-2.71,2.53-.22.21-1.61,1.5-.28.26-.61.57-.36.34-.5.46-.62.57-3.4,3.17-.53.49-.87.81-.09.09-.77.72-.52.49-2.12,2c1.18,2.51,2.11,4.53,2.11,4.53l8.15-6.49,1.28,4,7.56-4,.12-.28-.35-.59-2.69-7.15,5.41-6.42Z" transform="translate(-0.32 -217.64)"/><polygon class="c" points="12907.08 55.7 12908.69 69.97 12902.44 59.03 12907.08 55.7"/><path class="b" d="M13627.48,298.47s0-.15,0-.24c0-1.46,3-2.86,8.47-4.16l-75.8-65.44s-43,40.06-74.68,69.83Z" transform="translate(-0.32 -217.64)"/><path class="c" d="M13549.32,298.47l-.24-14h-10.35l10.26-20.27-3.4,2.09s1.79-9.28,2.05-9.39,6.79-3.79,6.79-3.79l3.06-5.69.45-1.07-.35-.59-2.69-7.15,5.41-6.42-.36-3.4c-2.89,2.7-44,41-74.52,69.68Z" transform="translate(-0.32 -217.64)"/><path class="d" d="M13557.83,246.63l3.34,6.49,5.8-10.17,5,3.68,11.24,2h0l-23.13-20s-8.81,8.2-21.38,19.94c1.18,2.51,2.11,4.53,2.11,4.53l8.15-6.49,1.28,4Z" transform="translate(-0.32 -217.64)"/><path class="e" d="M13560,228.79l-.42.39-.32.3,0,0-.38.35-3.09,2.88-1.78,1.66-2.71,2.53-.22.21-1.61,1.5-.28.26-.61.57-.36.34-.5.46-.62.57-3.4,3.17-.53.49-.87.81-.09.09-.77.72-.52.49-2.12,2c1.18,2.51,2.11,4.53,2.11,4.53l8.15-6.49,1.28,4,7.56-4,.12-.28-.35-.59-2.69-7.15,5.41-6.42Z" transform="translate(-0.32 -217.64)"/><polygon class="c" points="13570.08 59.7 13571.69 73.97 13565.44 63.03 13570.08 59.7"/><path class="b" d="M14135.5,291.89c36.8,0,71.32.29,101.11.82l-83.49-72.07s-44.66,41.6-76.47,71.51C14095.28,292,14115,291.89,14135.5,291.89Z" transform="translate(-0.32 -217.64)"/><path class="c" d="M14135.5,291.89c2.29,0,4.57-.09,6.84-.09l-.26-15.33h-10.35l10.26-20.27-3.4,2.09s1.79-9.28,2.05-9.39,6.79-3.79,6.79-3.79l3.06-5.69.45-1.07-.35-.59-2.69-7.15,5.41-6.42-.36-3.4c-3,2.75-45.61,42.49-76.3,71.36C14095.28,292,14115,291.89,14135.5,291.89Z" transform="translate(-0.32 -217.64)"/><path class="d" d="M14150.83,238.63l3.34,6.49,5.8-10.17,5,3.68,11.24,2h0l-23.13-20s-8.81,8.2-21.38,19.94c1.18,2.51,2.11,4.53,2.11,4.53l8.15-6.49,1.28,4Z" transform="translate(-0.32 -217.64)"/><path class="e" d="M14153,220.79l-.42.39-.32.3,0,0-.38.35-3.09,2.88-1.78,1.66-2.71,2.53-.22.21-1.61,1.5-.28.26-.61.57-.36.34-.5.46-.62.57-3.4,3.17-.53.49-.87.81-.09.09-.77.72-.52.49-2.12,2c1.18,2.51,2.11,4.53,2.11,4.53l8.15-6.49,1.28,4,7.56-4,.12-.28-.35-.59-2.69-7.15,5.41-6.42Z" transform="translate(-0.32 -217.64)"/><polygon class="c" points="14163.08 51.7 14164.69 65.97 14158.44 55.03 14163.08 51.7"/><path class="b" d="M14090.87,292l-75.75-65.4s-43.19,40.23-74.88,70C13960.94,294.2,14018.65,292.52,14090.87,292Z" transform="translate(-0.32 -217.64)"/><path class="c" d="M14004.26,293.28l-.18-10.82h-10.35l10.26-20.27-3.4,2.09s1.79-9.28,2.05-9.39,6.79-3.79,6.79-3.79l3.06-5.69.45-1.07-.35-.59-2.69-7.15,5.41-6.42-.36-3.4c-2.9,2.7-44.16,41.1-74.72,69.82C13951.63,295.26,13974.21,294.09,14004.26,293.28Z" transform="translate(-0.32 -217.64)"/><path class="d" d="M14012.83,244.63l3.34,6.49,5.8-10.17,5,3.68,11.24,2h0l-23.13-20s-8.81,8.2-21.38,19.94c1.18,2.51,2.11,4.53,2.11,4.53l8.15-6.49,1.28,4Z" transform="translate(-0.32 -217.64)"/><path class="e" d="M14015,226.79l-.42.39-.32.3,0,0-.38.35-3.09,2.88-1.78,1.66-2.71,2.53-.22.21-1.61,1.5-.28.26-.61.57-.36.34-.5.46-.62.57-3.4,3.17-.53.49-.87.81-.09.09-.77.72-.52.49-2.12,2c1.18,2.51,2.11,4.53,2.11,4.53l8.15-6.49,1.28,4,7.56-4,.12-.28-.35-.59-2.69-7.15,5.41-6.42Z" transform="translate(-0.32 -217.64)"/><polygon class="c" points="14025.08 57.7 14026.69 71.97 14020.44 61.03 14025.08 57.7"/><path class="b" d="M14777.48,298.47s0-.15,0-.24c0-5.87,48.06-10.71,110.87-11.58l-67.19-58s-43,40.06-74.68,69.83Z" transform="translate(-0.32 -217.64)"/><path class="c" d="M14777.48,298.47s0-.15,0-.24c0-3,12.36-5.78,32.74-7.85l-.1-5.91h-10.35l10.26-20.27-3.4,2.09s1.79-9.28,2.05-9.39,6.79-3.79,6.79-3.79l3.06-5.69.45-1.07-.35-.59-2.69-7.15,5.41-6.42-.36-3.4c-2.89,2.7-44,41-74.52,69.68Z" transform="translate(-0.32 -217.64)"/><path class="d" d="M14818.83,246.63l3.34,6.49,5.8-10.17,5,3.68,11.24,2h0l-23.13-20s-8.81,8.2-21.38,19.94c1.18,2.51,2.11,4.53,2.11,4.53l8.15-6.49,1.28,4Z" transform="translate(-0.32 -217.64)"/><path class="e" d="M14821,228.79l-.42.39-.32.3,0,0-.38.35-3.09,2.88-1.78,1.66-2.71,2.53-.22.21-1.61,1.5-.28.26-.61.57-.36.34-.5.46-.62.57-3.4,3.17-.53.49-.87.81-.09.09-.77.72-.52.49-2.12,2c1.18,2.51,2.11,4.53,2.11,4.53l8.15-6.49,1.28,4,7.56-4,.12-.28-.35-.59-2.69-7.15,5.41-6.42Z" transform="translate(-0.32 -217.64)"/><polygon class="c" points="14831.08 59.7 14832.69 73.97 14826.44 63.03 14831.08 59.7"/><path class="b" d="M4456,298.47l-80.89-69.83s-43,40.06-74.68,69.83Z" transform="translate(-0.32 -217.64)"/><path class="c" d="M4364.32,298.47l-.24-14h-10.34L4364,264.19l-3.4,2.09s1.79-9.28,2.05-9.39,6.79-3.79,6.79-3.79l3.06-5.69.45-1.07-.35-.59-2.69-7.15,5.41-6.42-.36-3.4c-2.89,2.7-44,41-74.51,69.68Z" transform="translate(-0.32 -217.64)"/><path class="d" d="M4372.83,246.63l3.34,6.49,5.8-10.17,5,3.68,11.24,2h0l-23.13-20s-8.81,8.2-21.38,19.94c1.18,2.51,2.11,4.53,2.11,4.53l8.15-6.49,1.28,4Z" transform="translate(-0.32 -217.64)"/><path class="e" d="M4375,228.79l-.42.39-.32.3,0,0-.38.35-3.09,2.88-1.78,1.66-2.71,2.53-.22.21-1.61,1.5-.28.26-.61.57-.36.34-.5.46-.62.57-3.4,3.17-.53.49-.87.81-.09.09-.77.72-.52.49-2.12,2c1.18,2.51,2.11,4.53,2.11,4.53l8.15-6.49,1.28,4,7.56-4,.12-.28-.35-.59-2.69-7.15,5.41-6.42Z" transform="translate(-0.32 -217.64)"/><polygon class="c" points="4385.08 59.7 4386.69 73.97 4380.44 63.03 4385.08 59.7"/><path class="b" d="M4358,298.47l-80.89-69.83s-43,40.06-74.68,69.83Z" transform="translate(-0.32 -217.64)"/><path class="c" d="M4266.32,298.47l-.24-14h-10.34L4266,264.19l-3.4,2.09s1.79-9.28,2.05-9.39,6.79-3.79,6.79-3.79l3.06-5.69.45-1.07-.35-.59-2.69-7.15,5.41-6.42-.36-3.4c-2.89,2.7-44,41-74.51,69.68Z" transform="translate(-0.32 -217.64)"/><path class="d" d="M4274.83,246.63l3.34,6.49,5.8-10.17,5,3.68,11.24,2h0l-23.13-20s-8.81,8.2-21.38,19.94c1.18,2.51,2.11,4.53,2.11,4.53l8.15-6.49,1.28,4Z" transform="translate(-0.32 -217.64)"/><path class="e" d="M4277,228.79l-.42.39-.32.3,0,0-.38.35-3.09,2.88-1.78,1.66-2.71,2.53-.22.21-1.61,1.5-.28.26-.61.57-.36.34-.5.46-.62.57-3.4,3.17-.53.49-.87.81-.09.09-.77.72-.52.49-2.12,2c1.18,2.51,2.11,4.53,2.11,4.53l8.15-6.49,1.28,4,7.56-4,.12-.28-.35-.59-2.69-7.15,5.41-6.42Z" transform="translate(-0.32 -217.64)"/><polygon class="c" points="4287.08 59.7 4288.69 73.97 4282.44 63.03 4287.08 59.7"/><path class="f" d="M499.44,288.31c-.3.75-5.69,15.16-5.69,15.16h11.31Z" transform="translate(-0.32 -217.64)"/><path class="g" d="M499.32,303.47h5.74L499.4,288.2s-.08-.05-.08,0Z" transform="translate(-0.32 -217.64)"/><path class="f" d="M819.93,286.31c-.3.75-5.69,15.16-5.69,15.16h11.31Z" transform="translate(-0.32 -217.64)"/><path class="g" d="M820.32,301.47h5.23l-5.4-15.38s.18-.17.18-.13Z" transform="translate(-0.32 -217.64)"/><path class="f" d="M992.1,278.31c-.3.75-5.69,15.16-5.69,15.16h11.31Z" transform="translate(-0.32 -217.64)"/><path class="g" d="M992.32,293.47h5.4l-5.49-15.52a1.77,1.77,0,0,1,.09-.26Z" transform="translate(-0.32 -217.64)"/><path class="f" d="M1236.21,288.31c-.3.75-5.69,15.16-5.69,15.16h11.31Z" transform="translate(-0.32 -217.64)"/><path class="g" d="M1236.32,303.47h5.51l-5.54-15.27s0-.05,0,0Z" transform="translate(-0.32 -217.64)"/><path class="f" d="M1478.72,281.31c-.3.75-5.69,15.16-5.69,15.16h11.31Z" transform="translate(-0.32 -217.64)"/><path class="g" d="M1478.32,296.47h6l-5.8-15.59s-.22-.37-.22-.33Z" transform="translate(-0.32 -217.64)"/><path class="f" d="M1608.57,277.31c-.3.75-5.69,15.16-5.69,15.16h11.31Z" transform="translate(-0.32 -217.64)"/><path class="g" d="M1608.32,292.47h5.87l-5.72-15.5s-.14-.28-.14-.24Z" transform="translate(-0.32 -217.64)"/><path class="f" d="M484.48,284.31c-.3.75-5.69,15.16-5.69,15.16H490.1Z" transform="translate(-0.32 -217.64)"/><path class="g" d="M485.32,299.47h4.78l-5.18-15.18s.4,0,.4.08Z" transform="translate(-0.32 -217.64)"/><path class="f" d="M478.76,293.31c-.3.75-5.69,15.16-5.69,15.16h11.31Z" transform="translate(-0.32 -217.64)"/><path class="g" d="M478.32,308.47h6.05l-5.82-15.22s-.24,0-.24,0Z" transform="translate(-0.32 -217.64)"/><path class="f" d="M513.76,286.31c-.3.75-5.69,15.16-5.69,15.16h11.31Z" transform="translate(-0.32 -217.64)"/><path class="g" d="M514.32,301.47h5.06l-5.32-15.54s.26-.33.26-.29Z" transform="translate(-0.32 -217.64)"/><polygon class="h" points="366.69 63.91 375.35 63.91 367.37 70.99 358.92 70.68 366.69 63.91"/><rect class="i" x="358.92" y="70.65" width="8.71" height="9.13"/><polygon class="j" points="375.33 63.91 367.63 70.65 367.63 79.78 382.8 79.78 382.8 70.65 375.33 63.91"/><polygon class="h" points="319.69 70.76 328.36 70.76 320.37 77.84 311.92 77.53 319.69 70.76"/><rect class="i" x="311.92" y="77.5" width="8.71" height="9.13"/><polygon class="j" points="328.33 70.77 320.63 77.5 320.63 86.63 335.8 86.63 335.8 77.5 328.33 70.77"/><polygon class="h" points="1427.88 63.4 1436.55 63.4 1428.56 70.49 1420.11 70.18 1427.88 63.4"/><rect class="i" x="1420.11" y="70.15" width="8.71" height="9.13"/><polygon class="j" points="1436.52 63.41 1428.82 70.15 1428.82 79.28 1443.99 79.28 1443.99 70.15 1436.52 63.41"/><polygon class="h" points="1302.28 71.34 1310.94 71.34 1302.95 78.42 1294.51 78.12 1302.28 71.34"/><rect class="i" x="1294.51" y="78.08" width="8.71" height="9.13"/><polygon class="j" points="1310.92 71.35 1303.21 78.08 1303.21 87.21 1318.39 87.21 1318.39 78.08 1310.92 71.35"/><polygon class="h" points="1491.92 53.05 1500.59 53.05 1492.6 60.13 1484.15 59.83 1491.92 53.05"/><rect class="i" x="1484.15" y="59.79" width="8.71" height="9.13"/><polygon class="j" points="1500.56 53.06 1492.86 59.79 1492.86 68.92 1508.03 68.92 1508.03 59.79 1500.56 53.06"/><polygon class="h" points="1536.03 63.41 1544.7 63.41 1536.71 70.49 1528.26 70.18 1536.03 63.41"/><rect class="i" x="1528.26" y="70.15" width="8.71" height="9.13"/><polygon class="j" points="1544.68 63.42 1536.97 70.15 1536.97 79.28 1552.14 79.28 1552.14 70.15 1544.68 63.42"/><polygon class="h" points="1020.64 67.73 1029.31 67.73 1021.32 74.82 1012.87 74.51 1020.64 67.73"/><rect class="i" x="1012.87" y="74.48" width="8.71" height="9.13"/><polygon class="j" points="1029.28 67.74 1021.58 74.48 1021.58 83.61 1036.75 83.61 1036.75 74.48 1029.28 67.74"/><polygon class="h" points="895.04 75.67 903.7 75.67 895.71 82.75 887.27 82.45 895.04 75.67"/><rect class="i" x="887.27" y="82.41" width="8.71" height="9.13"/><polygon class="j" points="903.68 75.68 895.98 82.41 895.98 91.54 911.15 91.54 911.15 82.41 903.68 75.68"/><polygon class="h" points="1084.68 57.38 1093.35 57.38 1085.36 64.47 1076.91 64.16 1084.68 57.38"/><rect class="i" x="1076.91" y="64.12" width="8.71" height="9.13"/><polygon class="j" points="1093.32 57.39 1085.62 64.12 1085.62 73.25 1100.79 73.25 1100.79 64.12 1093.32 57.39"/><polygon class="h" points="1128.79 67.74 1137.46 67.74 1129.47 74.82 1121.02 74.52 1128.79 67.74"/><rect class="i" x="1121.02" y="74.48" width="8.71" height="9.13"/><polygon class="j" points="1137.43 67.75 1129.73 74.48 1129.73 83.61 1144.9 83.61 1144.9 74.48 1137.43 67.75"/><polygon class="h" points="595.57 69.09 604.23 69.09 596.25 76.17 587.8 75.86 595.57 69.09"/><rect class="i" x="587.8" y="75.83" width="8.71" height="9.13"/><polygon class="j" points="604.21 69.1 596.51 75.83 596.51 84.96 611.68 84.96 611.68 75.83 604.21 69.1"/><polygon class="h" points="544.99 69.09 553.65 69.09 545.66 76.18 537.22 75.87 544.99 69.09"/><rect class="i" x="537.22" y="75.83" width="8.71" height="9.13"/><polygon class="j" points="553.63 69.1 545.93 75.83 545.93 84.97 561.1 84.97 561.1 75.83 553.63 69.1"/><polygon class="h" points="2055.97 66.59 2064.63 66.59 2056.64 73.67 2048.2 73.37 2055.97 66.59"/><rect class="i" x="2048.2" y="73.33" width="8.71" height="9.13"/><polygon class="j" points="2064.61 66.6 2056.91 73.33 2056.91 82.46 2072.08 82.46 2072.08 73.33 2064.61 66.6"/><polygon class="h" points="2186.58 64.81 2195.25 64.81 2187.26 71.89 2178.81 71.58 2186.58 64.81"/><rect class="i" x="2178.81" y="71.55" width="8.71" height="9.13"/><polygon class="j" points="2195.22 64.82 2187.52 71.55 2187.52 80.68 2202.69 80.68 2202.69 71.55 2195.22 64.82"/><polygon class="h" points="2388.87 73.87 2397.53 73.87 2389.54 80.95 2381.1 80.65 2388.87 73.87"/><rect class="i" x="2381.1" y="80.61" width="8.71" height="9.13"/><polygon class="j" points="2397.51 73.88 2389.81 80.61 2389.81 89.74 2404.98 89.74 2404.98 80.61 2397.51 73.88"/><polygon class="h" points="2437.27 69.48 2445.94 69.48 2437.95 76.56 2429.5 76.25 2437.27 69.48"/><rect class="i" x="2429.5" y="76.22" width="8.71" height="9.13"/><polygon class="h" points="2437.76 69.48 2446.43 69.48 2438.44 76.56 2429.99 76.25 2437.76 69.48"/><rect class="i" x="2430" y="76.22" width="8.71" height="9.13"/><polygon class="j" points="2445.91 69.48 2438.21 76.22 2438.21 85.35 2453.38 85.35 2453.38 76.22 2445.91 69.48"/><polygon class="h" points="2515.21 69.48 2523.88 69.48 2515.89 76.56 2507.44 76.26 2515.21 69.48"/><rect class="i" x="2507.44" y="76.22" width="8.71" height="9.13"/><polygon class="j" points="2523.85 69.49 2516.15 76.22 2516.15 85.35 2531.32 85.35 2531.32 76.22 2523.85 69.49"/><polygon class="h" points="2669.23 73.87 2677.89 73.87 2669.91 80.96 2661.46 80.65 2669.23 73.87"/><rect class="i" x="2661.46" y="80.62" width="8.71" height="9.13"/><polygon class="j" points="2677.87 73.88 2670.17 80.62 2670.17 89.75 2685.34 89.75 2685.34 80.62 2677.87 73.88"/><polygon class="h" points="2627.45 71.65 2636.11 71.65 2628.13 78.74 2619.68 78.43 2627.45 71.65"/><rect class="i" x="2619.68" y="78.4" width="8.71" height="9.13"/><polygon class="j" points="2636.09 71.66 2628.39 78.4 2628.39 87.53 2643.56 87.53 2643.56 78.4 2636.09 71.66"/><polygon class="h" points="2102.06 69.65 2110.73 69.65 2102.74 76.73 2094.29 76.42 2102.06 69.65"/><rect class="i" x="2094.29" y="76.39" width="8.71" height="9.13"/><polygon class="j" points="2110.7 69.66 2103 76.39 2103 85.52 2118.17 85.52 2118.17 76.39 2110.7 69.66"/><polygon class="h" points="2250.39 70.5 2259.06 70.5 2251.07 77.58 2242.63 77.28 2250.39 70.5"/><rect class="i" x="2242.62" y="77.24" width="8.71" height="9.13"/><polygon class="j" points="2259.04 70.51 2251.33 77.24 2251.33 86.37 2266.51 86.37 2266.51 77.24 2259.04 70.51"/><polygon class="h" points="2437.76 69.48 2446.43 69.48 2438.44 76.56 2429.99 76.25 2437.76 69.48"/><rect class="i" x="2430" y="76.22" width="8.71" height="9.13"/><polygon class="j" points="2445.91 69.48 2438.21 76.22 2438.21 85.35 2453.38 85.35 2453.38 76.22 2445.91 69.48"/><polygon class="h" points="2515.21 69.48 2523.88 69.48 2515.89 76.56 2507.44 76.26 2515.21 69.48"/><rect class="i" x="2508.46" y="76.22" width="8.71" height="9.13"/><polygon class="j" points="2524.87 69.49 2517.17 76.22 2517.17 85.35 2532.34 85.35 2532.34 76.22 2524.87 69.49"/><polygon class="h" points="2628.47 71.65 2637.13 71.65 2629.14 78.74 2620.7 78.43 2628.47 71.65"/><rect class="i" x="2620.7" y="78.4" width="8.71" height="9.13"/><polygon class="j" points="2637.11 71.66 2629.41 78.4 2629.41 87.53 2644.58 87.53 2644.58 78.4 2637.11 71.66"/><polygon class="h" points="2516.23 69.48 2524.89 69.48 2516.91 76.56 2508.46 76.26 2516.23 69.48"/><polygon class="h" points="3648.15 72.09 3656.81 72.09 3648.82 79.18 3640.38 78.87 3648.15 72.09"/><rect class="i" x="3640.38" y="78.84" width="8.71" height="9.13"/><polygon class="j" points="3656.79 72.1 3649.09 78.84 3649.09 87.97 3664.26 87.97 3664.26 78.84 3656.79 72.1"/><rect class="i" x="3487.38" y="74.44" width="8.71" height="9.13"/><polygon class="j" points="3503.79 67.71 3496.09 74.44 3496.09 83.57 3511.26 83.57 3511.26 74.44 3503.79 67.71"/><polygon class="h" points="3607.39 69.87 3616.05 69.87 3608.06 76.96 3599.62 76.65 3607.39 69.87"/><rect class="i" x="3599.62" y="76.61" width="8.71" height="9.13"/><polygon class="j" points="3616.03 69.88 3608.33 76.61 3608.33 85.75 3623.5 85.75 3623.5 76.61 3616.03 69.88"/><polygon class="h" points="3495.15 67.7 3503.81 67.7 3495.82 74.78 3487.38 74.48 3495.15 67.7"/><polygon class="h" points="3980.09 72.07 3988.75 72.07 3980.76 79.16 3972.32 78.85 3980.09 72.07"/><rect class="i" x="3972.32" y="78.82" width="8.71" height="9.13"/><polygon class="j" points="3988.73 72.08 3981.03 78.82 3981.03 87.95 3996.2 87.95 3996.2 78.82 3988.73 72.08"/><rect class="i" x="3819.32" y="74.42" width="8.71" height="9.13"/><polygon class="j" points="3835.73 67.69 3828.03 74.42 3828.03 83.55 3843.2 83.55 3843.2 74.42 3835.73 67.69"/><polygon class="h" points="3939.33 69.85 3947.99 69.85 3940 76.94 3931.56 76.63 3939.33 69.85"/><rect class="i" x="3931.56" y="76.6" width="8.71" height="9.13"/><polygon class="j" points="3947.97 69.86 3940.26 76.59 3940.26 85.73 3955.44 85.73 3955.44 76.59 3947.97 69.86"/><polygon class="h" points="3827.09 67.68 3835.75 67.68 3827.76 74.77 3819.32 74.46 3827.09 67.68"/><polygon class="h" points="4806.72 67.64 4815.38 67.64 4807.39 74.72 4798.95 74.41 4806.72 67.64"/><rect class="i" x="4798.95" y="74.38" width="8.71" height="9.13"/><polygon class="j" points="4815.36 67.64 4807.66 74.38 4807.66 83.51 4822.83 83.51 4822.83 74.38 4815.36 67.64"/><rect class="i" x="4645.95" y="69.98" width="8.71" height="9.13"/><polygon class="j" points="4662.36 63.25 4654.66 69.98 4654.66 79.11 4669.83 79.11 4669.83 69.98 4662.36 63.25"/><polygon class="h" points="4765.95 65.41 4774.62 65.41 4766.63 72.5 4758.19 72.19 4765.95 65.41"/><rect class="i" x="4758.19" y="72.16" width="8.71" height="9.13"/><polygon class="j" points="4774.6 65.42 4766.89 72.16 4766.89 81.29 4782.06 81.29 4782.06 72.16 4774.6 65.42"/><polygon class="h" points="4653.72 63.24 4662.38 63.24 4654.39 70.33 4645.95 70.02 4653.72 63.24"/><polygon class="h" points="5247.5 70.98 5256.16 70.98 5248.18 78.07 5239.73 77.76 5247.5 70.98"/><rect class="i" x="5239.73" y="77.73" width="8.71" height="9.13"/><polygon class="j" points="5256.14 70.99 5248.44 77.72 5248.44 86.86 5263.61 86.86 5263.61 77.72 5256.14 70.99"/><rect class="i" x="5086.73" y="73.33" width="8.71" height="9.13"/><polygon class="j" points="5103.14 66.6 5095.44 73.33 5095.44 82.46 5110.61 82.46 5110.61 73.33 5103.14 66.6"/><polygon class="h" points="5206.74 68.76 5215.4 68.76 5207.41 75.85 5198.97 75.54 5206.74 68.76"/><rect class="i" x="5198.97" y="75.5" width="8.71" height="9.13"/><polygon class="j" points="5215.38 68.77 5207.68 75.5 5207.68 84.63 5222.85 84.63 5222.85 75.5 5215.38 68.77"/><polygon class="h" points="5094.5 66.59 5103.16 66.59 5095.17 73.67 5086.73 73.36 5094.5 66.59"/><polygon class="h" points="6026.64 69.09 6035.3 69.09 6027.31 76.18 6018.87 75.87 6026.64 69.09"/><rect class="i" x="6018.87" y="75.84" width="8.71" height="9.13"/><polygon class="j" points="6035.28 69.1 6027.57 75.84 6027.57 84.97 6042.75 84.97 6042.75 75.84 6035.28 69.1"/><rect class="i" x="5865.87" y="71.44" width="8.71" height="9.13"/><polygon class="j" points="5882.28 64.71 5874.57 71.44 5874.57 80.57 5889.75 80.57 5889.75 71.44 5882.28 64.71"/><polygon class="h" points="5985.87 66.87 5994.54 66.87 5986.55 73.96 5978.1 73.65 5985.87 66.87"/><rect class="i" x="5978.1" y="73.61" width="8.71" height="9.13"/><polygon class="j" points="5994.52 66.88 5986.81 73.61 5986.81 82.75 6001.98 82.75 6001.98 73.61 5994.52 66.88"/><polygon class="h" points="5873.64 64.7 5882.3 64.7 5874.31 71.78 5865.87 71.48 5873.64 64.7"/><polygon class="h" points="6457.7 66.05 6466.37 66.05 6458.38 73.13 6449.94 72.82 6457.7 66.05"/><rect class="i" x="6449.93" y="72.79" width="8.71" height="9.13"/><polygon class="j" points="6466.35 66.05 6458.64 72.79 6458.64 81.92 6473.81 81.92 6473.81 72.79 6466.35 66.05"/><rect class="i" x="6296.93" y="68.39" width="8.71" height="9.13"/><polygon class="j" points="6313.35 61.66 6305.64 68.39 6305.64 77.52 6320.81 77.52 6320.81 68.39 6313.35 61.66"/><polygon class="h" points="6416.94 63.82 6425.61 63.82 6417.62 70.91 6409.17 70.6 6416.94 63.82"/><rect class="i" x="6409.17" y="70.57" width="8.71" height="9.13"/><polygon class="j" points="6425.59 63.83 6417.88 70.57 6417.88 79.7 6433.05 79.7 6433.05 70.57 6425.59 63.83"/><polygon class="h" points="6304.7 61.65 6313.37 61.65 6305.38 68.74 6296.93 68.43 6304.7 61.65"/><polygon class="h" points="7182.85 68.25 7191.52 68.25 7183.53 75.33 7175.08 75.02 7182.85 68.25"/><rect class="i" x="7175.08" y="74.99" width="8.71" height="9.13"/><polygon class="j" points="7191.49 68.26 7183.79 74.99 7183.79 84.12 7198.96 84.12 7198.96 74.99 7191.49 68.26"/><rect class="i" x="7022.08" y="70.59" width="8.71" height="9.13"/><polygon class="j" points="7038.49 63.86 7030.79 70.59 7030.79 79.73 7045.96 79.73 7045.96 70.59 7038.49 63.86"/><polygon class="h" points="7142.09 66.03 7150.76 66.03 7142.77 73.11 7134.32 72.8 7142.09 66.03"/><rect class="i" x="7134.32" y="72.77" width="8.71" height="9.13"/><polygon class="j" points="7150.73 66.03 7143.03 72.77 7143.03 81.9 7158.2 81.9 7158.2 72.77 7150.73 66.03"/><polygon class="h" points="7029.85 63.85 7038.52 63.85 7030.53 70.94 7022.08 70.63 7029.85 63.85"/><rect class="i" x="7880.7" y="72.8" width="8.71" height="9.13"/><polygon class="j" points="7897.11 66.06 7889.41 72.8 7889.41 81.93 7904.58 81.93 7904.58 72.8 7897.11 66.06"/><polygon class="h" points="7970.71 68.23 7979.37 68.23 7971.39 75.31 7962.94 75 7970.71 68.23"/><rect class="i" x="7962.94" y="74.97" width="8.71" height="9.13"/><polygon class="j" points="7979.35 68.24 7971.65 74.97 7971.65 84.1 7986.82 84.1 7986.82 74.97 7979.35 68.24"/><polygon class="h" points="7888.47 66.05 7897.14 66.05 7889.15 73.14 7880.7 72.83 7888.47 66.05"/><polygon class="h" points="8432.35 68.25 8441.02 68.25 8433.03 75.34 8424.58 75.03 8432.35 68.25"/><rect class="i" x="8424.58" y="74.99" width="8.71" height="9.13"/><polygon class="j" points="8441 68.26 8433.29 74.99 8433.29 84.12 8448.46 84.12 8448.46 74.99 8441 68.26"/><rect class="i" x="8271.58" y="70.6" width="8.71" height="9.13"/><polygon class="j" points="8287.99 63.87 8280.29 70.6 8280.29 79.73 8295.46 79.73 8295.46 70.6 8287.99 63.87"/><polygon class="h" points="8391.59 66.03 8400.26 66.03 8392.27 73.11 8383.82 72.81 8391.59 66.03"/><rect class="i" x="8383.82" y="72.77" width="8.71" height="9.13"/><polygon class="j" points="8400.23 66.04 8392.53 72.77 8392.53 81.9 8407.7 81.9 8407.7 72.77 8400.23 66.04"/><polygon class="h" points="8279.35 63.86 8288.02 63.86 8280.03 70.94 8271.58 70.63 8279.35 63.86"/><polygon class="h" points="8513.21 73.8 8521.87 73.8 8513.88 80.88 8505.44 80.57 8513.21 73.8"/><rect class="i" x="8505.44" y="80.54" width="8.71" height="9.13"/><polygon class="j" points="8521.85 73.8 8514.15 80.54 8514.15 89.67 8529.32 89.67 8529.32 80.54 8521.85 73.8"/><rect class="i" x="8352.44" y="76.14" width="8.71" height="9.13"/><polygon class="j" points="8368.85 69.41 8361.15 76.14 8361.15 85.27 8376.32 85.27 8376.32 76.14 8368.85 69.41"/><polygon class="h" points="8472.45 71.57 8481.11 71.57 8473.12 78.66 8464.68 78.35 8472.45 71.57"/><rect class="i" x="8464.68" y="78.32" width="8.71" height="9.13"/><polygon class="j" points="8481.09 71.58 8473.39 78.32 8473.39 87.45 8488.56 87.45 8488.56 78.32 8481.09 71.58"/><polygon class="h" points="8360.21 69.4 8368.87 69.4 8360.88 76.49 8352.44 76.18 8360.21 69.4"/><polygon class="h" points="8908.12 72.58 8916.78 72.58 8908.8 79.66 8900.35 79.35 8908.12 72.58"/><rect class="i" x="8900.35" y="79.32" width="8.71" height="9.13"/><polygon class="j" points="8916.76 72.59 8909.06 79.32 8909.06 88.45 8924.23 88.45 8924.23 79.32 8916.76 72.59"/><rect class="i" x="8747.35" y="74.93" width="8.71" height="9.13"/><polygon class="j" points="8763.76 68.19 8756.06 74.92 8756.06 84.06 8771.23 84.06 8771.23 74.92 8763.76 68.19"/><polygon class="h" points="8867.36 70.36 8876.02 70.36 8868.03 77.44 8859.59 77.13 8867.36 70.36"/><rect class="i" x="8859.59" y="77.1" width="8.71" height="9.13"/><polygon class="j" points="8876 70.36 8868.3 77.1 8868.3 86.23 8883.47 86.23 8883.47 77.1 8876 70.36"/><polygon class="h" points="8755.12 68.18 8763.78 68.18 8755.8 75.27 8747.35 74.96 8755.12 68.18"/><polygon class="h" points="9164.93 62.45 9173.59 62.45 9165.61 69.54 9157.16 69.23 9164.93 62.45"/><rect class="i" x="9157.16" y="69.19" width="8.71" height="9.13"/><polygon class="j" points="9173.57 62.46 9165.87 69.19 9165.87 78.33 9181.04 78.33 9181.04 69.19 9173.57 62.46"/><rect class="i" x="9004.16" y="64.8" width="8.71" height="9.13"/><polygon class="j" points="9020.57 58.07 9012.87 64.8 9012.87 73.93 9028.04 73.93 9028.04 64.8 9020.57 58.07"/><polygon class="h" points="9124.17 60.23 9132.83 60.23 9124.84 67.32 9116.4 67.01 9124.17 60.23"/><rect class="i" x="9116.4" y="66.97" width="8.71" height="9.13"/><polygon class="j" points="9132.81 60.24 9125.11 66.97 9125.11 76.1 9140.28 76.1 9140.28 66.97 9132.81 60.24"/><polygon class="h" points="9011.93 58.06 9020.59 58.06 9012.61 65.14 9004.16 64.83 9011.93 58.06"/><polygon class="h" points="9537.46 69.96 9546.12 69.96 9538.13 77.05 9529.69 76.74 9537.46 69.96"/><rect class="i" x="9529.69" y="76.7" width="8.71" height="9.13"/><polygon class="j" points="9546.1 69.97 9538.4 76.7 9538.4 85.83 9553.57 85.83 9553.57 76.7 9546.1 69.97"/><rect class="i" x="9376.69" y="72.31" width="8.71" height="9.13"/><polygon class="j" points="9393.1 65.58 9385.4 72.31 9385.4 81.44 9400.57 81.44 9400.57 72.31 9393.1 65.58"/><polygon class="h" points="9496.69 67.74 9505.36 67.74 9497.37 74.82 9488.92 74.52 9496.69 67.74"/><rect class="i" x="9488.92" y="74.48" width="8.71" height="9.13"/><polygon class="j" points="9505.34 67.75 9497.63 74.48 9497.63 83.61 9512.8 83.61 9512.8 74.48 9505.34 67.75"/><polygon class="h" points="9384.46 65.57 9393.12 65.57 9385.13 72.65 9376.68 72.34 9384.46 65.57"/><polygon class="h" points="9781.95 71.96 9790.61 71.96 9782.62 79.05 9774.18 78.74 9781.95 71.96"/><rect class="i" x="9774.18" y="78.7" width="8.71" height="9.13"/><polygon class="j" points="9790.59 71.97 9782.89 78.7 9782.89 87.83 9798.06 87.83 9798.06 78.7 9790.59 71.97"/><rect class="i" x="9621.18" y="74.31" width="8.71" height="9.13"/><polygon class="j" points="9637.59 67.58 9629.89 74.31 9629.89 83.44 9645.06 83.44 9645.06 74.31 9637.59 67.58"/><polygon class="h" points="9741.18 69.74 9749.85 69.74 9741.86 76.82 9733.42 76.52 9741.18 69.74"/><rect class="i" x="9733.41" y="76.48" width="8.71" height="9.13"/><polygon class="j" points="9749.83 69.75 9742.12 76.48 9742.12 85.61 9757.29 85.61 9757.29 76.48 9749.83 69.75"/><polygon class="h" points="9628.95 67.57 9637.61 67.57 9629.62 74.65 9621.18 74.34 9628.95 67.57"/><polygon class="h" points="10388.15 64.34 10396.82 64.34 10388.83 71.43 10380.38 71.12 10388.15 64.34"/><rect class="i" x="10380.38" y="71.08" width="8.71" height="9.13"/><polygon class="j" points="10396.79 64.35 10389.09 71.08 10389.09 80.22 10404.26 80.22 10404.26 71.08 10396.79 64.35"/><rect class="i" x="10227.38" y="66.69" width="8.71" height="9.13"/><polygon class="j" points="10243.79 59.96 10236.09 66.69 10236.09 75.82 10251.26 75.82 10251.26 66.69 10243.79 59.96"/><polygon class="h" points="10347.39 62.12 10356.05 62.12 10348.06 69.21 10339.62 68.9 10347.39 62.12"/><rect class="i" x="10339.62" y="68.86" width="8.71" height="9.13"/><polygon class="j" points="10356.03 62.13 10348.33 68.86 10348.33 77.99 10363.5 77.99 10363.5 68.86 10356.03 62.13"/><polygon class="h" points="10235.15 59.95 10243.81 59.95 10235.83 67.03 10227.38 66.72 10235.15 59.95"/><polygon class="h" points="10758.81 69.91 10767.47 69.91 10759.49 77 10751.04 76.69 10758.81 69.91"/><rect class="i" x="10751.04" y="76.65" width="8.71" height="9.13"/><polygon class="j" points="10767.45 69.92 10759.75 76.65 10759.75 85.78 10774.92 85.78 10774.92 76.65 10767.45 69.92"/><rect class="i" x="10598.04" y="72.26" width="8.71" height="9.13"/><polygon class="j" points="10614.45 65.53 10606.75 72.26 10606.75 81.39 10621.92 81.39 10621.92 72.26 10614.45 65.53"/><polygon class="h" points="10718.05 67.69 10726.71 67.69 10718.72 74.77 10710.28 74.47 10718.05 67.69"/><rect class="i" x="10710.28" y="74.43" width="8.71" height="9.13"/><polygon class="j" points="10726.69 67.7 10718.99 74.43 10718.99 83.56 10734.16 83.56 10734.16 74.43 10726.69 67.7"/><polygon class="h" points="10605.81 65.52 10614.47 65.52 10606.49 72.6 10598.04 72.29 10605.81 65.52"/><polygon class="h" points="11203.19 73.26 11211.85 73.26 11203.86 80.34 11195.42 80.03 11203.19 73.26"/><rect class="i" x="11195.42" y="80" width="8.71" height="9.13"/><polygon class="j" points="11211.83 73.27 11204.13 80 11204.13 89.13 11219.3 89.13 11219.3 80 11211.83 73.27"/><rect class="i" x="11042.42" y="75.61" width="8.71" height="9.13"/><polygon class="j" points="11058.83 68.87 11051.12 75.61 11051.12 84.74 11066.3 84.74 11066.3 75.61 11058.83 68.87"/><polygon class="h" points="11162.42 71.04 11171.09 71.04 11163.1 78.12 11154.65 77.81 11162.42 71.04"/><rect class="i" x="11154.65" y="77.78" width="8.71" height="9.13"/><polygon class="j" points="11171.07 71.05 11163.36 77.78 11163.36 86.91 11178.53 86.91 11178.53 77.78 11171.07 71.05"/><polygon class="h" points="11050.18 68.86 11058.85 68.86 11050.86 75.95 11042.42 75.64 11050.18 68.86"/><polygon class="h" points="11571.67 65.3 11580.34 65.3 11572.35 72.38 11563.9 72.07 11571.67 65.3"/><rect class="i" x="11563.9" y="72.04" width="8.71" height="9.13"/><polygon class="j" points="11580.32 65.31 11572.61 72.04 11572.61 81.17 11587.78 81.17 11587.78 72.04 11580.32 65.31"/><rect class="i" x="11410.9" y="67.64" width="8.71" height="9.13"/><polygon class="j" points="11427.32 60.91 11419.61 67.64 11419.61 76.78 11434.78 76.78 11434.78 67.64 11427.32 60.91"/><polygon class="h" points="11530.91 63.08 11539.58 63.08 11531.59 70.16 11523.14 69.85 11530.91 63.08"/><rect class="i" x="11523.14" y="69.82" width="8.71" height="9.13"/><polygon class="j" points="11539.55 63.08 11531.85 69.82 11531.85 78.95 11547.02 78.95 11547.02 69.82 11539.55 63.08"/><polygon class="h" points="11418.67 60.9 11427.34 60.9 11419.35 67.99 11410.9 67.68 11418.67 60.9"/><polygon class="h" points="11905.35 66.47 11914.02 66.47 11906.03 73.56 11897.58 73.25 11905.35 66.47"/><rect class="i" x="11897.58" y="73.21" width="8.71" height="9.13"/><polygon class="j" points="11914 66.48 11906.29 73.21 11906.29 82.34 11921.46 82.34 11921.46 73.21 11914 66.48"/><rect class="i" x="11744.58" y="68.82" width="8.71" height="9.13"/><polygon class="j" points="11760.99 62.09 11753.29 68.82 11753.29 77.95 11768.46 77.95 11768.46 68.82 11760.99 62.09"/><polygon class="h" points="11864.59 64.25 11873.26 64.25 11865.27 71.33 11856.82 71.03 11864.59 64.25"/><rect class="i" x="11856.82" y="70.99" width="8.71" height="9.13"/><polygon class="j" points="11873.23 64.26 11865.53 70.99 11865.53 80.12 11880.7 80.12 11880.7 70.99 11873.23 64.26"/><polygon class="h" points="11752.35 62.08 11761.02 62.08 11753.03 69.16 11744.58 68.85 11752.35 62.08"/><polygon class="h" points="12336.98 74.09 12345.64 74.09 12337.65 81.18 12329.2 80.87 12336.98 74.09"/><rect class="i" x="12329.21" y="80.84" width="8.71" height="9.13"/><polygon class="j" points="12345.62 74.1 12337.92 80.84 12337.92 89.97 12353.08 89.97 12353.08 80.84 12345.62 74.1"/><rect class="i" x="12176.21" y="76.44" width="8.71" height="9.13"/><polygon class="j" points="12192.62 69.71 12184.91 76.44 12184.91 85.57 12200.08 85.57 12200.08 76.44 12192.62 69.71"/><polygon class="h" points="12296.21 71.87 12304.88 71.87 12296.89 78.96 12288.44 78.65 12296.21 71.87"/><rect class="i" x="12288.44" y="78.61" width="8.71" height="9.13"/><polygon class="j" points="12304.85 71.88 12297.15 78.61 12297.15 87.75 12312.32 87.75 12312.32 78.61 12304.85 71.88"/><polygon class="h" points="12183.98 69.7 12192.64 69.7 12184.65 76.78 12176.2 76.48 12183.98 69.7"/><polygon class="h" points="12680.8 68.36 12689.47 68.36 12681.48 75.45 12673.03 75.14 12680.8 68.36"/><rect class="i" x="12673.03" y="75.11" width="8.71" height="9.13"/><polygon class="j" points="12689.44 68.37 12681.74 75.11 12681.74 84.24 12696.91 84.24 12696.91 75.11 12689.44 68.37"/><rect class="i" x="12520.03" y="70.71" width="8.71" height="9.13"/><polygon class="j" points="12536.44 63.98 12528.74 70.71 12528.74 79.84 12543.91 79.84 12543.91 70.71 12536.44 63.98"/><polygon class="h" points="12640.04 66.14 12648.7 66.14 12640.72 73.23 12632.27 72.92 12640.04 66.14"/><rect class="i" x="12632.27" y="72.88" width="8.71" height="9.13"/><polygon class="j" points="12648.68 66.15 12640.98 72.88 12640.98 82.02 12656.15 82.02 12656.15 72.88 12648.68 66.15"/><polygon class="h" points="12527.8 63.97 12536.47 63.97 12528.48 71.05 12520.03 70.75 12527.8 63.97"/><polygon class="h" points="13088.57 73.93 13097.24 73.93 13089.25 81.02 13080.8 80.71 13088.57 73.93"/><rect class="i" x="13080.8" y="80.67" width="8.71" height="9.13"/><polygon class="j" points="13097.21 73.94 13089.51 80.67 13089.51 89.81 13104.68 89.81 13104.68 80.67 13097.21 73.94"/><rect class="i" x="12927.8" y="76.28" width="8.71" height="9.13"/><polygon class="j" points="12944.21 69.55 12936.51 76.28 12936.51 85.41 12951.68 85.41 12951.68 76.28 12944.21 69.55"/><polygon class="h" points="13047.81 71.71 13056.47 71.71 13048.49 78.8 13040.04 78.49 13047.81 71.71"/><rect class="i" x="13040.04" y="78.45" width="8.71" height="9.13"/><polygon class="j" points="13056.45 71.72 13048.75 78.45 13048.75 87.58 13063.92 87.58 13063.92 78.45 13056.45 71.72"/><polygon class="h" points="12935.57 69.54 12944.24 69.54 12936.25 76.62 12927.8 76.31 12935.57 69.54"/><polygon class="h" points="13364.33 72.71 13373 72.71 13365.01 79.8 13356.56 79.49 13364.33 72.71"/><rect class="i" x="13356.56" y="79.46" width="8.71" height="9.13"/><polygon class="j" points="13372.97 72.72 13365.27 79.46 13365.27 88.59 13380.44 88.59 13380.44 79.46 13372.97 72.72"/><rect class="i" x="13203.56" y="75.06" width="8.71" height="9.13"/><polygon class="j" points="13219.97 68.33 13212.27 75.06 13212.27 84.19 13227.44 84.19 13227.44 75.06 13219.97 68.33"/><polygon class="h" points="13323.57 70.49 13332.23 70.49 13324.25 77.58 13315.8 77.27 13323.57 70.49"/><rect class="i" x="13315.8" y="77.23" width="8.71" height="9.13"/><polygon class="j" points="13332.21 70.5 13324.51 77.23 13324.51 86.36 13339.68 86.36 13339.68 77.23 13332.21 70.5"/><polygon class="h" points="13211.33 68.32 13220 68.32 13212.01 75.4 13203.56 75.09 13211.33 68.32"/><polygon class="h" points="13848.46 66.12 13857.12 66.12 13849.13 73.21 13840.69 72.9 13848.46 66.12"/><rect class="i" x="13840.69" y="72.86" width="8.71" height="9.13"/><polygon class="j" points="13857.1 66.13 13849.4 72.86 13849.4 82 13864.57 82 13864.57 72.86 13857.1 66.13"/><rect class="i" x="13687.69" y="68.47" width="8.71" height="9.13"/><polygon class="j" points="13704.1 61.74 13696.4 68.47 13696.4 77.6 13711.57 77.6 13711.57 68.47 13704.1 61.74"/><polygon class="h" points="13807.69 63.9 13816.36 63.9 13808.37 70.99 13799.92 70.68 13807.69 63.9"/><rect class="i" x="13799.92" y="70.64" width="8.71" height="9.13"/><polygon class="j" points="13816.34 63.91 13808.63 70.64 13808.63 79.77 13823.81 79.77 13823.81 70.64 13816.34 63.91"/><polygon class="h" points="13695.46 61.73 13704.12 61.73 13696.13 68.81 13687.69 68.5 13695.46 61.73"/><polygon class="h" points="14286.52 67.47 14295.19 67.47 14287.2 74.55 14278.75 74.24 14286.52 67.47"/><rect class="i" x="14278.75" y="74.21" width="8.71" height="9.13"/><polygon class="j" points="14295.17 67.48 14287.46 74.21 14287.46 83.34 14302.63 83.34 14302.63 74.21 14295.17 67.48"/><rect class="i" x="14125.75" y="69.82" width="8.71" height="9.13"/><polygon class="j" points="14142.16 63.08 14134.46 69.82 14134.46 78.95 14149.63 78.95 14149.63 69.82 14142.16 63.08"/><polygon class="h" points="14245.76 65.25 14254.43 65.25 14246.44 72.33 14237.99 72.02 14245.76 65.25"/><rect class="i" x="14237.99" y="71.99" width="8.71" height="9.13"/><polygon class="j" points="14254.4 65.25 14246.7 71.99 14246.7 81.12 14261.87 81.12 14261.87 71.99 14254.4 65.25"/><polygon class="h" points="14133.52 63.07 14142.19 63.07 14134.2 70.16 14125.75 69.85 14133.52 63.07"/><polygon class="h" points="14695.61 69.67 14704.28 69.67 14696.29 76.75 14687.84 76.44 14695.61 69.67"/><rect class="i" x="14687.84" y="76.41" width="8.71" height="9.13"/><polygon class="j" points="14704.25 69.68 14696.55 76.41 14696.55 85.54 14711.72 85.54 14711.72 76.41 14704.25 69.68"/><rect class="i" x="14534.84" y="72.02" width="8.71" height="9.13"/><polygon class="j" points="14551.25 65.28 14543.55 72.02 14543.55 81.15 14558.72 81.15 14558.72 72.02 14551.25 65.28"/><polygon class="h" points="14654.85 67.45 14663.51 67.45 14655.53 74.53 14647.08 74.22 14654.85 67.45"/><rect class="i" x="14647.08" y="74.19" width="8.71" height="9.13"/><polygon class="j" points="14663.49 67.46 14655.79 74.19 14655.79 83.32 14670.96 83.32 14670.96 74.19 14663.49 67.46"/><polygon class="h" points="14542.61 65.28 14551.28 65.28 14543.29 72.36 14534.84 72.05 14542.61 65.28"/><polygon class="h" points="15109.4 68.81 15118.06 68.81 15110.08 75.9 15101.63 75.59 15109.4 68.81"/><rect class="i" x="15101.63" y="75.56" width="8.71" height="9.13"/><polygon class="j" points="15118.04 68.82 15110.34 75.56 15110.34 84.69 15125.51 84.69 15125.51 75.56 15118.04 68.82"/><rect class="i" x="14948.63" y="71.16" width="8.71" height="9.13"/><polygon class="j" points="14965.04 64.43 14957.34 71.16 14957.34 80.29 14972.51 80.29 14972.51 71.16 14965.04 64.43"/><polygon class="h" points="15068.64 66.59 15077.3 66.59 15069.31 73.68 15060.87 73.37 15068.64 66.59"/><rect class="i" x="15060.87" y="73.33" width="8.71" height="9.13"/><polygon class="j" points="15077.28 66.6 15069.58 73.33 15069.58 82.47 15084.75 82.47 15084.75 73.33 15077.28 66.6"/><polygon class="h" points="14956.4 64.42 14965.06 64.42 14957.08 71.5 14948.63 71.19 14956.4 64.42"/><polygon class="h" points="15408.08 68.79 15416.74 68.79 15408.75 75.88 15400.31 75.57 15408.08 68.79"/><rect class="i" x="15400.31" y="75.54" width="8.71" height="9.13"/><polygon class="j" points="15416.72 68.8 15409.01 75.54 15409.01 84.67 15424.18 84.67 15424.18 75.54 15416.72 68.8"/><rect class="i" x="15207.85" y="74.68" width="8.71" height="9.13"/><polygon class="j" points="15224.26 67.95 15216.56 74.68 15216.56 83.81 15231.73 83.81 15231.73 74.68 15224.26 67.95"/><polygon class="h" points="15367.31 66.57 15375.98 66.57 15367.99 73.66 15359.54 73.35 15367.31 66.57"/><rect class="i" x="15359.54" y="73.31" width="8.71" height="9.13"/><polygon class="j" points="15375.95 66.58 15368.25 73.31 15368.25 82.44 15383.42 82.44 15383.42 73.31 15375.95 66.58"/><polygon class="h" points="15215.62 67.94 15224.29 67.94 15216.3 75.03 15207.85 74.72 15215.62 67.94"/><polygon class="h" points="15848.18 69.8 15856.84 69.8 15848.85 76.88 15840.41 76.57 15848.18 69.8"/><rect class="i" x="15840.41" y="76.54" width="8.71" height="9.13"/><polygon class="j" points="15856.82 69.81 15849.11 76.54 15849.11 85.67 15864.29 85.67 15864.29 76.54 15856.82 69.81"/><rect class="i" x="15687.41" y="72.14" width="8.71" height="9.13"/><polygon class="j" points="15703.82 65.41 15696.11 72.14 15696.11 81.28 15711.29 81.28 15711.29 72.14 15703.82 65.41"/><polygon class="h" points="15556.23 74.49 15564.9 74.49 15556.91 81.57 15548.46 81.26 15556.23 74.49"/><rect class="i" x="15548.46" y="81.23" width="8.71" height="9.13"/><polygon class="j" points="15564.88 74.5 15557.17 81.23 15557.17 90.36 15572.34 90.36 15572.34 81.23 15564.88 74.5"/><polygon class="h" points="15109.4 68.91 15118.06 68.91 15110.08 76 15101.63 75.69 15109.4 68.91"/><rect class="i" x="15143.88" y="70.31" width="8.71" height="9.13"/><polygon class="j" points="15160.29 63.57 15152.59 70.31 15152.59 79.44 15167.76 79.44 15167.76 70.31 15160.29 63.57"/><polygon class="h" points="15151.65 63.66 15160.31 63.66 15152.33 70.75 15143.88 70.44 15151.65 63.66"/><rect class="i" x="15207.85" y="74.78" width="8.71" height="9.13"/><polygon class="j" points="15224.26 68.05 15216.56 74.78 15216.56 83.91 15231.73 83.91 15231.73 74.78 15224.26 68.05"/><polygon class="h" points="15215.62 68.04 15224.29 68.04 15216.3 75.12 15207.85 74.81 15215.62 68.04"/><polygon class="h" points="15556.23 74.59 15564.9 74.59 15556.91 81.67 15548.46 81.36 15556.23 74.59"/><rect class="i" x="15548.46" y="81.33" width="8.71" height="9.13"/><polygon class="j" points="15564.88 74.59 15557.17 81.33 15557.17 90.46 15572.34 90.46 15572.34 81.33 15564.88 74.59"/><polygon class="h" points="15695.18 65.4 15703.84 65.4 15695.85 72.49 15687.41 72.18 15695.18 65.4"/><line class="k" x1="14698.23" y1="239.83" x2="15087.88" y2="95.15"/><polyline class="l" points="2866.04 74.51 2857.87 78.47 2867.53 74.67"/><rect class="m" x="2866.13" y="64.29" width="1.4" height="10.38"/><circle class="n" cx="2866.83" cy="60.34" r="5.88"/><polyline class="l" points="2933.04 86.51 2924.87 90.47 2934.53 86.67"/><rect class="m" x="2933.13" y="76.29" width="1.4" height="10.38"/><circle class="n" cx="2933.83" cy="72.34" r="5.88"/><polyline class="l" points="2961.04 77.51 2952.87 81.47 2962.53 77.67"/><rect class="m" x="2961.13" y="67.29" width="1.4" height="10.38"/><circle class="n" cx="2961.83" cy="63.34" r="5.88"/><polyline class="l" points="2902.04 75.51 2893.87 79.47 2903.53 75.67"/><rect class="m" x="2902.13" y="65.29" width="1.4" height="10.38"/><circle class="n" cx="2902.83" cy="61.34" r="5.88"/><polyline class="l" points="2885.04 80.51 2876.87 84.47 2886.53 80.67"/><rect class="m" x="2885.13" y="70.29" width="1.4" height="10.38"/><circle class="n" cx="2885.83" cy="66.34" r="5.88"/><polyline class="l" points="2801.04 80.51 2792.87 84.47 2802.53 80.67"/><rect class="m" x="2801.13" y="70.29" width="1.4" height="10.38"/><circle class="n" cx="2801.83" cy="66.34" r="5.88"/><rect class="o" x="3298.37" y="40.69" width="36.16" height="37.91"/><polygon class="p" points="3303.97 48.76 3320.41 48.76 3305.26 62.2 3289.24 61.62 3303.97 48.76"/><rect class="o" x="3289.24" y="61.55" width="16.52" height="17.32"/><polygon class="d" points="3320.37 48.78 3305.76 61.55 3305.76 78.87 3334.53 78.87 3334.53 48.76 3320.37 48.78"/><path class="q" d="M3322.7,278.55a4.16,4.16,0,0,1,8.31,0" transform="translate(-0.32 -217.64)"/><rect class="q" x="3311.62" y="65.55" width="6.66" height="8.53"/><polygon class="q" points="3323.87 65.81 3329.74 65.81 3329.74 78.87 3323.34 78.87 3323.34 65.81 3323.87 65.81"/><polygon class="d" points="3366.52 40.69 3334.53 40.69 3334.53 78.61 3397.53 78.61 3397.53 40.69 3366.52 40.69"/><path class="q" d="M3348,263.47a3.28,3.28,0,1,1,6.56,0" transform="translate(-0.32 -217.64)"/><rect class="q" x="3347.68" y="47.38" width="6.66" height="8.53"/><path class="q" d="M3377.75,263.47a3.28,3.28,0,1,1,6.56,0" transform="translate(-0.32 -217.64)"/><rect class="q" x="3377.38" y="47.38" width="6.66" height="8.53"/><path class="q" d="M3363.07,263a3.28,3.28,0,0,1,6.56,0" transform="translate(-0.32 -217.64)"/><rect class="q" x="3362.7" y="46.92" width="6.66" height="8.53"/><rect class="q" x="3359.28" y="64.58" width="12.44" height="14.03"/><path class="q" d="M3333.69,15h31.81a0,0,0,0,1,0,0V32.2a0,0,0,0,1,0,0h-49.05a0,0,0,0,1,0,0v0A17.24,17.24,0,0,1,3333.69,15Z"/><circle class="d" cx="3366.03" cy="28.11" r="13.15"/><polygon class="d" points="3343.62 28.71 3379.6 28.71 3397.53 40.69 3325.44 40.83 3343.62 28.71"/><polygon class="p" points="3316.54 28.71 3352.88 28.71 3334.53 40.97 3298.37 40.83 3316.54 28.71"/><circle class="q" cx="3366.03" cy="28.11" r="8.02"/><polygon class="r" points="3381.76 85.78 3271.64 85.78 3289.2 79.31 3399.94 79.31 3381.76 85.78"/><path class="b" d="M1084.73,321.47H1234.9l-78-67.51S1116.11,292.47,1084.73,321.47Z" transform="translate(-0.32 -217.64)"/><path class="c" d="M1156.77,254.27c-2.82,2.62-41.81,39.2-72,67.2h63.18l-2-12h-10.35l8.88-12.56,1-9.34a11.13,11.13,0,0,1,.75-2.64c.27-.11,3.17-1.62,3.17-1.62l3.51-.77,5.18-3.8-.81-8.84-3.49-7.6,2.58-3.5Z" transform="translate(-0.32 -217.64)"/><path class="d" d="M1154.65,272.27l3.34,6.49,5.8-10.17,5,3.68,11.24,2h0l-23.13-20s-8.81,8.2-21.38,19.94c1.18,2.51,2.11,4.53,2.11,4.53l8.15-6.49,1.28,4Z" transform="translate(-0.32 -217.64)"/><polygon class="c" points="1161.17 71.34 1167.75 78.69 1156.53 74.67 1161.17 71.34"/><polygon class="b" points="1130 68.16 1130 72.61 1125.36 71.49 1130 68.16"/><polygon class="c" points="1174.22 62.43 1171.03 72.8 1169.58 65.76 1174.22 62.43"/><path class="e" d="M1153.7,262.31l2.58-3.42.49-4.46-.42.39-.32.3,0,0-.38.35-3.09,2.88-1.78,1.66-2.71,2.53-.22.21-1.61,1.5-.28.26-.61.57-.36.34-.5.46-.62.57-3.4,3.17-.53.49-.87.81-.09.09-.77.72-.52.49-2.12,2c1.18,2.51,2.11,4.53,2.11,4.53l8.15-6.49,1.28,4,7.56-4,3.34,6.49-.81-8.85Z" transform="translate(-0.32 -217.64)"/><path class="c" d="M1185.36,296l1.6,14.27-6.24-10.93C1183.4,301.05,1184.91,299.86,1185.36,296Z" transform="translate(-0.32 -217.64)"/><polygon class="c" points="1166.9 85.34 1168.5 99.61 1162.26 88.68 1166.9 85.34"/><path class="b" d="M765.15,321.47l-78-67.51S646.37,292.47,615,321.47Z" transform="translate(-0.32 -217.64)"/><path class="c" d="M687,254.27c-2.82,2.62-41.81,39.2-72,67.2h63.18l-2-12H665.8l8.88-12.56,1-9.34a11.13,11.13,0,0,1,.75-2.64c.27-.11,3.17-1.62,3.17-1.62l3.51-.77,5.18-3.8-.81-8.84-3.49-7.6,2.58-3.5Z" transform="translate(-0.32 -217.64)"/><path class="d" d="M684.9,272.27l3.34,6.49,5.8-10.17,5,3.68,11.24,2h0l-23.13-20s-8.81,8.2-21.38,19.94c1.18,2.51,2.11,4.53,2.11,4.53l8.15-6.49,1.28,4Z" transform="translate(-0.32 -217.64)"/><polygon class="c" points="691.42 71.34 698 78.69 686.78 74.67 691.42 71.34"/><polygon class="b" points="660 68.16 660 72.61 655.36 71.49 660 68.16"/><polygon class="c" points="704.47 62.43 701.28 72.8 699.83 65.76 704.47 62.43"/><path class="e" d="M684,262.31l2.58-3.42.49-4.46-.42.39-.32.3,0,0-.38.35-3.09,2.88L681,260l-2.71,2.53-.22.21-1.61,1.5-.28.26-.61.57-.36.34-.5.46-.62.57-3.4,3.17-.53.49-.87.81-.09.09-.77.72-.52.49-2.12,2c1.18,2.51,2.11,4.53,2.11,4.53l8.15-6.49,1.28,4,7.56-4,3.34,6.49-.81-8.85Z" transform="translate(-0.32 -217.64)"/><path class="c" d="M715.61,296l1.6,14.27L711,299.31C713.65,301.05,715.17,299.86,715.61,296Z" transform="translate(-0.32 -217.64)"/><polygon class="c" points="697.15 85.34 698.76 99.61 692.51 88.68 697.15 85.34"/></svg>