<svg xmlns="http://www.w3.org/2000/svg" viewBox="0 0 15706.49 239.83"><defs><style>.a{fill:#93adbe;}.b{fill:#2f768f;}.c{fill:#fffbf4;}.d{fill:#fef3d7;}.e{fill:#529b8f;}.f{fill:#347e71;}.g{fill:#3b6c7e;}.h{fill:#4b888d;}.i{fill:#b2dcd4;}.j{fill:#a3c1bb;opacity:0.5;}.k{opacity:0.1;}.l{fill:#666;}.m{fill:#41897b;}.n{fill:#316476;}.o{fill:#0f2d59;}.p{fill:#132e5b;}.q{fill:#0e1011;opacity:0.2;}</style></defs><title>plan4</title><path class="a" d="M314.4,310.47l3.37-.19-82.82-71.57s-45,41.76-76.83,71.76Z" transform="translate(-158.11 -217.64)"/><path class="b" d="M224.18,310.47l-.28-16H213.56l10.26-20.09-3.4,2.18s1.79-9.24,2.05-9.34,6.79-3.77,6.79-3.77l3.06-5.68.45-1.06-.35-.58L229.73,249l5.41-6.42-.36-3.59c-3,2.76-45.94,42.51-76.67,71.51Z" transform="translate(-158.11 -217.64)"/><path class="c" d="M232.66,257l3.34,6.49,5.8-10.17,5,3.68,11.24,2h0l-23.13-20s-8.81,8.2-21.38,19.94c1.18,2.51,2.11,4.53,2.11,4.53l8.15-6.49,1.28,4Z" transform="translate(-158.11 -217.64)"/><path class="d" d="M234.78,239.16l-.42.39-.32.3,0,0-.38.35-3.09,2.88-1.78,1.66L226,247.3l-.22.21-1.61,1.5-.28.26-.61.57-.36.34-.5.46-.62.57-3.4,3.17-.53.49-.87.81-.09.09-.77.72-.52.49-2.12,2c1.18,2.51,2.11,4.53,2.11,4.53l8.15-6.49,1.28,4,7.56-4,.12-.28-.35-.59L229.73,249l5.41-6.42Z" transform="translate(-158.11 -217.64)"/><polygon class="a" points="47.2 67.84 47.2 72.3 42.56 71.17 47.2 67.84"/><polygon class="b" points="87.11 70.07 88.72 84.33 82.47 73.4 87.11 70.07"/><path class="b" d="M263.37,280.7,265,295,258.73,284C261.41,285.78,262.92,284.58,263.37,280.7Z" transform="translate(-158.11 -217.64)"/><path class="a" d="M2128.77,291.89c28.56,0,55.73.18,80.35.51l-78-66.76s-40,37.27-71.26,66.62C2081.36,292,2104.57,291.89,2128.77,291.89Z" transform="translate(-158.11 -217.64)"/><path class="b" d="M2120.25,291.8l-.18-10.33h-10.35L2120,261.19l-3.4,2.09s1.79-9.28,2.05-9.39,6.79-3.79,6.79-3.79l3.06-5.69.45-1.07-.35-.59-2.69-7.15,5.41-6.42-.36-3.4c-2.79,2.6-41,38.16-71.1,66.42C2078.82,292,2099.12,291.83,2120.25,291.8Z" transform="translate(-158.11 -217.64)"/><path class="c" d="M2128.83,243.63l3.34,6.49,5.8-10.17,5,3.68,11.24,2h0l-23.13-20s-8.81,8.2-21.38,19.94c1.18,2.51,2.11,4.53,2.11,4.53l8.15-6.49,1.28,4Z" transform="translate(-158.11 -217.64)"/><path class="d" d="M2131,225.79l-.42.39-.32.3,0,0-.38.35-3.09,2.88-1.78,1.66-2.71,2.53-.22.21-1.61,1.5-.28.26-.61.57-.36.34-.5.46-.62.57-3.4,3.17-.53.49-.87.81-.09.09-.77.72-.52.49-2.12,2c1.18,2.51,2.11,4.53,2.11,4.53l8.15-6.49,1.28,4,7.56-4,.12-.28-.35-.59-2.69-7.15,5.41-6.42Z" transform="translate(-158.11 -217.64)"/><polygon class="a" points="1943.2 54.47 1943.2 58.93 1938.56 57.81 1943.2 54.47"/><polygon class="b" points="1983.29 56.7 1984.89 70.97 1978.65 60.03 1983.29 56.7"/><path class="a" d="M2895,286.5c38.24,0,72.63,1.49,96.43,3.86l4.76-.5-83-72.22s-43.21,40.25-74.9,70C2855.37,286.92,2874.62,286.5,2895,286.5Z" transform="translate(-158.11 -217.64)"/><path class="b" d="M2895,286.5c2.46,0,4.9-.09,7.33-.08l-.22-13h-10.34L2902,253.19l-3.4,2.09s1.79-9.28,2.05-9.39,6.79-3.79,6.79-3.79l3.06-5.69.45-1.07-.35-.59-2.69-7.15,5.41-6.42-.36-3.4c-2.9,2.7-44.17,41.16-74.73,69.88C2855.37,286.92,2874.62,286.5,2895,286.5Z" transform="translate(-158.11 -217.64)"/><path class="c" d="M2910.83,235.63l3.34,6.49,5.8-10.17,5,3.68,11.24,2h0l-23.13-20s-8.81,8.2-21.38,19.94c1.18,2.51,2.11,4.53,2.11,4.53l8.15-6.49,1.28,4Z" transform="translate(-158.11 -217.64)"/><path class="d" d="M2913,217.79l-.42.39-.32.3,0,0-.38.35-3.09,2.88-1.78,1.66-2.71,2.53-.22.21-1.61,1.5-.28.26-.61.57-.36.34-.5.46-.62.57-3.4,3.17-.53.49-.87.81-.09.09-.77.72-.52.49-2.12,2c1.18,2.51,2.11,4.53,2.11,4.53l8.15-6.49,1.28,4,7.56-4,.12-.28-.35-.59-2.69-7.15,5.41-6.42Z" transform="translate(-158.11 -217.64)"/><polygon class="a" points="2725.2 46.47 2725.2 50.93 2720.56 49.81 2725.2 46.47"/><polygon class="b" points="2765.29 48.7 2766.89 62.97 2760.65 52.03 2765.29 48.7"/><path class="a" d="M3025,298.24c0,.09,0,.23,0,.23h106.79l2.61-.32-83.29-70.51s-36.05,33.58-66.45,62.1C3009.54,291.87,3025,294.89,3025,298.24Z" transform="translate(-158.11 -217.64)"/><path class="b" d="M3025,298.24c0,.09,0,.23,0,.23h15.32l-.25-15h-10.34L3040,263.19l-3.4,2.09s1.79-9.28,2.05-9.39,6.79-3.79,6.79-3.79l3.06-5.69.45-1.07-.35-.59-2.69-7.15,5.41-6.42-.36-3.4c-2.64,2.46-37.07,34.54-66.28,61.95C3009.54,291.87,3025,294.89,3025,298.24Z" transform="translate(-158.11 -217.64)"/><path class="c" d="M3048.83,245.63l3.34,6.49,5.8-10.17,5,3.68,11.24,2h0l-23.13-20s-8.81,8.2-21.38,19.94c1.18,2.51,2.11,4.53,2.11,4.53l8.15-6.49,1.28,4Z" transform="translate(-158.11 -217.64)"/><path class="d" d="M3051,227.79l-.42.39-.32.3,0,0-.38.35-3.09,2.88-1.78,1.66-2.71,2.53-.22.21-1.61,1.5-.28.26-.61.57-.36.34-.5.46-.62.57-3.4,3.17-.53.49-.87.81-.09.09-.77.72-.52.49-2.12,2c1.18,2.51,2.11,4.53,2.11,4.53l8.15-6.49,1.28,4,7.56-4,.12-.28-.35-.59-2.69-7.15,5.41-6.42Z" transform="translate(-158.11 -217.64)"/><polygon class="a" points="2863.2 56.47 2863.2 60.93 2858.56 59.81 2863.2 56.47"/><polygon class="b" points="2903.29 58.7 2904.89 72.97 2898.65 62.03 2903.29 58.7"/><path class="a" d="M3174.88,298.47c16-4.29,41.25-7.72,72.55-10.13l-67.31-57.7s-41.12,38.3-72.55,67.83Z" transform="translate(-158.11 -217.64)"/><path class="a" d="M3174.88,298.47q3.25-.87,7-1.69l-59.76-51.14s-28.76,26.79-56.56,52.83Z" transform="translate(-158.11 -217.64)"/><path class="b" d="M3102.34,298.47l8.65-17.18-3.4,2s1.79-9.31,2.05-9.41,6.79-3.8,6.79-3.8l3.06-5.7.45-1.07-.35-.59-2.69-7.15,5.41-6.42-.36-3.4c-2.35,2.19-29.81,27.77-56.4,52.68Z" transform="translate(-158.11 -217.64)"/><path class="c" d="M3119.83,263.63l3.34,6.49,5.8-10.17,5,3.68,11.24,2h0l-23.13-20s-8.81,8.2-21.38,19.94c1.18,2.51,2.11,4.53,2.11,4.53l8.15-6.49,1.28,4Z" transform="translate(-158.11 -217.64)"/><path class="d" d="M3122,245.79l-.42.39-.32.3,0,0-.38.35-3.09,2.88-1.78,1.66-2.71,2.53-.22.21-1.61,1.5-.28.26-.61.57-.36.34-.5.46-.62.57-3.4,3.17-.53.49-.87.81-.09.09-.77.72-.52.49-2.12,2c1.18,2.51,2.11,4.53,2.11,4.53l8.15-6.49,1.28,4,7.56-4,.12-.28-.35-.59-2.69-7.15,5.41-6.42Z" transform="translate(-158.11 -217.64)"/><polygon class="a" points="2934.2 74.47 2934.2 78.93 2929.56 77.81 2934.2 74.47"/><polygon class="b" points="2974.29 76.7 2975.89 90.97 2969.65 80.03 2974.29 76.7"/><path class="b" d="M3169.28,298.47l-.2-12h-10.34L3169,266.19l-3.4,2.09s1.79-9.28,2.05-9.39,6.79-3.79,6.79-3.79l3.06-5.69.45-1.07-.35-.59-2.69-7.15,5.41-6.42-.36-3.4c-2.83,2.63-42.1,39.23-72.39,67.68Z" transform="translate(-158.11 -217.64)"/><path class="c" d="M3177.83,248.63l3.34,6.49,5.8-10.17,5,3.68,11.24,2h0l-23.13-20s-8.81,8.2-21.38,19.94c1.18,2.51,2.11,4.53,2.11,4.53l8.15-6.49,1.28,4Z" transform="translate(-158.11 -217.64)"/><path class="d" d="M3180,230.79l-.42.39-.32.3,0,0-.38.35-3.09,2.88-1.78,1.66-2.71,2.53-.22.21-1.61,1.5-.28.26-.61.57-.36.34-.5.46-.62.57-3.4,3.17-.53.49-.87.81-.09.09-.77.72-.52.49-2.12,2c1.18,2.51,2.11,4.53,2.11,4.53l8.15-6.49,1.28,4,7.56-4,.12-.28-.35-.59-2.69-7.15,5.41-6.42Z" transform="translate(-158.11 -217.64)"/><polygon class="a" points="2992.2 59.47 2992.2 63.93 2987.56 62.81 2992.2 59.47"/><polygon class="b" points="3032.29 61.7 3033.89 75.97 3027.65 65.03 3032.29 61.7"/><path class="a" d="M3506.89,289.84l-57.77-50.2s-23.2,21.61-48.06,44.88C3441.1,285.16,3477.47,287,3506.89,289.84Z" transform="translate(-158.11 -217.64)"/><path class="b" d="M3432.88,285.3l5.11-10.11-3.4,2.09s1.79-9.28,2.05-9.39,6.79-3.79,6.79-3.79l3.06-5.69.45-1.07-.35-.59-2.69-7.15,5.41-6.42-.36-3.4c-2.1,2-24.24,22.59-47.9,44.72C3412,284.69,3422.59,285,3432.88,285.3Z" transform="translate(-158.11 -217.64)"/><path class="c" d="M3446.83,257.63l3.34,6.49,5.8-10.17,5,3.68,11.24,2h0l-23.13-20s-8.81,8.2-21.38,19.94c1.18,2.51,2.11,4.53,2.11,4.53l8.15-6.49,1.28,4Z" transform="translate(-158.11 -217.64)"/><path class="d" d="M3449,239.79l-.42.39-.32.3,0,0-.38.35-3.09,2.88-1.78,1.66-2.71,2.53-.22.21-1.61,1.5-.28.26-.61.57-.36.34-.5.46-.62.57-3.4,3.17-.53.49-.87.81-.09.09-.77.72-.52.49-2.12,2c1.18,2.51,2.11,4.53,2.11,4.53l8.15-6.49,1.28,4,7.56-4,.12-.28-.35-.59-2.69-7.15,5.41-6.42Z" transform="translate(-158.11 -217.64)"/><path class="a" d="M3562.07,298.47h45.78l-81.73-70.83s-33.48,31.19-63.11,59C3506.59,289,3541.72,293,3562.07,298.47Z" transform="translate(-158.11 -217.64)"/><path class="b" d="M3515.2,290.6l-.12-7.13h-10.34L3515,263.19l-3.4,2.09s1.79-9.28,2.05-9.39,6.79-3.79,6.79-3.79l3.06-5.69.45-1.07-.35-.59-2.69-7.15,5.41-6.42-.36-3.4c-2.54,2.37-34.52,32.11-62.95,58.77C3482.23,287.6,3499.81,288.93,3515.2,290.6Z" transform="translate(-158.11 -217.64)"/><path class="c" d="M3523.83,245.63l3.34,6.49,5.8-10.17,5,3.68,11.24,2h0l-23.13-20s-8.81,8.2-21.38,19.94c1.18,2.51,2.11,4.53,2.11,4.53l8.15-6.49,1.28,4Z" transform="translate(-158.11 -217.64)"/><path class="d" d="M3526,227.79l-.42.39-.32.3,0,0-.38.35-3.09,2.88-1.78,1.66-2.71,2.53-.22.21-1.61,1.5-.28.26-.61.57-.36.34-.5.46-.62.57-3.4,3.17-.53.49-.87.81-.09.09-.77.72-.52.49-2.12,2c1.18,2.51,2.11,4.53,2.11,4.53l8.15-6.49,1.28,4,7.56-4,.12-.28-.35-.59-2.69-7.15,5.41-6.42Z" transform="translate(-158.11 -217.64)"/><polygon class="b" points="3378.29 58.7 3379.89 72.97 3373.65 62.03 3378.29 58.7"/><path class="a" d="M3562.07,298.47H3691l-80.89-69.83s-38.87,36.21-69.92,65.36C3548.68,295.36,3556,296.85,3562.07,298.47Z" transform="translate(-158.11 -217.64)"/><path class="b" d="M3562.07,298.47h37.25l-.24-14h-10.34L3599,264.19l-3.4,2.09s1.79-9.28,2.05-9.39,6.79-3.79,6.79-3.79l3.06-5.69.45-1.07-.35-.59-2.69-7.15,5.41-6.42-.36-3.4c-2.75,2.56-39.88,37.15-69.75,65.21C3548.68,295.36,3556,296.85,3562.07,298.47Z" transform="translate(-158.11 -217.64)"/><path class="c" d="M3607.83,246.63l3.34,6.49,5.8-10.17,5,3.68,11.24,2h0l-23.13-20s-8.81,8.2-21.38,19.94c1.18,2.51,2.11,4.53,2.11,4.53l8.15-6.49,1.28,4Z" transform="translate(-158.11 -217.64)"/><path class="d" d="M3610,228.79l-.42.39-.32.3,0,0-.38.35-3.09,2.88-1.78,1.66-2.71,2.53-.22.21-1.61,1.5-.28.26-.61.57-.36.34-.5.46-.62.57-3.4,3.17-.53.49-.87.81-.09.09-.77.72-.52.49-2.12,2c1.18,2.51,2.11,4.53,2.11,4.53l8.15-6.49,1.28,4,7.56-4,.12-.28-.35-.59-2.69-7.15,5.41-6.42Z" transform="translate(-158.11 -217.64)"/><polygon class="b" points="3462.29 59.7 3463.89 73.97 3457.65 63.03 3462.29 59.7"/><path class="a" d="M4517.26,298.47l-68.15-58.83s-33.37,31.08-63,58.83Z" transform="translate(-158.11 -217.64)"/><path class="b" d="M4438.13,298.47l0-3h-10.34L4438,275.19l-3.4,2.09s1.79-9.28,2.05-9.39,6.79-3.79,6.79-3.79l3.06-5.69.45-1.07-.35-.59-2.69-7.15,5.41-6.42-.36-3.4c-2.54,2.36-34.4,32.05-62.8,58.68Z" transform="translate(-158.11 -217.64)"/><path class="c" d="M4446.83,257.63l3.34,6.49,5.8-10.17,5,3.68,11.24,2h0l-23.13-20s-8.81,8.2-21.38,19.94c1.18,2.51,2.11,4.53,2.11,4.53l8.15-6.49,1.28,4Z" transform="translate(-158.11 -217.64)"/><path class="d" d="M4449,239.79l-.42.39-.32.3,0,0-.38.35-3.09,2.88-1.78,1.66-2.71,2.53-.22.21-1.61,1.5-.28.26-.61.57-.36.34-.5.46-.62.57-3.4,3.17-.53.49-.87.81-.09.09-.77.72-.52.49-2.12,2c1.18,2.51,2.11,4.53,2.11,4.53l8.15-6.49,1.28,4,7.56-4,.12-.28-.35-.59-2.69-7.15,5.41-6.42Z" transform="translate(-158.11 -217.64)"/><polygon class="b" points="4301.29 70.7 4302.89 84.97 4296.65 74.03 4301.29 70.7"/><path class="a" d="M4599.48,298.47s0-.15,0-.24c0-3.39,16-6.43,41.63-8.57l-80-69s-51.39,47.87-83.18,77.83Z" transform="translate(-158.11 -217.64)"/><path class="b" d="M4550.45,298.47l-.37-22h-10.34L4550,256.19l-3.4,2.09s1.79-9.28,2.05-9.39,6.79-3.79,6.79-3.79l3.06-5.69.45-1.07-.35-.59-2.69-7.15,5.41-6.42-.36-3.4c-3.17,3-52.26,48.69-83,77.68Z" transform="translate(-158.11 -217.64)"/><path class="c" d="M4558.83,238.63l3.34,6.49,5.8-10.17,5,3.68,11.24,2h0l-23.13-20s-8.81,8.2-21.38,19.94c1.18,2.51,2.11,4.53,2.11,4.53l8.15-6.49,1.28,4Z" transform="translate(-158.11 -217.64)"/><path class="d" d="M4561,220.79l-.42.39-.32.3,0,0-.38.35-3.09,2.88-1.78,1.66-2.71,2.53-.22.21-1.61,1.5-.28.26-.61.57-.36.34-.5.46-.62.57-3.4,3.17-.53.49-.87.81-.09.09-.77.72-.52.49-2.12,2c1.18,2.51,2.11,4.53,2.11,4.53l8.15-6.49,1.28,4,7.56-4,.12-.28-.35-.59-2.69-7.15,5.41-6.42Z" transform="translate(-158.11 -217.64)"/><polygon class="b" points="4413.29 51.7 4414.89 65.97 4408.65 55.03 4413.29 51.7"/><path class="a" d="M4730.71,286.5c8.08,0,16,.07,23.66.19l-67.25-58.06S4650,263.24,4619.31,292C4642.49,288.7,4683.71,286.5,4730.71,286.5Z" transform="translate(-158.11 -217.64)"/><path class="b" d="M4676.13,287.47l0-3h-10.34L4676,264.19l-3.4,2.09s1.79-9.28,2.05-9.39,6.79-3.79,6.79-3.79l3.06-5.69.45-1.07-.35-.59-2.69-7.15,5.41-6.42-.36-3.4c-2.68,2.5-38.16,35.51-67.65,63.18C4632.88,290,4652.64,288.42,4676.13,287.47Z" transform="translate(-158.11 -217.64)"/><path class="c" d="M4684.83,246.63l3.34,6.49,5.8-10.17,5,3.68,11.24,2h0l-23.13-20s-8.81,8.2-21.38,19.94c1.18,2.51,2.11,4.53,2.11,4.53l8.15-6.49,1.28,4Z" transform="translate(-158.11 -217.64)"/><path class="d" d="M4687,228.79l-.42.39-.32.3,0,0-.38.35-3.09,2.88-1.78,1.66-2.71,2.53-.22.21-1.61,1.5-.28.26-.61.57-.36.34-.5.46-.62.57-3.4,3.17-.53.49-.87.81-.09.09-.77.72-.52.49-2.12,2c1.18,2.51,2.11,4.53,2.11,4.53l8.15-6.49,1.28,4,7.56-4,.12-.28-.35-.59-2.69-7.15,5.41-6.42Z" transform="translate(-158.11 -217.64)"/><polygon class="b" points="4539.29 59.7 4540.89 73.97 4534.65 63.03 4539.29 59.7"/><path class="a" d="M5784,298.47l-80.89-69.83s-43,40.06-74.68,69.83Z" transform="translate(-158.11 -217.64)"/><path class="b" d="M5692.32,298.47l-.24-14h-10.34L5692,264.19l-3.4,2.09s1.79-9.28,2.05-9.39,6.79-3.79,6.79-3.79l3.06-5.69.45-1.07-.35-.59-2.69-7.15,5.41-6.42-.36-3.4c-2.89,2.7-44,41-74.51,69.68Z" transform="translate(-158.11 -217.64)"/><path class="c" d="M5700.83,246.63l3.34,6.49,5.8-10.17,5,3.68,11.24,2h0l-23.13-20s-8.81,8.2-21.38,19.94c1.18,2.51,2.11,4.53,2.11,4.53l8.15-6.49,1.28,4Z" transform="translate(-158.11 -217.64)"/><path class="d" d="M5703,228.79l-.42.39-.32.3,0,0-.38.35-3.09,2.88-1.78,1.66-2.71,2.53-.22.21-1.61,1.5-.28.26-.61.57-.36.34-.5.46-.62.57-3.4,3.17-.53.49-.87.81-.09.09-.77.72-.52.49-2.12,2c1.18,2.51,2.11,4.53,2.11,4.53l8.15-6.49,1.28,4,7.56-4,.12-.28-.35-.59-2.69-7.15,5.41-6.42Z" transform="translate(-158.11 -217.64)"/><polygon class="b" points="5555.29 59.7 5556.89 73.97 5550.65 63.03 5555.29 59.7"/><path class="a" d="M5800.48,298.47s0-.15,0-.24c0-4.41,27.2-8.25,67.41-10.25l-68.74-59.34s-43,40.06-74.68,69.83Z" transform="translate(-158.11 -217.64)"/><path class="b" d="M5788.32,298.47l-.24-14h-10.35L5788,264.19l-3.4,2.09s1.79-9.28,2.05-9.39,6.79-3.79,6.79-3.79l3.06-5.69.45-1.07-.35-.59-2.69-7.15,5.41-6.42-.36-3.4c-2.89,2.7-44,41-74.52,69.68Z" transform="translate(-158.11 -217.64)"/><path class="c" d="M5796.83,246.63l3.34,6.49,5.8-10.17,5,3.68,11.24,2h0l-23.13-20s-8.81,8.2-21.38,19.94c1.18,2.51,2.11,4.53,2.11,4.53l8.15-6.49,1.28,4Z" transform="translate(-158.11 -217.64)"/><path class="d" d="M5799,228.79l-.42.39-.32.3,0,0-.38.35-3.09,2.88-1.78,1.66-2.71,2.53-.22.21-1.61,1.5-.28.26-.61.57-.36.34-.5.46-.62.57-3.4,3.17-.53.49-.87.81-.09.09-.77.72-.52.49-2.12,2c1.18,2.51,2.11,4.53,2.11,4.53l8.15-6.49,1.28,4,7.56-4,.12-.28-.35-.59-2.69-7.15,5.41-6.42Z" transform="translate(-158.11 -217.64)"/><polygon class="b" points="5651.29 59.7 5652.89 73.97 5646.65 63.03 5651.29 59.7"/><path class="a" d="M6872.25,311.23l7.55-.63-85.68-74s-47.85,44.57-79.77,74.62Z" transform="translate(-158.11 -217.64)"/><path class="b" d="M6783.4,311.15l-.32-18.68h-10.35L6783,272.19l-3.4,2.09s1.79-9.28,2.05-9.39,6.79-3.79,6.79-3.79l3.06-5.69.45-1.07-.35-.59-2.69-7.15,5.41-6.42-.36-3.4c-3.06,2.85-48.76,45.39-79.6,74.42Q6748.66,311.2,6783.4,311.15Z" transform="translate(-158.11 -217.64)"/><path class="c" d="M6791.83,254.63l3.34,6.49,5.8-10.17,5,3.68,11.24,2h0l-23.13-20s-8.81,8.2-21.38,19.94c1.18,2.51,2.11,4.53,2.11,4.53l8.15-6.49,1.28,4Z" transform="translate(-158.11 -217.64)"/><path class="d" d="M6794,236.79l-.42.39-.32.3,0,0-.38.35-3.09,2.88-1.78,1.66-2.71,2.53-.22.21-1.61,1.5-.28.26-.61.57-.36.34-.5.46-.62.57-3.4,3.17-.53.49-.87.81-.09.09-.77.72-.52.49-2.12,2c1.18,2.51,2.11,4.53,2.11,4.53l8.15-6.49,1.28,4,7.56-4,.12-.28-.35-.59-2.69-7.15,5.41-6.42Z" transform="translate(-158.11 -217.64)"/><polygon class="b" points="6646.29 67.7 6647.89 81.97 6641.65 71.03 6646.29 67.7"/><path class="a" d="M6897.32,298.47h92.78a1.06,1.06,0,0,1,.19-.16l-84.18-72.67s-46,42.84-77.87,72.83Z" transform="translate(-158.11 -217.64)"/><path class="b" d="M6906,225.79c-3.18,3-52.43,48.85-83.17,77.83l72.74,4-.44-26h-10.35L6895,261.29l-3.4,2s1.79-9.31,2.05-9.41,6.79-3.8,6.79-3.8l3.06-5.7.45-1.07-.35-.59-2.69-7.15,5.41-6.42Z" transform="translate(-158.11 -217.64)"/><path class="c" d="M6903.83,243.63l3.34,6.49,5.8-10.17,5,3.68,11.24,2h0l-23.13-20s-8.81,8.2-21.38,19.94c1.18,2.51,2.11,4.53,2.11,4.53l8.15-6.49,1.28,4Z" transform="translate(-158.11 -217.64)"/><path class="d" d="M6906,225.79l-.42.39-.32.3,0,0-.38.35-3.09,2.88-1.78,1.66-2.71,2.53-.22.21-1.61,1.5-.28.26-.61.57-.36.34-.5.46-.62.57-3.4,3.17-.53.49-.87.81-.09.09-.77.72-.52.49-2.12,2c1.18,2.51,2.11,4.53,2.11,4.53l8.15-6.49,1.28,4,7.56-4,.12-.28-.35-.59-2.69-7.15,5.41-6.42Z" transform="translate(-158.11 -217.64)"/><polygon class="b" points="6758.29 56.7 6759.89 70.97 6753.65 60.03 6758.29 56.7"/><path class="a" d="M6928.45,311.23l-77.33-66.83s-40.29,37.47-71.59,66.85Z" transform="translate(-158.11 -217.64)"/><path class="b" d="M6840.26,311.24l-.19-10.77h-10.35L6840,280.19l-3.4,2.09s1.79-9.28,2.05-9.39,6.79-3.79,6.79-3.79l3.06-5.69.45-1.07-.35-.59-2.69-7.15,5.41-6.42-.36-3.56c-2.8,2.61-41.27,38.34-71.42,66.62Z" transform="translate(-158.11 -217.64)"/><path class="c" d="M6848.83,262.63l3.34,6.49,5.8-10.17,5,3.68,11.24,2h0l-23.13-20s-8.81,8.2-21.38,19.94c1.18,2.51,2.11,4.53,2.11,4.53l8.15-6.49,1.28,4Z" transform="translate(-158.11 -217.64)"/><path class="d" d="M6851,244.79l-.42.39-.32.3,0,0-.38.35-3.09,2.88-1.78,1.66-2.71,2.53-.22.21-1.61,1.5-.28.26-.61.57-.36.34-.5.46-.62.57-3.4,3.17-.53.49-.87.81-.09.09-.77.72-.52.49-2.12,2c1.18,2.51,2.11,4.53,2.11,4.53l8.15-6.49,1.28,4,7.56-4,.12-.28-.35-.59-2.69-7.15,5.41-6.42Z" transform="translate(-158.11 -217.64)"/><polygon class="b" points="6703.29 75.7 6704.89 89.97 6698.65 79.03 6703.29 75.7"/><path class="a" d="M6537.84,295.33l-80.72-69.69s-39.73,37-70.93,66.31C6451.91,292.21,6507.66,293.43,6537.84,295.33Z" transform="translate(-158.11 -217.64)"/><path class="b" d="M6446.26,292.4l-.19-10.93h-10.35L6446,261.19l-3.4,2.09s1.79-9.28,2.05-9.39,6.79-3.79,6.79-3.79l3.06-5.69.45-1.07-.35-.59-2.69-7.15,5.41-6.42-.36-3.4c-2.78,2.59-40.72,37.89-70.77,66.11C6407.43,292,6427.63,292.12,6446.26,292.4Z" transform="translate(-158.11 -217.64)"/><path class="c" d="M6454.83,243.63l3.34,6.49,5.8-10.17,5,3.68,11.24,2h0l-23.13-20s-8.81,8.2-21.38,19.94c1.18,2.51,2.11,4.53,2.11,4.53l8.15-6.49,1.28,4Z" transform="translate(-158.11 -217.64)"/><path class="d" d="M6457,225.79l-.42.39-.32.3,0,0-.38.35-3.09,2.88-1.78,1.66-2.71,2.53-.22.21-1.61,1.5-.28.26-.61.57-.36.34-.5.46-.62.57-3.4,3.17-.53.49-.87.81-.09.09-.77.72-.52.49-2.12,2c1.18,2.51,2.11,4.53,2.11,4.53l8.15-6.49,1.28,4,7.56-4,.12-.28-.35-.59-2.69-7.15,5.41-6.42Z" transform="translate(-158.11 -217.64)"/><polygon class="b" points="6309.29 56.7 6310.89 70.97 6304.65 60.03 6309.29 56.7"/><path class="a" d="M6358.5,291.89c44.43,0,85.53.42,119,1.18l-65.37-56.44s-30.57,28.48-59.15,55.26Z" transform="translate(-158.11 -217.64)"/><path class="b" d="M6358.5,291.89c11.09,0,22,0,32.58.08l9.91-19.68-3.4,2s1.79-9.31,2.05-9.41,6.79-3.8,6.79-3.8l3.06-5.7.45-1.07-.35-.59-2.69-7.15,5.41-6.42-.36-3.4c-2.42,2.26-31.62,29.46-59,55.1Z" transform="translate(-158.11 -217.64)"/><path class="c" d="M6409.83,254.63l3.34,6.49,5.8-10.17,5,3.68,11.24,2h0l-23.13-20s-8.81,8.2-21.38,19.94c1.18,2.51,2.11,4.53,2.11,4.53l8.15-6.49,1.28,4Z" transform="translate(-158.11 -217.64)"/><path class="d" d="M6412,236.79l-.42.39-.32.3,0,0-.38.35-3.09,2.88-1.78,1.66-2.71,2.53-.22.21-1.61,1.5-.28.26-.61.57-.36.34-.5.46-.62.57-3.4,3.17-.53.49-.87.81-.09.09-.77.72-.52.49-2.12,2c1.18,2.51,2.11,4.53,2.11,4.53l8.15-6.49,1.28,4,7.56-4,.12-.28-.35-.59-2.69-7.15,5.41-6.42Z" transform="translate(-158.11 -217.64)"/><polygon class="b" points="6264.29 67.7 6265.89 81.97 6259.65 71.03 6264.29 67.7"/><path class="a" d="M6063,298.24c0,.09,0,.23,0,.23h92.16c1.36-1.48,14.55-2.77,36.23-3.8l-67.21-58s-33.8,31.48-63.53,59.36C6062.15,296.72,6063,297.47,6063,298.24Z" transform="translate(-158.11 -217.64)"/><path class="b" d="M6063,298.24c0,.09,0,.23,0,.23h50.24l-.1-6h-10.35L6113,272.19l-3.4,2.09s1.79-9.28,2.05-9.39,6.79-3.79,6.79-3.79l3.06-5.69.45-1.07-.35-.59-2.69-7.15,5.41-6.42-.36-3.4c-2.55,2.38-34.83,32.45-63.37,59.21C6062.15,296.72,6063,297.47,6063,298.24Z" transform="translate(-158.11 -217.64)"/><path class="c" d="M6121.83,254.63l3.34,6.49,5.8-10.17,5,3.68,11.24,2h0l-23.13-20s-8.81,8.2-21.38,19.94c1.18,2.51,2.11,4.53,2.11,4.53l8.15-6.49,1.28,4Z" transform="translate(-158.11 -217.64)"/><path class="d" d="M6124,236.79l-.42.39-.32.3,0,0-.38.35-3.09,2.88-1.78,1.66-2.71,2.53-.22.21-1.61,1.5-.28.26-.61.57-.36.34-.5.46-.62.57-3.4,3.17-.53.49-.87.81-.09.09-.77.72-.52.49-2.12,2c1.18,2.51,2.11,4.53,2.11,4.53l8.15-6.49,1.28,4,7.56-4,.12-.28-.35-.59-2.69-7.15,5.41-6.42Z" transform="translate(-158.11 -217.64)"/><polygon class="b" points="5976.29 67.7 5977.89 81.97 5971.65 71.03 5976.29 67.7"/><path class="a" d="M7396.89,298.47h93.32l-75.09-64.83s-34.78,32.4-64.82,60.58C7378.1,295.31,7395.33,296.76,7396.89,298.47Z" transform="translate(-158.11 -217.64)"/><path class="b" d="M7396.89,298.47h7.34l-.15-9h-10.35L7404,269.19l-3.4,2.09s1.79-9.28,2.05-9.39,6.79-3.79,6.79-3.79l3.06-5.69.45-1.07-.35-.59-2.69-7.15,5.41-6.42-.36-3.4c-2.59,2.41-35.81,33.37-64.66,60.42C7378.1,295.31,7395.33,296.76,7396.89,298.47Z" transform="translate(-158.11 -217.64)"/><path class="c" d="M7412.83,251.63l3.34,6.49,5.8-10.17,5,3.68,11.24,2h0l-23.13-20s-8.81,8.2-21.38,19.94c1.18,2.51,2.11,4.53,2.11,4.53l8.15-6.49,1.28,4Z" transform="translate(-158.11 -217.64)"/><path class="d" d="M7415,233.79l-.42.39-.32.3,0,0-.38.35-3.09,2.88-1.78,1.66-2.71,2.53-.22.21-1.61,1.5-.28.26-.61.57-.36.34-.5.46-.62.57-3.4,3.17-.53.49-.87.81-.09.09-.77.72-.52.49-2.12,2c1.18,2.51,2.11,4.53,2.11,4.53l8.15-6.49,1.28,4,7.56-4,.12-.28-.35-.59-2.69-7.15,5.41-6.42Z" transform="translate(-158.11 -217.64)"/><polygon class="b" points="7267.29 64.7 7268.89 78.97 7262.65 68.03 7267.29 64.7"/><path class="a" d="M7396.89,298.47h35.27l-82-70.83s-38.42,35.79-69.38,64.85C7347.52,293.47,7394.27,295.6,7396.89,298.47Z" transform="translate(-158.11 -217.64)"/><path class="b" d="M7339.25,293.72l-.17-10.25h-10.35L7339,263.19l-3.4,2.09s1.79-9.28,2.05-9.39,6.79-3.79,6.79-3.79l3.06-5.69.45-1.07-.35-.59-2.69-7.15,5.41-6.42-.36-3.4c-2.73,2.54-39.43,36.69-69.21,64.65C7302.7,292.76,7322.48,293.16,7339.25,293.72Z" transform="translate(-158.11 -217.64)"/><path class="c" d="M7347.83,245.63l3.34,6.49,5.8-10.17,5,3.68,11.24,2h0l-23.13-20s-8.81,8.2-21.38,19.94c1.18,2.51,2.11,4.53,2.11,4.53l8.15-6.49,1.28,4Z" transform="translate(-158.11 -217.64)"/><path class="d" d="M7350,227.79l-.42.39-.32.3,0,0-.38.35-3.09,2.88-1.78,1.66-2.71,2.53-.22.21-1.61,1.5-.28.26-.61.57-.36.34-.5.46-.62.57-3.4,3.17-.53.49-.87.81-.09.09-.77.72-.52.49-2.12,2c1.18,2.51,2.11,4.53,2.11,4.53l8.15-6.49,1.28,4,7.56-4,.12-.28-.35-.59-2.69-7.15,5.41-6.42Z" transform="translate(-158.11 -217.64)"/><polygon class="b" points="7202.29 58.7 7203.89 72.97 7197.65 62.03 7202.29 58.7"/><path class="a" d="M7359.86,294.63l-56.74-49s-24.3,22.64-49.82,46.52C7296.85,292.57,7334.17,293.42,7359.86,294.63Z" transform="translate(-158.11 -217.64)"/><path class="b" d="M7286.31,292.57l5.68-11.28-3.4,2s1.79-9.31,2.05-9.41,6.79-3.8,6.79-3.8l3.06-5.7.45-1.07-.35-.59-2.69-7.15,5.41-6.42-.36-3.4c-2.15,2-25.35,23.62-49.66,46.37C7264.77,292.27,7275.8,292.4,7286.31,292.57Z" transform="translate(-158.11 -217.64)"/><path class="c" d="M7300.83,263.63l3.34,6.49,5.8-10.17,5,3.68,11.24,2h0l-23.13-20s-8.81,8.2-21.38,19.94c1.18,2.51,2.11,4.53,2.11,4.53l8.15-6.49,1.28,4Z" transform="translate(-158.11 -217.64)"/><path class="d" d="M7303,245.79l-.42.39-.32.3,0,0-.38.35-3.09,2.88-1.78,1.66-2.71,2.53-.22.21-1.61,1.5-.28.26-.61.57-.36.34-.5.46-.62.57-3.4,3.17-.53.49-.87.81-.09.09-.77.72-.52.49-2.12,2c1.18,2.51,2.11,4.53,2.11,4.53l8.15-6.49,1.28,4,7.56-4,.12-.28-.35-.59-2.69-7.15,5.41-6.42Z" transform="translate(-158.11 -217.64)"/><path class="a" d="M7541.42,311.15l-64.3-55.51s-30.78,28.67-59.43,55.53Z" transform="translate(-158.11 -217.64)"/><path class="b" d="M7456,311.16l10-19.87-3.4,2s1.79-9.31,2.05-9.41,6.79-3.8,6.79-3.8l3.06-5.7.45-1.07-.35-.59-2.69-7.15,5.41-6.42-.36-3.4c-2.43,2.27-31.83,29.65-59.27,55.37Z" transform="translate(-158.11 -217.64)"/><path class="c" d="M7474.83,273.63l3.34,6.49,5.8-10.17,5,3.68,11.24,2h0l-23.13-20s-8.81,8.2-21.38,19.94c1.18,2.51,2.11,4.53,2.11,4.53l8.15-6.49,1.28,4Z" transform="translate(-158.11 -217.64)"/><path class="d" d="M7477,255.79l-.42.39-.32.3,0,0-.38.35-3.09,2.88-1.78,1.66-2.71,2.53-.22.21-1.61,1.5-.28.26-.61.57-.36.34-.5.46-.62.57-3.4,3.17-.53.49-.87.81-.09.09-.77.72-.52.49-2.12,2c1.18,2.51,2.11,4.53,2.11,4.53l8.15-6.49,1.28,4,7.56-4,.12-.28-.35-.59-2.69-7.15,5.41-6.42Z" transform="translate(-158.11 -217.64)"/><path class="a" d="M7881.74,311.1l-81.62-70.46s-43.64,40.65-75.37,70.49Z" transform="translate(-158.11 -217.64)"/><path class="b" d="M7789.33,311l-.25-14.55h-10.35L7789,276.19l-3.4,2.09s1.79-9.28,2.05-9.39,6.79-3.79,6.79-3.79l3.06-5.69.45-1.07-.35-.59-2.69-7.15,5.41-6.42-.36-3.4c-2.92,2.72-44.61,41.51-75.21,70.29Q7756.92,311.07,7789.33,311Z" transform="translate(-158.11 -217.64)"/><path class="c" d="M7797.83,258.63l3.34,6.49,5.8-10.17,5,3.68,11.24,2h0l-23.13-20s-8.81,8.2-21.38,19.94c1.18,2.51,2.11,4.53,2.11,4.53l8.15-6.49,1.28,4Z" transform="translate(-158.11 -217.64)"/><path class="d" d="M7800,240.79l-.42.39-.32.3,0,0-.38.35-3.09,2.88-1.78,1.66-2.71,2.53-.22.21-1.61,1.5-.28.26-.61.57-.36.34-.5.46-.62.57-3.4,3.17-.53.49-.87.81-.09.09-.77.72-.52.49-2.12,2c1.18,2.51,2.11,4.53,2.11,4.53l8.15-6.49,1.28,4,7.56-4,.12-.28-.35-.59-2.69-7.15,5.41-6.42Z" transform="translate(-158.11 -217.64)"/><polygon class="b" points="7652.29 71.7 7653.89 85.97 7647.65 75.03 7652.29 71.7"/><path class="a" d="M8157.27,311.07l5.53-.46-85.68-74s-47.67,44.4-79.59,74.45Z" transform="translate(-158.11 -217.64)"/><path class="b" d="M8066.39,311l-.32-18.51h-10.35L8066,272.19l-3.4,2.09s1.79-9.28,2.05-9.39,6.79-3.79,6.79-3.79l3.06-5.69.45-1.07-.35-.59-2.69-7.15,5.41-6.42-.36-3.4c-3.05,2.84-48.59,45.22-79.42,74.25Q8031.84,311,8066.39,311Z" transform="translate(-158.11 -217.64)"/><path class="c" d="M8074.83,254.63l3.34,6.49,5.8-10.17,5,3.68,11.24,2h0l-23.13-20s-8.81,8.2-21.38,19.94c1.18,2.51,2.11,4.53,2.11,4.53l8.15-6.49,1.28,4Z" transform="translate(-158.11 -217.64)"/><path class="d" d="M8077,236.79l-.42.39-.32.3,0,0-.38.35-3.09,2.88-1.78,1.66-2.71,2.53-.22.21-1.61,1.5-.28.26-.61.57-.36.34-.5.46-.62.57-3.4,3.17-.53.49-.87.81-.09.09-.77.72-.52.49-2.12,2c1.18,2.51,2.11,4.53,2.11,4.53l8.15-6.49,1.28,4,7.56-4,.12-.28-.35-.59-2.69-7.15,5.41-6.42Z" transform="translate(-158.11 -217.64)"/><polygon class="b" points="7929.29 67.7 7930.89 81.97 7924.65 71.03 7929.29 67.7"/><path class="a" d="M8301.5,291.89c33.45,0,65,.24,92.84.68l-75.22-64.93s-38.07,35.46-68.95,64.45C8266.57,292,8283.76,291.89,8301.5,291.89Z" transform="translate(-158.11 -217.64)"/><path class="b" d="M8301.5,291.89c2.25,0,4.49-.09,6.72-.09l-.14-8.33h-10.35L8308,263.19l-3.4,2.09s1.79-9.28,2.05-9.39,6.79-3.79,6.79-3.79l3.06-5.69.45-1.07-.35-.59-2.69-7.15,5.41-6.42-.36-3.4c-2.72,2.53-39.08,36.41-68.79,64.3C8266.57,292,8283.76,291.89,8301.5,291.89Z" transform="translate(-158.11 -217.64)"/><path class="c" d="M8316.83,245.63l3.34,6.49,5.8-10.17,5,3.68,11.24,2h0l-23.13-20s-8.81,8.2-21.38,19.94c1.18,2.51,2.11,4.53,2.11,4.53l8.15-6.49,1.28,4Z" transform="translate(-158.11 -217.64)"/><path class="d" d="M8319,227.79l-.42.39-.32.3,0,0-.38.35-3.09,2.88-1.78,1.66-2.71,2.53-.22.21-1.61,1.5-.28.26-.61.57-.36.34-.5.46-.62.57-3.4,3.17-.53.49-.87.81-.09.09-.77.72-.52.49-2.12,2c1.18,2.51,2.11,4.53,2.11,4.53l8.15-6.49,1.28,4,7.56-4,.12-.28-.35-.59-2.69-7.15,5.41-6.42Z" transform="translate(-158.11 -217.64)"/><polygon class="b" points="8171.29 58.7 8172.89 72.97 8166.65 62.03 8171.29 58.7"/><path class="a" d="M8504.89,298.47h96.53l-69.3-59.83s-31.29,29.15-60.14,56.19C8491.68,295.83,8503.61,297.06,8504.89,298.47Z" transform="translate(-158.11 -217.64)"/><path class="b" d="M8504.89,298.47h16.25l-.07-4h-10.35L8521,274.19l-3.4,2.09s1.79-9.28,2.05-9.39,6.79-3.79,6.79-3.79l3.06-5.69.45-1.07-.35-.59-2.69-7.15,5.41-6.42-.36-3.4c-2.45,2.29-32.33,30.13-60,56C8491.68,295.83,8503.61,297.06,8504.89,298.47Z" transform="translate(-158.11 -217.64)"/><path class="c" d="M8529.83,256.63l3.34,6.49,5.8-10.17,5,3.68,11.24,2h0l-23.13-20s-8.81,8.2-21.38,19.94c1.18,2.51,2.11,4.53,2.11,4.53l8.15-6.49,1.28,4Z" transform="translate(-158.11 -217.64)"/><path class="d" d="M8532,238.79l-.42.39-.32.3,0,0-.38.35-3.09,2.88-1.78,1.66-2.71,2.53-.22.21-1.61,1.5-.28.26-.61.57-.36.34-.5.46-.62.57-3.4,3.17-.53.49-.87.81-.09.09-.77.72-.52.49-2.12,2c1.18,2.51,2.11,4.53,2.11,4.53l8.15-6.49,1.28,4,7.56-4,.12-.28-.35-.59-2.69-7.15,5.41-6.42Z" transform="translate(-158.11 -217.64)"/><polygon class="b" points="8384.29 59.7 8385.89 73.97 8379.65 63.03 8384.29 59.7"/><path class="a" d="M8493.68,296.33l-79.56-68.69s-38,35.42-68.89,64.39C8414.55,292.49,8470.64,294,8493.68,296.33Z" transform="translate(-158.11 -217.64)"/><path class="b" d="M8403.23,292.63l-.16-9.16h-10.35L8403,263.19l-3.4,2.09s1.79-9.28,2.05-9.39,6.79-3.79,6.79-3.79l3.06-5.69.45-1.07-.35-.59-2.69-7.15,5.41-6.42-.36-3.4c-2.71,2.53-39,36.32-68.73,64.2C8365.92,292.12,8385.43,292.31,8403.23,292.63Z" transform="translate(-158.11 -217.64)"/><path class="c" d="M8411.83,245.63l3.34,6.49,5.8-10.17,5,3.68,11.24,2h0l-23.13-20s-8.81,8.2-21.38,19.94c1.18,2.51,2.11,4.53,2.11,4.53l8.15-6.49,1.28,4Z" transform="translate(-158.11 -217.64)"/><path class="d" d="M8414,227.79l-.42.39-.32.3,0,0-.38.35-3.09,2.88-1.78,1.66-2.71,2.53-.22.21-1.61,1.5-.28.26-.61.57-.36.34-.5.46-.62.57-3.4,3.17-.53.49-.87.81-.09.09-.77.72-.52.49-2.12,2c1.18,2.51,2.11,4.53,2.11,4.53l8.15-6.49,1.28,4,7.56-4,.12-.28-.35-.59-2.69-7.15,5.41-6.42Z" transform="translate(-158.11 -217.64)"/><polygon class="b" points="8266.29 58.7 8267.89 72.97 8261.65 62.03 8266.29 58.7"/><path class="a" d="M8933.47,298.47l-62.35-53.83s-29.5,27.48-57.63,53.83Z" transform="translate(-158.11 -217.64)"/><path class="b" d="M8850.84,298.47l9.16-18.18-3.4,2s1.79-9.31,2.05-9.41,6.79-3.8,6.79-3.8l3.06-5.7.45-1.07-.35-.59-2.69-7.15,5.41-6.42-.36-3.4c-2.38,2.22-30.55,28.46-57.46,53.68Z" transform="translate(-158.11 -217.64)"/><path class="c" d="M8868.83,262.63l3.34,6.49,5.8-10.17,5,3.68,11.24,2h0l-23.13-20s-8.81,8.2-21.38,19.94c1.18,2.51,2.11,4.53,2.11,4.53l8.15-6.49,1.28,4Z" transform="translate(-158.11 -217.64)"/><path class="d" d="M8871,244.79l-.42.39-.32.3,0,0-.38.35-3.09,2.88-1.78,1.66-2.71,2.53-.22.21-1.61,1.5-.28.26-.61.57-.36.34-.5.46-.62.57-3.4,3.17-.53.49-.87.81-.09.09-.77.72-.52.49-2.12,2c1.18,2.51,2.11,4.53,2.11,4.53l8.15-6.49,1.28,4,7.56-4,.12-.28-.35-.59-2.69-7.15,5.41-6.42Z" transform="translate(-158.11 -217.64)"/><polygon class="b" points="8723.29 75.7 8724.89 89.97 8718.65 79.03 8723.29 75.7"/><path class="a" d="M8943.48,298.47s0-.15,0-.24c0-5.25,38.44-9.68,91.5-11.18l-68.82-59.41s-44,41-75.74,70.83Z" transform="translate(-158.11 -217.64)"/><path class="b" d="M8943.48,298.47s0-.15,0-.24c0-1.74,4.23-3.48,11.8-5l-.17-9.8h-10.35L8955,263.19l-3.4,2.09s1.79-9.28,2.05-9.39,6.79-3.79,6.79-3.79l3.06-5.69.45-1.07-.35-.59-2.69-7.15,5.41-6.42-.36-3.4c-2.93,2.73-44.94,41.87-75.58,70.68Z" transform="translate(-158.11 -217.64)"/><path class="c" d="M8963.83,245.63l3.34,6.49,5.8-10.17,5,3.68,11.24,2h0l-23.13-20s-8.81,8.2-21.38,19.94c1.18,2.51,2.11,4.53,2.11,4.53l8.15-6.49,1.28,4Z" transform="translate(-158.11 -217.64)"/><path class="d" d="M8966,227.79l-.42.39-.32.3,0,0-.38.35-3.09,2.88-1.78,1.66-2.71,2.53-.22.21-1.61,1.5-.28.26-.61.57-.36.34-.5.46-.62.57-3.4,3.17-.53.49-.87.81-.09.09-.77.72-.52.49-2.12,2c1.18,2.51,2.11,4.53,2.11,4.53l8.15-6.49,1.28,4,7.56-4,.12-.28-.35-.59-2.69-7.15,5.41-6.42Z" transform="translate(-158.11 -217.64)"/><polygon class="b" points="8818.29 58.7 8819.89 72.97 8813.65 62.03 8818.29 58.7"/><path class="a" d="M9507.5,291.89c41.93,0,80.89.37,113.27,1.06l-75.65-65.31s-38,35.36-68.82,64.32C9486.47,291.91,9496.89,291.89,9507.5,291.89Z" transform="translate(-158.11 -217.64)"/><path class="b" d="M9507.5,291.89c9.06,0,18-.08,26.72,0l-.14-8.38h-10.35L9534,263.19l-3.4,2.09s1.79-9.28,2.05-9.39,6.79-3.79,6.79-3.79l3.06-5.69.45-1.07-.35-.59-2.69-7.15,5.41-6.42-.36-3.4c-2.71,2.53-39,36.31-68.65,64.17C9486.47,291.91,9496.89,291.89,9507.5,291.89Z" transform="translate(-158.11 -217.64)"/><path class="c" d="M9542.83,245.63l3.34,6.49,5.8-10.17,5,3.68,11.24,2h0l-23.13-20s-8.81,8.2-21.38,19.94c1.18,2.51,2.11,4.53,2.11,4.53l8.15-6.49,1.28,4Z" transform="translate(-158.11 -217.64)"/><path class="d" d="M9545,227.79l-.42.39-.32.3,0,0-.38.35-3.09,2.88-1.78,1.66-2.71,2.53-.22.21-1.61,1.5-.28.26-.61.57-.36.34-.5.46-.62.57-3.4,3.17-.53.49-.87.81-.09.09-.77.72-.52.49-2.12,2c1.18,2.51,2.11,4.53,2.11,4.53l8.15-6.49,1.28,4,7.56-4,.12-.28-.35-.59-2.69-7.15,5.41-6.42Z" transform="translate(-158.11 -217.64)"/><polygon class="b" points="9397.29 58.7 9398.89 72.97 9392.65 62.03 9397.29 58.7"/><path class="a" d="M9710.89,298.47h.26l-60-51.83s-23.92,22.28-49.22,46C9664.84,293.62,9708.37,295.71,9710.89,298.47Z" transform="translate(-158.11 -217.64)"/><path class="b" d="M9634.46,293.27l5.53-11-3.4,2s1.79-9.31,2.05-9.41,6.79-3.8,6.79-3.8l3.06-5.7.45-1.07-.35-.59-2.69-7.15,5.41-6.42-.36-3.4c-2.13,2-25,23.27-49.06,45.81C9613.45,292.79,9624.35,293,9634.46,293.27Z" transform="translate(-158.11 -217.64)"/><path class="c" d="M9648.83,264.63l3.34,6.49,5.8-10.17,5,3.68,11.24,2h0l-23.13-20s-8.81,8.2-21.38,19.94c1.18,2.51,2.11,4.53,2.11,4.53l8.15-6.49,1.28,4Z" transform="translate(-158.11 -217.64)"/><path class="d" d="M9651,246.79l-.42.39-.32.3,0,0-.38.35-3.09,2.88-1.78,1.66-2.71,2.53-.22.21-1.61,1.5-.28.26-.61.57-.36.34-.5.46-.62.57-3.4,3.17-.53.49-.87.81-.09.09-.77.72-.52.49-2.12,2c1.18,2.51,2.11,4.53,2.11,4.53l8.15-6.49,1.28,4,7.56-4,.12-.28-.35-.59-2.69-7.15,5.41-6.42Z" transform="translate(-158.11 -217.64)"/><polygon class="b" points="9503.29 77.7 9504.89 91.97 9498.65 81.03 9503.29 77.7"/><path class="a" d="M10149.48,298.47s0-.15,0-.24c0-1.39,2.69-2.71,7.61-3.95l-67.93-58.65s-36.67,34.16-67.22,62.83Z" transform="translate(-158.11 -217.64)"/><path class="b" d="M10078.2,298.47l-.12-7h-10.35l10.26-20.27-3.4,2.09s1.79-9.28,2.05-9.39,6.79-3.79,6.79-3.79l3.06-5.69.45-1.07-.35-.59-2.69-7.15,5.41-6.42-.36-3.4c-2.66,2.48-37.69,35.12-67.06,62.68Z" transform="translate(-158.11 -217.64)"/><path class="c" d="M10086.83,253.63l3.34,6.49,5.8-10.17,5,3.68,11.24,2h0l-23.13-20s-8.81,8.2-21.38,19.94c1.18,2.51,2.11,4.53,2.11,4.53l8.15-6.49,1.28,4Z" transform="translate(-158.11 -217.64)"/><path class="d" d="M10089,235.79l-.42.39-.32.3,0,0-.38.35-3.09,2.88-1.78,1.66-2.71,2.53-.22.21-1.61,1.5-.28.26-.61.57-.36.34-.5.46-.62.57-3.4,3.17-.53.49-.87.81-.09.09-.77.72-.52.49-2.12,2c1.18,2.51,2.11,4.53,2.11,4.53l8.15-6.49,1.28,4,7.56-4,.12-.28-.35-.59-2.69-7.15,5.41-6.42Z" transform="translate(-158.11 -217.64)"/><polygon class="b" points="9941.29 66.7 9942.89 80.97 9936.65 70.03 9941.29 66.7"/><path class="a" d="M10280.71,286.5l8,0-78.64-67.89s-51.56,48-83.34,78l22.72,1.26C10151.59,291.55,10209.53,286.5,10280.71,286.5Z" transform="translate(-158.11 -217.64)"/><path class="b" d="M10199.32,288.93l-.25-14.46h-10.35l10.26-20.27-3.4,2.09s1.79-9.28,2.05-9.39,6.79-3.79,6.79-3.79l3.06-5.69.45-1.07-.35-.59-2.69-7.15,5.41-6.42-.36-3.4c-3.18,3-52.43,48.85-83.17,77.83l22.72,1.21C10150.69,294.24,10169.9,291,10199.32,288.93Z" transform="translate(-158.11 -217.64)"/><path class="c" d="M10207.83,236.63l3.34,6.49,5.8-10.17,5,3.68,11.24,2h0l-23.13-20s-8.81,8.2-21.38,19.94c1.18,2.51,2.11,4.53,2.11,4.53l8.15-6.49,1.28,4Z" transform="translate(-158.11 -217.64)"/><path class="d" d="M10210,218.79l-.42.39-.32.3,0,0-.38.35-3.09,2.88-1.78,1.66-2.71,2.53-.22.21-1.61,1.5-.28.26-.61.57-.36.34-.5.46-.62.57-3.4,3.17-.53.49-.87.81-.09.09-.77.72-.52.49-2.12,2c1.18,2.51,2.11,4.53,2.11,4.53l8.15-6.49,1.28,4,7.56-4,.12-.28-.35-.59-2.69-7.15,5.41-6.42Z" transform="translate(-158.11 -217.64)"/><polygon class="b" points="10062.29 49.7 10063.89 63.97 10057.65 53.03 10062.29 49.7"/><path class="a" d="M10280.71,286.5c44.07,0,83.07,1.94,106.88,4.92l-85.46-73.78s-43,40.1-74.72,69.87C10243.69,286.86,10261.72,286.5,10280.71,286.5Z" transform="translate(-158.11 -217.64)"/><path class="b" d="M10280.71,286.5c3.57,0,7.1-.08,10.59-.06l-.22-13h-10.35l10.26-20.27-3.4,2.09s1.79-9.28,2.05-9.39,6.79-3.79,6.79-3.79l3.06-5.69.45-1.07-.35-.59-2.69-7.15,5.41-6.42-.36-3.4c-2.9,2.7-44,41-74.56,69.72C10243.69,286.86,10261.72,286.5,10280.71,286.5Z" transform="translate(-158.11 -217.64)"/><path class="c" d="M10299.83,235.63l3.34,6.49,5.8-10.17,5,3.68,11.24,2h0l-23.13-20s-8.81,8.2-21.38,19.94c1.18,2.51,2.11,4.53,2.11,4.53l8.15-6.49,1.28,4Z" transform="translate(-158.11 -217.64)"/><path class="d" d="M10302,217.79l-.42.39-.32.3,0,0-.38.35-3.09,2.88-1.78,1.66-2.71,2.53-.22.21-1.61,1.5-.28.26-.61.57-.36.34-.5.46-.62.57-3.4,3.17-.53.49-.87.81-.09.09-.77.72-.52.49-2.12,2c1.18,2.51,2.11,4.53,2.11,4.53l8.15-6.49,1.28,4,7.56-4,.12-.28-.35-.59-2.69-7.15,5.41-6.42Z" transform="translate(-158.11 -217.64)"/><polygon class="b" points="10154.29 48.7 10155.89 62.97 10149.65 52.03 10154.29 48.7"/><path class="a" d="M11020.78,310.68l-77.66-67s-40.42,37.65-71.74,67.07Z" transform="translate(-158.11 -217.64)"/><path class="b" d="M10932.27,310.6l-.19-11.13h-10.35l10.26-20.27-3.4,2.09s1.79-9.28,2.05-9.39,6.79-3.79,6.79-3.79l3.06-5.69.45-1.07-.35-.59-2.69-7.15,5.41-6.42-.36-3.4c-2.8,2.61-41.4,38.53-71.57,66.87Q10901.79,310.65,10932.27,310.6Z" transform="translate(-158.11 -217.64)"/><path class="c" d="M10940.83,261.63l3.34,6.49,5.8-10.17,5,3.68,11.24,2h0l-23.13-20s-8.81,8.2-21.38,19.94c1.18,2.51,2.11,4.53,2.11,4.53l8.15-6.49,1.28,4Z" transform="translate(-158.11 -217.64)"/><path class="d" d="M10943,243.79l-.42.39-.32.3,0,0-.38.35-3.09,2.88-1.78,1.66-2.71,2.53-.22.21-1.61,1.5-.28.26-.61.57-.36.34-.5.46-.62.57-3.4,3.17-.53.49-.87.81-.09.09-.77.72-.52.49-2.12,2c1.18,2.51,2.11,4.53,2.11,4.53l8.15-6.49,1.28,4,7.56-4,.12-.28-.35-.59-2.69-7.15,5.41-6.42Z" transform="translate(-158.11 -217.64)"/><polygon class="b" points="10795.29 74.7 10796.89 88.97 10790.65 78.03 10795.29 74.7"/><path class="a" d="M11141.76,310.67l-77.64-67s-40.4,37.63-71.72,67.05Z" transform="translate(-158.11 -217.64)"/><path class="b" d="M11053.27,310.59l-.19-11.12h-10.35l10.26-20.27-3.4,2.09s1.79-9.28,2.05-9.39,6.79-3.79,6.79-3.79l3.06-5.69.45-1.07-.35-.59-2.69-7.15,5.41-6.42-.36-3.4c-2.8,2.61-41.39,38.52-71.56,66.85Q11022.8,310.64,11053.27,310.59Z" transform="translate(-158.11 -217.64)"/><path class="c" d="M11061.83,261.63l3.34,6.49,5.8-10.17,5,3.68,11.24,2h0l-23.13-20s-8.81,8.2-21.38,19.94c1.18,2.51,2.11,4.53,2.11,4.53l8.15-6.49,1.28,4Z" transform="translate(-158.11 -217.64)"/><path class="d" d="M11064,243.79l-.42.39-.32.3,0,0-.38.35-3.09,2.88-1.78,1.66-2.71,2.53-.22.21-1.61,1.5-.28.26-.61.57-.36.34-.5.46-.62.57-3.4,3.17-.53.49-.87.81-.09.09-.77.72-.52.49-2.12,2c1.18,2.51,2.11,4.53,2.11,4.53l8.15-6.49,1.28,4,7.56-4,.12-.28-.35-.59-2.69-7.15,5.41-6.42Z" transform="translate(-158.11 -217.64)"/><polygon class="b" points="10916.29 74.7 10917.89 88.97 10911.65 78.03 10916.29 74.7"/><path class="a" d="M10873.46,295.5l-69.34-59.86s-31.5,29.34-60.43,56.46C10800.52,292.55,10847.59,293.75,10873.46,295.5Z" transform="translate(-158.11 -217.64)"/><path class="b" d="M10793.1,292.63l0-1.16h-10.35l10.26-20.27-3.4,2.09s1.79-9.28,2.05-9.39,6.79-3.79,6.79-3.79l3.06-5.69.45-1.07-.35-.59-2.69-7.15,5.41-6.42-.36-3.4c-2.46,2.29-32.54,30.27-60.26,56.26C10761.2,292.19,10777.78,292.35,10793.1,292.63Z" transform="translate(-158.11 -217.64)"/><path class="c" d="M10801.83,253.63l3.34,6.49,5.8-10.17,5,3.68,11.24,2h0l-23.13-20s-8.81,8.2-21.38,19.94c1.18,2.51,2.11,4.53,2.11,4.53l8.15-6.49,1.28,4Z" transform="translate(-158.11 -217.64)"/><path class="d" d="M10804,235.79l-.42.39-.32.3,0,0-.38.35-3.09,2.88-1.78,1.66-2.71,2.53-.22.21-1.61,1.5-.28.26-.61.57-.36.34-.5.46-.62.57-3.4,3.17-.53.49-.87.81-.09.09-.77.72-.52.49-2.12,2c1.18,2.51,2.11,4.53,2.11,4.53l8.15-6.49,1.28,4,7.56-4,.12-.28-.35-.59-2.69-7.15,5.41-6.42Z" transform="translate(-158.11 -217.64)"/><path class="a" d="M11333.48,298.47s0-.15,0-.24c0-6.49,58.77-11.73,131.26-11.73h1.76l-69.35-59.87s-45,41.89-76.81,71.83Z" transform="translate(-158.11 -217.64)"/><path class="b" d="M11333.48,298.47s0-.15,0-.24c0-3.85,20.73-7.36,52.74-9.5l-.11-6.27h-10.35l10.26-20.27-3.4,2.09s1.79-9.28,2.05-9.39,6.79-3.79,6.79-3.79l3.06-5.69.45-1.07-.35-.59-2.69-7.15,5.41-6.42-.36-3.4c-3,2.76-45.92,42.79-76.64,71.68Z" transform="translate(-158.11 -217.64)"/><path class="c" d="M11394.83,244.63l3.34,6.49,5.8-10.17,5,3.68,11.24,2h0l-23.13-20s-8.81,8.2-21.38,19.94c1.18,2.51,2.11,4.53,2.11,4.53l8.15-6.49,1.28,4Z" transform="translate(-158.11 -217.64)"/><path class="d" d="M11397,226.79l-.42.39-.32.3,0,0-.38.35-3.09,2.88-1.78,1.66-2.71,2.53-.22.21-1.61,1.5-.28.26-.61.57-.36.34-.5.46-.62.57-3.4,3.17-.53.49-.87.81-.09.09-.77.72-.52.49-2.12,2c1.18,2.51,2.11,4.53,2.11,4.53l8.15-6.49,1.28,4,7.56-4,.12-.28-.35-.59-2.69-7.15,5.41-6.42Z" transform="translate(-158.11 -217.64)"/><polygon class="b" points="11249.29 37.7 11250.89 51.97 11244.65 41.03 11249.29 37.7"/><path class="a" d="M12012.73,296.23l-80.61-69.59s-38.89,36.22-69.94,65.37C11932,292.44,11988.77,294,12012.73,296.23Z" transform="translate(-158.11 -217.64)"/><path class="b" d="M11921.25,292.59l-.17-10.12h-10.35l10.26-20.27-3.4,2.09s1.79-9.28,2.05-9.39,6.79-3.79,6.79-3.79l3.06-5.69.45-1.07-.35-.59-2.69-7.15,5.41-6.42-.36-3.4c-2.75,2.56-39.89,37.12-69.77,65.18C11883.23,292.09,11903.11,292.27,11921.25,292.59Z" transform="translate(-158.11 -217.64)"/><path class="c" d="M11929.83,244.63l3.34,6.49,5.8-10.17,5,3.68,11.24,2h0l-23.13-20s-8.81,8.2-21.38,19.94c1.18,2.51,2.11,4.53,2.11,4.53l8.15-6.49,1.28,4Z" transform="translate(-158.11 -217.64)"/><path class="d" d="M11932,226.79l-.42.39-.32.3,0,0-.38.35-3.09,2.88-1.78,1.66-2.71,2.53-.22.21-1.61,1.5-.28.26-.61.57-.36.34-.5.46-.62.57-3.4,3.17-.53.49-.87.81-.09.09-.77.72-.52.49-2.12,2c1.18,2.51,2.11,4.53,2.11,4.53l8.15-6.49,1.28,4,7.56-4,.12-.28-.35-.59-2.69-7.15,5.41-6.42Z" transform="translate(-158.11 -217.64)"/><polygon class="b" points="11784.29 57.7 11785.89 71.97 11779.65 61.03 11784.29 57.7"/><path class="a" d="M12024.89,298.47h19.66l46.25-3.86-85.68-74s-45.32,42.22-77.17,72.17C11984.33,293.9,12022.53,295.89,12024.89,298.47Z" transform="translate(-158.11 -217.64)"/><path class="b" d="M11994.39,294.86l-.31-18.39h-10.35l10.26-20.27-3.4,2.09s1.79-9.28,2.05-9.39,6.79-3.79,6.79-3.79l3.06-5.69.45-1.07-.35-.59-2.69-7.15,5.41-6.42-.36-3.4c-3,2.77-46.26,43.06-77,72C11954.89,293.28,11977.68,294,11994.39,294.86Z" transform="translate(-158.11 -217.64)"/><path class="c" d="M12002.83,238.63l3.34,6.49,5.8-10.17,5,3.68,11.24,2h0l-23.13-20s-8.81,8.2-21.38,19.94c1.18,2.51,2.11,4.53,2.11,4.53l8.15-6.49,1.28,4Z" transform="translate(-158.11 -217.64)"/><path class="d" d="M12005,220.79l-.42.39-.32.3,0,0-.38.35-3.09,2.88-1.78,1.66-2.71,2.53-.22.21-1.61,1.5-.28.26-.61.57-.36.34-.5.46-.62.57-3.4,3.17-.53.49-.87.81-.09.09-.77.72-.52.49-2.12,2c1.18,2.51,2.11,4.53,2.11,4.53l8.15-6.49,1.28,4,7.56-4,.12-.28-.35-.59-2.69-7.15,5.41-6.42Z" transform="translate(-158.11 -217.64)"/><polygon class="b" points="11857.29 51.7 11858.89 65.97 11852.65 55.03 11857.29 51.7"/><path class="a" d="M11821.5,291.89c11.58,0,22.93,0,34,.08l-73.37-63.34s-37.86,35.26-68.69,64.21C11744.74,292.23,11781.79,291.89,11821.5,291.89Z" transform="translate(-158.11 -217.64)"/><path class="b" d="M11771.21,292l-.13-7.52h-10.35l10.26-20.27-3.4,2.09s1.79-9.28,2.05-9.39,6.79-3.79,6.79-3.79l3.06-5.69.45-1.07-.35-.59-2.69-7.15,5.41-6.42-.36-3.4c-2.71,2.52-38.87,36.17-68.53,64C11731.05,292.45,11750.5,292.14,11771.21,292Z" transform="translate(-158.11 -217.64)"/><path class="c" d="M11779.83,246.63l3.34,6.49,5.8-10.17,5,3.68,11.24,2h0l-23.13-20s-8.81,8.2-21.38,19.94c1.18,2.51,2.11,4.53,2.11,4.53l8.15-6.49,1.28,4Z" transform="translate(-158.11 -217.64)"/><path class="d" d="M11782,228.79l-.42.39-.32.3,0,0-.38.35-3.09,2.88-1.78,1.66-2.71,2.53-.22.21-1.61,1.5-.28.26-.61.57-.36.34-.5.46-.62.57-3.4,3.17-.53.49-.87.81-.09.09-.77.72-.52.49-2.12,2c1.18,2.51,2.11,4.53,2.11,4.53l8.15-6.49,1.28,4,7.56-4,.12-.28-.35-.59-2.69-7.15,5.41-6.42Z" transform="translate(-158.11 -217.64)"/><polygon class="b" points="11634.29 59.7 11635.89 73.97 11629.65 63.03 11634.29 59.7"/><path class="a" d="M12261.06,298.47l-73.94-63.83s-37.53,35-68.29,63.83Z" transform="translate(-158.11 -217.64)"/><path class="b" d="M12176.21,298.47l-.13-8h-10.35l10.26-20.27-3.4,2.09s1.79-9.28,2.05-9.39,6.79-3.79,6.79-3.79l3.06-5.69.45-1.07-.35-.59-2.69-7.15,5.41-6.42-.36-3.4c-2.7,2.51-38.54,35.91-68.13,63.68Z" transform="translate(-158.11 -217.64)"/><path class="c" d="M12184.83,252.63l3.34,6.49,5.8-10.17,5,3.68,11.24,2h0l-23.13-20s-8.81,8.2-21.38,19.94c1.18,2.51,2.11,4.53,2.11,4.53l8.15-6.49,1.28,4Z" transform="translate(-158.11 -217.64)"/><path class="d" d="M12187,234.79l-.42.39-.32.3,0,0-.38.35-3.09,2.88-1.78,1.66-2.71,2.53-.22.21-1.61,1.5-.28.26-.61.57-.36.34-.5.46-.62.57-3.4,3.17-.53.49-.87.81-.09.09-.77.72-.52.49-2.12,2c1.18,2.51,2.11,4.53,2.11,4.53l8.15-6.49,1.28,4,7.56-4,.12-.28-.35-.59-2.69-7.15,5.41-6.42Z" transform="translate(-158.11 -217.64)"/><polygon class="b" points="12039.29 65.7 12040.89 79.97 12034.65 69.03 12039.29 65.7"/><path class="a" d="M12024.89,298.47h125.05l-65.83-56.83s-31.37,29.22-60.26,56.29A2.63,2.63,0,0,1,12024.89,298.47Z" transform="translate(-158.11 -217.64)"/><path class="b" d="M12078.9,251.61l5.41-6.42-.36-3.4c-2.46,2.29-32.42,30.2-60.09,56.14a2.63,2.63,0,0,1,1,.54h48.2v-1h-10.35l10.26-20.27-3.4,2.09s1.79-9.28,2.05-9.39,6.79-3.79,6.79-3.79l3.06-5.69.45-1.07-.35-.59Z" transform="translate(-158.11 -217.64)"/><path class="c" d="M12081.83,259.63l3.34,6.49,5.8-10.17,5,3.68,11.24,2h0l-23.13-20s-8.81,8.2-21.38,19.94c1.18,2.51,2.11,4.53,2.11,4.53l8.15-6.49,1.28,4Z" transform="translate(-158.11 -217.64)"/><path class="d" d="M12084,241.79l-.42.39-.32.3,0,0-.38.35-3.09,2.88-1.78,1.66-2.71,2.53-.22.21-1.61,1.5-.28.26-.61.57-.36.34-.5.46-.62.57-3.4,3.17-.53.49-.87.81-.09.09-.77.72-.52.49-2.12,2c1.18,2.51,2.11,4.53,2.11,4.53l8.15-6.49,1.28,4,7.56-4,.12-.28-.35-.59-2.69-7.15,5.41-6.42Z" transform="translate(-158.11 -217.64)"/><polygon class="b" points="11936.29 72.7 11937.89 86.97 11931.65 76.03 11936.29 72.7"/><path class="a" d="M12416.06,298.47l-73.94-63.83s-37.53,35-68.29,63.83Z" transform="translate(-158.11 -217.64)"/><path class="b" d="M12331.21,298.47l-.13-8h-10.35l10.26-20.27-3.4,2.09s1.79-9.28,2.05-9.39,6.79-3.79,6.79-3.79l3.06-5.69.45-1.07-.35-.59-2.69-7.15,5.41-6.42-.36-3.4c-2.7,2.51-38.54,35.91-68.13,63.68Z" transform="translate(-158.11 -217.64)"/><path class="c" d="M12339.83,252.63l3.34,6.49,5.8-10.17,5,3.68,11.24,2h0l-23.13-20s-8.81,8.2-21.38,19.94c1.18,2.51,2.11,4.53,2.11,4.53l8.15-6.49,1.28,4Z" transform="translate(-158.11 -217.64)"/><path class="d" d="M12342,234.79l-.42.39-.32.3,0,0-.38.35-3.09,2.88-1.78,1.66-2.71,2.53-.22.21-1.61,1.5-.28.26-.61.57-.36.34-.5.46-.62.57-3.4,3.17-.53.49-.87.81-.09.09-.77.72-.52.49-2.12,2c1.18,2.51,2.11,4.53,2.11,4.53l8.15-6.49,1.28,4,7.56-4,.12-.28-.35-.59-2.69-7.15,5.41-6.42Z" transform="translate(-158.11 -217.64)"/><polygon class="b" points="12194.29 65.7 12195.89 79.97 12189.65 69.03 12194.29 65.7"/><path class="a" d="M12463.48,298.47s0-.15,0-.24c0-4,22.33-7.52,56.44-9.64l-71.76-62s-45,41.89-76.81,71.83Z" transform="translate(-158.11 -217.64)"/><path class="b" d="M12437.35,298.47l-.27-16h-10.35l10.26-20.27-3.4,2.09s1.79-9.28,2.05-9.39,6.79-3.79,6.79-3.79l3.06-5.69.45-1.07-.35-.59-2.69-7.15,5.41-6.42-.36-3.4c-3,2.76-45.92,42.79-76.64,71.68Z" transform="translate(-158.11 -217.64)"/><path class="c" d="M12445.83,244.63l3.34,6.49,5.8-10.17,5,3.68,11.24,2h0l-23.13-20s-8.81,8.2-21.38,19.94c1.18,2.51,2.11,4.53,2.11,4.53l8.15-6.49,1.28,4Z" transform="translate(-158.11 -217.64)"/><path class="d" d="M12448,226.79l-.42.39-.32.3,0,0-.38.35-3.09,2.88-1.78,1.66-2.71,2.53-.22.21-1.61,1.5-.28.26-.61.57-.36.34-.5.46-.62.57-3.4,3.17-.53.49-.87.81-.09.09-.77.72-.52.49-2.12,2c1.18,2.51,2.11,4.53,2.11,4.53l8.15-6.49,1.28,4,7.56-4,.12-.28-.35-.59-2.69-7.15,5.41-6.42Z" transform="translate(-158.11 -217.64)"/><polygon class="b" points="12300.29 57.7 12301.89 71.97 12295.65 61.03 12300.29 57.7"/><path class="a" d="M12594.71,286.5c44.3,0,83.46,2,107.24,5l-65.82-56.83s-28.1,26.18-55.6,51.93Q12587.51,286.5,12594.71,286.5Z" transform="translate(-158.11 -217.64)"/><path class="b" d="M12594.71,286.5c7.51,0,14.87.06,22,.17l8.25-16.38-3.4,2s1.79-9.31,2.05-9.41,6.79-3.8,6.79-3.8l3.06-5.7.45-1.07-.35-.59-2.69-7.15,5.41-6.42-.36-3.4c-2.32,2.16-29.15,27.16-55.44,51.78Q12587.51,286.5,12594.71,286.5Z" transform="translate(-158.11 -217.64)"/><path class="c" d="M12633.83,252.63l3.34,6.49,5.8-10.17,5,3.68,11.24,2h0l-23.13-20s-8.81,8.2-21.38,19.94c1.18,2.51,2.11,4.53,2.11,4.53l8.15-6.49,1.28,4Z" transform="translate(-158.11 -217.64)"/><path class="d" d="M12636,234.79l-.42.39-.32.3,0,0-.38.35-3.09,2.88-1.78,1.66-2.71,2.53-.22.21-1.61,1.5-.28.26-.61.57-.36.34-.5.46-.62.57-3.4,3.17-.53.49-.87.81-.09.09-.77.72-.52.49-2.12,2c1.18,2.51,2.11,4.53,2.11,4.53l8.15-6.49,1.28,4,7.56-4,.12-.28-.35-.59-2.69-7.15,5.41-6.42Z" transform="translate(-158.11 -217.64)"/><polygon class="b" points="12488.29 65.7 12489.89 79.97 12483.65 69.03 12488.29 65.7"/><path class="a" d="M12963.48,291.93l-66.36-57.29s-33.82,31.5-63.56,59.39C12866.24,292.83,12912,292.09,12963.48,291.93Z" transform="translate(-158.11 -217.64)"/><path class="b" d="M12886.11,292.59l0-2.12h-10.35l10.26-20.27-3.4,2.09s1.79-9.28,2.05-9.39,6.79-3.79,6.79-3.79l3.06-5.69.45-1.07-.35-.59-2.69-7.15,5.41-6.42-.36-3.4c-2.55,2.38-34.85,32.42-63.4,59.19C12848.56,293.43,12866.31,292.93,12886.11,292.59Z" transform="translate(-158.11 -217.64)"/><path class="c" d="M12894.83,252.63l3.34,6.49,5.8-10.17,5,3.68,11.24,2h0l-23.13-20s-8.81,8.2-21.38,19.94c1.18,2.51,2.11,4.53,2.11,4.53l8.15-6.49,1.28,4Z" transform="translate(-158.11 -217.64)"/><path class="d" d="M12897,234.79l-.42.39-.32.3,0,0-.38.35-3.09,2.88-1.78,1.66-2.71,2.53-.22.21-1.61,1.5-.28.26-.61.57-.36.34-.5.46-.62.57-3.4,3.17-.53.49-.87.81-.09.09-.77.72-.52.49-2.12,2c1.18,2.51,2.11,4.53,2.11,4.53l8.15-6.49,1.28,4,7.56-4,.12-.28-.35-.59-2.69-7.15,5.41-6.42Z" transform="translate(-158.11 -217.64)"/><polygon class="b" points="12749.29 55.7 12750.89 69.97 12744.65 59.03 12749.29 55.7"/><path class="a" d="M13627.48,298.47s0-.15,0-.24c0-1.46,3-2.86,8.47-4.16l-75.8-65.44s-43,40.06-74.68,69.83Z" transform="translate(-158.11 -217.64)"/><path class="b" d="M13549.32,298.47l-.24-14h-10.35l10.26-20.27-3.4,2.09s1.79-9.28,2.05-9.39,6.79-3.79,6.79-3.79l3.06-5.69.45-1.07-.35-.59-2.69-7.15,5.41-6.42-.36-3.4c-2.89,2.7-44,41-74.52,69.68Z" transform="translate(-158.11 -217.64)"/><path class="c" d="M13557.83,246.63l3.34,6.49,5.8-10.17,5,3.68,11.24,2h0l-23.13-20s-8.81,8.2-21.38,19.94c1.18,2.51,2.11,4.53,2.11,4.53l8.15-6.49,1.28,4Z" transform="translate(-158.11 -217.64)"/><path class="d" d="M13560,228.79l-.42.39-.32.3,0,0-.38.35-3.09,2.88-1.78,1.66-2.71,2.53-.22.21-1.61,1.5-.28.26-.61.57-.36.34-.5.46-.62.57-3.4,3.17-.53.49-.87.81-.09.09-.77.72-.52.49-2.12,2c1.18,2.51,2.11,4.53,2.11,4.53l8.15-6.49,1.28,4,7.56-4,.12-.28-.35-.59-2.69-7.15,5.41-6.42Z" transform="translate(-158.11 -217.64)"/><polygon class="b" points="13412.29 59.7 13413.89 73.97 13407.65 63.03 13412.29 59.7"/><path class="a" d="M14135.5,291.89c36.8,0,71.32.29,101.11.82l-83.49-72.07s-44.66,41.6-76.47,71.51C14095.28,292,14115,291.89,14135.5,291.89Z" transform="translate(-158.11 -217.64)"/><path class="b" d="M14135.5,291.89c2.29,0,4.57-.09,6.84-.09l-.26-15.33h-10.35l10.26-20.27-3.4,2.09s1.79-9.28,2.05-9.39,6.79-3.79,6.79-3.79l3.06-5.69.45-1.07-.35-.59-2.69-7.15,5.41-6.42-.36-3.4c-3,2.75-45.61,42.49-76.3,71.36C14095.28,292,14115,291.89,14135.5,291.89Z" transform="translate(-158.11 -217.64)"/><path class="c" d="M14150.83,238.63l3.34,6.49,5.8-10.17,5,3.68,11.24,2h0l-23.13-20s-8.81,8.2-21.38,19.94c1.18,2.51,2.11,4.53,2.11,4.53l8.15-6.49,1.28,4Z" transform="translate(-158.11 -217.64)"/><path class="d" d="M14153,220.79l-.42.39-.32.3,0,0-.38.35-3.09,2.88-1.78,1.66-2.71,2.53-.22.21-1.61,1.5-.28.26-.61.57-.36.34-.5.46-.62.57-3.4,3.17-.53.49-.87.81-.09.09-.77.72-.52.49-2.12,2c1.18,2.51,2.11,4.53,2.11,4.53l8.15-6.49,1.28,4,7.56-4,.12-.28-.35-.59-2.69-7.15,5.41-6.42Z" transform="translate(-158.11 -217.64)"/><polygon class="b" points="14005.29 51.7 14006.89 65.97 14000.65 55.03 14005.29 51.7"/><path class="a" d="M14090.87,292l-75.75-65.4s-43.19,40.23-74.88,70C13960.94,294.2,14018.65,292.52,14090.87,292Z" transform="translate(-158.11 -217.64)"/><path class="b" d="M14004.26,293.28l-.18-10.82h-10.35l10.26-20.27-3.4,2.09s1.79-9.28,2.05-9.39,6.79-3.79,6.79-3.79l3.06-5.69.45-1.07-.35-.59-2.69-7.15,5.41-6.42-.36-3.4c-2.9,2.7-44.16,41.1-74.72,69.82C13951.63,295.26,13974.21,294.09,14004.26,293.28Z" transform="translate(-158.11 -217.64)"/><path class="c" d="M14012.83,244.63l3.34,6.49,5.8-10.17,5,3.68,11.24,2h0l-23.13-20s-8.81,8.2-21.38,19.94c1.18,2.51,2.11,4.53,2.11,4.53l8.15-6.49,1.28,4Z" transform="translate(-158.11 -217.64)"/><path class="d" d="M14015,226.79l-.42.39-.32.3,0,0-.38.35-3.09,2.88-1.78,1.66-2.71,2.53-.22.21-1.61,1.5-.28.26-.61.57-.36.34-.5.46-.62.57-3.4,3.17-.53.49-.87.81-.09.09-.77.72-.52.49-2.12,2c1.18,2.51,2.11,4.53,2.11,4.53l8.15-6.49,1.28,4,7.56-4,.12-.28-.35-.59-2.69-7.15,5.41-6.42Z" transform="translate(-158.11 -217.64)"/><polygon class="b" points="13867.29 57.7 13868.89 71.97 13862.65 61.03 13867.29 57.7"/><path class="a" d="M14777.48,298.47s0-.15,0-.24c0-5.87,48.06-10.71,110.87-11.58l-67.19-58s-43,40.06-74.68,69.83Z" transform="translate(-158.11 -217.64)"/><path class="b" d="M14777.48,298.47s0-.15,0-.24c0-3,12.36-5.78,32.74-7.85l-.1-5.91h-10.35l10.26-20.27-3.4,2.09s1.79-9.28,2.05-9.39,6.79-3.79,6.79-3.79l3.06-5.69.45-1.07-.35-.59-2.69-7.15,5.41-6.42-.36-3.4c-2.89,2.7-44,41-74.52,69.68Z" transform="translate(-158.11 -217.64)"/><path class="c" d="M14818.83,246.63l3.34,6.49,5.8-10.17,5,3.68,11.24,2h0l-23.13-20s-8.81,8.2-21.38,19.94c1.18,2.51,2.11,4.53,2.11,4.53l8.15-6.49,1.28,4Z" transform="translate(-158.11 -217.64)"/><path class="d" d="M14821,228.79l-.42.39-.32.3,0,0-.38.35-3.09,2.88-1.78,1.66-2.71,2.53-.22.21-1.61,1.5-.28.26-.61.57-.36.34-.5.46-.62.57-3.4,3.17-.53.49-.87.81-.09.09-.77.72-.52.49-2.12,2c1.18,2.51,2.11,4.53,2.11,4.53l8.15-6.49,1.28,4,7.56-4,.12-.28-.35-.59-2.69-7.15,5.41-6.42Z" transform="translate(-158.11 -217.64)"/><polygon class="b" points="14673.29 59.7 14674.89 73.97 14668.65 63.03 14673.29 59.7"/><path class="a" d="M4456,298.47l-80.89-69.83s-43,40.06-74.68,69.83Z" transform="translate(-158.11 -217.64)"/><path class="b" d="M4364.32,298.47l-.24-14h-10.34L4364,264.19l-3.4,2.09s1.79-9.28,2.05-9.39,6.79-3.79,6.79-3.79l3.06-5.69.45-1.07-.35-.59-2.69-7.15,5.41-6.42-.36-3.4c-2.89,2.7-44,41-74.51,69.68Z" transform="translate(-158.11 -217.64)"/><path class="c" d="M4372.83,246.63l3.34,6.49,5.8-10.17,5,3.68,11.24,2h0l-23.13-20s-8.81,8.2-21.38,19.94c1.18,2.51,2.11,4.53,2.11,4.53l8.15-6.49,1.28,4Z" transform="translate(-158.11 -217.64)"/><path class="d" d="M4375,228.79l-.42.39-.32.3,0,0-.38.35-3.09,2.88-1.78,1.66-2.71,2.53-.22.21-1.61,1.5-.28.26-.61.57-.36.34-.5.46-.62.57-3.4,3.17-.53.49-.87.81-.09.09-.77.72-.52.49-2.12,2c1.18,2.51,2.11,4.53,2.11,4.53l8.15-6.49,1.28,4,7.56-4,.12-.28-.35-.59-2.69-7.15,5.41-6.42Z" transform="translate(-158.11 -217.64)"/><polygon class="b" points="4227.29 59.7 4228.89 73.97 4222.65 63.03 4227.29 59.7"/><path class="a" d="M4358,298.47l-80.89-69.83s-43,40.06-74.68,69.83Z" transform="translate(-158.11 -217.64)"/><path class="b" d="M4266.32,298.47l-.24-14h-10.34L4266,264.19l-3.4,2.09s1.79-9.28,2.05-9.39,6.79-3.79,6.79-3.79l3.06-5.69.45-1.07-.35-.59-2.69-7.15,5.41-6.42-.36-3.4c-2.89,2.7-44,41-74.51,69.68Z" transform="translate(-158.11 -217.64)"/><path class="c" d="M4274.83,246.63l3.34,6.49,5.8-10.17,5,3.68,11.24,2h0l-23.13-20s-8.81,8.2-21.38,19.94c1.18,2.51,2.11,4.53,2.11,4.53l8.15-6.49,1.28,4Z" transform="translate(-158.11 -217.64)"/><path class="d" d="M4277,228.79l-.42.39-.32.3,0,0-.38.35-3.09,2.88-1.78,1.66-2.71,2.53-.22.21-1.61,1.5-.28.26-.61.57-.36.34-.5.46-.62.57-3.4,3.17-.53.49-.87.81-.09.09-.77.72-.52.49-2.12,2c1.18,2.51,2.11,4.53,2.11,4.53l8.15-6.49,1.28,4,7.56-4,.12-.28-.35-.59-2.69-7.15,5.41-6.42Z" transform="translate(-158.11 -217.64)"/><polygon class="b" points="4129.29 59.7 4130.89 73.97 4124.65 63.03 4129.29 59.7"/><path class="e" d="M499.44,288.31c-.3.75-5.69,15.16-5.69,15.16h11.31Z" transform="translate(-158.11 -217.64)"/><path class="f" d="M499.32,303.47h5.74L499.4,288.2s-.08-.05-.08,0Z" transform="translate(-158.11 -217.64)"/><path class="e" d="M819.93,286.31c-.3.75-5.69,15.16-5.69,15.16h11.31Z" transform="translate(-158.11 -217.64)"/><path class="f" d="M820.32,301.47h5.23l-5.4-15.38s.18-.17.18-.13Z" transform="translate(-158.11 -217.64)"/><path class="e" d="M992.1,278.31c-.3.75-5.69,15.16-5.69,15.16h11.31Z" transform="translate(-158.11 -217.64)"/><path class="f" d="M992.32,293.47h5.4l-5.49-15.52a1.77,1.77,0,0,1,.09-.26Z" transform="translate(-158.11 -217.64)"/><path class="e" d="M1236.21,288.31c-.3.75-5.69,15.16-5.69,15.16h11.31Z" transform="translate(-158.11 -217.64)"/><path class="f" d="M1236.32,303.47h5.51l-5.54-15.27s0-.05,0,0Z" transform="translate(-158.11 -217.64)"/><path class="e" d="M1478.72,281.31c-.3.75-5.69,15.16-5.69,15.16h11.31Z" transform="translate(-158.11 -217.64)"/><path class="f" d="M1478.32,296.47h6l-5.8-15.59s-.22-.37-.22-.33Z" transform="translate(-158.11 -217.64)"/><path class="e" d="M1608.57,277.31c-.3.75-5.69,15.16-5.69,15.16h11.31Z" transform="translate(-158.11 -217.64)"/><path class="f" d="M1608.32,292.47h5.87l-5.72-15.5s-.14-.28-.14-.24Z" transform="translate(-158.11 -217.64)"/><path class="e" d="M484.48,284.31c-.3.75-5.69,15.16-5.69,15.16H490.1Z" transform="translate(-158.11 -217.64)"/><path class="f" d="M485.32,299.47h4.78l-5.18-15.18s.4,0,.4.08Z" transform="translate(-158.11 -217.64)"/><path class="e" d="M478.76,293.31c-.3.75-5.69,15.16-5.69,15.16h11.31Z" transform="translate(-158.11 -217.64)"/><path class="f" d="M478.32,308.47h6.05l-5.82-15.22s-.24,0-.24,0Z" transform="translate(-158.11 -217.64)"/><path class="e" d="M513.76,286.31c-.3.75-5.69,15.16-5.69,15.16h11.31Z" transform="translate(-158.11 -217.64)"/><path class="f" d="M514.32,301.47h5.06l-5.32-15.54s.26-.33.26-.29Z" transform="translate(-158.11 -217.64)"/><polygon class="g" points="208.89 63.91 217.56 63.91 209.57 70.99 201.12 70.68 208.89 63.91"/><rect class="h" x="201.12" y="70.65" width="8.71" height="9.13"/><polygon class="i" points="217.53 63.91 209.83 70.65 209.83 79.78 225 79.78 225 70.65 217.53 63.91"/><polygon class="g" points="161.9 70.76 170.56 70.76 162.57 77.84 154.13 77.53 161.9 70.76"/><rect class="h" x="154.13" y="77.5" width="8.71" height="9.13"/><polygon class="i" points="170.54 70.77 162.84 77.5 162.84 86.63 178.01 86.63 178.01 77.5 170.54 70.77"/><polygon class="g" points="1270.09 63.4 1278.75 63.4 1270.76 70.49 1262.31 70.18 1270.09 63.4"/><rect class="h" x="1262.31" y="70.15" width="8.71" height="9.13"/><polygon class="i" points="1278.73 63.41 1271.02 70.15 1271.02 79.28 1286.19 79.28 1286.19 70.15 1278.73 63.41"/><polygon class="g" points="1144.48 71.34 1153.14 71.34 1145.16 78.42 1136.71 78.12 1144.48 71.34"/><rect class="h" x="1136.71" y="78.08" width="8.71" height="9.13"/><polygon class="i" points="1153.12 71.35 1145.42 78.08 1145.42 87.21 1160.59 87.21 1160.59 78.08 1153.12 71.35"/><polygon class="g" points="1334.13 53.05 1342.79 53.05 1334.8 60.13 1326.36 59.83 1334.13 53.05"/><rect class="h" x="1326.36" y="59.79" width="8.71" height="9.13"/><polygon class="i" points="1342.77 53.06 1335.06 59.79 1335.06 68.92 1350.23 68.92 1350.23 59.79 1342.77 53.06"/><polygon class="g" points="1378.24 63.41 1386.9 63.41 1378.91 70.49 1370.47 70.18 1378.24 63.41"/><rect class="h" x="1370.47" y="70.15" width="8.71" height="9.13"/><polygon class="i" points="1386.88 63.42 1379.18 70.15 1379.18 79.28 1394.35 79.28 1394.35 70.15 1386.88 63.42"/><polygon class="g" points="862.84 67.73 871.51 67.73 863.52 74.82 855.07 74.51 862.84 67.73"/><rect class="h" x="855.07" y="74.48" width="8.71" height="9.13"/><polygon class="i" points="871.49 67.74 863.78 74.48 863.78 83.61 878.95 83.61 878.95 74.48 871.49 67.74"/><polygon class="g" points="737.24 75.67 745.9 75.67 737.92 82.75 729.47 82.45 737.24 75.67"/><rect class="h" x="729.47" y="82.41" width="8.71" height="9.13"/><polygon class="i" points="745.88 75.68 738.18 82.41 738.18 91.54 753.35 91.54 753.35 82.41 745.88 75.68"/><polygon class="g" points="926.88 57.38 935.55 57.38 927.56 64.47 919.12 64.16 926.88 57.38"/><rect class="h" x="919.11" y="64.12" width="8.71" height="9.13"/><polygon class="i" points="935.53 57.39 927.82 64.12 927.82 73.25 943 73.25 943 64.12 935.53 57.39"/><polygon class="g" points="971 67.74 979.66 67.74 971.67 74.82 963.23 74.52 971 67.74"/><rect class="h" x="963.23" y="74.48" width="8.71" height="9.13"/><polygon class="i" points="979.64 67.75 971.94 74.48 971.94 83.61 987.11 83.61 987.11 74.48 979.64 67.75"/><polygon class="g" points="437.77 69.09 446.44 69.09 438.45 76.17 430 75.86 437.77 69.09"/><rect class="h" x="430" y="75.83" width="8.71" height="9.13"/><polygon class="i" points="446.42 69.1 438.71 75.83 438.71 84.96 453.88 84.96 453.88 75.83 446.42 69.1"/><polygon class="g" points="387.19 69.09 395.86 69.09 387.87 76.18 379.42 75.87 387.19 69.09"/><rect class="h" x="379.42" y="75.83" width="8.71" height="9.13"/><polygon class="i" points="395.83 69.1 388.13 75.83 388.13 84.97 403.3 84.97 403.3 75.83 395.83 69.1"/><polygon class="g" points="1898.17 66.59 1906.84 66.59 1898.85 73.67 1890.4 73.37 1898.17 66.59"/><rect class="h" x="1890.4" y="73.33" width="8.71" height="9.13"/><polygon class="i" points="1906.81 66.6 1899.11 73.33 1899.11 82.46 1914.28 82.46 1914.28 73.33 1906.81 66.6"/><polygon class="g" points="2028.79 64.81 2037.45 64.81 2029.46 71.89 2021.02 71.58 2028.79 64.81"/><rect class="h" x="2021.02" y="71.55" width="8.71" height="9.13"/><polygon class="i" points="2037.43 64.82 2029.73 71.55 2029.73 80.68 2044.9 80.68 2044.9 71.55 2037.43 64.82"/><polygon class="g" points="2231.07 73.87 2239.74 73.87 2231.75 80.95 2223.3 80.65 2231.07 73.87"/><rect class="h" x="2223.3" y="80.61" width="8.71" height="9.13"/><polygon class="i" points="2239.71 73.88 2232.01 80.61 2232.01 89.74 2247.18 89.74 2247.18 80.61 2239.71 73.88"/><polygon class="g" points="2279.48 69.48 2288.14 69.48 2280.15 76.56 2271.71 76.25 2279.48 69.48"/><rect class="h" x="2271.71" y="76.22" width="8.71" height="9.13"/><polygon class="g" points="2279.97 69.48 2288.63 69.48 2280.65 76.56 2272.2 76.25 2279.97 69.48"/><rect class="h" x="2272.2" y="76.22" width="8.71" height="9.13"/><polygon class="i" points="2288.12 69.48 2280.42 76.22 2280.42 85.35 2295.59 85.35 2295.59 76.22 2288.12 69.48"/><polygon class="g" points="2357.42 69.48 2366.08 69.48 2358.09 76.56 2349.64 76.26 2357.42 69.48"/><rect class="h" x="2349.65" y="76.22" width="8.71" height="9.13"/><polygon class="i" points="2366.06 69.49 2358.35 76.22 2358.35 85.35 2373.53 85.35 2373.53 76.22 2366.06 69.49"/><polygon class="g" points="2511.43 73.87 2520.1 73.87 2512.11 80.96 2503.66 80.65 2511.43 73.87"/><rect class="h" x="2503.66" y="80.62" width="8.71" height="9.13"/><polygon class="i" points="2520.07 73.88 2512.37 80.62 2512.37 89.75 2527.54 89.75 2527.54 80.62 2520.07 73.88"/><polygon class="g" points="2469.65 71.65 2478.32 71.65 2470.33 78.74 2461.88 78.43 2469.65 71.65"/><rect class="h" x="2461.88" y="78.4" width="8.71" height="9.13"/><polygon class="i" points="2478.3 71.66 2470.59 78.4 2470.59 87.53 2485.76 87.53 2485.76 78.4 2478.3 71.66"/><polygon class="g" points="1944.27 69.65 1952.93 69.65 1944.94 76.73 1936.5 76.42 1944.27 69.65"/><rect class="h" x="1936.5" y="76.39" width="8.71" height="9.13"/><polygon class="i" points="1952.91 69.66 1945.21 76.39 1945.21 85.52 1960.38 85.52 1960.38 76.39 1952.91 69.66"/><polygon class="g" points="2092.6 70.5 2101.26 70.5 2093.28 77.58 2084.83 77.28 2092.6 70.5"/><rect class="h" x="2084.83" y="77.24" width="8.71" height="9.13"/><polygon class="i" points="2101.24 70.51 2093.54 77.24 2093.54 86.37 2108.71 86.37 2108.71 77.24 2101.24 70.51"/><polygon class="g" points="2279.97 69.48 2288.63 69.48 2280.65 76.56 2272.2 76.25 2279.97 69.48"/><rect class="h" x="2272.2" y="76.22" width="8.71" height="9.13"/><polygon class="i" points="2288.12 69.48 2280.42 76.22 2280.42 85.35 2295.59 85.35 2295.59 76.22 2288.12 69.48"/><polygon class="g" points="2357.42 69.48 2366.08 69.48 2358.09 76.56 2349.64 76.26 2357.42 69.48"/><rect class="h" x="2350.66" y="76.22" width="8.71" height="9.13"/><polygon class="i" points="2367.07 69.49 2359.37 76.22 2359.37 85.35 2374.54 85.35 2374.54 76.22 2367.07 69.49"/><polygon class="g" points="2470.67 71.65 2479.34 71.65 2471.35 78.74 2462.9 78.43 2470.67 71.65"/><rect class="h" x="2462.9" y="78.4" width="8.71" height="9.13"/><polygon class="i" points="2479.31 71.66 2471.61 78.4 2471.61 87.53 2486.78 87.53 2486.78 78.4 2479.31 71.66"/><polygon class="g" points="2358.43 69.48 2367.1 69.48 2359.11 76.56 2350.66 76.26 2358.43 69.48"/><polygon class="g" points="3490.35 72.09 3499.02 72.09 3491.03 79.18 3482.58 78.87 3490.35 72.09"/><rect class="h" x="3482.58" y="78.84" width="8.71" height="9.13"/><polygon class="i" points="3498.99 72.1 3491.29 78.84 3491.29 87.97 3506.46 87.97 3506.46 78.84 3498.99 72.1"/><rect class="h" x="3329.58" y="74.44" width="8.71" height="9.13"/><polygon class="i" points="3345.99 67.71 3338.29 74.44 3338.29 83.57 3353.46 83.57 3353.46 74.44 3345.99 67.71"/><polygon class="g" points="3449.59 69.87 3458.26 69.87 3450.27 76.96 3441.82 76.65 3449.59 69.87"/><rect class="h" x="3441.82" y="76.61" width="8.71" height="9.13"/><polygon class="i" points="3458.23 69.88 3450.53 76.61 3450.53 85.75 3465.7 85.75 3465.7 76.61 3458.23 69.88"/><polygon class="g" points="3337.35 67.7 3346.02 67.7 3338.03 74.78 3329.58 74.48 3337.35 67.7"/><polygon class="g" points="3822.29 72.07 3830.96 72.07 3822.97 79.16 3814.52 78.85 3822.29 72.07"/><rect class="h" x="3814.52" y="78.82" width="8.71" height="9.13"/><polygon class="i" points="3830.93 72.08 3823.23 78.82 3823.23 87.95 3838.4 87.95 3838.4 78.82 3830.93 72.08"/><rect class="h" x="3661.52" y="74.42" width="8.71" height="9.13"/><polygon class="i" points="3677.93 67.69 3670.23 74.42 3670.23 83.55 3685.4 83.55 3685.4 74.42 3677.93 67.69"/><polygon class="g" points="3781.53 69.85 3790.2 69.85 3782.21 76.94 3773.76 76.63 3781.53 69.85"/><rect class="h" x="3773.76" y="76.6" width="8.71" height="9.13"/><polygon class="i" points="3790.17 69.86 3782.47 76.59 3782.47 85.73 3797.64 85.73 3797.64 76.59 3790.17 69.86"/><polygon class="g" points="3669.29 67.68 3677.96 67.68 3669.97 74.77 3661.52 74.46 3669.29 67.68"/><polygon class="g" points="4648.92 67.64 4657.59 67.64 4649.6 74.72 4641.15 74.41 4648.92 67.64"/><rect class="h" x="4641.15" y="74.38" width="8.71" height="9.13"/><polygon class="i" points="4657.56 67.64 4649.86 74.38 4649.86 83.51 4665.03 83.51 4665.03 74.38 4657.56 67.64"/><rect class="h" x="4488.15" y="69.98" width="8.71" height="9.13"/><polygon class="i" points="4504.56 63.25 4496.86 69.98 4496.86 79.11 4512.03 79.11 4512.03 69.98 4504.56 63.25"/><polygon class="g" points="4608.16 65.41 4616.82 65.41 4608.84 72.5 4600.39 72.19 4608.16 65.41"/><rect class="h" x="4600.39" y="72.16" width="8.71" height="9.13"/><polygon class="i" points="4616.8 65.42 4609.1 72.16 4609.1 81.29 4624.27 81.29 4624.27 72.16 4616.8 65.42"/><polygon class="g" points="4495.92 63.24 4504.59 63.24 4496.6 70.33 4488.15 70.02 4495.92 63.24"/><polygon class="g" points="5089.7 70.98 5098.37 70.98 5090.38 78.07 5081.93 77.76 5089.7 70.98"/><rect class="h" x="5081.93" y="77.73" width="8.71" height="9.13"/><polygon class="i" points="5098.34 70.99 5090.64 77.72 5090.64 86.86 5105.81 86.86 5105.81 77.72 5098.34 70.99"/><rect class="h" x="4928.93" y="73.33" width="8.71" height="9.13"/><polygon class="i" points="4945.34 66.6 4937.64 73.33 4937.64 82.46 4952.81 82.46 4952.81 73.33 4945.34 66.6"/><polygon class="g" points="5048.94 68.76 5057.6 68.76 5049.62 75.85 5041.17 75.54 5048.94 68.76"/><rect class="h" x="5041.17" y="75.5" width="8.71" height="9.13"/><polygon class="i" points="5057.58 68.77 5049.88 75.5 5049.88 84.63 5065.05 84.63 5065.05 75.5 5057.58 68.77"/><polygon class="g" points="4936.7 66.59 4945.37 66.59 4937.38 73.67 4928.93 73.36 4936.7 66.59"/><polygon class="g" points="5868.84 69.09 5877.51 69.09 5869.52 76.18 5861.07 75.87 5868.84 69.09"/><rect class="h" x="5861.07" y="75.84" width="8.71" height="9.13"/><polygon class="i" points="5877.48 69.1 5869.78 75.84 5869.78 84.97 5884.95 84.97 5884.95 75.84 5877.48 69.1"/><rect class="h" x="5708.07" y="71.44" width="8.71" height="9.13"/><polygon class="i" points="5724.48 64.71 5716.78 71.44 5716.78 80.57 5731.95 80.57 5731.95 71.44 5724.48 64.71"/><polygon class="g" points="5828.08 66.87 5836.74 66.87 5828.76 73.96 5820.31 73.65 5828.08 66.87"/><rect class="h" x="5820.31" y="73.61" width="8.71" height="9.13"/><polygon class="i" points="5836.72 66.88 5829.02 73.61 5829.02 82.75 5844.19 82.75 5844.19 73.61 5836.72 66.88"/><polygon class="g" points="5715.84 64.7 5724.51 64.7 5716.52 71.78 5708.07 71.48 5715.84 64.7"/><polygon class="g" points="6299.91 66.05 6308.57 66.05 6300.59 73.13 6292.14 72.82 6299.91 66.05"/><rect class="h" x="6292.14" y="72.79" width="8.71" height="9.13"/><polygon class="i" points="6308.55 66.05 6300.85 72.79 6300.85 81.92 6316.02 81.92 6316.02 72.79 6308.55 66.05"/><rect class="h" x="6139.14" y="68.39" width="8.71" height="9.13"/><polygon class="i" points="6155.55 61.66 6147.85 68.39 6147.85 77.52 6163.02 77.52 6163.02 68.39 6155.55 61.66"/><polygon class="g" points="6259.15 63.82 6267.81 63.82 6259.82 70.91 6251.38 70.6 6259.15 63.82"/><rect class="h" x="6251.38" y="70.57" width="8.71" height="9.13"/><polygon class="i" points="6267.79 63.83 6260.09 70.57 6260.09 79.7 6275.26 79.7 6275.26 70.57 6267.79 63.83"/><polygon class="g" points="6146.91 61.65 6155.57 61.65 6147.59 68.74 6139.14 68.43 6146.91 61.65"/><polygon class="g" points="7025.06 68.25 7033.72 68.25 7025.73 75.33 7017.29 75.02 7025.06 68.25"/><rect class="h" x="7017.29" y="74.99" width="8.71" height="9.13"/><polygon class="i" points="7033.7 68.26 7025.99 74.99 7025.99 84.12 7041.16 84.12 7041.16 74.99 7033.7 68.26"/><rect class="h" x="6864.29" y="70.59" width="8.71" height="9.13"/><polygon class="i" points="6880.7 63.86 6872.99 70.59 6872.99 79.73 6888.16 79.73 6888.16 70.59 6880.7 63.86"/><polygon class="g" points="6984.29 66.03 6992.96 66.03 6984.97 73.11 6976.52 72.8 6984.29 66.03"/><rect class="h" x="6976.52" y="72.77" width="8.71" height="9.13"/><polygon class="i" points="6992.94 66.03 6985.23 72.77 6985.23 81.9 7000.4 81.9 7000.4 72.77 6992.94 66.03"/><polygon class="g" points="6872.06 63.85 6880.72 63.85 6872.73 70.94 6864.28 70.63 6872.06 63.85"/><rect class="h" x="7722.9" y="72.8" width="8.71" height="9.13"/><polygon class="i" points="7739.32 66.06 7731.61 72.8 7731.61 81.93 7746.78 81.93 7746.78 72.8 7739.32 66.06"/><polygon class="g" points="7812.91 68.23 7821.58 68.23 7813.59 75.31 7805.14 75 7812.91 68.23"/><rect class="h" x="7805.14" y="74.97" width="8.71" height="9.13"/><polygon class="i" points="7821.55 68.24 7813.85 74.97 7813.85 84.1 7829.02 84.1 7829.02 74.97 7821.55 68.24"/><polygon class="g" points="7730.67 66.05 7739.34 66.05 7731.35 73.14 7722.9 72.83 7730.67 66.05"/><polygon class="g" points="8274.56 68.25 8283.22 68.25 8275.23 75.34 8266.79 75.03 8274.56 68.25"/><rect class="h" x="8266.79" y="74.99" width="8.71" height="9.13"/><polygon class="i" points="8283.2 68.26 8275.5 74.99 8275.5 84.12 8290.67 84.12 8290.67 74.99 8283.2 68.26"/><rect class="h" x="8113.79" y="70.6" width="8.71" height="9.13"/><polygon class="i" points="8130.2 63.87 8122.5 70.6 8122.5 79.73 8137.67 79.73 8137.67 70.6 8130.2 63.87"/><polygon class="g" points="8233.8 66.03 8242.46 66.03 8234.47 73.11 8226.02 72.81 8233.8 66.03"/><rect class="h" x="8226.03" y="72.77" width="8.71" height="9.13"/><polygon class="i" points="8242.44 66.04 8234.73 72.77 8234.73 81.9 8249.91 81.9 8249.91 72.77 8242.44 66.04"/><polygon class="g" points="8121.56 63.86 8130.22 63.86 8122.23 70.94 8113.79 70.63 8121.56 63.86"/><polygon class="g" points="8355.41 73.8 8364.08 73.8 8356.09 80.88 8347.64 80.57 8355.41 73.8"/><rect class="h" x="8347.64" y="80.54" width="8.71" height="9.13"/><polygon class="i" points="8364.05 73.8 8356.35 80.54 8356.35 89.67 8371.52 89.67 8371.52 80.54 8364.05 73.8"/><rect class="h" x="8194.64" y="76.14" width="8.71" height="9.13"/><polygon class="i" points="8211.05 69.41 8203.35 76.14 8203.35 85.27 8218.52 85.27 8218.52 76.14 8211.05 69.41"/><polygon class="g" points="8314.65 71.57 8323.32 71.57 8315.33 78.66 8306.88 78.35 8314.65 71.57"/><rect class="h" x="8306.88" y="78.32" width="8.71" height="9.13"/><polygon class="i" points="8323.29 71.58 8315.59 78.32 8315.59 87.45 8330.76 87.45 8330.76 78.32 8323.29 71.58"/><polygon class="g" points="8202.41 69.4 8211.08 69.4 8203.09 76.49 8194.64 76.18 8202.41 69.4"/><polygon class="g" points="8750.32 72.58 8758.99 72.58 8751 79.66 8742.55 79.35 8750.32 72.58"/><rect class="h" x="8742.55" y="79.32" width="8.71" height="9.13"/><polygon class="i" points="8758.97 72.59 8751.26 79.32 8751.26 88.45 8766.43 88.45 8766.43 79.32 8758.97 72.59"/><rect class="h" x="8589.55" y="74.93" width="8.71" height="9.13"/><polygon class="i" points="8605.97 68.19 8598.26 74.92 8598.26 84.06 8613.43 84.06 8613.43 74.92 8605.97 68.19"/><polygon class="g" points="8709.56 70.36 8718.23 70.36 8710.24 77.44 8701.79 77.13 8709.56 70.36"/><rect class="h" x="8701.79" y="77.1" width="8.71" height="9.13"/><polygon class="i" points="8718.2 70.36 8710.5 77.1 8710.5 86.23 8725.67 86.23 8725.67 77.1 8718.2 70.36"/><polygon class="g" points="8597.32 68.18 8605.99 68.18 8598 75.27 8589.55 74.96 8597.32 68.18"/><polygon class="g" points="9007.13 62.45 9015.8 62.45 9007.81 69.54 8999.36 69.23 9007.13 62.45"/><rect class="h" x="8999.36" y="69.19" width="8.71" height="9.13"/><polygon class="i" points="9015.78 62.46 9008.07 69.19 9008.07 78.33 9023.24 78.33 9023.24 69.19 9015.78 62.46"/><rect class="h" x="8846.36" y="64.8" width="8.71" height="9.13"/><polygon class="i" points="8862.77 58.07 8855.07 64.8 8855.07 73.93 8870.24 73.93 8870.24 64.8 8862.77 58.07"/><polygon class="g" points="8966.37 60.23 8975.04 60.23 8967.05 67.32 8958.6 67.01 8966.37 60.23"/><rect class="h" x="8958.6" y="66.97" width="8.71" height="9.13"/><polygon class="i" points="8975.01 60.24 8967.31 66.97 8967.31 76.1 8982.48 76.1 8982.48 66.97 8975.01 60.24"/><polygon class="g" points="8854.13 58.06 8862.8 58.06 8854.81 65.14 8846.36 64.83 8854.13 58.06"/><polygon class="g" points="9379.66 69.96 9388.33 69.96 9380.34 77.05 9371.89 76.74 9379.66 69.96"/><rect class="h" x="9371.89" y="76.7" width="8.71" height="9.13"/><polygon class="i" points="9388.3 69.97 9380.6 76.7 9380.6 85.83 9395.77 85.83 9395.77 76.7 9388.3 69.97"/><rect class="h" x="9218.89" y="72.31" width="8.71" height="9.13"/><polygon class="i" points="9235.3 65.58 9227.6 72.31 9227.6 81.44 9242.77 81.44 9242.77 72.31 9235.3 65.58"/><polygon class="g" points="9338.9 67.74 9347.56 67.74 9339.58 74.82 9331.13 74.52 9338.9 67.74"/><rect class="h" x="9331.13" y="74.48" width="8.71" height="9.13"/><polygon class="i" points="9347.54 67.75 9339.84 74.48 9339.84 83.61 9355.01 83.61 9355.01 74.48 9347.54 67.75"/><polygon class="g" points="9226.66 65.57 9235.33 65.57 9227.34 72.65 9218.89 72.34 9226.66 65.57"/><polygon class="g" points="9624.15 71.96 9632.82 71.96 9624.83 79.05 9616.38 78.74 9624.15 71.96"/><rect class="h" x="9616.38" y="78.7" width="8.71" height="9.13"/><polygon class="i" points="9632.79 71.97 9625.09 78.7 9625.09 87.83 9640.26 87.83 9640.26 78.7 9632.79 71.97"/><rect class="h" x="9463.38" y="74.31" width="8.71" height="9.13"/><polygon class="i" points="9479.79 67.58 9472.09 74.31 9472.09 83.44 9487.26 83.44 9487.26 74.31 9479.79 67.58"/><polygon class="g" points="9583.39 69.74 9592.05 69.74 9584.07 76.82 9575.62 76.52 9583.39 69.74"/><rect class="h" x="9575.62" y="76.48" width="8.71" height="9.13"/><polygon class="i" points="9592.03 69.75 9584.33 76.48 9584.33 85.61 9599.5 85.61 9599.5 76.48 9592.03 69.75"/><polygon class="g" points="9471.15 67.57 9479.82 67.57 9471.83 74.65 9463.38 74.34 9471.15 67.57"/><polygon class="g" points="10230.35 64.34 10239.02 64.34 10231.03 71.43 10222.58 71.12 10230.35 64.34"/><rect class="h" x="10222.58" y="71.08" width="8.71" height="9.13"/><polygon class="i" points="10239 64.35 10231.29 71.08 10231.29 80.22 10246.46 80.22 10246.46 71.08 10239 64.35"/><rect class="h" x="10069.58" y="66.69" width="8.71" height="9.13"/><polygon class="i" points="10086 59.96 10078.29 66.69 10078.29 75.82 10093.46 75.82 10093.46 66.69 10086 59.96"/><polygon class="g" points="10189.59 62.12 10198.26 62.12 10190.27 69.21 10181.82 68.9 10189.59 62.12"/><rect class="h" x="10181.82" y="68.86" width="8.71" height="9.13"/><polygon class="i" points="10198.23 62.13 10190.53 68.86 10190.53 77.99 10205.7 77.99 10205.7 68.86 10198.23 62.13"/><polygon class="g" points="10077.35 59.95 10086.02 59.95 10078.03 67.03 10069.58 66.72 10077.35 59.95"/><polygon class="g" points="10601.01 69.91 10609.68 69.91 10601.69 77 10593.24 76.69 10601.01 69.91"/><rect class="h" x="10593.24" y="76.65" width="8.71" height="9.13"/><polygon class="i" points="10609.66 69.92 10601.95 76.65 10601.95 85.78 10617.12 85.78 10617.12 76.65 10609.66 69.92"/><rect class="h" x="10440.24" y="72.26" width="8.71" height="9.13"/><polygon class="i" points="10456.66 65.53 10448.95 72.26 10448.95 81.39 10464.12 81.39 10464.12 72.26 10456.66 65.53"/><polygon class="g" points="10560.25 67.69 10568.92 67.69 10560.93 74.77 10552.48 74.47 10560.25 67.69"/><rect class="h" x="10552.48" y="74.43" width="8.71" height="9.13"/><polygon class="i" points="10568.89 67.7 10561.19 74.43 10561.19 83.56 10576.36 83.56 10576.36 74.43 10568.89 67.7"/><polygon class="g" points="10448.01 65.52 10456.68 65.52 10448.69 72.6 10440.24 72.29 10448.01 65.52"/><polygon class="g" points="11045.39 73.26 11054.06 73.26 11046.07 80.34 11037.62 80.03 11045.39 73.26"/><rect class="h" x="11037.62" y="80" width="8.71" height="9.13"/><polygon class="i" points="11054.03 73.27 11046.33 80 11046.33 89.13 11061.5 89.13 11061.5 80 11054.03 73.27"/><rect class="h" x="10884.62" y="75.61" width="8.71" height="9.13"/><polygon class="i" points="10901.03 68.87 10893.33 75.61 10893.33 84.74 10908.5 84.74 10908.5 75.61 10901.03 68.87"/><polygon class="g" points="11004.63 71.04 11013.29 71.04 11005.3 78.12 10996.86 77.81 11004.63 71.04"/><rect class="h" x="10996.86" y="77.78" width="8.71" height="9.13"/><polygon class="i" points="11013.27 71.05 11005.57 77.78 11005.57 86.91 11020.74 86.91 11020.74 77.78 11013.27 71.05"/><polygon class="g" points="10892.39 68.86 10901.05 68.86 10893.07 75.95 10884.62 75.64 10892.39 68.86"/><polygon class="g" points="11413.88 65.3 11422.54 65.3 11414.56 72.38 11406.11 72.07 11413.88 65.3"/><rect class="h" x="11406.11" y="72.04" width="8.71" height="9.13"/><polygon class="i" points="11422.52 65.31 11414.82 72.04 11414.82 81.17 11429.99 81.17 11429.99 72.04 11422.52 65.31"/><rect class="h" x="11253.11" y="67.64" width="8.71" height="9.13"/><polygon class="i" points="11269.52 60.91 11261.82 67.64 11261.82 76.78 11276.99 76.78 11276.99 67.64 11269.52 60.91"/><polygon class="g" points="11373.12 63.08 11381.78 63.08 11373.79 70.16 11365.35 69.85 11373.12 63.08"/><rect class="h" x="11365.35" y="69.82" width="8.71" height="9.13"/><polygon class="i" points="11381.76 63.08 11374.06 69.82 11374.06 78.95 11389.23 78.95 11389.23 69.82 11381.76 63.08"/><polygon class="g" points="11260.88 60.9 11269.54 60.9 11261.55 67.99 11253.11 67.68 11260.88 60.9"/><polygon class="g" points="11747.56 66.47 11756.22 66.47 11748.23 73.56 11739.79 73.25 11747.56 66.47"/><rect class="h" x="11739.79" y="73.21" width="8.71" height="9.13"/><polygon class="i" points="11756.2 66.48 11748.5 73.21 11748.5 82.34 11763.67 82.34 11763.67 73.21 11756.2 66.48"/><rect class="h" x="11586.79" y="68.82" width="8.71" height="9.13"/><polygon class="i" points="11603.2 62.09 11595.5 68.82 11595.5 77.95 11610.67 77.95 11610.67 68.82 11603.2 62.09"/><polygon class="g" points="11706.8 64.25 11715.46 64.25 11707.47 71.33 11699.02 71.03 11706.8 64.25"/><rect class="h" x="11699.03" y="70.99" width="8.71" height="9.13"/><polygon class="i" points="11715.44 64.26 11707.73 70.99 11707.73 80.12 11722.91 80.12 11722.91 70.99 11715.44 64.26"/><polygon class="g" points="11594.56 62.08 11603.22 62.08 11595.23 69.16 11586.79 68.85 11594.56 62.08"/><polygon class="g" points="12179.18 74.09 12187.84 74.09 12179.86 81.18 12171.41 80.87 12179.18 74.09"/><rect class="h" x="12171.41" y="80.84" width="8.71" height="9.13"/><polygon class="i" points="12187.82 74.1 12180.12 80.84 12180.12 89.97 12195.29 89.97 12195.29 80.84 12187.82 74.1"/><rect class="h" x="12018.41" y="76.44" width="8.71" height="9.13"/><polygon class="i" points="12034.82 69.71 12027.12 76.44 12027.12 85.57 12042.29 85.57 12042.29 76.44 12034.82 69.71"/><polygon class="g" points="12138.42 71.87 12147.08 71.87 12139.09 78.96 12130.65 78.65 12138.42 71.87"/><rect class="h" x="12130.65" y="78.61" width="8.71" height="9.13"/><polygon class="i" points="12147.06 71.88 12139.36 78.61 12139.36 87.75 12154.53 87.75 12154.53 78.61 12147.06 71.88"/><polygon class="g" points="12026.18 69.7 12034.84 69.7 12026.86 76.78 12018.41 76.48 12026.18 69.7"/><polygon class="g" points="12523.01 68.36 12531.67 68.36 12523.68 75.45 12515.24 75.14 12523.01 68.36"/><rect class="h" x="12515.24" y="75.11" width="8.71" height="9.13"/><polygon class="i" points="12531.65 68.37 12523.94 75.11 12523.94 84.24 12539.12 84.24 12539.12 75.11 12531.65 68.37"/><rect class="h" x="12362.24" y="70.71" width="8.71" height="9.13"/><polygon class="i" points="12378.65 63.98 12370.94 70.71 12370.94 79.84 12386.12 79.84 12386.12 70.71 12378.65 63.98"/><polygon class="g" points="12482.25 66.14 12490.91 66.14 12482.92 73.23 12474.47 72.92 12482.25 66.14"/><rect class="h" x="12474.47" y="72.88" width="8.71" height="9.13"/><polygon class="i" points="12490.89 66.15 12483.18 72.88 12483.18 82.02 12498.35 82.02 12498.35 72.88 12490.89 66.15"/><polygon class="g" points="12370.01 63.97 12378.67 63.97 12370.68 71.05 12362.24 70.75 12370.01 63.97"/><polygon class="g" points="12930.77 73.93 12939.44 73.93 12931.45 81.02 12923 80.71 12930.77 73.93"/><rect class="h" x="12923.01" y="80.67" width="8.71" height="9.13"/><polygon class="i" points="12939.42 73.94 12931.71 80.67 12931.71 89.81 12946.89 89.81 12946.89 80.67 12939.42 73.94"/><rect class="h" x="12770" y="76.28" width="8.71" height="9.13"/><polygon class="i" points="12786.42 69.55 12778.71 76.28 12778.71 85.41 12793.89 85.41 12793.89 76.28 12786.42 69.55"/><polygon class="g" points="12890.01 71.71 12898.68 71.71 12890.69 78.8 12882.24 78.49 12890.01 71.71"/><rect class="h" x="12882.24" y="78.45" width="8.71" height="9.13"/><polygon class="i" points="12898.66 71.72 12890.95 78.45 12890.95 87.58 12906.12 87.58 12906.12 78.45 12898.66 71.72"/><polygon class="g" points="12777.77 69.54 12786.44 69.54 12778.45 76.62 12770 76.31 12777.77 69.54"/><polygon class="g" points="13206.53 72.71 13215.2 72.71 13207.21 79.8 13198.76 79.49 13206.53 72.71"/><rect class="h" x="13198.76" y="79.46" width="8.71" height="9.13"/><polygon class="i" points="13215.18 72.72 13207.47 79.46 13207.47 88.59 13222.64 88.59 13222.64 79.46 13215.18 72.72"/><rect class="h" x="13045.76" y="75.06" width="8.71" height="9.13"/><polygon class="i" points="13062.18 68.33 13054.47 75.06 13054.47 84.19 13069.64 84.19 13069.64 75.06 13062.18 68.33"/><polygon class="g" points="13165.77 70.49 13174.44 70.49 13166.45 77.58 13158 77.27 13165.77 70.49"/><rect class="h" x="13158" y="77.23" width="8.71" height="9.13"/><polygon class="i" points="13174.41 70.5 13166.71 77.23 13166.71 86.36 13181.88 86.36 13181.88 77.23 13174.41 70.5"/><polygon class="g" points="13053.53 68.32 13062.2 68.32 13054.21 75.4 13045.76 75.09 13053.53 68.32"/><polygon class="g" points="13690.66 66.12 13699.33 66.12 13691.34 73.21 13682.89 72.9 13690.66 66.12"/><rect class="h" x="13682.89" y="72.86" width="8.71" height="9.13"/><polygon class="i" points="13699.3 66.13 13691.6 72.86 13691.6 82 13706.77 82 13706.77 72.86 13699.3 66.13"/><rect class="h" x="13529.89" y="68.47" width="8.71" height="9.13"/><polygon class="i" points="13546.3 61.74 13538.6 68.47 13538.6 77.6 13553.77 77.6 13553.77 68.47 13546.3 61.74"/><polygon class="g" points="13649.9 63.9 13658.56 63.9 13650.58 70.99 13642.13 70.68 13649.9 63.9"/><rect class="h" x="13642.13" y="70.64" width="8.71" height="9.13"/><polygon class="i" points="13658.54 63.91 13650.84 70.64 13650.84 79.77 13666.01 79.77 13666.01 70.64 13658.54 63.91"/><polygon class="g" points="13537.66 61.73 13546.33 61.73 13538.34 68.81 13529.89 68.5 13537.66 61.73"/><polygon class="g" points="14128.73 67.47 14137.39 67.47 14129.4 74.55 14120.96 74.24 14128.73 67.47"/><rect class="h" x="14120.96" y="74.21" width="8.71" height="9.13"/><polygon class="i" points="14137.37 67.48 14129.67 74.21 14129.67 83.34 14144.84 83.34 14144.84 74.21 14137.37 67.48"/><rect class="h" x="13967.96" y="69.82" width="8.71" height="9.13"/><polygon class="i" points="13984.37 63.08 13976.67 69.82 13976.67 78.95 13991.84 78.95 13991.84 69.82 13984.37 63.08"/><polygon class="g" points="14087.97 65.25 14096.63 65.25 14088.64 72.33 14080.19 72.02 14087.97 65.25"/><rect class="h" x="14080.19" y="71.99" width="8.71" height="9.13"/><polygon class="i" points="14096.61 65.25 14088.9 71.99 14088.9 81.12 14104.08 81.12 14104.08 71.99 14096.61 65.25"/><polygon class="g" points="13975.73 63.07 13984.39 63.07 13976.4 70.16 13967.96 69.85 13975.73 63.07"/><polygon class="g" points="14537.82 69.67 14546.48 69.67 14538.49 76.75 14530.05 76.44 14537.82 69.67"/><rect class="h" x="14530.05" y="76.41" width="8.71" height="9.13"/><polygon class="i" points="14546.46 69.68 14538.75 76.41 14538.75 85.54 14553.92 85.54 14553.92 76.41 14546.46 69.68"/><rect class="h" x="14377.04" y="72.02" width="8.71" height="9.13"/><polygon class="i" points="14393.46 65.28 14385.75 72.02 14385.75 81.15 14400.92 81.15 14400.92 72.02 14393.46 65.28"/><polygon class="g" points="14497.05 67.45 14505.72 67.45 14497.73 74.53 14489.28 74.22 14497.05 67.45"/><rect class="h" x="14489.28" y="74.19" width="8.71" height="9.13"/><polygon class="i" points="14505.69 67.46 14497.99 74.19 14497.99 83.32 14513.16 83.32 14513.16 74.19 14505.69 67.46"/><polygon class="g" points="14384.82 65.28 14393.48 65.28 14385.49 72.36 14377.05 72.05 14384.82 65.28"/><polygon class="g" points="14951.6 68.81 14960.27 68.81 14952.28 75.9 14943.83 75.59 14951.6 68.81"/><rect class="h" x="14943.83" y="75.56" width="8.71" height="9.13"/><polygon class="i" points="14960.24 68.82 14952.54 75.56 14952.54 84.69 14967.71 84.69 14967.71 75.56 14960.24 68.82"/><rect class="h" x="14790.83" y="71.16" width="8.71" height="9.13"/><polygon class="i" points="14807.24 64.43 14799.54 71.16 14799.54 80.29 14814.71 80.29 14814.71 71.16 14807.24 64.43"/><polygon class="g" points="14910.84 66.59 14919.51 66.59 14911.52 73.68 14903.07 73.37 14910.84 66.59"/><rect class="h" x="14903.07" y="73.33" width="8.71" height="9.13"/><polygon class="i" points="14919.48 66.6 14911.78 73.33 14911.78 82.47 14926.95 82.47 14926.95 73.33 14919.48 66.6"/><polygon class="g" points="14798.6 64.42 14807.27 64.42 14799.28 71.5 14790.83 71.19 14798.6 64.42"/><polygon class="g" points="15250.28 68.79 15258.94 68.79 15250.96 75.88 15242.51 75.57 15250.28 68.79"/><rect class="h" x="15242.51" y="75.54" width="8.71" height="9.13"/><polygon class="i" points="15258.92 68.8 15251.22 75.54 15251.22 84.67 15266.39 84.67 15266.39 75.54 15258.92 68.8"/><rect class="h" x="15050.06" y="74.68" width="8.71" height="9.13"/><polygon class="i" points="15066.47 67.95 15058.76 74.68 15058.76 83.81 15073.94 83.81 15073.94 74.68 15066.47 67.95"/><polygon class="g" points="15209.52 66.57 15218.18 66.57 15210.19 73.66 15201.75 73.35 15209.52 66.57"/><rect class="h" x="15201.75" y="73.31" width="8.71" height="9.13"/><polygon class="i" points="15218.16 66.58 15210.46 73.31 15210.46 82.44 15225.63 82.44 15225.63 73.31 15218.16 66.58"/><polygon class="g" points="15057.83 67.94 15066.49 67.94 15058.5 75.03 15050.06 74.72 15057.83 67.94"/><polygon class="g" points="15690.38 69.8 15699.05 69.8 15691.06 76.88 15682.61 76.57 15690.38 69.8"/><rect class="h" x="15682.61" y="76.54" width="8.71" height="9.13"/><polygon class="i" points="15699.02 69.81 15691.32 76.54 15691.32 85.67 15706.49 85.67 15706.49 76.54 15699.02 69.81"/><rect class="h" x="15529.61" y="72.14" width="8.71" height="9.13"/><polygon class="i" points="15546.02 65.41 15538.32 72.14 15538.32 81.28 15553.49 81.28 15553.49 72.14 15546.02 65.41"/><polygon class="g" points="15398.44 74.49 15407.1 74.49 15399.11 81.57 15390.67 81.26 15398.44 74.49"/><rect class="h" x="15390.67" y="81.23" width="8.71" height="9.13"/><polygon class="i" points="15407.08 74.5 15399.38 81.23 15399.38 90.36 15414.55 90.36 15414.55 81.23 15407.08 74.5"/><polygon class="g" points="14951.6 68.91 14960.27 68.91 14952.28 76 14943.83 75.69 14951.6 68.91"/><rect class="h" x="14986.08" y="70.31" width="8.71" height="9.13"/><polygon class="i" points="15002.49 63.57 14994.79 70.31 14994.79 79.44 15009.96 79.44 15009.96 70.31 15002.49 63.57"/><polygon class="g" points="14993.85 63.66 15002.52 63.66 14994.53 70.75 14986.08 70.44 14993.85 63.66"/><rect class="h" x="15050.06" y="74.78" width="8.71" height="9.13"/><polygon class="i" points="15066.47 68.05 15058.76 74.78 15058.76 83.91 15073.94 83.91 15073.94 74.78 15066.47 68.05"/><polygon class="g" points="15057.83 68.04 15066.49 68.04 15058.5 75.12 15050.06 74.81 15057.83 68.04"/><polygon class="g" points="15398.44 74.59 15407.1 74.59 15399.11 81.67 15390.67 81.36 15398.44 74.59"/><rect class="h" x="15390.67" y="81.33" width="8.71" height="9.13"/><polygon class="i" points="15407.08 74.59 15399.38 81.33 15399.38 90.46 15414.55 90.46 15414.55 81.33 15407.08 74.59"/><polygon class="g" points="15537.38 65.4 15546.05 65.4 15538.06 72.49 15529.61 72.18 15537.38 65.4"/><line class="j" x1="14540.44" y1="239.83" x2="14930.08" y2="95.15"/><polyline class="k" points="2708.24 74.51 2700.07 78.47 2709.74 74.67"/><rect class="l" x="2708.33" y="64.29" width="1.4" height="10.38"/><circle class="m" cx="2709.03" cy="60.34" r="5.88"/><polyline class="k" points="2775.24 86.51 2767.07 90.47 2776.74 86.67"/><rect class="l" x="2775.33" y="76.29" width="1.4" height="10.38"/><circle class="m" cx="2776.03" cy="72.34" r="5.88"/><polyline class="k" points="2803.24 77.51 2795.07 81.47 2804.74 77.67"/><rect class="l" x="2803.33" y="67.29" width="1.4" height="10.38"/><circle class="m" cx="2804.03" cy="63.34" r="5.88"/><polyline class="k" points="2744.24 75.51 2736.07 79.47 2745.74 75.67"/><rect class="l" x="2744.33" y="65.29" width="1.4" height="10.38"/><circle class="m" cx="2745.03" cy="61.34" r="5.88"/><polyline class="k" points="2727.24 80.51 2719.07 84.47 2728.74 80.67"/><rect class="l" x="2727.33" y="70.29" width="1.4" height="10.38"/><circle class="m" cx="2728.03" cy="66.34" r="5.88"/><polyline class="k" points="2643.24 80.51 2635.07 84.47 2644.74 80.67"/><rect class="l" x="2643.33" y="70.29" width="1.4" height="10.38"/><circle class="m" cx="2644.03" cy="66.34" r="5.88"/><rect class="n" x="3140.57" y="40.69" width="36.16" height="37.91"/><polygon class="o" points="3146.18 48.76 3162.61 48.76 3147.46 62.2 3131.44 61.62 3146.18 48.76"/><rect class="n" x="3131.44" y="61.55" width="16.52" height="17.32"/><polygon class="c" points="3162.57 48.78 3147.96 61.55 3147.96 78.87 3176.74 78.87 3176.74 48.76 3162.57 48.78"/><path class="p" d="M3322.7,278.55a4.16,4.16,0,0,1,8.31,0" transform="translate(-158.11 -217.64)"/><rect class="p" x="3153.82" y="65.55" width="6.66" height="8.53"/><polygon class="p" points="3166.08 65.81 3171.94 65.81 3171.94 78.87 3165.55 78.87 3165.55 65.81 3166.08 65.81"/><polygon class="c" points="3208.72 40.69 3176.74 40.69 3176.74 78.61 3239.73 78.61 3239.73 40.69 3208.72 40.69"/><path class="p" d="M3348,263.47a3.28,3.28,0,1,1,6.56,0" transform="translate(-158.11 -217.64)"/><rect class="p" x="3189.88" y="47.38" width="6.66" height="8.53"/><path class="p" d="M3377.75,263.47a3.28,3.28,0,1,1,6.56,0" transform="translate(-158.11 -217.64)"/><rect class="p" x="3219.59" y="47.38" width="6.66" height="8.53"/><path class="p" d="M3363.07,263a3.28,3.28,0,0,1,6.56,0" transform="translate(-158.11 -217.64)"/><rect class="p" x="3204.9" y="46.92" width="6.66" height="8.53"/><rect class="p" x="3201.49" y="64.58" width="12.44" height="14.03"/><path class="p" d="M3175.9,15h31.81a0,0,0,0,1,0,0V32.2a0,0,0,0,1,0,0h-49.05a0,0,0,0,1,0,0v0A17.24,17.24,0,0,1,3175.9,15Z"/><circle class="c" cx="3208.23" cy="28.11" r="13.15"/><polygon class="c" points="3185.82 28.71 3221.8 28.71 3239.73 40.69 3167.65 40.83 3185.82 28.71"/><polygon class="o" points="3158.75 28.71 3195.08 28.71 3176.74 40.97 3140.57 40.83 3158.75 28.71"/><circle class="p" cx="3208.23" cy="28.11" r="8.02"/><polygon class="q" points="3223.97 85.78 3113.84 85.78 3131.41 79.31 3242.14 79.31 3223.97 85.78"/></svg>