<?xml version="1.0" encoding="UTF-8"?>
<svg width="78px" height="78px" viewBox="0 0 78 78" version="1.1" xmlns="http://www.w3.org/2000/svg" xmlns:xlink="http://www.w3.org/1999/xlink">
    <!-- Generator: Sketch 41 (35326) - http://www.bohemiancoding.com/sketch -->
    <title>Rond-derrière</title>
    <desc>Created with Sketch.</desc>
    <defs></defs>
    <g id="Page-1" stroke="none" stroke-width="1" fill="none" fill-rule="evenodd">
        <g id="Buddytrain/01-Copy-5" transform="translate(-32617.000000, -422.000000)">
            <g id="Group-4" transform="translate(32574.000000, 78.000000)">
                <g id="Group-3" transform="translate(0.000000, 308.000000)">
                    <g id="Group-2" transform="translate(41.650855, 0.000000)">
                        <g id="Page-1" transform="translate(0.104127, 0.000000)">
                            <g id="Rond-derrière" transform="translate(3.000000, 37.000000)">
                                <path d="M74.1091376,37.8857755 C74.1091376,58.3472816 57.5478789,74.9350787 37.1191086,74.9350787 C16.6891163,74.9350787 0.127857596,58.3472816 0.127857596,37.8857755 C0.127857596,17.4242693 16.6891163,0.836472223 37.1191086,0.836472223 C57.5478789,0.836472223 74.1091376,17.4242693 74.1091376,37.8857755" id="Fill-5" fill="#F4C154"></path>
                                <path d="M74.1091376,37.8857755 C74.1091376,58.3472816 57.5478789,74.9350787 37.1191086,74.9350787 C16.6891163,74.9350787 0.127857596,58.3472816 0.127857596,37.8857755 C0.127857596,17.4242693 16.6891163,0.836472223 37.1191086,0.836472223 C57.5478789,0.836472223 74.1091376,17.4242693 74.1091376,37.8857755 L74.1091376,37.8857755 Z" id="Stroke-7" stroke="#525252" stroke-width="2.44608"></path>
                            </g>
                        </g>
                    </g>
                </g>
            </g>
        </g>
    </g>
</svg>