<svg id="Calque_1" data-name="Calque 1" xmlns="http://www.w3.org/2000/svg" viewBox="0 0 96.9 66.43"><defs><style>.cls-1{fill:#fff;}</style></defs><title>snow</title><circle class="cls-1" cx="57.35" cy="12.56" r="0.57"/><circle class="cls-1" cx="72.77" cy="51.89" r="0.57"/><circle class="cls-1" cx="37.36" cy="65.85" r="0.57"/><circle class="cls-1" cx="36.93" cy="17.93" r="0.57" transform="translate(-18.47 14) rotate(-45)"/><circle class="cls-1" cx="40.85" cy="28.19" r="0.57" transform="translate(-24.57 19.78) rotate(-45)"/><circle class="cls-1" cx="32.41" cy="58.26" r="0.57" transform="translate(-48.31 22.62) rotate(-45)"/><circle class="cls-1" cx="17.18" cy="37.99" r="0.57" transform="translate(-38.44 5.91) rotate(-45)"/><circle class="cls-1" cx="25.15" cy="18.77" r="0.57" transform="translate(-22.51 5.92) rotate(-45)"/><circle class="cls-1" cx="57.4" cy="11.64" r="0.57"/><circle class="cls-1" cx="61.88" cy="21.66" r="0.57"/><circle class="cls-1" cx="54.26" cy="28.71" r="0.57"/><circle class="cls-1" cx="78.32" cy="59.39" r="0.57"/><circle class="cls-1" cx="91.59" cy="34.25" r="0.57"/><circle class="cls-1" cx="96.33" cy="9.22" r="0.57"/><circle class="cls-1" cx="79.47" cy="3.93" r="0.57"/></svg>