<svg xmlns="http://www.w3.org/2000/svg" viewBox="0 0 661.53 51.8"><defs><style>.a{opacity:0.1;}.b{fill:#ffa726;}.c{fill:#455a64;}.d{fill:#37474f;}.e{fill:#e0e0e0;}.f{fill:#90a4ae;}.g{fill:#fffbf4;}.h{fill:#0f2d59;}</style></defs><title>train</title><polygon class="a" points="622.43 51.8 0 51.8 24.65 37.72 647.09 37.72 622.43 51.8"/><path class="b" d="M5100.92,379.28c0,2-.24,3.58-2.21,3.58a3.58,3.58,0,0,1,0-7.15C5100.69,375.7,5100.92,377.3,5100.92,379.28Z" transform="translate(-4439.39 -352.47)"/><circle class="c" cx="611.33" cy="35.12" r="4.93"/><circle class="c" cx="519.76" cy="35.12" r="4.93"/><rect class="d" x="5053.63" y="381.89" width="18.31" height="9.94" transform="translate(5686.18 421.25) rotate(-180)"/><rect class="d" x="4963.8" y="381.89" width="14.55" height="9.01" transform="translate(5502.76 420.32) rotate(-180)"/><circle class="c" cx="629.52" cy="35.12" r="4.93"/><circle class="c" cx="616.62" cy="35.12" r="4.93"/><circle class="c" cx="537.62" cy="35.12" r="4.93"/><circle class="c" cx="524.72" cy="35.12" r="4.93"/><rect class="e" x="501.63" y="2.16" width="6.98" height="31.77"/><rect class="f" x="501.63" y="24.13" width="6.98" height="9.79"/><path class="g" d="M5041.92,352.5c17.88,0,57.69,17.26,57.69,25.66s-7.77,10.11-7.77,10.11h-21.28c-3.37-2.64-5.81-3-8-3s-4.67.4-8,3h-75c-3.37-2.64-5.81-3-8-3s-4.67.4-8,3H4948V352.5Z" transform="translate(-4439.39 -352.47)"/><path class="h" d="M5091.83,384.91h-21.28c-3.37-2.64-5.81-3-8-3s-4.67.4-8,3h-75c-3.37-2.64-5.81-3-8-3s-4.67.4-8,3H4948v3.35h15.39c3.37-2.64,5.81-3,8-3s4.67.4,8,3h75c3.37-2.64,5.81-3,8-3s4.67.4,8,3h21.28s7.77-1.71,7.77-10.11a3.31,3.31,0,0,0-.21-1.09C5098.17,383.52,5091.83,384.91,5091.83,384.91Z" transform="translate(-4439.39 -352.47)"/><path class="b" d="M4499.14,379.28c0,2,.24,3.58,2.21,3.58a3.58,3.58,0,1,0,0-7.15C4499.37,375.7,4499.14,377.3,4499.14,379.28Z" transform="translate(-4439.39 -352.47)"/><circle class="c" cx="109.94" cy="35.12" r="4.93"/><circle class="c" cx="201.52" cy="35.12" r="4.93"/><rect class="d" x="88.72" y="29.42" width="18.31" height="9.94"/><rect class="d" x="182.31" y="29.42" width="14.55" height="9.01"/><circle class="c" cx="91.75" cy="35.12" r="4.93"/><circle class="c" cx="104.65" cy="35.12" r="4.93"/><circle class="c" cx="183.65" cy="35.12" r="4.93"/><circle class="c" cx="196.55" cy="35.12" r="4.93"/><rect class="e" x="212.67" y="2.16" width="6.98" height="31.77"/><rect class="f" x="212.67" y="24.13" width="6.98" height="9.79"/><path class="g" d="M4558.14,352.5c-17.88,0-57.69,17.26-57.69,25.66s7.77,10.11,7.77,10.11h21.28c3.37-2.64,5.81-3,8-3s4.67.4,8,3h75c3.37-2.64,5.81-3,8-3s4.67.4,8,3h15.39V352.5Z" transform="translate(-4439.39 -352.47)"/><path class="h" d="M4508.23,384.91h21.28c3.37-2.64,5.81-3,8-3s4.67.4,8,3h75c3.37-2.64,5.81-3,8-3s4.67.4,8,3h15.39v3.35h-15.39c-3.37-2.64-5.81-3-8-3s-4.67.4-8,3h-75c-3.37-2.64-5.81-3-8-3s-4.67.4-8,3h-21.28s-7.77-1.71-7.77-10.11a3.31,3.31,0,0,1,.21-1.09C4501.89,383.52,4508.23,384.91,4508.23,384.91Z" transform="translate(-4439.39 -352.47)"/><circle class="c" cx="491.23" cy="35.12" r="4.93"/><rect class="d" x="472.03" y="29.42" width="14.55" height="9.01"/><circle class="a" cx="473.37" cy="35.12" r="4.93"/><circle class="c" cx="486.27" cy="35.12" r="4.93"/><circle class="c" cx="397.71" cy="35.12" r="4.93"/><rect class="d" x="378.5" y="29.42" width="14.55" height="9.01"/><circle class="c" cx="379.85" cy="35.12" r="4.93"/><circle class="c" cx="392.74" cy="35.12" r="4.93"/><path class="g" d="M4941.32,388.47v-36h-134c-1.19,0-3,.07-4,.14v35.66l23.51-3.79,69.83,3.79c4.83-2.64,18.12-2.8,20.77-4.42" transform="translate(-4439.39 -352.47)"/><path class="h" d="M4803.6,384.91h15.62c3.37-2.64,5.81-3,8-3s4.67.4,8,3h75c3.37-2.64,5.81-3,8-3s4.67.4,8,3h15.39v3.35h-15.39c-3.37-2.64-5.81-3-8-3s-4.67.4-8,3h-75c-3.37-2.64-5.81-3-8-3s-4.67.4-8,3H4803.6" transform="translate(-4439.39 -352.47)"/><rect class="e" x="357.1" y="2.16" width="6.98" height="31.77"/><rect class="f" x="357.1" y="24.13" width="6.98" height="9.79"/><circle class="c" cx="346.7" cy="35.12" r="4.93"/><rect class="d" x="327.5" y="29.42" width="14.55" height="9.01"/><circle class="c" cx="328.84" cy="35.12" r="4.93"/><circle class="c" cx="341.74" cy="35.12" r="4.93"/><circle class="c" cx="253.18" cy="35.12" r="4.93"/><rect class="d" x="233.97" y="29.42" width="14.55" height="9.01"/><circle class="c" cx="235.32" cy="35.12" r="4.93"/><circle class="c" cx="248.22" cy="35.12" r="4.93"/><path class="g" d="M4797.32,388.47v-36H4662.82a32.35,32.35,0,0,0-3.51.14v35.66l23.25-3.79,69.69,3.79c4.83-2.64,18.32-2.8,21-4.42" transform="translate(-4439.39 -352.47)"/><path class="h" d="M4659.08,384.91h15.62c3.37-2.64,5.81-3,8-3s4.67.4,8,3h75c3.37-2.64,5.81-3,8-3s4.67.4,8,3h15.39v3.35h-15.39c-3.37-2.64-5.81-3-8-3s-4.67.4-8,3h-75c-3.37-2.64-5.81-3-8-3s-4.67.4-8,3h-15.62" transform="translate(-4439.39 -352.47)"/><rect class="h" x="4950.68" y="363.23" width="13.13" height="8.47" rx="2" ry="2" transform="translate(5475.08 382.47) rotate(180)"/><rect class="h" x="4965.52" y="363.23" width="13.13" height="8.47" rx="2" ry="2" transform="translate(5504.77 382.47) rotate(180)"/><rect class="h" x="4980.38" y="363.23" width="13.13" height="8.47" rx="2" ry="2" transform="translate(5534.5 382.47) rotate(180)"/><rect class="h" x="4994.92" y="363.23" width="13.13" height="8.47" rx="2" ry="2" transform="translate(5563.56 382.47) rotate(180)"/><rect class="h" x="5009.77" y="363.23" width="13.13" height="8.47" rx="2" ry="2" transform="translate(5593.28 382.47) rotate(180)"/><rect class="h" x="5024.86" y="363.23" width="13.13" height="8.47" rx="2" ry="2" transform="translate(5623.46 382.47) rotate(180)"/><rect class="h" x="5039.62" y="363.23" width="13.13" height="8.47" rx="2" ry="2" transform="translate(5652.96 382.47) rotate(180)"/><rect class="h" x="5054.38" y="363.23" width="7.76" height="8.47" rx="2" ry="2" transform="translate(5677.12 382.47) rotate(180)"/><path class="h" d="M5079.79,363.23h-15.35a.67.67,0,0,0-.67.67V371a.67.67,0,0,0,.67.67h30.17A82.26,82.26,0,0,0,5079.79,363.23Z" transform="translate(-4439.39 -352.47)"/><rect class="h" x="196.86" y="10.76" width="13.13" height="8.47" rx="2" ry="2"/><rect class="h" x="182.02" y="10.76" width="13.13" height="8.47" rx="2" ry="2"/><rect class="h" x="167.15" y="10.76" width="13.13" height="8.47" rx="2" ry="2"/><rect class="h" x="152.62" y="10.76" width="13.13" height="8.47" rx="2" ry="2"/><rect class="h" x="137.77" y="10.76" width="13.13" height="8.47" rx="2" ry="2"/><rect class="h" x="122.68" y="10.76" width="13.13" height="8.47" rx="2" ry="2"/><rect class="h" x="107.92" y="10.76" width="13.13" height="8.47" rx="2" ry="2"/><rect class="h" x="98.53" y="10.76" width="7.76" height="8.47" rx="2" ry="2"/><path class="h" d="M4520.27,363.23h15.35a.67.67,0,0,1,.67.67V371a.67.67,0,0,1-.67.67h-30.17A82.26,82.26,0,0,1,4520.27,363.23Z" transform="translate(-4439.39 -352.47)"/><rect class="h" x="486.58" y="10.76" width="13.13" height="8.47" rx="2" ry="2"/><rect class="h" x="471.74" y="10.76" width="13.13" height="8.47" rx="2" ry="2"/><rect class="h" x="456.87" y="10.76" width="13.13" height="8.47" rx="2" ry="2"/><rect class="h" x="442.34" y="10.76" width="13.13" height="8.47" rx="2" ry="2"/><rect class="h" x="427.48" y="10.76" width="13.13" height="8.47" rx="2" ry="2"/><rect class="h" x="412.39" y="10.76" width="13.13" height="8.47" rx="2" ry="2"/><rect class="h" x="397.64" y="10.76" width="13.13" height="8.47" rx="2" ry="2"/><rect class="h" x="382.21" y="10.76" width="13.13" height="8.47" rx="2" ry="2"/><rect class="h" x="367.01" y="10.76" width="13.13" height="8.47" rx="2" ry="2"/><rect class="h" x="342.05" y="10.76" width="13.13" height="8.47" rx="2" ry="2"/><rect class="h" x="327.21" y="10.76" width="13.13" height="8.47" rx="2" ry="2"/><rect class="h" x="312.34" y="10.76" width="13.13" height="8.47" rx="2" ry="2"/><rect class="h" x="297.81" y="10.76" width="13.13" height="8.47" rx="2" ry="2"/><rect class="h" x="282.95" y="10.76" width="13.13" height="8.47" rx="2" ry="2"/><rect class="h" x="267.87" y="10.76" width="13.13" height="8.47" rx="2" ry="2"/><rect class="h" x="253.11" y="10.76" width="13.13" height="8.47" rx="2" ry="2"/><rect class="h" x="237.69" y="10.76" width="13.13" height="8.47" rx="2" ry="2"/><rect class="h" x="222.48" y="10.76" width="13.13" height="8.47" rx="2" ry="2"/></svg>