<svg xmlns="http://www.w3.org/2000/svg" viewBox="0 0 661.53 51.8"><defs><style>.cls-1{opacity:0.1;}.cls-2{fill:#ffa726;}.cls-3{fill:#455a64;}.cls-4{fill:#37474f;}.cls-5{fill:#e0e0e0;}.cls-6{fill:#90a4ae;}.cls-7{fill:#fffbf4;}.cls-8{fill:#0f2d59;}</style></defs><title>train</title><g id="Calque_2" data-name="Calque 2"><g id="Train"><g id="Train-2" data-name="Train"><g id="Train-3" data-name="Train"><polygon class="cls-1" points="622.43 51.8 0 51.8 24.65 37.72 647.09 37.72 622.43 51.8"/><path class="cls-2" d="M661.53,26.81c0,2-.24,3.58-2.21,3.58a3.58,3.58,0,0,1,0-7.15C661.29,23.23,661.53,24.83,661.53,26.81Z"/><circle class="cls-3" cx="611.33" cy="35.12" r="4.93"/><circle class="cls-3" cx="519.76" cy="35.12" r="4.93"/><rect class="cls-4" x="614.24" y="29.42" width="18.31" height="9.94" transform="translate(1246.79 68.78) rotate(-180)"/><rect class="cls-4" x="524.41" y="29.42" width="14.55" height="9.01" transform="translate(1063.37 67.85) rotate(-180)"/><circle class="cls-3" cx="629.52" cy="35.12" r="4.93"/><circle class="cls-3" cx="616.62" cy="35.12" r="4.93"/><circle class="cls-3" cx="537.62" cy="35.12" r="4.93"/><circle class="cls-3" cx="524.72" cy="35.12" r="4.93"/><rect class="cls-5" x="501.63" y="2.16" width="6.98" height="31.77"/><rect class="cls-6" x="501.63" y="24.13" width="6.98" height="9.79"/><path class="cls-7" d="M602.52,0c17.88,0,57.69,17.26,57.69,25.66s-7.77,10.11-7.77,10.11H631.16c-3.37-2.64-5.81-3-8-3s-4.67.4-8,3h-75c-3.37-2.64-5.81-3-8-3s-4.67.4-8,3H508.6V0Z"/><rect class="cls-8" x="511.28" y="10.76" width="13.13" height="8.47" rx="2" ry="2" transform="translate(1035.69 30) rotate(180)"/><rect class="cls-8" x="526.12" y="10.76" width="13.13" height="8.47" rx="2" ry="2" transform="translate(1065.37 30) rotate(180)"/><rect class="cls-8" x="540.99" y="10.76" width="13.13" height="8.47" rx="2" ry="2" transform="translate(1095.11 30) rotate(180)"/><rect class="cls-8" x="555.52" y="10.76" width="13.13" height="8.47" rx="2" ry="2" transform="translate(1124.17 30) rotate(180)"/><rect class="cls-8" x="570.38" y="10.76" width="13.13" height="8.47" rx="2" ry="2" transform="translate(1153.88 30) rotate(180)"/><rect class="cls-8" x="585.47" y="10.76" width="13.13" height="8.47" rx="2" ry="2" transform="translate(1184.06 30) rotate(180)"/><rect class="cls-8" x="600.22" y="10.76" width="13.13" height="8.47" rx="2" ry="2" transform="translate(1213.57 30) rotate(180)"/><rect class="cls-8" x="614.98" y="10.76" width="7.76" height="8.47" rx="2" ry="2" transform="translate(1237.73 30) rotate(180)"/><path class="cls-8" d="M640.4,10.76H625a.67.67,0,0,0-.67.67v7.13a.67.67,0,0,0,.67.67h30.17A82.26,82.26,0,0,0,640.4,10.76Z"/><path class="cls-8" d="M652.44,32.44H631.16c-3.37-2.64-5.81-3-8-3s-4.67.4-8,3h-75c-3.37-2.64-5.81-3-8-3s-4.67.4-8,3H508.6V35.8H524c3.37-2.64,5.81-3,8-3s4.67.4,8,3h75c3.37-2.64,5.81-3,8-3s4.67.4,8,3h21.28s7.77-1.71,7.77-10.11A3.31,3.31,0,0,0,660,24.6C658.77,31,652.44,32.44,652.44,32.44Z"/><path class="cls-2" d="M59.74,26.81c0,2,.24,3.58,2.21,3.58a3.58,3.58,0,1,0,0-7.15C60,23.23,59.74,24.83,59.74,26.81Z"/><circle class="cls-3" cx="109.94" cy="35.12" r="4.93"/><circle class="cls-3" cx="201.52" cy="35.12" r="4.93"/><rect class="cls-4" x="88.72" y="29.42" width="18.31" height="9.94"/><rect class="cls-4" x="182.31" y="29.42" width="14.55" height="9.01"/><circle class="cls-3" cx="91.75" cy="35.12" r="4.93"/><circle class="cls-3" cx="104.65" cy="35.12" r="4.93"/><circle class="cls-3" cx="183.65" cy="35.12" r="4.93"/><circle class="cls-3" cx="196.55" cy="35.12" r="4.93"/><rect class="cls-5" x="212.67" y="2.16" width="6.98" height="31.77"/><rect class="cls-6" x="212.67" y="24.13" width="6.98" height="9.79"/><path class="cls-7" d="M118.75,0C100.87,0,61.06,17.29,61.06,25.69S68.83,35.8,68.83,35.8H90.11c3.37-2.64,5.81-3,8-3s4.67.4,8,3h75c3.37-2.64,5.81-3,8-3s4.67.4,8,3h15.39V0Z"/><rect class="cls-8" x="196.86" y="10.76" width="13.13" height="8.47" rx="2" ry="2"/><rect class="cls-8" x="182.02" y="10.76" width="13.13" height="8.47" rx="2" ry="2"/><rect class="cls-8" x="167.15" y="10.76" width="13.13" height="8.47" rx="2" ry="2"/><rect class="cls-8" x="152.62" y="10.76" width="13.13" height="8.47" rx="2" ry="2"/><rect class="cls-8" x="137.77" y="10.76" width="13.13" height="8.47" rx="2" ry="2"/><rect class="cls-8" x="122.68" y="10.76" width="13.13" height="8.47" rx="2" ry="2"/><rect class="cls-8" x="107.92" y="10.76" width="13.13" height="8.47" rx="2" ry="2"/><rect class="cls-8" x="98.53" y="10.76" width="7.76" height="8.47" rx="2" ry="2"/><path class="cls-8" d="M80.87,10.76H96.22a.67.67,0,0,1,.67.67v7.13a.67.67,0,0,1-.67.67H66.05A82.26,82.26,0,0,1,80.87,10.76Z"/><path class="cls-8" d="M68.83,32.44H90.11c3.37-2.64,5.81-3,8-3s4.67.4,8,3h75c3.37-2.64,5.81-3,8-3s4.67.4,8,3h15.39V35.8H197.28c-3.37-2.64-5.81-3-8-3s-4.67.4-8,3h-75c-3.37-2.64-5.81-3-8-3s-4.67.4-8,3H68.83s-7.77-1.71-7.77-10.11a3.31,3.31,0,0,1,.21-1.09C62.5,31,68.83,32.44,68.83,32.44Z"/><circle class="cls-3" cx="491.23" cy="35.12" r="4.93"/><rect class="cls-4" x="472.03" y="29.42" width="14.55" height="9.01"/><circle class="cls-1" cx="473.37" cy="35.12" r="4.93"/><circle class="cls-3" cx="486.27" cy="35.12" r="4.93"/><circle class="cls-3" cx="397.71" cy="35.12" r="4.93"/><rect class="cls-4" x="378.5" y="29.42" width="14.55" height="9.01"/><circle class="cls-3" cx="379.85" cy="35.12" r="4.93"/><circle class="cls-3" cx="392.74" cy="35.12" r="4.93"/><path class="cls-7" d="M501.92,36V0H368c-1.19,0-3,.07-4,.14V35.8L387.44,32l69.83,3.79c4.83-2.64,18.12-2.8,20.77-4.42"/><rect class="cls-8" x="486.58" y="10.76" width="13.13" height="8.47" rx="2" ry="2"/><rect class="cls-8" x="471.74" y="10.76" width="13.13" height="8.47" rx="2" ry="2"/><rect class="cls-8" x="456.87" y="10.76" width="13.13" height="8.47" rx="2" ry="2"/><rect class="cls-8" x="442.34" y="10.76" width="13.13" height="8.47" rx="2" ry="2"/><rect class="cls-8" x="427.48" y="10.76" width="13.13" height="8.47" rx="2" ry="2"/><rect class="cls-8" x="412.39" y="10.76" width="13.13" height="8.47" rx="2" ry="2"/><rect class="cls-8" x="397.64" y="10.76" width="13.13" height="8.47" rx="2" ry="2"/><rect class="cls-8" x="382.21" y="10.76" width="13.13" height="8.47" rx="2" ry="2"/><rect class="cls-8" x="367.01" y="10.76" width="13.13" height="8.47" rx="2" ry="2"/><path class="cls-8" d="M364.21,32.44h15.62c3.37-2.64,5.81-3,8-3s4.67.4,8,3h75c3.37-2.64,5.81-3,8-3s4.67.4,8,3h15.39V35.8H487c-3.37-2.64-5.81-3-8-3s-4.67.4-8,3h-75c-3.37-2.64-5.81-3-8-3s-4.67.4-8,3H364.21"/><rect class="cls-5" x="357.1" y="2.16" width="6.98" height="31.77"/><rect class="cls-6" x="357.1" y="24.13" width="6.98" height="9.79"/><circle class="cls-3" cx="346.7" cy="35.12" r="4.93"/><rect class="cls-4" x="327.5" y="29.42" width="14.55" height="9.01"/><circle class="cls-3" cx="328.84" cy="35.12" r="4.93"/><circle class="cls-3" cx="341.74" cy="35.12" r="4.93"/><circle class="cls-3" cx="253.18" cy="35.12" r="4.93"/><rect class="cls-4" x="233.97" y="29.42" width="14.55" height="9.01"/><circle class="cls-3" cx="235.32" cy="35.12" r="4.93"/><circle class="cls-3" cx="248.22" cy="35.12" r="4.93"/><path class="cls-7" d="M357.92,36V0H223.43a32.35,32.35,0,0,0-3.51.14V35.8L243.17,32l69.69,3.79c4.83-2.64,18.32-2.8,21-4.42"/><rect class="cls-8" x="342.05" y="10.76" width="13.13" height="8.47" rx="2" ry="2"/><rect class="cls-8" x="327.21" y="10.76" width="13.13" height="8.47" rx="2" ry="2"/><rect class="cls-8" x="312.34" y="10.76" width="13.13" height="8.47" rx="2" ry="2"/><rect class="cls-8" x="297.81" y="10.76" width="13.13" height="8.47" rx="2" ry="2"/><rect class="cls-8" x="282.95" y="10.76" width="13.13" height="8.47" rx="2" ry="2"/><rect class="cls-8" x="267.87" y="10.76" width="13.13" height="8.47" rx="2" ry="2"/><rect class="cls-8" x="253.11" y="10.76" width="13.13" height="8.47" rx="2" ry="2"/><rect class="cls-8" x="237.69" y="10.76" width="13.13" height="8.47" rx="2" ry="2"/><rect class="cls-8" x="222.48" y="10.76" width="13.13" height="8.47" rx="2" ry="2"/><path class="cls-8" d="M219.68,32.44H235.3c3.37-2.64,5.81-3,8-3s4.67.4,8,3h75c3.37-2.64,5.81-3,8-3s4.67.4,8,3h15.39V35.8H342.47c-3.37-2.64-5.81-3-8-3s-4.67.4-8,3h-75c-3.37-2.64-5.81-3-8-3s-4.67.4-8,3H219.68"/></g></g></g></g></svg>