<?xml version="1.0" encoding="UTF-8"?>
<svg width="358px" height="452px" viewBox="0 0 358 452" version="1.1" xmlns="http://www.w3.org/2000/svg" xmlns:xlink="http://www.w3.org/1999/xlink">
    <!-- Generator: Sketch 41 (35326) - http://www.bohemiancoding.com/sketch -->
    <title>Group 4</title>
    <desc>Created with Sketch.</desc>
    <defs>
        <filter x="-50%" y="-50%" width="200%" height="200%" filterUnits="objectBoundingBox" id="filter-1">
            <feGaussianBlur stdDeviation="16" in="SourceGraphic"></feGaussianBlur>
        </filter>
        <rect id="path-2" x="0" y="0" width="230" height="177"></rect>
    </defs>
    <g id="Page-1" stroke="none" stroke-width="1" fill="none" fill-rule="evenodd">
        <g id="Buddytrain/01-Copy-5" transform="translate(-33592.000000, -249.000000)">
            <g id="Group-4" transform="translate(33633.000000, 285.000000)">
                <path d="M236,4 L223.7,4 C223.7,6.209139 221.909139,8 219.7,8 C217.490861,8 215.7,6.209139 215.7,4 L203.4,4 C203.4,6.209139 201.609139,8 199.4,8 C197.190861,8 195.4,6.209139 195.4,4 L183.1,4 C183.1,6.209139 181.309139,8 179.1,8 C176.890861,8 175.1,6.209139 175.1,4 L162.8,4 C162.8,6.209139 161.009139,8 158.8,8 C156.590861,8 154.8,6.209139 154.8,4 L142.5,4 C142.5,6.209139 140.709139,8 138.5,8 C136.290861,8 134.5,6.209139 134.5,4 L122.2,4 C122.2,6.209139 120.409139,8 118.2,8 C115.990861,8 114.2,6.209139 114.2,4 L101.9,4 C101.9,6.209139 100.109139,8 97.9,8 C95.690861,8 93.9,6.209139 93.9,4 L81.6,4 C81.6,6.209139 79.809139,8 77.6,8 C75.390861,8 73.6,6.209139 73.6,4 L61.3,4 C61.3,6.209139 59.509139,8 57.3,8 C55.090861,8 53.3,6.209139 53.3,4 L41,4 C41,5.1045695 40.5522847,6.1045695 39.8284271,6.82842712 C39.1045695,7.55228475 38.1045695,8 37,8 C35.8954305,8 34.8954305,7.55228475 34.1715729,6.82842712 C33.4477153,6.1045695 33,5.1045695 33,4 L23.3239437,4 C23.3239437,17.254834 12.8814584,28 2.15294449e-12,28 L0,353 C12.8814584,353 23.3239437,363.745166 23.3239437,377 L33,377 C33,374.790861 34.790861,373 37,373 C39.209139,373 41,374.790861 41,377 L53.3,377 C53.3,374.790861 55.090861,373 57.3,373 C59.509139,373 61.3,374.790861 61.3,377 L73.6,377 C73.6,374.790861 75.390861,373 77.6,373 C79.809139,373 81.6,374.790861 81.6,377 L93.9,377 C93.9,374.790861 95.690861,373 97.9,373 C100.109139,373 101.9,374.790861 101.9,377 L114.2,377 C114.2,374.790861 115.990861,373 118.2,373 C120.409139,373 122.2,374.790861 122.2,377 L134.5,377 C134.5,374.790861 136.290861,373 138.5,373 C140.709139,373 142.5,374.790861 142.5,377 L154.8,377 C154.8,374.790861 156.590861,373 158.8,373 C161.009139,373 162.8,374.790861 162.8,377 L175.1,377 C175.1,374.790861 176.890861,373 179.1,373 C181.309139,373 183.1,374.790861 183.1,377 L195.4,377 C195.4,374.790861 197.190861,373 199.4,373 C201.609139,373 203.4,374.790861 203.4,377 L215.7,377 C215.7,374.790861 217.490861,373 219.7,373 C221.909139,373 223.7,374.790861 223.7,377 L236,377 C236,374.790861 237.790861,373 240,373 C242.209139,373 244,374.790861 244,377 L252.676056,377 C252.676056,363.745166 263.118542,353 276,353 L276,28 C263.118542,28 252.676056,17.254834 252.676056,4 L244,4 C244,6.209139 242.209139,8 240,8 C237.790861,8 236,6.209139 236,4 Z" id="Combined-Shape" fill="#E5E5E5" filter="url(#filter-1)"></path>
                <path d="M236,0 L223.7,0 C223.7,2.209139 221.909139,4 219.7,4 C217.490861,4 215.7,2.209139 215.7,0 L203.4,0 C203.4,2.209139 201.609139,4 199.4,4 C197.190861,4 195.4,2.209139 195.4,0 L183.1,0 C183.1,2.209139 181.309139,4 179.1,4 C176.890861,4 175.1,2.209139 175.1,0 L162.8,0 C162.8,2.209139 161.009139,4 158.8,4 C156.590861,4 154.8,2.209139 154.8,0 L142.5,0 C142.5,2.209139 140.709139,4 138.5,4 C136.290861,4 134.5,2.209139 134.5,0 L122.2,0 C122.2,2.209139 120.409139,4 118.2,4 C115.990861,4 114.2,2.209139 114.2,0 L101.9,0 C101.9,2.209139 100.109139,4 97.9,4 C95.690861,4 93.9,2.209139 93.9,0 L81.6,0 C81.6,2.209139 79.809139,4 77.6,4 C75.390861,4 73.6,2.209139 73.6,0 L61.3,0 C61.3,2.209139 59.509139,4 57.3,4 C55.090861,4 53.3,2.209139 53.3,0 L41,0 C41,1.1045695 40.5522847,2.1045695 39.8284271,2.82842712 C39.1045695,3.55228475 38.1045695,4 37,4 C35.8954305,4 34.8954305,3.55228475 34.1715729,2.82842712 C33.4477153,2.1045695 33,1.1045695 33,0 L23.3239437,0 C23.3239437,13.254834 12.8814584,24 2.15294449e-12,24 L0,349 C12.8814584,349 23.3239437,359.745166 23.3239437,373 L33,373 C33,370.790861 34.790861,369 37,369 C39.209139,369 41,370.790861 41,373 L53.3,373 C53.3,370.790861 55.090861,369 57.3,369 C59.509139,369 61.3,370.790861 61.3,373 L73.6,373 C73.6,370.790861 75.390861,369 77.6,369 C79.809139,369 81.6,370.790861 81.6,373 L93.9,373 C93.9,370.790861 95.690861,369 97.9,369 C100.109139,369 101.9,370.790861 101.9,373 L114.2,373 C114.2,370.790861 115.990861,369 118.2,369 C120.409139,369 122.2,370.790861 122.2,373 L134.5,373 C134.5,370.790861 136.290861,369 138.5,369 C140.709139,369 142.5,370.790861 142.5,373 L154.8,373 C154.8,370.790861 156.590861,369 158.8,369 C161.009139,369 162.8,370.790861 162.8,373 L175.1,373 C175.1,370.790861 176.890861,369 179.1,369 C181.309139,369 183.1,370.790861 183.1,373 L195.4,373 C195.4,370.790861 197.190861,369 199.4,369 C201.609139,369 203.4,370.790861 203.4,373 L215.7,373 C215.7,370.790861 217.490861,369 219.7,369 C221.909139,369 223.7,370.790861 223.7,373 L236,373 C236,370.790861 237.790861,369 240,369 C242.209139,369 244,370.790861 244,373 L252.676056,373 C252.676056,359.745166 263.118542,349 276,349 L276,24 C263.118542,24 252.676056,13.254834 252.676056,0 L244,0 C244,2.209139 242.209139,4 240,4 C237.790861,4 236,2.209139 236,0 Z" id="Combined-Shape" fill="#FCFCFC"></path>
                <g id="Page-1" transform="translate(23.000000, 139.000000)">
                    <mask id="mask-3" fill="white">
                        <use xlink:href="#path-2"></use>
                    </mask>
                    <use id="Mask" fill="#8AD6CB" xlink:href="#path-2"></use>
                    <rect id="Rectangle-11" fill="#80CEC4" mask="url(#mask-3)" x="0" y="131" width="231" height="48"></rect>
                    <rect id="Rectangle-11" fill="#92DDD0" mask="url(#mask-3)" x="0" y="-12" width="231" height="95"></rect>
                    <g mask="url(#mask-3)">
                        <g transform="translate(23.000000, 36.000000)">
                            <path d="M87.2579104,149.089389 C87.4681713,149.087253 87.6789713,149.084583 87.6789713,149.084583 C87.572493,149.041061 87.4501104,148.990864 87.3385104,148.93773 C87.2759713,148.912631 87.2296061,148.883794 87.1805452,148.85656 C87.1428061,148.832529 87.0894322,148.803692 86.9533017,148.750291 C86.5195713,148.56392 86.1225017,148.410391 86.0950061,148.289704 C85.9381191,148.407454 86.7047626,148.826655 86.7729626,149.054412 C86.7729626,149.054412 86.8651539,149.067228 87.0031713,149.086452 C87.0729887,149.087253 87.1654496,149.088321 87.2579104,149.089389 L87.2579104,149.089389 Z" id="Fill-1" fill="#023942"></path>
                            <path d="M86.7730165,149.070264 C86.7730165,149.070264 86.2255296,148.979064 85.6481209,148.945464 C85.07206,148.906464 84.4978861,148.940064 84.4978861,148.940064 C85.5152252,149.035764 86.0880513,149.183364 86.4120687,149.202564 C86.7285383,149.238564 86.80806,149.177664 86.7730165,149.070264" id="Fill-3" fill="#023942"></path>
                            <path d="M79.4239409,147.732224 C79.4239409,147.732224 79.7514626,147.688424 80.0792539,147.644324 C80.3989583,147.610724 80.7197409,147.578024 80.7197409,147.578024 C80.7197409,147.578024 80.1598539,147.598724 79.575167,147.659324 C78.9907496,147.716924 78.4246626,147.824324 78.4246626,147.824324 C78.4246626,147.824324 78.6726626,147.796124 78.9212017,147.768824 C79.1727061,147.750524 79.4239409,147.732224 79.4239409,147.732224" id="Fill-5" fill="#023942"></path>
                            <path d="M74.666007,147.751765 C75.22212,147.472743 73.9123026,147.251662 74.504807,147.084515 C73.5855896,147.113352 72.5585461,147.265279 71.597007,147.422546 C72.6116504,147.366475 73.6176678,147.499978 74.666007,147.751765" id="Fill-7" fill="#023942"></path>
                            <path d="M69.4242304,149.118333 C69.1384913,149.280406 68.6114913,149.360508 68.2187348,149.456364 L68.4039261,149.020876 C68.7120391,149.051581 69.0479174,149.083622 69.4242304,149.118333 L69.4242304,149.118333 Z M67.1590739,149.760484 C67.1488304,149.953797 67.1477522,150.148712 67.1574565,150.3487 C67.1768652,150.169005 67.1973522,149.985571 67.2197261,149.777039 L67.3165,148.90179 C67.5952304,148.9357 67.9041522,148.970411 68.2562043,149.00619 L68.1216913,149.480394 C67.7297435,149.585862 67.5326913,149.719098 67.9763957,149.994115 C67.9677696,150.024287 67.9588739,150.05526 67.9499783,150.087034 L67.9866391,149.999989 C68.000387,150.008801 68.0082043,150.015476 68.0227609,150.024287 C68.362413,150.060867 68.6171522,150.078222 68.837387,150.087034 C69.0781087,149.943117 69.3131696,149.802137 69.5420304,149.664896 C69.4832652,149.642734 69.5352913,149.625112 69.6393435,149.606955 C69.7854478,149.51911 69.9312826,149.432333 70.0749609,149.345289 C69.9585087,149.296961 69.7657696,149.240088 69.4436391,149.169331 C69.7590304,149.175472 70.0496217,149.188022 70.3140652,149.202173 C70.3714826,149.16853 70.4294391,149.133819 70.4868565,149.099109 C70.1571783,149.025415 69.8576913,148.952255 69.5665609,148.87509 C69.5964826,148.889508 69.6175087,148.89912 69.6417696,148.910869 L69.658213,148.91167 L69.6539,148.917277 C69.7948826,148.988034 69.838013,149.025415 69.6762739,148.975484 C69.6641435,148.979222 69.6215522,148.976285 69.6032217,148.974416 C69.5716826,149.031556 69.5002478,149.074811 69.4247696,149.115396 C68.4400478,148.906864 69.283787,148.986966 69.6032217,148.974416 C69.6180478,148.95626 69.6471609,148.939705 69.6539,148.917277 L69.6417696,148.910869 L68.4775174,148.848923 L68.5885783,148.586188 C68.8966913,148.684714 69.2215174,148.781103 69.5665609,148.87509 C69.3244913,148.757073 68.9206826,148.595 68.6185,148.516767 L68.7252478,148.265513 L68.467813,148.259639 L68.4055435,148.47992 C68.3527087,148.476182 68.2912478,148.46737 68.2653696,148.481789 C68.3060739,148.496474 68.3516304,148.509023 68.393413,148.523442 L68.3036478,148.839044 L67.3286304,148.786978 L67.4062652,148.08208 L70.5973783,147.57984 C70.9009087,147.531779 71.2400217,147.478377 71.5969261,147.422306 C71.2766826,147.43886 70.9405348,147.469833 70.600613,147.52003 L67.2483,148.02227 L67.2089435,148.780302 L66.1190913,148.722362 C66.4323261,148.782171 66.7843783,148.835306 67.2032826,148.887639 L67.1590739,149.760484 Z" id="Fill-9" fill="#023942"></path>
                            <path d="M81.4212035,148.90115 C81.6020817,148.944405 81.6036991,148.954017 81.7136817,148.969503 C81.6975078,148.92518 81.6724383,148.857628 81.6282296,148.73881 C81.6770209,148.665383 81.3273948,148.491561 80.8171078,148.329221 C80.8171078,148.329221 80.9742643,148.47207 81.1311513,148.616253 C81.2759078,148.758301 81.4212035,148.90115 81.4212035,148.90115" id="Fill-11" fill="#023942"></path>
                            <path d="M80.0696957,148.594265 C79.9607957,148.572665 79.8755957,148.556465 79.8152957,148.546565 C79.8788957,148.557365 79.9682957,148.575065 80.0696957,148.594265" id="Fill-13" fill="#023942"></path>
                            <path d="M81.4412052,148.961372 L81.4212574,148.939772 C80.853553,148.778072 80.3578226,148.657472 80.0437791,148.589072 C80.332753,148.653272 80.8071878,148.770272 81.4412052,148.961372" id="Fill-15" fill="#023942"></path>
                            <path d="M81.7824896,148.976184 C81.7575896,148.973784 81.7386896,148.971684 81.7137896,148.969584 C81.7347896,149.017584 81.7512896,149.036784 81.7824896,148.976184" id="Fill-17" fill="#023942"></path>
                            <path d="M88.9524513,150.124575 C87.9760861,150.283177 86.1230948,150.183583 87.8361817,150.846828 C88.5505296,150.644971 87.5062339,150.31682 88.9524513,150.124575" id="Fill-19" fill="#023942"></path>
                            <path d="M84.3421852,149.533548 C84.310107,149.407548 83.8903939,149.202348 84.5411243,149.103648 C84.5411243,149.103648 83.8968635,149.138748 83.2946548,149.252448 C82.9943591,149.310048 82.7037678,149.378148 82.4886548,149.432748 C82.2854026,149.492148 82.1495417,149.531448 82.1495417,149.531448 C82.1274374,149.532348 82.6746548,149.480148 83.2216026,149.475048 C83.7771765,149.473848 84.3421852,149.533548 84.3421852,149.533548" id="Fill-21" fill="#023942"></path>
                            <path d="M82.1954582,149.48601 C82.1954582,149.48601 81.8312653,149.48601 81.8303749,149.47161 L81.6959174,149.65851 C81.7071964,149.67801 82.2132672,149.49771 82.1954582,149.48601" id="Fill-23" fill="#023942"></path>
                            <path d="M73.5856435,148.691088 C73.7236609,148.547988 74.1638609,148.314588 73.1219913,148.256088 C72.3879652,148.398888 71.5692957,148.338288 70.5573478,148.313388 L70.4274174,148.310088 L70.5568087,148.327488 C71.6463913,148.473888 72.6666957,148.631388 73.5856435,148.691088" id="Fill-25" fill="#023942"></path>
                            <polygon id="Fill-27" fill="#023942" points="68.7924504 148.108193 68.7253287 148.284893 70.4273635 148.328393"></polygon>
                            <path d="M76.6831809,148.350448 C76.6132809,148.361548 76.5247809,148.376548 76.4584809,148.386448 C76.5967809,148.419148 76.7107809,148.430548 76.6831809,148.350448" id="Fill-29" fill="#023942"></path>
                            <path d="M73.7420183,148.745618 C74.4566357,148.881218 74.8585574,148.764218 75.1903922,148.604318 C74.7526183,148.673018 74.2008183,148.683818 73.5856704,148.648118 C73.5198965,148.709918 73.5085748,148.755218 73.7420183,148.745618" id="Fill-31" fill="#023942"></path>
                            <path d="M76.1587876,148.290318 C76.2088876,148.280418 76.2541876,148.271718 76.3078876,148.260918 C75.9706876,148.176318 76.0150876,148.224918 76.1587876,148.290318" id="Fill-33" fill="#023942"></path>
                            <path d="M76.1478339,148.282121 C75.9178948,148.329521 75.7208426,148.397021 75.5343035,148.463321 C75.4151557,148.526021 75.3024774,148.584821 75.1903383,148.644221 C75.6526426,148.553321 76.0815209,148.468421 76.458373,148.394921 C76.3456948,148.367621 76.2313991,148.323221 76.1478339,148.282121" id="Fill-35" fill="#023942"></path>
                            <path d="M69.5421652,149.676681 C69.5673652,149.686281 69.6126652,149.697381 69.6801652,149.709081 C69.7566652,149.662581 69.8337652,149.616081 69.9105652,149.569281 C69.8163652,149.584281 69.7248652,149.598381 69.6501652,149.611581 C69.6144652,149.633181 69.5775652,149.655081 69.5421652,149.676681" id="Fill-37" fill="#023942"></path>
                            <path d="M67.7736826,150.724299 C67.7618217,150.766753 67.7515783,150.8036 67.7394478,150.847923 C68.0885348,150.639391 68.5222652,150.378525 68.9972391,150.094697 C68.9503348,150.092828 68.8904913,150.089891 68.837387,150.086954 C68.5004304,150.288811 68.1497261,150.499212 67.7736826,150.724299" id="Fill-39" fill="#023942"></path>
                            <path d="M70.1815957,149.415007 C70.2937957,149.346607 70.4044957,149.280607 70.5160957,149.211907 C70.4620957,149.208907 70.3978957,149.206807 70.3408957,149.202307 C70.2529957,149.256607 70.1638957,149.309707 70.0750957,149.362807 C70.1185957,149.381407 70.1581957,149.398807 70.1815957,149.415007" id="Fill-41" fill="#023942"></path>
                            <path d="M70.2043913,149.391614 C70.0936913,149.457914 69.9829913,149.525114 69.8731913,149.591114 C70.1200913,149.550014 70.3588913,149.494814 70.2043913,149.391614" id="Fill-43" fill="#023942"></path>
                            <path d="M68.4267852,151.035362 C69.1775243,150.585989 69.7783852,150.226064 70.3803243,149.865872 C70.3053852,149.876285 70.2431157,149.889903 70.1840809,149.904588 C69.7039852,150.192421 69.1872287,150.502149 68.4294809,150.956061 C68.4289417,150.981159 68.4265157,151.0132 68.4267852,151.035362" id="Fill-45" fill="#023942"></path>
                            <path d="M68.3372896,151.064567 C68.3744896,151.041767 68.4032896,151.024367 68.4398896,151.002767 C68.4413896,150.887567 68.4506896,150.753167 68.4755896,150.578566 C68.4221896,150.766367 68.3750896,150.931367 68.3372896,151.064567" id="Fill-47" fill="#023942"></path>
                            <path d="M67.6220522,150.815028 C67.6811522,150.783254 67.7333522,150.755218 67.7906522,150.724245 C67.8614522,150.49462 67.9259522,150.286087 67.9871522,150.0869 C67.8602522,150.340023 67.7354522,150.58914 67.6220522,150.815028" id="Fill-49" fill="#023942"></path>
                            <path d="M70.1842157,149.930539 C70.2529548,149.883739 70.3243896,149.836339 70.3925896,149.790439 C70.0176243,149.749039 69.7976591,149.719039 69.6661113,149.693839 C69.4369809,149.846839 69.2127026,149.998639 68.99732,150.144139 C69.68552,150.157339 69.8289287,150.024739 70.1842157,149.930539" id="Fill-51" fill="#023942"></path>
                            <path d="M85.9143703,151.390404 C85.8078703,151.319004 85.8219703,151.287504 85.8219703,151.251504 C85.5528703,151.258404 85.4535703,151.269204 85.9143703,151.390404" id="Fill-53" fill="#023942"></path>
                            <path d="M82.6748712,149.974292 C82.6316712,149.946092 82.5890712,149.922092 82.5461712,149.892092 C82.4852712,149.909192 82.5527712,149.938592 82.6748712,149.974292" id="Fill-55" fill="#023942"></path>
                            <path d="M86.1259522,150.802532 L85.8509957,150.795857 C84.7026478,150.358232 83.1073609,150.094697 82.659613,149.965198 C83.1224565,150.268518 83.568587,150.475982 84.4627348,150.88477 C84.7298739,150.855666 84.9956652,150.678908 85.8555783,150.909602 C86.553213,151.219596 85.7930391,151.105051 85.7989696,151.251637 C86.3564304,151.280741 87.5131348,151.36645 86.1259522,150.802532" id="Fill-57" fill="#023942"></path>
                            <path d="M75.6563357,149.999936 C75.8647096,149.968162 75.9857443,149.927844 76.0571791,149.883254 C76.2016661,149.79354 76.153953,149.686203 76.2582748,149.595154 C76.2582748,149.595154 76.0649965,149.62132 75.7752139,149.661905 C75.4883965,149.702757 75.2288052,149.749217 74.8813357,149.775116 C74.2192835,149.829853 73.5046661,149.834926 73.5046661,149.834926 C73.5046661,149.834926 73.8561791,149.944132 74.2076922,150.05307 C74.5592052,150.150528 74.90964,150.247184 74.90964,150.247184 L74.8379357,150.027171 C75.2236835,150.048531 75.4805791,150.027972 75.6563357,149.999936" id="Fill-59" fill="#023942"></path>
                            <path d="M23.2496878,153.795384 L23.2490878,153.795384 C23.2481878,153.797484 23.2475878,153.797484 23.2463878,153.799884 L23.2496878,153.795384 Z" id="Fill-61" fill="#023942"></path>
                            <path d="M22.7964296,150.982248 C21.8224904,150.743872 20.9989687,150.770449 20.3574035,150.843941 C20.0366209,150.884349 19.7543861,150.941027 19.5018035,151.013435 C19.3306296,151.057639 19.3769948,151.070385 19.2756383,151.108894 C19.1729339,151.146047 19.1783252,151.17642 19.1260296,151.218454 C19.1581078,151.238251 19.1874904,151.251811 19.2238817,151.263743 C19.2810296,151.273506 19.357047,151.279472 19.3937078,151.292218 C19.6325426,151.216556 20.1191078,151.092893 20.6183426,151.00774 C21.1456122,150.927197 21.812247,150.829297 22.7964296,150.982248" id="Fill-63" fill="#023942"></path>
                            <path d="M35.8029513,123.218166 L33.0099861,130.864974 C34.7211861,129.255991 38.9881339,126.270054 47.07536,126.270054 C54.566847,126.270054 58.0806296,128.797273 59.5729426,130.442035 L57.301047,123.035533 L35.8029513,123.218166 Z M31.4252122,133.680293 L35.4352643,122.703377 L57.6886817,122.515137 L60.5503861,131.841418 L60.0608557,132.022982 C60.0365948,131.970649 57.5706122,126.787513 47.07536,126.787513 C36.5350904,126.787513 32.5678991,132.102016 32.5288122,132.156219 L31.4252122,133.680293 Z" id="Fill-67" fill="#023942"></path>
                            <path d="M34.9951722,123.234587 L33.4227983,128.784857 C35.2466765,127.223401 39.5041896,124.518088 47.0751983,124.518088 C53.8345461,124.518088 57.3515635,126.623437 59.0323026,128.190767 L57.554007,123.064503 L34.9951722,123.234587 Z M32.698207,129.971702 L34.7118591,122.866651 L34.8523026,122.864782 L57.8357026,122.692029 L59.8191635,129.570124 L59.2754504,128.968291 C57.9017461,127.445284 54.4887809,124.887893 47.0751983,124.887893 C38.8604678,124.887893 34.6323374,128.106927 33.1958243,129.491891 L32.698207,129.971702 Z" id="Fill-71" fill="#023942"></path>
                            <polygon id="Fill-73" fill="#023942" points="46.2533478 124.661204 46.6700478 124.661204 46.6700478 123.139265 46.2533478 123.139265"></polygon>
                            <polygon id="Fill-75" fill="#023942" points="46.2921557 126.445717 46.2534557 124.663981 46.6701557 124.658374 46.7082557 126.44011"></polygon>
                            <polygon id="Fill-76" fill="#023942" points="34.5213304 128.09339 33.7530696 126.660097 34.0835565 126.486276 34.8512783 127.919568"></polygon>
                            <polygon id="Fill-77" fill="#023942" points="44.8371308 124.821515 44.7186591 122.802944 45.0996377 122.781583 45.2186591 124.801222"></polygon>
                            <polygon id="Fill-78" fill="#023942" points="35.478233 127.501222 34.4096765 124.326778 34.7646939 124.209028 35.8329809 127.38454"></polygon>
                            <polygon id="Fill-79" fill="#023942" points="36.6419191 126.662126 35.7736496 123.272475 36.1356757 123.181693 37.0044843 126.572145"></polygon>
                            <polygon id="Fill-80" fill="#023942" points="37.7713704 126.230323 37.2732139 123.083114 37.6430574 123.025173 38.1409443 126.172382"></polygon>
                            <polygon id="Fill-81" fill="#023942" points="38.9233574 125.787065 38.6742791 123.067601 39.0468183 123.03289 39.2958965 125.751286"></polygon>
                            <polygon id="Fill-82" fill="#023942" points="40.0480453 125.538054 39.9418557 123.015641 40.335666 123.000956 40.4418557 125.522301"></polygon>
                            <polygon id="Fill-83" fill="#023942" points="41.2833809 125.143018 41.2455809 123.056093 41.6613809 123.050219 41.6994809 125.136343"></polygon>
                            <polygon id="Fill-84" fill="#023942" points="42.4381983 124.981612 42.34662 123.015641 42.7550417 123.000956 42.84662 124.967194"></polygon>
                            <polygon id="Fill-85" fill="#023942" points="43.5883262 124.886958 43.4821365 122.974923 43.8759469 122.95463 43.9821365 124.865865"></polygon>
                            <polygon id="Fill-86" fill="#023942" points="33.751587 130.414827 33.2504652 129.012774 33.6022478 128.88915 34.1036391 130.290402"></polygon>
                            <polygon id="Fill-87" fill="#023942" points="34.5027574 129.797908 34.0269748 128.526955 34.37714 128.396656 34.8531922 129.669477"></polygon>
                            <polygon id="Fill-88" fill="#023942" points="35.3036896 129.305334 34.8521678 128.001539 35.2058374 127.879784 35.6573591 129.184646"></polygon>
                            <polygon id="Fill-89" fill="#023942" points="36.1266183 128.902474 35.7249661 127.467579 36.0856443 127.370122 36.4872965 128.804215"></polygon>
                            <polygon id="Fill-90" fill="#023942" points="36.8754165 128.338475 36.5586774 126.858189 36.9236687 126.779956 37.2406774 128.260242"></polygon>
                            <polygon id="Fill-91" fill="#023942" points="37.7255713 128.005518 37.474067 126.636841 37.8425626 126.570356 38.0937974 127.938766"></polygon>
                            <polygon id="Fill-92" fill="#023942" points="38.6002026 127.799789 38.3939852 126.100024 38.764907 126.056502 38.9713939 127.754398"></polygon>
                            <polygon id="Fill-93" fill="#023942" points="39.5259165 127.403711 39.3752296 125.87216 39.7477687 125.837449 39.8984557 127.370068"></polygon>
                            <polygon id="Fill-94" fill="#023942" points="40.6038 127.210478 40.428313 125.580402 40.8008522 125.539817 40.9763391 127.171228"></polygon>
                            <polygon id="Fill-95" fill="#023942" points="41.5596209 127.00005 41.5041209 125.371843 41.9205209 125.360094 41.9757209 126.988569"></polygon>
                            <polygon id="Fill-96" fill="#023942" points="42.4325548 126.801103 42.4118548 125.060753 42.8279548 125.059151 42.8486548 126.797098"></polygon>
                            <polygon id="Fill-97" fill="#023942" points="43.3576783 126.702471 43.7743783 126.702471 43.7743783 125.072128 43.3576783 125.072128"></polygon>
                            <polygon id="Fill-98" fill="#023942" points="44.3364122 126.606082 44.3088122 124.847575 44.7249122 124.842769 44.7525122 126.600474"></polygon>
                            <polygon id="Fill-99" fill="#023942" points="45.29134 126.479601 45.23644 124.946981 45.65314 124.936301 45.70744 126.467852"></polygon>
                            <polygon id="Fill-100" fill="#023942" points="58.2696487 127.679048 57.9380835 127.507897 58.7066139 126.048972 59.0387183 126.219589"></polygon>
                            <polygon id="Fill-101" fill="#023942" points="47.9627822 124.775884 47.5817383 124.756659 47.7001449 122.733548 48.0817383 122.753841"></polygon>
                            <polygon id="Fill-102" fill="#023942" points="57.3124765 127.120791 56.9577287 127.00491 58.0257461 123.794687 58.381033 123.909767"></polygon>
                            <polygon id="Fill-103" fill="#023942" points="56.148413 126.323161 55.7855783 126.23318 56.654387 122.814425 57.0166826 122.903338"></polygon>
                            <polygon id="Fill-104" fill="#023942" points="55.0825252 125.820948 54.7121426 125.769683 55.1469513 122.712989 55.517873 122.765322"></polygon>
                            <polygon id="Fill-105" fill="#023942" points="53.8144635 125.425912 53.4435417 125.385327 53.7443765 122.765189 54.1158374 122.805774"></polygon>
                            <polygon id="Fill-106" fill="#023942" points="52.767657 125.321619 52.373907 125.308001 52.4798729 122.781583 52.873907 122.7952"></polygon>
                            <polygon id="Fill-107" fill="#023942" points="51.5527296 124.970131 51.1366296 124.964524 51.1759296 122.877332 51.5920296 122.883206"></polygon>
                            <polygon id="Fill-108" fill="#023942" points="50.3946547 124.851233 49.986233 124.836814 50.0778114 122.867639 50.486233 122.883126"></polygon>
                            <polygon id="Fill-109" fill="#023942" points="49.2272268 124.797244 48.8337609 124.775884 48.9397268 122.860911 49.3337609 122.881203"></polygon>
                            <polygon id="Fill-110" fill="#023942" points="59.0396617 129.973652 58.6859922 129.851896 59.1873835 128.43142 59.5405139 128.553175"></polygon>
                            <polygon id="Fill-111" fill="#023942" points="58.2875478 129.383566 57.9368435 129.255937 58.4126261 127.968697 58.7636 128.095259"></polygon>
                            <polygon id="Fill-112" fill="#023942" points="57.4867504 128.918921 57.1333504 128.80037 57.5848722 127.478954 57.9380026 127.598039"></polygon>
                            <polygon id="Fill-113" fill="#023942" points="56.6638487 128.545272 56.3031704 128.447814 56.7042835 126.999036 57.0655009 127.096493"></polygon>
                            <polygon id="Fill-114" fill="#023942" points="55.914107 128.015157 55.5504635 127.928112 55.9114113 126.436078 56.2745157 126.522856"></polygon>
                            <polygon id="Fill-115" fill="#023942" points="55.0648687 127.709033 54.696373 127.64335 55.0052948 125.983101 55.3732513 126.049853"></polygon>
                            <polygon id="Fill-116" fill="#023942" points="54.1893209 127.537989 53.8200165 127.484053 54.0715209 125.803513 54.4416339 125.858516"></polygon>
                            <polygon id="Fill-117" fill="#023942" points="53.264793 127.172937 52.8922539 127.132352 53.0704365 125.471303 53.4429757 125.511888"></polygon>
                            <polygon id="Fill-118" fill="#023942" points="52.1868017 127.014655 51.8137235 126.97407 51.9900191 125.339989 52.3617496 125.379506"></polygon>
                            <polygon id="Fill-119" fill="#023942" points="51.2673568 126.84257 50.8628591 126.825481 50.9580694 125.082194 51.3628591 125.099549"></polygon>
                            <polygon id="Fill-120" fill="#023942" points="49.986287 126.669629 50.402387 126.669629 50.402387 124.844371 49.986287 124.844371"></polygon>
                            <polygon id="Fill-121" fill="#023942" points="49.0584435 126.603946 49.4745435 126.603946 49.4745435 124.97467 49.0584435 124.97467"></polygon>
                            <polygon id="Fill-122" fill="#023942" points="48.4985287 126.543228 48.0824287 126.537621 48.1106287 124.778046 48.5270287 124.783653"></polygon>
                            <polygon id="Fill-123" fill="#023942" points="47.1320817 126.445717 47.1176817 124.721921 47.5340818 124.717916 47.5481818 126.443848"></polygon>
                            <path d="M46.2529435,21.2519526 L43.0402652,21.2586277 L43.1979609,21.1080359 L42.5976391,39.1827944 C42.5289,42.1948981 42.3218739,45.212876 42.1593261,48.2191056 L41.9053957,52.7357927 L41.5193783,57.2439355 C41.2298652,60.2482961 41.0659696,63.2633369 40.6740217,66.2591532 L39.5019522,75.2452672 L39.2092043,77.4934645 L38.8010826,79.7176311 L37.9648913,84.1619594 L37.1284304,88.6062876 C36.8564391,90.0769611 36.5893,91.5892876 36.1811783,93.0466107 C35.4423,95.9826175 34.7430478,98.9271685 33.7683,101.796424 C33.2973696,103.234255 32.9013783,104.699322 32.368987,106.116861 L30.784213,110.374017 C30.2849783,111.804106 29.6593174,113.184264 29.0670826,114.579908 C28.4554391,115.964606 27.9055261,117.378407 27.2442826,118.741209 C25.9301522,121.472155 24.6402826,124.215116 23.1646826,126.865692 C21.7737261,129.559257 20.1903,132.151359 18.6376043,134.754942 L16.2034304,138.600374 L13.6455261,142.368908 C11.8973957,144.849669 10.0926565,147.294116 8.20408261,149.676618 C6.30176087,152.056182 4.35873478,154.375937 2.23806522,156.615323 L1.71079565,155.391631 L18.9710565,155.263468 L18.4454043,155.525936 L18.4459435,155.524066 C20.1522913,153.219798 21.7184652,150.744645 23.2274913,148.266555 C24.7044391,145.761497 26.1309783,143.225466 27.4529261,140.634432 C28.7961696,138.050874 30.021613,135.41258 31.2257609,132.764407 C32.3754565,130.091402 33.5141,127.415459 34.5160739,124.683446 C35.053587,123.331323 35.5450043,121.962646 35.9954478,120.57875 C36.4555957,119.200728 36.944587,117.829381 37.3815522,116.442548 C38.1762304,113.645919 39.0935609,110.879995 39.734587,108.042514 L40.7794217,103.806985 L41.6301696,99.5364781 C42.2606826,96.7030019 42.5987174,93.7952978 43.0510478,90.9174985 C43.4831609,88.0530495 43.6667348,85.1343981 43.9869783,82.2448505 C44.3215087,79.3526328 44.4252913,76.4361175 44.6457957,73.5321515 C44.8571348,70.6260495 45.0277696,67.7183454 45.1431435,64.8058352 C45.2687609,61.893859 45.4358913,58.9832179 45.5275435,56.0715087 C45.7310652,50.2451532 45.9092478,44.4190648 46.0224652,38.5908403 C46.1418826,32.810677 46.219787,27.0318488 46.2529435,21.2519526 L46.2529435,21.2519526 Z M46.5562043,21.1021617 C46.5664478,26.9322553 46.5292478,32.7666209 46.4524217,38.5975155 C46.3828739,44.427609 46.2489,50.2587706 46.0877,56.0899321 C46.0170739,59.0056464 45.8712391,61.9181566 45.7669174,64.8336039 C45.6733783,67.7482502 45.5237696,70.6628964 45.3342652,73.5738046 C45.1342478,76.4841787 45.0517609,79.4038981 44.7377174,82.3075971 C44.4379609,85.2163692 44.2767609,88.1254083 43.8621696,91.0331124 C43.4287087,93.9178539 43.1162826,96.8132757 42.5011348,99.6843998 L41.6743783,103.99923 L40.6559609,108.268669 C40.0311087,111.128311 39.1291435,113.916129 38.3495609,116.738391 C37.9212217,118.136439 37.4395087,119.518466 36.9855609,120.911174 C36.5429348,122.307619 36.0585261,123.68751 35.5269435,125.052983 C34.5384478,127.810095 33.4127435,130.516209 32.2730217,133.216716 C31.0804652,135.892658 29.8652652,138.559789 28.5309174,141.174053 C27.2170565,143.796327 25.796987,146.365199 24.3243522,148.905769 C22.8104739,151.430318 21.2691,153.915084 19.5118043,156.324553 L19.3209522,156.582481 L18.985613,156.589424 L1.7267,156.830798 L0.000134782611,156.854828 L1.20077826,155.607106 C3.26079565,153.464109 5.22808261,151.159039 7.12096957,148.826468 C9.01008261,146.482949 10.8180565,144.07348 12.5710391,141.625294 L15.1373,137.908026 L17.5811783,134.111723 C19.1422304,131.538845 20.734013,128.980653 22.1357522,126.31726 C23.620787,123.698191 24.9219783,120.985402 26.2485087,118.284361 C26.9159522,116.935175 27.4720652,115.53873 28.0896391,114.165514 C28.6883435,112.787492 29.3212826,111.421752 29.826987,110.006082 L31.4338652,105.791646 C31.9740739,104.388259 32.3773435,102.937878 32.8569,101.514197 C33.8472826,98.671376 34.563787,95.7527247 35.3218043,92.8431515 C35.738013,91.3962417 36.0062304,89.9407876 36.2954739,88.4498216 L37.1659,84.0092315 L38.0371348,79.5726464 L38.4622391,77.3524849 L38.7714304,75.118706 L40.0079261,66.1798522 C40.4219783,63.1997893 40.6093261,60.1892876 40.921213,57.1948063 L41.342813,52.6962757 L41.6323261,48.1873318 C41.8185957,45.1781651 42.0477261,42.1812808 42.1415348,39.16624 L42.8823,21.0962876 L42.8823,21.0973556 L43.0402652,20.9459628 L46.5551261,20.9534389 L46.5562043,21.1021617 Z" id="Fill-124" fill="#023942"></path>
                            <polygon id="Fill-125" fill="#023942" points="18.8612087 133.702321 31.6221565 133.702321 31.6221565 132.961645 18.8612087 132.961645"></polygon>
                            <polygon id="Fill-126" fill="#023942" points="11.4058435 144.814077 26.0831304 144.814077 26.0831304 144.0734 11.4058435 144.0734"></polygon>
                            <path d="M1.71939478,156.48214 C1.58029913,156.48214 1.44632522,156.404708 1.3821687,156.271472 C1.29240348,156.087771 1.37084696,155.865889 1.55657739,155.778043 L25.5362904,144.294348 L18.4796122,133.720611 C18.4240817,133.638373 18.4049426,133.536911 18.4256991,133.439453 C18.4469948,133.341996 18.5062991,133.257889 18.5912122,133.204754 L35.41936,122.648373 C35.5913426,122.538366 35.8245165,122.589365 35.9350383,122.762385 C36.04556,122.934071 35.9935339,123.16423 35.8191252,123.274237 L19.3139165,133.62796 L26.3951252,144.240412 C26.4546991,144.327991 26.4732991,144.439065 26.4444557,144.541596 C26.4156122,144.644127 26.3436383,144.729836 26.2463252,144.776295 L1.88194261,156.443424 C1.82964696,156.470392 1.77411652,156.48214 1.71939478,156.48214" id="Fill-127" fill="#023942"></path>
                            <path d="M18.97882,156.29649 C18.8553591,156.29649 18.7345939,156.235079 18.6636983,156.124805 L11.2471504,144.642979 C11.1910809,144.55807 11.1735591,144.452069 11.1988983,144.354077 C11.2231591,144.255819 11.2886635,144.171712 11.3773504,144.120446 L30.9688113,133.173167 L24.277933,123.35239 C24.1614809,123.183375 24.2067678,122.953482 24.37902,122.839737 C24.5466896,122.723856 24.78202,122.770315 24.8971243,122.939064 L31.8152461,133.093866 C31.8732026,133.178774 31.8931504,133.284242 31.8694287,133.385438 C31.8454374,133.485031 31.7802026,133.572076 31.6893591,133.622006 L12.0900809,144.573557 L19.2928635,155.725897 C19.4050026,155.898917 19.3537852,156.126674 19.1801852,156.23855 C19.1173765,156.277266 19.0475591,156.29649 18.97882,156.29649" id="Fill-128" fill="#023942"></path>
                            <path d="M11.3729296,156.256092 L10.7542774,155.841698 C10.897147,155.631296 25.1622687,134.629342 29.4337991,122.653286 L30.1392513,122.897597 C25.8359122,134.966572 11.5176861,156.044623 11.3729296,156.256092" id="Fill-129" fill="#023942"></path>
                            <path d="M40.9007261,106.18161 L31.7630043,106.18161 C31.6182478,106.18161 31.5012565,106.066797 31.5012565,105.92288 C31.5012565,105.778964 31.6182478,105.663884 31.7630043,105.663884 L40.9007261,105.663884 C41.0454826,105.663884 41.1624739,105.778964 41.1624739,105.92288 C41.1624739,106.066797 41.0454826,106.18161 40.9007261,106.18161" id="Fill-130" fill="#023942"></path>
                            <path d="M42.303193,99.3296546 L34.0065148,99.3296546 C33.8612191,99.3296546 33.7453061,99.2137736 33.7453061,99.070925 C33.7453061,98.9270083 33.8612191,98.8113944 34.0065148,98.8113944 L42.303193,98.8113944 C42.44768,98.8113944 42.5646713,98.9270083 42.5646713,99.070925 C42.5646713,99.2137736 42.44768,99.3296546 42.303193,99.3296546" id="Fill-131" fill="#023942"></path>
                            <path d="M43.3079974,92.5697366 L35.8526322,92.5697366 C35.7084148,92.5697366 35.5914235,92.4538556 35.5914235,92.31074 C35.5914235,92.1668233 35.7084148,92.0512094 35.8526322,92.0512094 L43.3079974,92.0512094 C43.4527539,92.0512094 43.5697452,92.1668233 43.5697452,92.31074 C43.5697452,92.4538556 43.4527539,92.5697366 43.3079974,92.5697366" id="Fill-132" fill="#023942"></path>
                            <path d="M29.635973,112.107399 C29.5418948,112.107399 29.4505122,112.058002 29.4036078,111.968555 C29.3372948,111.841994 29.3858165,111.685528 29.5146687,111.618776 L40.37626,105.991608 L33.9816339,99.4360568 C33.9296078,99.3839905 33.9031904,99.3102966 33.90966,99.2371367 C33.9142426,99.1629088 33.9514426,99.0942881 34.0099383,99.049698 L42.9565383,92.2143238 L36.9037209,87.3718884 C36.7915817,87.2832422 36.7735209,87.119033 36.8643643,87.0079582 C36.9552078,86.8979514 37.1201817,86.8795279 37.2323209,86.9703102 L43.542573,92.0162048 C43.6048426,92.065601 43.6415035,92.1408969 43.639347,92.220999 C43.639347,92.299232 43.6018774,92.3745279 43.5385296,92.4236571 L34.5614687,99.2843969 L40.99626,105.880533 C41.0534078,105.939274 41.0790165,106.022314 41.0658078,106.103484 C41.0534078,106.182785 41.0016513,106.253007 40.9291383,106.291723 L29.7570078,112.078562 C29.71846,112.098854 29.6764078,112.107399 29.635973,112.107399" id="Fill-133" fill="#023942"></path>
                            <path d="M39.3119087,112.339187 C39.2528739,112.339187 39.1924913,112.321031 39.1437,112.279378 L31.8053261,106.214585 C31.7419783,106.161184 31.7074739,106.082951 31.711787,106.001247 C31.7161,105.920077 31.7589609,105.844781 31.8277,105.79939 L41.8137435,99.2053896 L35.7981261,92.5291515 C35.7469087,92.4720121 35.7234565,92.3975172 35.7331609,92.3232893 C35.7428652,92.2490614 35.7854565,92.1815087 35.8488043,92.1398556 L43.795587,86.9537825 C43.9174304,86.8755495 44.0791696,86.9083913 44.1581522,87.0282774 C44.2376739,87.1489645 44.2034391,87.3083675 44.0834826,87.3874015 L36.3903609,92.4073964 L42.4046304,99.0836345 C42.456387,99.1386379 42.4795696,99.2139338 42.4698652,99.2881617 C42.4598913,99.3626566 42.4181087,99.4283403 42.3553,99.4718624 L32.4099609,106.038628 L39.4795783,111.88047 C39.5909087,111.973121 39.6054652,112.136262 39.5127348,112.246536 C39.4607087,112.307413 39.3865783,112.339187 39.3119087,112.339187" id="Fill-134" fill="#023942"></path>
                            <path d="M34.9951722,112.282368 L34.2794765,112.065025 C34.3274591,111.909627 39.0505113,96.4720944 40.1554591,86.4825689 L40.8986504,86.5637389 C39.7856157,96.6210842 35.0428852,112.124834 34.9951722,112.282368" id="Fill-135" fill="#023942"></path>
                            <polygon id="Fill-136" fill="#023942" points="39.2419565 75.0264109 45.0378783 75.0264109 45.0378783 74.6097109 39.2419565 74.6097109"></polygon>
                            <polygon id="Fill-137" fill="#023942" points="39.8258348 70.8592357 45.2015043 70.8592357 45.2015043 70.4425357 39.8258348 70.4425357"></polygon>
                            <polygon id="Fill-138" fill="#023942" points="40.2698087 66.6921956 45.5753913 66.6921956 45.5753913 66.2766956 40.2698087 66.2766956"></polygon>
                            <polygon id="Fill-139" fill="#023942" points="40.5736087 62.5259534 45.692113 62.5259534 45.692113 62.1092534 40.5736087 62.1092534"></polygon>
                            <polygon id="Fill-140" fill="#023942" points="42.9112783 22.9858521 46.4636087 22.9858521 46.4636087 22.570352 42.9112783 22.570352"></polygon>
                            <polygon id="Fill-141" fill="#023942" points="42.8878261 24.8833344 46.4167043 24.8833344 46.4167043 24.4666344 42.8878261 24.4666344"></polygon>
                            <polygon id="Fill-142" fill="#023942" points="42.7940174 27.0594398 46.3935217 27.0594398 46.3935217 26.6427398 42.7940174 26.6427398"></polygon>
                            <polygon id="Fill-143" fill="#023942" points="42.747113 29.5604925 46.3466174 29.5604925 46.3466174 29.1437925 42.747113 29.1437925"></polygon>
                            <polygon id="Fill-144" fill="#023942" points="42.6069391 31.9671599 46.439887 31.9671599 46.439887 31.5516599 42.6069391 31.5516599"></polygon>
                            <polygon id="Fill-145" fill="#023942" points="42.5136696 34.7919568 46.3935217 34.7919568 46.3935217 34.3752568 42.5136696 34.3752568"></polygon>
                            <polygon id="Fill-146" fill="#023942" points="42.3031391 37.8936429 46.4636087 37.8936429 46.4636087 37.4781429 42.3031391 37.4781429"></polygon>
                            <polygon id="Fill-147" fill="#023942" points="42.2096 40.8578174 46.3231652 40.8578174 46.3231652 40.4411173 42.2096 40.4411173"></polygon>
                            <polygon id="Fill-148" fill="#023942" points="42.0931478 43.8835385 46.3002522 43.8835385 46.3002522 43.4668384 42.0931478 43.4668384"></polygon>
                            <polygon id="Fill-149" fill="#023942" points="41.9996087 46.8955432 46.206713 46.8955432 46.206713 46.4797432 41.9996087 46.4797432"></polygon>
                            <polygon id="Fill-150" fill="#023942" points="41.6025391 50.4310793 45.9964522 50.4310793 45.9964522 50.0143793 41.6025391 50.0143793"></polygon>
                            <polygon id="Fill-151" fill="#023942" points="41.5087304 54.3122902 45.832287 54.3122902 45.832287 53.8955901 41.5087304 53.8955901"></polygon>
                            <polygon id="Fill-152" fill="#023942" points="41.1348435 58.3113861 45.8093739 58.3113861 45.8093739 57.8958861 41.1348435 57.8958861"></polygon>
                            <polygon id="Fill-153" fill="#023942" points="38.6279948 79.618091 38.4061426 79.3206454 44.6026383 74.8002202 39.5571861 70.6349141 45.1420383 66.4330281 40.4769426 62.2743971 45.4380209 58.0994787 41.2942643 54.0890366 45.7137861 50.3274447 41.7455165 46.76771 45.9086817 43.6917917 42.080047 40.6700757 45.9186557 37.7022951 42.3037861 34.6466692 45.9617861 31.8220043 42.5693078 29.4779515 45.84156 26.8551437 42.7205339 24.6985298 45.8865774 22.8714022 42.98956 21.4063359 43.1591165 21.0760485 46.66616 22.8513767 43.4138557 24.7287015 46.463447 26.8319141 43.1914643 29.4549889 46.5912209 31.8046488 42.8952122 34.6581505 46.5098122 37.7129753 42.6830643 40.6719447 46.5205948 43.7003359 42.3326296 46.7965468 46.2782557 50.3351879 41.8479513 54.106392 45.9930557 58.1197713 41.0449165 62.2821403 45.728073 66.4570587 40.1572383 70.6504005 45.2088904 74.8175757"></polygon>
                            <path d="M42.8141539,37.5689519 L46.6702843,34.6756662 L43.1427539,31.7591509 L46.3910148,29.3515505 L43.38078,26.8550369 L46.5516757,24.6282002 L43.370267,22.8008056 L46.3681017,21.2673855 L46.19558,20.9370981 L42.8955626,22.6269842 C42.8793887,22.7255097 42.8527017,22.8213651 42.8230496,22.9148175 L45.8610496,24.659974 L42.768867,26.8320743 L45.788267,29.3352631 L42.5397365,31.7436645 L46.0702322,34.6601798 L42.2135626,37.5545335 L45.9316757,40.635258 L42.0049191,43.6444247 L45.6370409,46.639173 L41.5876322,50.095576 L45.5162757,54.1255097 L41.0511974,58.061991 L45.2297278,62.3170114 L40.1713365,66.4454706 L44.9024757,70.7141083 L39.0804061,74.7226815 L44.4698235,79.4625862 L44.7183626,79.1843651 L39.6828843,74.7576594 L45.3081713,70.8868617 L45.5006409,70.7554944 L40.7428148,66.4590879 L45.6241017,62.4753464 L45.7812583,62.3469162 L41.5919452,58.0830845 L46.0554061,54.1468702 L42.1310757,50.1217427 L46.2155278,46.6332988 L42.6020061,43.6551049 L46.5274148,40.6456713 L42.8141539,37.5689519 Z" id="Fill-154" fill="#023942"></path>
                            <polygon id="Fill-155" fill="#023942" points="7.44835652 150.245262 22.9674957 150.245262 22.9674957 149.505386 7.44835652 149.505386"></polygon>
                            <polygon id="Fill-156" fill="#023942" points="15.2390609 138.948204 29.2615739 138.948204 29.2615739 138.208328 15.2390609 138.208328"></polygon>
                            <polygon id="Fill-157" fill="#023942" points="21.9081043 128.176349 33.9673739 128.176349 33.9673739 127.434871 21.9081043 127.434871"></polygon>
                            <path d="M46.3134878,20.953519 L49.8283487,20.9457759 L49.9863139,21.0974357 L49.9863139,21.0963677 L50.7270791,39.1663201 C50.8208878,42.1813609 51.0497487,45.1782452 51.2362878,48.1874119 L51.5258009,52.6963558 L51.9474009,57.1946194 C52.2595574,60.1893677 52.4466357,63.1996024 52.8604183,66.1799323 L54.0971835,75.1187861 L54.4061052,77.352565 L54.8317487,79.5727265 L55.7027139,84.0093116 L56.5734096,88.4499017 C56.8623835,89.9408677 57.1306009,91.3963218 57.5468096,92.8429646 C58.304827,95.7528048 59.0216009,98.6711891 60.0117139,101.514278 C60.49154,102.937958 60.89454,104.388072 61.4347487,105.79146 L63.041627,110.006162 C63.5476009,111.421832 64.1802704,112.787572 64.7789748,114.165594 C65.3965487,115.53881 65.9526617,116.935255 66.6201052,118.284174 C67.9466357,120.985482 69.247827,123.698271 70.7328617,126.317073 C72.1348704,128.980733 73.7263835,131.538926 75.2874357,134.111803 L77.7313139,137.908106 L80.2973052,141.625107 C82.0505574,144.073293 83.8585313,146.483029 85.7476443,148.826548 C87.6408009,151.158852 89.6075487,153.464189 91.6678357,155.607186 L92.8684791,156.854641 L91.1419139,156.830878 L73.8830009,156.589237 L73.5473922,156.582562 L73.3568096,156.324633 C71.5995139,153.915164 70.05814,151.430398 68.5445313,148.905849 C67.071627,146.365012 65.6515574,143.79614 64.3376965,141.174133 C63.0033487,138.559869 61.7881487,135.892738 60.5955922,133.216529 C59.4558704,130.516289 58.3301661,127.810176 57.3416704,125.053063 C56.8100878,123.68759 56.3259487,122.307699 55.883053,120.910987 C55.4291052,119.518279 54.9473922,118.136519 54.5187835,116.738204 C53.7394704,113.91621 52.8375052,111.128391 52.212653,108.268749 L51.1939661,103.999043 L50.3674791,99.6842129 C49.7523313,96.8130888 49.4399052,93.917934 49.0064443,91.0331925 C48.5921226,88.1252214 48.430653,85.2164493 48.1308965,82.3076772 C47.816853,79.4037112 47.7343661,76.4842588 47.5343487,73.5736177 C47.3448443,70.6629765 47.1952357,67.7483303 47.1016965,64.833684 C46.9973748,61.9182367 46.85154,59.0054595 46.7809139,56.0900122 C46.6197139,50.2588507 46.48574,44.4276891 46.4161922,38.5975956 C46.3393661,32.766434 46.3021661,26.9323354 46.3124096,21.1022418 L46.3134878,20.953519 Z M46.6156704,21.2520327 C46.648827,27.0319289 46.7267313,32.8107571 46.8464183,38.5909204 C46.9593661,44.4188779 47.1375487,50.2452333 47.34134,56.0715888 C47.4327226,58.983298 47.6001226,61.8939391 47.7254704,64.8056483 C47.8408443,67.7184255 48.0114791,70.6261296 48.2230878,73.5319646 C48.443053,76.4359306 48.5471052,79.3524459 48.8816357,82.2449306 C49.2018791,85.1344782 49.385453,88.0528626 49.8175661,90.9173116 C50.2701661,93.7953779 50.6079313,96.702815 51.2387139,99.5362912 L52.0891922,103.807065 L53.134027,108.042594 C53.775053,110.880075 54.692653,113.645732 55.4870617,116.442628 C55.924027,117.829461 56.4135574,119.200808 56.8731661,120.57883 C57.3236096,121.962727 57.815027,123.331403 58.3528096,124.683259 C59.3545139,127.415539 60.493427,130.091482 61.642853,132.764487 C62.8470009,135.41266 64.0724443,138.050954 65.4154183,140.634245 C66.7379052,143.225279 68.1641748,145.761577 69.6411226,148.266368 C71.1501487,150.744725 72.7163226,153.219611 74.4226704,155.524147 L74.42294,155.526016 L73.8975574,155.263548 L91.1578183,155.391711 L90.6302791,156.615403 C88.5098791,154.37575 86.5665835,152.056262 84.6645313,149.676698 C82.7754183,147.294196 80.9712183,144.849482 79.2230878,142.368988 L76.6651835,138.600454 L74.2310096,134.755022 C72.6785835,132.151439 71.0951574,129.559337 69.7039313,126.865772 C68.2286009,124.214929 66.9387313,121.472235 65.6243313,118.741022 C64.9633574,117.378487 64.4134443,115.964686 63.8015313,114.579721 C63.2092965,113.184344 62.5836357,111.804186 62.0844009,110.37383 L60.499627,106.116941 C59.9672357,104.699402 59.5715139,103.234335 59.1005835,101.796237 C58.1252965,98.9269816 57.4265835,95.9826976 56.6874357,93.0466908 C56.2795835,91.5893677 56.0121748,90.0770412 55.7401835,88.6063677 L54.9037226,84.1620395 L54.0678009,79.7174442 L53.6596791,77.4935446 L53.3663922,75.2453473 L52.1943226,66.2592333 C51.8026443,63.263417 51.6390183,60.2483762 51.3495052,57.2440156 L50.9632183,52.7358728 L50.7092878,48.2191857 C50.5470096,45.2126891 50.3397139,42.1949782 50.2709748,39.1826075 L49.6703835,21.108116 L49.8283487,21.2587078 L46.6156704,21.2520327 Z" id="Fill-158" fill="#023942"></path>
                            <polygon id="Fill-159" fill="#023942" points="61.2462957 133.702321 74.0072435 133.702321 74.0072435 132.961645 61.2462957 132.961645"></polygon>
                            <polygon id="Fill-160" fill="#023942" points="66.7855913 144.814077 81.4626087 144.814077 81.4626087 144.0734 66.7855913 144.0734"></polygon>
                            <path d="M91.1492461,156.48214 C91.0947939,156.48214 91.0389939,156.470392 90.9866983,156.443424 L66.6223157,144.776295 C66.5250026,144.729836 66.4530287,144.644127 66.4241852,144.541596 C66.3956113,144.439065 66.4139417,144.327991 66.4735157,144.240412 L73.5547243,133.62796 L57.0497852,123.274237 C56.875107,123.16423 56.8228113,122.934071 56.9330635,122.762385 C57.0452026,122.590433 57.27622,122.541304 57.4492809,122.648373 L74.2774287,133.204754 C74.3623417,133.257889 74.4216461,133.341996 74.4429417,133.439453 C74.4631591,133.536911 74.4445591,133.638373 74.3890287,133.720611 L67.3323504,144.294348 L91.312333,155.778043 C91.4977939,155.865889 91.5762374,156.087771 91.4864722,156.271472 C91.4223157,156.404708 91.2883417,156.48214 91.1492461,156.48214" id="Fill-161" fill="#023942"></path>
                            <path d="M73.8896861,156.29649 C73.820947,156.29649 73.7513991,156.277266 73.6883209,156.23855 C73.5147209,156.126674 73.463773,155.898917 73.5759122,155.725897 L80.7786948,144.573557 L61.1794165,133.622006 C61.088573,133.572076 61.0233383,133.485031 60.999347,133.385438 C60.9756252,133.284242 60.995573,133.178774 61.0535296,133.093866 L67.9716513,122.939064 C68.0881035,122.770315 68.3220861,122.725725 68.4897557,122.839737 C68.6620078,122.953482 68.7067557,123.183375 68.5908426,123.35239 L61.8996948,133.173167 L81.4914252,144.120446 C81.5801122,144.171712 81.6456165,144.255819 81.6696078,144.354077 C81.6952165,144.452069 81.6776948,144.55807 81.6216252,144.642979 L74.2048078,156.124805 C74.1339122,156.235079 74.013147,156.29649 73.8896861,156.29649" id="Fill-162" fill="#023942"></path>
                            <path d="M81.4957113,156.256092 C81.3509548,156.044623 67.0327287,134.966572 62.7293896,122.897597 L63.4348417,122.653286 C67.7063722,134.63041 81.9717635,155.631296 82.1143635,155.841698 L81.4957113,156.256092 Z" id="Fill-163" fill="#023942"></path>
                            <path d="M61.1056096,106.18161 L51.9681574,106.18161 C51.8225922,106.18161 51.70614,106.066797 51.70614,105.92288 C51.70614,105.778964 51.8225922,105.663884 51.9681574,105.663884 L61.1056096,105.663884 C61.2503661,105.663884 61.3673574,105.778964 61.3673574,105.92288 C61.3673574,106.066797 61.2503661,106.18161 61.1056096,106.18161" id="Fill-164" fill="#023942"></path>
                            <path d="M58.8619643,99.3296546 L50.5655557,99.3296546 C50.4213383,99.3296546 50.3040774,99.2137736 50.3040774,99.070925 C50.3040774,98.9270083 50.4213383,98.8113944 50.5655557,98.8113944 L58.8619643,98.8113944 C59.00726,98.8113944 59.1234426,98.9270083 59.1234426,99.070925 C59.1234426,99.2137736 59.00726,99.3296546 58.8619643,99.3296546" id="Fill-165" fill="#023942"></path>
                            <path d="M57.0160626,92.5697366 L49.5606974,92.5697366 C49.4159409,92.5697366 49.29868,92.4538556 49.29868,92.31074 C49.29868,92.1668233 49.4159409,92.0512094 49.5606974,92.0512094 L57.0160626,92.0512094 C57.16028,92.0512094 57.2772713,92.1668233 57.2772713,92.31074 C57.2772713,92.4538556 57.16028,92.5697366 57.0160626,92.5697366" id="Fill-166" fill="#023942"></path>
                            <path d="M63.2326678,112.107399 C63.192233,112.107399 63.1501809,112.098854 63.1113635,112.078562 L51.9395026,106.291723 C51.8669896,106.253007 51.815233,106.182785 51.802833,106.103484 C51.7896243,106.022314 51.815233,105.939274 51.8721113,105.880533 L58.3074417,99.2843969 L49.3301113,92.4236571 C49.2664939,92.3745279 49.2292939,92.299232 49.2287548,92.220999 C49.2271374,92.1408969 49.2637983,92.065601 49.3260678,92.0162048 L55.63632,86.9703102 C55.7465722,86.8776588 55.913433,86.8958153 56.0045461,87.0079582 C56.09512,87.119033 56.0770591,87.2832422 55.96492,87.3718884 L49.9121026,92.2143238 L58.8587026,99.049698 C58.9171983,99.0942881 58.9541287,99.1629088 58.9589809,99.2371367 C58.9654504,99.3102966 58.939033,99.3839905 58.887007,99.4360568 L52.4923809,105.991608 L63.353433,111.618776 C63.4828243,111.685528 63.5313461,111.841994 63.465033,111.968555 C63.4181287,112.058002 63.3267461,112.107399 63.2326678,112.107399" id="Fill-167" fill="#023942"></path>
                            <path d="M53.5567322,112.339187 C53.4823322,112.339187 53.4079322,112.307413 53.3559061,112.246536 C53.2631757,112.136262 53.2780017,111.973121 53.3890626,111.88047 L60.4589496,106.038628 L50.5133409,99.4718624 C50.4502626,99.4283403 50.4087496,99.3626566 50.3985061,99.2881617 C50.3890713,99.2139338 50.4122539,99.1386379 50.4632017,99.0836345 L56.47828,92.4073964 L48.7851583,87.3874015 C48.6652017,87.3083675 48.6312365,87.1489645 48.7107583,87.0282774 C48.7916278,86.9083913 48.953367,86.8755495 49.0730539,86.9537825 L57.0198365,92.1398556 C57.0831843,92.1815087 57.1255061,92.2490614 57.13548,92.3232893 C57.1451843,92.3975172 57.1220017,92.4720121 57.0705148,92.5291515 L51.0548974,99.2053896 L61.0409409,105.79939 C61.10968,105.844781 61.1525409,105.920077 61.1565843,106.001247 C61.161167,106.082951 61.1266626,106.161184 61.0633148,106.214585 L53.7249409,112.279378 C53.67588,112.321031 53.615767,112.339187 53.5567322,112.339187" id="Fill-168" fill="#023942"></path>
                            <path d="M57.8734687,112.282368 C57.8257557,112.124834 53.0830252,96.6210842 51.9699904,86.5637389 L52.7131817,86.4825689 C53.8181296,96.4720944 58.5414513,111.909627 58.5891643,112.065025 L57.8734687,112.282368 Z" id="Fill-169" fill="#023942"></path>
                            <polygon id="Fill-170" fill="#023942" points="47.8308435 75.0264109 53.6270348 75.0264109 53.6270348 74.6097109 47.8308435 74.6097109"></polygon>
                            <polygon id="Fill-171" fill="#023942" points="47.6672174 70.8592357 53.042887 70.8592357 53.042887 70.4425357 47.6672174 70.4425357"></polygon>
                            <polygon id="Fill-172" fill="#023942" points="47.2930609 66.6921956 52.5986435 66.6921956 52.5986435 66.2766956 47.2930609 66.2766956"></polygon>
                            <polygon id="Fill-173" fill="#023942" points="47.1766087 62.5259534 52.295113 62.5259534 52.295113 62.1092534 47.1766087 62.1092534"></polygon>
                            <polygon id="Fill-174" fill="#023942" points="46.405113 22.9858521 49.9574435 22.9858521 49.9574435 22.570352 46.405113 22.570352"></polygon>
                            <polygon id="Fill-175" fill="#023942" points="46.4520174 24.8833344 49.9811652 24.8833344 49.9811652 24.4666344 46.4520174 24.4666344"></polygon>
                            <polygon id="Fill-176" fill="#023942" points="46.4749304 27.0594398 50.0744348 27.0594398 50.0744348 26.6427398 46.4749304 26.6427398"></polygon>
                            <polygon id="Fill-177" fill="#023942" points="46.5218348 29.5604925 50.1210696 29.5604925 50.1210696 29.1437925 46.5218348 29.1437925"></polygon>
                            <polygon id="Fill-178" fill="#023942" points="46.4288348 31.9671599 50.2617826 31.9671599 50.2617826 31.5516599 46.4288348 31.5516599"></polygon>
                            <polygon id="Fill-179" fill="#023942" points="46.4749304 34.7919568 50.3547826 34.7919568 50.3547826 34.3752568 46.4749304 34.3752568"></polygon>
                            <polygon id="Fill-180" fill="#023942" points="46.4048435 37.8936429 50.565313 37.8936429 50.565313 37.4781429 46.4048435 37.4781429"></polygon>
                            <polygon id="Fill-181" fill="#023942" points="46.545287 40.8578174 50.6588522 40.8578174 50.6588522 40.4411173 46.545287 40.4411173"></polygon>
                            <polygon id="Fill-182" fill="#023942" points="46.5684696 43.8835385 50.7755739 43.8835385 50.7755739 43.4668384 46.5684696 43.4668384"></polygon>
                            <polygon id="Fill-183" fill="#023942" points="46.6620087 46.8955432 50.869113 46.8955432 50.869113 46.4797432 46.6620087 46.4797432"></polygon>
                            <polygon id="Fill-184" fill="#023942" points="46.872 50.4310793 51.265913 50.4310793 51.265913 50.0143793 46.872 50.0143793"></polygon>
                            <polygon id="Fill-185" fill="#023942" points="47.0364348 54.3122902 51.3599913 54.3122902 51.3599913 53.8955901 47.0364348 53.8955901"></polygon>
                            <polygon id="Fill-186" fill="#023942" points="47.0590783 58.3113861 51.7336087 58.3113861 51.7336087 57.8958861 47.0590783 57.8958861"></polygon>
                            <polygon id="Fill-187" fill="#023942" points="54.2406461 79.618091 47.6597504 74.8175757 52.7114026 70.6504005 47.1405678 66.4570587 51.8237243 62.2821403 46.8755852 58.1197713 51.0209591 54.106392 46.5903852 50.3351879 50.5360113 46.7965468 46.3480461 43.7003359 50.1855765 40.6719447 46.3588287 37.7129753 49.9731591 34.6581505 46.27742 31.8046488 49.6771765 29.4549889 46.4051939 26.8319141 49.4547852 24.7287015 46.2024809 22.8513767 49.7092548 21.0760485 49.8788113 21.4063359 46.9820635 22.8714022 50.1478374 24.6985298 47.0270809 26.8551437 50.2990635 29.4779515 46.9068548 31.8220043 50.5648548 34.6466692 46.9499852 37.7022951 50.7885939 40.6700757 46.9602287 43.6917917 51.1231243 46.76771 47.1548548 50.3274447 51.5743765 54.0890366 47.43062 58.0994787 52.3916983 62.2743971 47.7266026 66.4330281 53.3114548 70.6349141 48.265733 74.8002202 54.4624983 79.3206454"></polygon>
                            <path d="M47.9661652,70.7140282 L52.6973043,66.4453905 L47.638913,62.3169313 L51.8174435,58.0619109 L47.3523652,54.1256966 L51.2810087,50.0954959 L47.2316,46.6393599 L50.8637217,43.6443446 L46.9369652,40.6351779 L50.6550783,37.5544534 L46.7984087,34.6600997 L50.3291739,31.7435844 L47.0803739,29.335183 L50.0997739,26.8319942 L47.0075913,24.6601609 L49.9935652,22.9459772 C49.9827826,22.8415776 49.9790087,22.7371779 49.9835913,22.6330452 L46.6730609,20.937018 L46.5005391,21.2675724 L49.4983739,22.8009925 L46.3169652,24.6281201 L49.4878609,26.8552238 L46.4778957,29.3514704 L49.725887,31.7590707 L46.198087,34.6755861 L50.054487,37.5688718 L46.3412261,40.6458582 L50.2663652,43.6550248 L46.653113,46.6332187 L50.7375652,50.1216626 L46.8132348,54.1467901 L51.2766957,58.0830044 L47.0873826,62.3468361 L52.1260957,66.4590078 L47.368,70.7554143 L53.1857565,74.7575793 L48.1505478,79.184552 L48.3988174,79.4627731 L53.7882348,74.7228684 L47.9661652,70.7140282 Z" id="Fill-188" fill="#023942"></path>
                            <polygon id="Fill-189" fill="#023942" points="69.9009565 150.245262 85.4195565 150.245262 85.4195565 149.505386 69.9009565 149.505386"></polygon>
                            <polygon id="Fill-190" fill="#023942" points="63.6068783 138.948204 77.6293913 138.948204 77.6293913 138.208328 63.6068783 138.208328"></polygon>
                            <polygon id="Fill-191" fill="#023942" points="58.9013478 128.176349 70.9606174 128.176349 70.9606174 127.434871 58.9013478 127.434871"></polygon>
                            <polygon id="Fill-192" fill="#023942" points="34.777687 82.0778912 57.5882957 82.0778912 57.5882957 79.3004864 34.777687 79.3004864"></polygon>
                            <path d="M35.8058087,86.6148707 L56.5601739,86.6148707 L56.5601739,85.0881259 L35.8058087,85.0881259 L35.8058087,86.6148707 Z M36.1796957,86.2450663 L56.186287,86.2450663 L56.186287,85.4579303 L36.1796957,85.4579303 L36.1796957,86.2450663 Z" id="Fill-194" fill="#023942"></path>
                            <path d="M35.8058087,85.134585 L56.5601739,85.134585 L56.5601739,81.9852398 L35.8058087,81.9852398 L35.8058087,85.134585 Z M36.1796957,84.7637126 L56.186287,84.7637126 L56.186287,82.3561122 L36.1796957,82.3561122 L36.1796957,84.7637126 Z" id="Fill-203" fill="#023942"></path>
                            <path d="M56.0588904,85.8742473 L55.68096,85.5004378 L56.0295078,85.1546639 L56.4079774,85.5303425 L56.0588904,85.8742473 Z M55.5523774,86.3783561 L55.1733687,86.0026776 L55.5224557,85.6561027 L55.9014643,86.0325823 L55.5523774,86.3783561 Z M54.6355861,85.470533 L54.9835948,85.1236912 L55.3639513,85.5004378 L55.0143252,85.8462116 L54.6355861,85.470533 Z M54.5083513,86.3463153 L54.1296122,85.9727728 L54.4770817,85.625931 L54.8558209,86.0026776 L54.5083513,86.3463153 Z M53.5918296,85.4387592 L53.9392991,85.0948544 L54.3185774,85.470533 L53.9700296,85.8141707 L53.5918296,85.4387592 Z M53.4627078,86.3185466 L53.08316,85.942868 L53.4338643,85.5978952 L53.8126035,85.9727728 L53.4627078,86.3185466 Z M52.4181426,86.2883748 L52.0391339,85.9129633 L52.3871426,85.5671895 L52.7664209,85.942868 L52.4181426,86.2883748 Z M51.3746557,86.256601 L50.9913339,85.8779854 L51.3393426,85.5332796 L51.7221252,85.9129633 L51.3746557,86.256601 Z M50.3252383,86.2237592 L49.9462296,85.8470126 L50.2953165,85.5012388 L50.6743252,85.8779854 L50.3252383,86.2237592 Z M49.280673,86.1927864 L48.9019339,85.8163068 L49.2504817,85.472402 L49.6286817,85.8470126 L49.280673,86.1927864 Z M48.2369165,86.1628816 L47.8576383,85.7882711 L48.2061861,85.4424973 L48.5851948,85.8181759 L48.2369165,86.1628816 Z M47.1918122,86.1319088 L46.813073,85.7572983 L47.1616209,85.4125925 L47.5408991,85.7882711 L47.1918122,86.1319088 Z M46.1480557,86.1030721 L45.7687774,85.7273935 L46.1170557,85.3826878 L46.4960643,85.7572983 L46.1480557,86.1030721 Z M45.6401948,86.6061129 L45.2614557,86.2304344 L45.6108122,85.8838595 L45.9892817,86.2603391 L45.6401948,86.6061129 Z M44.723673,85.6985568 L45.07276,85.3506469 L45.4520383,85.7273935 L45.1021426,86.0731673 L44.723673,85.6985568 Z M44.5915861,86.5799463 L44.212847,86.2045347 L44.5651687,85.8550228 L44.9447165,86.2304344 L44.5915861,86.5799463 Z M43.6750643,85.6723901 L44.0279252,85.3228782 L44.4061252,85.6985568 L44.0543426,86.0470007 L43.6750643,85.6723901 Z M43.5472904,86.5492405 L43.1680122,86.1746299 L43.5170991,85.8288561 L43.8952991,86.2045347 L43.5472904,86.5492405 Z M42.6264557,85.6376793 L42.9744643,85.2919054 L43.3577861,85.6723901 L43.0095078,86.0160279 L42.6264557,85.6376793 Z M42.5021861,86.5201367 L42.1185948,86.139652 L42.4676817,85.7949463 L42.8507339,86.1746299 L42.5021861,86.5201367 Z M41.5808122,85.6075075 L41.9298991,85.2620007 L42.3091774,85.6376793 L41.9606296,85.9831861 L41.5808122,85.6075075 Z M41.453847,86.4846248 L41.0748383,86.1097473 L41.422847,85.7650415 L41.8021252,86.139652 L41.453847,86.4846248 Z M40.5375948,85.5768017 L40.8856035,85.2328969 L41.2638035,85.6075075 L40.9157948,85.9514122 L40.5375948,85.5768017 Z M40.4087426,86.453652 L40.0310817,86.0790415 L40.3785513,85.7351367 L40.7578296,86.1097473 L40.4087426,86.453652 Z M39.49276,85.5466299 L39.8407687,85.2019241 L40.2205861,85.5768017 L39.8720383,85.9233765 L39.49276,85.5466299 Z M39.3649861,86.4256163 L38.986247,86.0488697 L39.3345252,85.7041639 L39.7135339,86.0790415 L39.3649861,86.4256163 Z M38.4484643,85.5159241 L38.7970122,85.1720194 L39.1760209,85.5466299 L38.827473,85.8924037 L38.4484643,85.5159241 Z M38.3193426,86.3957116 L37.9400643,86.020033 L38.28996,85.6742592 L38.6689687,86.0488697 L38.3193426,86.3957116 Z M37.40336,85.4878884 L37.752447,85.1410466 L38.1317252,85.5159241 L37.7820991,85.863567 L37.40336,85.4878884 Z M37.2755861,86.3636707 L36.8963078,85.9890602 L37.2445861,85.6443544 L37.6227861,86.020033 L37.2755861,86.3636707 Z M36.3585252,85.4579837 L36.707073,85.1122099 L37.0860817,85.4878884 L36.738073,85.8317932 L36.3585252,85.4579837 Z M36.2312904,86.335635 L35.8522817,85.9580874 L36.2002904,85.6144497 L36.5795687,85.9890602 L36.2312904,86.335635 Z M55.5224557,85.3421027 L55.2644817,85.0881793 L54.7054035,85.0881793 L54.4770817,85.314067 L54.2498383,85.0881793 L53.6295687,85.0881793 L53.4338643,85.2822932 L53.2368122,85.0881793 L52.9203426,85.0881793 L53.2748209,85.4387592 L52.9251948,85.785334 L52.5461861,85.4085874 L52.8712817,85.0881793 L52.5548122,85.0881793 L52.3871426,85.2531895 L52.22136,85.0881793 L51.9030035,85.0881793 L52.2286383,85.4085874 L51.8806296,85.7543612 L51.4973078,85.3757456 L51.7895165,85.0881793 L51.4725078,85.0881793 L51.3393426,85.2192796 L51.206447,85.0881793 L50.8894383,85.0881793 L51.1808383,85.3757456 L50.8333687,85.7215194 L50.4532817,85.3458408 L50.7144904,85.0881793 L50.3955948,85.0881793 L50.2953165,85.1875058 L50.1942296,85.0881793 L49.8769513,85.0881793 L50.136273,85.3458408 L49.7882643,85.6897456 L49.4089861,85.3170041 L49.6389252,85.0881793 L49.3224557,85.0881793 L49.2504817,85.158669 L49.179047,85.0881793 L48.8620383,85.0881793 L49.0917078,85.3170041 L48.7434296,85.6617099 L48.3646904,85.2849633 L48.5641687,85.0881793 L48.2468904,85.0881793 L48.2061861,85.1284973 L48.1654817,85.0881793 L47.8482035,85.0881793 L48.0474122,85.2849633 L47.6991339,85.6299361 L47.3201252,85.2561265 L47.4891426,85.0881793 L47.1718643,85.0881793 L47.1616209,85.0977915 L47.1513774,85.0881793 L46.8346383,85.0881793 L47.0025774,85.2561265 L46.6551078,85.6019003 L46.2750209,85.2262218 L46.413847,85.0881793 L45.8191861,85.0881793 L45.9580122,85.2262218 L45.6108122,85.5698595 L45.2315339,85.195249 L45.33936,85.0881793 L44.80616,85.0881793 L44.9147948,85.195249 L44.5651687,85.5410228 L44.1864296,85.1664122 L44.264873,85.0881793 L43.7904383,85.0881793 L43.8691513,85.1664122 L43.5170991,85.5148561 L43.1335078,85.1362405 L43.1812209,85.0881793 L42.768247,85.0881793 L42.8162296,85.1362405 L42.4676817,85.4801452 L42.088673,85.1066027 L42.1061948,85.0881793 L41.7544122,85.0881793 L41.7713948,85.1066027 L41.422847,85.4502405 L41.0556991,85.0881793 L40.7155078,85.0881793 L40.3785513,85.4214037 L40.0437513,85.0881793 L39.6385948,85.0881793 L39.3345252,85.3893629 L39.029647,85.0881793 L38.5641078,85.0881793 L38.28996,85.3594582 L38.0160817,85.0881793 L37.4890817,85.0881793 L37.2445861,85.3303544 L36.9998209,85.0881793 L36.4145948,85.0881793 L36.2002904,85.2985806 L35.9867948,85.0881793 L35.8059165,85.0881793 L35.8059165,85.2240857 L36.0423252,85.4579837 L35.8059165,85.6916146 L35.8059165,86.2285653 L36.0725165,86.4913 L35.9468991,86.6149241 L36.5156817,86.6149241 L36.3897948,86.4913 L36.738073,86.1473952 L37.1165426,86.5222728 L37.0221948,86.6149241 L37.529247,86.6149241 L37.4340904,86.5222728 L37.7820991,86.177567 L38.1608383,86.5521776 L38.0961426,86.6149241 L38.542273,86.6149241 L38.477847,86.5521776 L38.827473,86.2064037 L39.2062122,86.5799463 L39.1717078,86.6149241 L39.5585339,86.6149241 L39.5234904,86.5799463 L39.8720383,86.2363085 L40.2502383,86.6119871 L40.2464643,86.6149241 L40.57156,86.6149241 L40.567247,86.6119871 L40.9157948,86.2654122 L41.2691948,86.6149241 L41.6387687,86.6149241 L41.9606296,86.2971861 L42.2822209,86.6149241 L42.7213426,86.6149241 L43.0095078,86.3308289 L43.2968643,86.6149241 L43.797447,86.6149241 L44.0543426,86.3610007 L44.3123165,86.6149241 L44.8713948,86.6149241 L45.1021426,86.3869003 L45.33316,86.6149241 L45.9466904,86.6149241 L46.1480557,86.4160041 L46.3488817,86.6149241 L46.66616,86.6149241 L46.30656,86.2603391 L46.6551078,85.9156333 L47.0335774,86.2905109 L46.7044383,86.6149241 L47.0217165,86.6149241 L47.1918122,86.4469769 L47.3613687,86.6149241 L47.6797252,86.6149241 L47.350047,86.2905109 L47.6991339,85.9447371 L48.0786817,86.3204156 L47.7791948,86.6149241 L48.0962035,86.6149241 L48.2369165,86.4768816 L48.3768209,86.6149241 L48.6932904,86.6149241 L48.3948817,86.3204156 L48.7434296,85.9746418 L49.1224383,86.3492524 L48.8542209,86.6149241 L49.1712296,86.6149241 L49.280673,86.5067864 L49.3906557,86.6149241 L49.7076643,86.6149241 L49.4391774,86.3492524 L49.7882643,86.0056146 L50.167273,86.3802252 L49.9303252,86.6149241 L50.2467948,86.6149241 L50.3252383,86.5374922 L50.40476,86.6149241 L50.7223078,86.6149241 L50.4837426,86.3802252 L50.8333687,86.0344514 L51.2161513,86.413067 L51.0112817,86.6149241 L51.3293687,86.6149241 L51.3746557,86.571402 L51.4199426,86.6149241 L51.7369513,86.6149241 L51.53316,86.413067 L51.8806296,86.0691622 L52.2593687,86.4448408 L52.0871165,86.6149241 L52.403047,86.6149241 L52.4181426,86.6013068 L52.4324296,86.6149241 L52.7488991,86.6149241 L52.576647,86.4448408 L52.9251948,86.099334 L53.3042035,86.4728765 L53.1607948,86.6149241 L53.7643513,86.6149241 L53.6209426,86.4728765 L53.9700296,86.1281707 L54.349847,86.5046503 L54.2377078,86.6149241 L54.7792643,86.6149241 L54.6673948,86.5046503 L55.0143252,86.1591435 L55.3933339,86.5358901 L55.3121948,86.6149241 L55.79256,86.6149241 L55.7108817,86.5358901 L56.0588904,86.1890483 L56.4387078,86.5655279 L56.3880296,86.6149241 L56.5600122,86.6149241 L56.5600122,86.3714139 L56.218473,86.0325823 L56.5600122,85.6926827 L56.5600122,85.3661333 L56.2783165,85.0881793 L55.78016,85.0881793 L55.5224557,85.3421027 Z" id="Fill-204" fill="#023942"></path>
                            <polygon id="Fill-205" fill="#023942" points="38.330287 84.9017551 38.746387 84.9017551 38.746387 82.2402313 38.330287 82.2402313"></polygon>
                            <polygon id="Fill-206" fill="#023942" points="40.9167652 84.9017551 41.3328652 84.9017551 41.3328652 82.2402313 40.9167652 82.2402313"></polygon>
                            <polygon id="Fill-207" fill="#023942" points="43.5029739 84.9017551 43.9190739 84.9017551 43.9190739 82.2402313 43.5029739 82.2402313"></polygon>
                            <polygon id="Fill-208" fill="#023942" points="46.0897217 84.9017551 46.5058218 84.9017551 46.5058218 82.2402313 46.0897217 82.2402313"></polygon>
                            <polygon id="Fill-209" fill="#023942" points="48.6767391 84.9017551 49.0928391 84.9017551 49.0928391 82.2402313 48.6767391 82.2402313"></polygon>
                            <polygon id="Fill-210" fill="#023942" points="51.2618696 84.9017551 51.6779696 84.9017551 51.6779696 82.2402313 51.2618696 82.2402313"></polygon>
                            <polygon id="Fill-211" fill="#023942" points="53.8491565 84.9017551 54.2652565 84.9017551 54.2652565 82.2402313 53.8491565 82.2402313"></polygon>
                            <polygon id="Fill-212" fill="#023942" points="36.1548957 85.0736007 35.8780522 84.8252844 38.3788087 82.1165003 38.6553826 82.3645497"></polygon>
                            <polygon id="Fill-213" fill="#023942" points="38.3993496 85.117016 35.945767 82.3163816 36.2274626 82.0731384 38.6810452 84.8737728"></polygon>
                            <polygon id="Fill-214" fill="#023942" points="38.6553557 85.0736007 38.3790513 84.8252844 40.8800774 82.1165003 41.1561122 82.3645497"></polygon>
                            <polygon id="Fill-215" fill="#023942" points="40.9007261 85.117016 38.4460652 82.3163816 38.7283 82.0731384 41.1824217 84.8737728"></polygon>
                            <polygon id="Fill-216" fill="#023942" points="41.2492739 85.0736007 40.9735087 84.8252844 43.4742652 82.1165003 43.7500304 82.3645497"></polygon>
                            <polygon id="Fill-217" fill="#023942" points="43.49424 85.117016 41.0406574 82.3163816 41.322353 82.0731384 43.7770139 84.8737728"></polygon>
                            <polygon id="Fill-218" fill="#023942" points="43.9134678 85.0736007 43.6379722 84.8252844 46.1384591 82.1165003 46.4147635 82.3645497"></polygon>
                            <polygon id="Fill-219" fill="#023942" points="46.1587035 85.117016 43.7051209 82.3163816 43.9870861 82.0731384 46.4406687 84.8737728"></polygon>
                            <polygon id="Fill-220" fill="#023942" points="46.3679939 85.0736007 46.0916896 84.8252844 48.5924461 82.1165003 48.8684809 82.3645497"></polygon>
                            <polygon id="Fill-221" fill="#023942" points="48.61296 85.117016 46.1585687 82.3163816 46.4405339 82.0731384 48.8949252 84.8737728"></polygon>
                            <polygon id="Fill-222" fill="#023942" points="48.96202 85.0736007 48.6862548 84.8252844 51.1870113 82.1165003 51.4627765 82.3645497"></polygon>
                            <polygon id="Fill-223" fill="#023942" points="51.2072557 85.117016 48.7531339 82.3163816 49.0350991 82.0731384 51.4892209 84.8737728"></polygon>
                            <polygon id="Fill-224" fill="#023942" points="51.4863096 85.0736007 51.2105443 84.8252844 53.7107617 82.1165003 53.9870661 82.3645497"></polygon>
                            <polygon id="Fill-225" fill="#023942" points="53.7312757 85.117016 51.2774235 82.3163816 51.5593887 82.0731384 54.0135104 84.8737728"></polygon>
                            <polygon id="Fill-226" fill="#023942" points="53.9402965 85.0736007 53.6645313 84.8252844 56.1647487 82.1165003 56.4405139 82.3645497"></polygon>
                            <polygon id="Fill-227" fill="#023942" points="56.1852626 85.117016 53.7311409 82.3163816 54.0133757 82.0731384 56.4669583 84.8737728"></polygon>
                            <polygon id="Fill-228" fill="#023942" points="26.2704783 118.886915 66.0957739 118.886915 66.0957739 114.070913 26.2704783 114.070913"></polygon>
                            <path d="M66.09572,117.959894 L26.2704243,117.959894 L24.5880678,122.775896 L68.059233,122.775896 L66.09572,117.959894 Z M65.8442157,118.330766 L67.5047374,122.40529 L25.1126417,122.40529 L26.5370243,118.330766 L65.8442157,118.330766 Z" id="Fill-230" fill="#023942"></path>
                            <polygon id="Fill-231" fill="#023942" points="24.5881217 123.192569 35.7362609 123.192569 35.7362609 122.775869 24.5881217 122.775869"></polygon>
                            <path d="M24.58796,122.775922 L24.7548209,122.775922 L24.6305513,122.653366 L24.58796,122.775922 Z M65.1674991,121.473997 L63.9601165,120.278341 L65.0836643,119.16599 L66.2905078,120.361647 L65.1674991,121.473997 Z M62.3033687,121.393895 L61.0940991,120.19637 L62.2203426,119.081082 L63.4296122,120.278341 L62.3033687,121.393895 Z M60.9129513,122.770849 L59.7039513,121.573591 L60.8296557,120.459104 L62.0386557,121.655829 L60.9129513,122.770849 Z M58.2318557,120.114399 L59.3572904,119.000713 L60.5641339,120.19637 L59.4392383,121.311924 L58.2318557,120.114399 Z M58.0507078,122.68514 L56.8433252,121.490552 L57.9666035,120.378201 L59.1742557,121.573591 L58.0507078,122.68514 Z M55.3696122,120.03136 L56.4926209,118.918742 L57.7018904,120.114399 L56.578073,121.227817 L55.3696122,120.03136 Z M55.1873861,122.60397 L53.9786557,121.408581 L55.10436,120.291958 L56.31336,121.490552 L55.1873861,122.60397 Z M52.4944296,119.936572 L53.6201339,118.823154 L54.8393774,120.03136 L53.7142122,121.145045 L52.4944296,119.936572 Z M52.3235252,122.521999 L51.103473,121.313793 L52.2286383,120.200375 L53.44896,121.408581 L52.3235252,122.521999 Z M49.62976,119.854601 L50.7549252,118.741183 L51.9641948,119.936572 L50.8384904,121.051059 L49.62976,119.854601 Z M49.448073,122.42828 L48.2398817,121.231822 L49.3645078,120.116268 L50.5732383,121.313793 L49.448073,122.42828 Z M46.767247,119.773431 L47.8924122,118.657877 L49.0995252,119.854601 L47.9748991,120.96882 L46.767247,119.773431 Z M46.5847513,122.346309 L45.3773687,121.148516 L46.5025339,120.035098 L47.709647,121.231822 L46.5847513,122.346309 Z M43.9025774,119.689324 L45.0277426,118.575104 L46.2367426,119.773431 L45.1123861,120.887116 L43.9025774,119.689324 Z M43.7227774,122.263002 L42.5129687,121.066812 L43.6384035,119.953127 L44.8474035,121.148516 L43.7227774,122.263002 Z M41.0406035,119.608421 L42.1652296,118.493934 L43.3726122,119.689324 L42.2477165,120.80381 L41.0406035,119.608421 Z M40.8583774,122.181031 L39.6507252,120.983506 L40.7753513,119.870087 L41.9835426,121.066812 L40.8583774,122.181031 Z M38.1770122,119.526183 L39.3027165,118.410628 L40.5106383,119.608421 L39.3852035,120.721839 L38.1770122,119.526183 Z M37.9845426,122.110541 L36.7760817,120.913016 L37.91176,119.788116 L39.1204904,120.983506 L37.9845426,122.110541 Z M35.3018296,119.453824 L36.4385861,118.327856 L37.6465078,119.526183 L36.5108296,120.651349 L35.3018296,119.453824 Z M35.1204122,122.027502 L33.9114122,120.831045 L35.0376557,119.71736 L36.2455774,120.913016 L35.1204122,122.027502 Z M32.439047,119.372654 L33.5647513,118.258167 L34.7718643,119.453824 L33.6472383,120.569111 L32.439047,119.372654 Z M32.2568209,121.946599 L31.04836,120.749875 L32.1735252,119.635388 L33.3811774,120.831045 L32.2568209,121.946599 Z M29.5633252,119.280002 L30.6890296,118.164448 L31.9088122,119.372654 L30.783647,120.486339 L29.5633252,119.280002 Z M29.3945774,121.862225 L28.1750643,120.655354 L29.2988817,119.541669 L30.5178557,120.749875 L29.3945774,121.862225 Z M26.7018904,119.195094 L27.8248991,118.082477 L29.0330904,119.280002 L27.9098122,120.391552 L26.7018904,119.195094 Z M67.605447,121.662504 L67.2455774,120.781649 L66.8210122,120.361647 L67.0010817,120.183019 L66.8493165,119.807341 L66.55576,120.098912 L65.3489165,118.901387 L66.1541078,118.104638 L66.0956122,117.959921 L65.770247,117.959921 L65.0836643,118.640788 L64.3978904,117.959921 L63.866847,117.959921 L64.8184122,118.901387 L63.6951339,120.014805 L62.4861339,118.818348 L63.3525165,117.959921 L62.8206643,117.959921 L62.2203426,118.554545 L61.62056,117.959921 L61.0905948,117.959921 L61.9558991,118.818348 L60.8296557,119.934703 L59.6228122,118.737178 L60.4069774,117.959921 L59.8775513,117.959921 L59.3572904,118.475511 L58.8372991,117.959921 L58.3073339,117.959921 L59.0917687,118.737178 L57.9666035,119.8538 L56.7581426,118.654939 L57.4600904,117.959921 L56.9282383,117.959921 L56.4926209,118.391404 L56.0570035,117.959921 L55.5264991,117.959921 L56.2276383,118.654939 L55.10436,119.767557 L53.884847,118.55855 L54.4897513,117.959921 L53.9597861,117.959921 L53.6201339,118.296883 L53.2791339,117.959921 L52.7488991,117.959921 L53.3543426,118.55855 L52.2286383,119.674905 L51.020447,118.47738 L51.5423252,117.959921 L51.01236,117.959921 L50.7549252,118.214645 L50.4980296,117.959921 L49.9680643,117.959921 L50.489673,118.47738 L49.3645078,119.592934 L48.1579339,118.396477 L48.5978643,117.959921 L48.0676296,117.959921 L47.8924122,118.133475 L47.7180035,117.959921 L47.1880383,117.959921 L47.6276991,118.396477 L46.5025339,119.509895 L45.2935339,118.314239 L45.6496296,117.959921 L45.1188557,117.959921 L45.0277426,118.050703 L44.9377078,117.959921 L44.4061252,117.959921 L44.7632991,118.314239 L43.6384035,119.427657 L42.4304817,118.2312 L42.7035513,117.959921 L42.1735861,117.959921 L42.1652296,117.968465 L42.1566035,117.959921 L41.6266383,117.959921 L41.900247,118.2312 L40.7753513,119.344618 L39.5668904,118.148161 L39.7569339,117.959921 L38.8468817,117.959921 L39.0374643,118.148161 L37.91176,119.262647 L36.7038383,118.064854 L36.810047,117.959921 L36.0671252,117.959921 L36.1733339,118.064854 L35.0376557,119.192157 L33.8294643,117.9957 L33.8647774,117.959921 L33.2644557,117.959921 L33.29896,117.9957 L32.1735252,119.109919 L31.0127774,117.959921 L30.3655513,117.959921 L29.2988817,119.015399 L28.2324817,117.959921 L27.4165078,117.959921 L26.4350209,118.932093 L26.0608643,118.561487 L25.9241948,118.949715 L26.170847,119.195094 L25.6637948,119.696266 L25.3831774,120.498888 L26.4350209,119.455693 L27.6450991,120.655354 L26.5193948,121.769574 L25.3454383,120.605958 L25.2090383,120.996055 L26.2544122,122.032309 L25.5025948,122.775922 L26.034447,122.775922 L26.5193948,122.295043 L27.0046122,122.775922 L27.5353861,122.775922 L26.784647,122.032309 L27.9098122,120.917822 L29.1295948,122.12496 L28.473473,122.775922 L29.0031687,122.775922 L29.3945774,122.387695 L29.7862557,122.775922 L30.3164904,122.775922 L29.6598296,122.12496 L30.783647,121.013411 L31.9915687,122.207999 L31.418473,122.775922 L31.9495165,122.775922 L32.2568209,122.471535 L32.563047,122.775922 L33.09436,122.775922 L32.5209948,122.207999 L33.6472383,121.094581 L34.8546209,122.291305 L34.3656296,122.775922 L34.8950557,122.775922 L35.1204122,122.551904 L35.3452296,122.775922 L35.8746557,122.775922 L35.3851252,122.291305 L36.5108296,121.174683 L37.7187513,122.373276 L37.3127861,122.775922 L37.8424817,122.775922 L37.9845426,122.634943 L38.1255252,122.775922 L38.6552209,122.775922 L38.2492557,122.373276 L39.3852035,121.24811 L40.5931252,122.444834 L40.257247,122.775922 L40.7880209,122.775922 L40.8583774,122.706234 L40.9279252,122.775922 L41.4578904,122.775922 L41.1230904,122.444834 L42.2477165,121.328212 L43.4569861,122.526805 L43.2060209,122.775922 L44.2384557,122.775922 L43.9869513,122.526805 L45.1123861,121.412319 L46.3197687,122.607975 L46.1502122,122.775922 L47.0192904,122.775922 L46.8500035,122.607975 L47.9748991,121.493222 L49.1838991,122.692082 L49.0987165,122.775922 L49.7979687,122.775922 L49.7135948,122.692082 L50.8384904,121.577596 L52.0493774,122.775922 L52.5971339,122.775922 L53.7142122,121.66998 L54.8288643,122.775922 L55.5461774,122.775922 L56.578073,121.752218 L57.6102383,122.775922 L58.491447,122.775922 L59.4392383,121.836059 L60.3875687,122.775922 L61.4380643,122.775922 L62.3033687,121.919365 L63.1692122,122.775922 L63.6986383,122.775922 L62.5688904,121.655829 L63.6951339,120.540274 L64.9027861,121.736732 L63.8536383,122.775922 L64.3830643,122.775922 L65.1674991,121.998666 L65.9508557,122.775922 L66.4821687,122.775922 L65.4319426,121.736732 L66.55576,120.624115 L67.605447,121.662504 Z M67.69656,121.887591 L66.8007948,122.775922 L67.3312991,122.775922 L67.8502122,122.262201 L67.69656,121.887591 Z" id="Fill-232" fill="#023942"></path>
                            <path d="M30.1246287,117.21911 C30.0097287,117.21911 29.9164287,117.13794 29.9164287,117.034609 L29.9164287,114.406995 C29.9164287,114.304464 30.0097287,114.221425 30.1246287,114.221425 C30.2392287,114.221425 30.3331287,114.304464 30.3331287,114.406995 L30.3331287,117.034609 C30.3331287,117.13794 30.2392287,117.21911 30.1246287,117.21911" id="Fill-233" fill="#FFFFFF"></path>
                            <path d="M34.1675644,117.21911 C34.0529644,117.21911 33.9596643,117.13794 33.9596643,117.034609 L33.9596643,114.406995 C33.9596643,114.304464 34.0529644,114.221425 34.1675644,114.221425 C34.2818644,114.221425 34.3757644,114.304464 34.3757644,114.406995 L34.3757644,117.034609 C34.3757644,117.13794 34.2818644,117.21911 34.1675644,117.21911" id="Fill-234" fill="#FFFFFF"></path>
                            <path d="M38.2113157,117.21911 C38.0967157,117.21911 38.0031157,117.13794 38.0031157,117.034609 L38.0031157,114.406995 C38.0031157,114.304464 38.0967157,114.221425 38.2113157,114.221425 C38.3259157,114.221425 38.4189157,114.304464 38.4189157,114.406995 L38.4189157,117.034609 C38.4189157,117.13794 38.3259157,117.21911 38.2113157,117.21911" id="Fill-235" fill="#FFFFFF"></path>
                            <path d="M42.254147,117.21911 C42.139847,117.21911 42.045947,117.13794 42.045947,117.034609 L42.045947,114.406995 C42.045947,114.304464 42.139847,114.221425 42.254147,114.221425 C42.369047,114.221425 42.462647,114.304464 42.462647,114.406995 L42.462647,117.034609 C42.462647,117.13794 42.369047,117.21911 42.254147,117.21911" id="Fill-236" fill="#FFFFFF"></path>
                            <path d="M46.2974296,117.21911 C46.1828296,117.21911 46.0898296,117.13794 46.0898296,117.034609 L46.0898296,114.406995 C46.0898296,114.304464 46.1828296,114.221425 46.2974296,114.221425 C46.4120296,114.221425 46.5056296,114.304464 46.5056296,114.406995 L46.5056296,117.034609 C46.5056296,117.13794 46.4120296,117.21911 46.2974296,117.21911" id="Fill-237" fill="#FFFFFF"></path>
                            <path d="M50.3412383,117.21911 C50.2269383,117.21911 50.1330383,117.13794 50.1330383,117.034609 L50.1330383,114.406995 C50.1330383,114.304464 50.2269383,114.221425 50.3412383,114.221425 C50.4558383,114.221425 50.5491383,114.304464 50.5491383,114.406995 L50.5491383,117.034609 C50.5491383,117.13794 50.4558383,117.21911 50.3412383,117.21911" id="Fill-238" fill="#FFFFFF"></path>
                            <path d="M54.3842078,117.21911 C54.2696078,117.21911 54.1757078,117.13794 54.1757078,117.034609 L54.1757078,114.406995 C54.1757078,114.304464 54.2696078,114.221425 54.3842078,114.221425 C54.4985078,114.221425 54.5924078,114.304464 54.5924078,114.406995 L54.5924078,117.034609 C54.5924078,117.13794 54.4985078,117.21911 54.3842078,117.21911" id="Fill-239" fill="#FFFFFF"></path>
                            <path d="M58.4273522,117.21911 C58.3127522,117.21911 58.2197522,117.13794 58.2197522,117.034609 L58.2197522,114.406995 C58.2197522,114.304464 58.3127522,114.221425 58.4273522,114.221425 C58.5419522,114.221425 58.6355522,114.304464 58.6355522,114.406995 L58.6355522,117.034609 C58.6355522,117.13794 58.5419522,117.21911 58.4273522,117.21911" id="Fill-240" fill="#FFFFFF"></path>
                            <path d="M62.4709217,117.21911 C62.3563217,117.21911 62.2624217,117.13794 62.2624217,117.034609 L62.2624217,114.406995 C62.2624217,114.304464 62.3563217,114.221425 62.4709217,114.221425 C62.5858218,114.221425 62.6785218,114.304464 62.6785218,114.406995 L62.6785218,117.034609 C62.6785218,117.13794 62.5858218,117.21911 62.4709217,117.21911" id="Fill-241" fill="#FFFFFF"></path>
                            <polygon id="Fill-242" fill="#FFFFFF" points="26.4575565 114.461811 65.9089652 114.461811 65.9089652 111.97224 26.4575565 111.97224"></polygon>
                            <polygon id="Fill-243" fill="#023942" points="26.2704783 114.646313 66.0957739 114.646313 66.0957739 111.785869 26.2704783 111.785869"></polygon>
                            <polygon id="Fill-244" fill="#023942" points="29.9163478 114.534437 30.3330478 114.534437 30.3330478 111.906556 29.9163478 111.906556"></polygon>
                            <polygon id="Fill-245" fill="#023942" points="33.9598261 114.534437 34.3759261 114.534437 34.3759261 111.906556 33.9598261 111.906556"></polygon>
                            <polygon id="Fill-246" fill="#023942" points="38.0030348 114.534437 38.4191348 114.534437 38.4191348 111.906556 38.0030348 111.906556"></polygon>
                            <polygon id="Fill-247" fill="#023942" points="42.0459739 114.534437 42.4626739 114.534437 42.4626739 111.906556 42.0459739 111.906556"></polygon>
                            <polygon id="Fill-248" fill="#023942" points="46.0897217 114.534437 46.5058218 114.534437 46.5058218 111.906556 46.0897217 111.906556"></polygon>
                            <polygon id="Fill-249" fill="#023942" points="50.1329304 114.534437 50.5493305 114.534437 50.5493305 111.906556 50.1329304 111.906556"></polygon>
                            <polygon id="Fill-250" fill="#023942" points="54.1756 114.534437 54.5926 114.534437 54.5926 111.906556 54.1756 111.906556"></polygon>
                            <polygon id="Fill-251" fill="#023942" points="58.2196174 114.534437 58.6357174 114.534437 58.6357174 111.906556 58.2196174 111.906556"></polygon>
                            <polygon id="Fill-252" fill="#023942" points="62.262287 114.534437 62.678687 114.534437 62.678687 111.906556 62.262287 111.906556"></polygon>
                            <path d="M35.5503687,123.751405 L35.1896904,123.651011 C35.6191078,122.136548 36.2480035,118.337575 36.2533948,118.296723 L36.6232383,118.358669 C36.5965513,118.515135 35.9846383,122.214781 35.5503687,123.751405" id="Fill-253" fill="#023942"></path>
                            <polygon id="Fill-254" fill="#023942" points="44.7798235 79.1912539 44.5008235 78.9469427 47.7755017 75.2964257 44.9873887 70.6328849 47.2258583 66.4358049 45.5162757 62.5022607 46.9573713 58.1073287 45.8497278 54.2597607 46.6821452 50.3291536 45.9998757 46.8807607 46.3662148 46.8081349 47.0638496 50.3331587 47.0557626 50.3700056 46.2357452 54.2453423 47.3482409 58.1132029 45.9152322 62.4851723 47.6407191 66.4542284 47.5989365 66.5324614 45.4149191 70.6222046 48.2369974 75.3407488"></polygon>
                            <polygon id="Fill-255" fill="#023942" points="47.9016583 79.5012755 44.6954496 75.1399864 47.3700757 70.9562568 45.1313365 66.6133912 47.148493 62.8480612 45.517893 58.1081565 46.7829626 54.6122364 45.7580757 50.552398 46.4670322 47.0399235 46.83418 47.1122823 46.1408583 50.5446548 47.1727539 54.6325289 45.9136148 58.1113605 47.5544583 62.879835 45.5529365 66.6163282 47.8003017 70.9768163 45.1467017 75.126369 48.20438 79.285"></polygon>
                            <polygon id="Fill-256" fill="#023942" points="42.7654435 21.4729541 50.0375043 21.4729541 50.0375043 18.448301 42.7654435 18.448301"></polygon>
                            <polygon id="Fill-257" fill="#023942" points="42.7654435 16.6580204 50.0375043 16.6580204 50.0375043 13.6341684 42.7654435 13.6341684"></polygon>
                            <polygon id="Fill-258" fill="#023942" points="41.7685913 20.0524779 51.034087 20.0524779 51.034087 14.3759133 41.7685913 14.3759133"></polygon>
                            <polygon id="Fill-259" fill="#023942" points="44.4214096 14.1054621 46.3075574 9.80691956 48.1945139 14.1054621"></polygon>
                            <polygon id="Fill-260" fill="#023942" points="47.0347904 12.485959 45.5815643 12.485959 46.307773 4.89815969"></polygon>
                            <polygon id="Fill-261" fill="#023942" points="45.8147652 0.560180272 46.8005652 0.560180272 46.8005652 0 45.8147652 0"></polygon>
                            <polygon id="Fill-262" fill="#023942" points="46.0918783 7.92182483 46.5715783 7.92182483 46.5715783 0.141780612 46.0918783 0.141780612"></polygon>
                            <polygon id="Fill-263" fill="#FFFFFF" points="43.2382609 18.9729694 43.7382609 18.9729694 43.7382609 15.2220578 43.2382609 15.2220578"></polygon>
                            <polygon id="Fill-264" fill="#FFFFFF" points="44.6701913 18.9729694 45.1701913 18.9729694 45.1701913 15.2220578 44.6701913 15.2220578"></polygon>
                            <polygon id="Fill-265" fill="#FFFFFF" points="46.1007739 18.9729694 46.6007739 18.9729694 46.6007739 15.2220578 46.1007739 15.2220578"></polygon>
                            <polygon id="Fill-266" fill="#FFFFFF" points="47.5318957 18.9729694 48.0318957 18.9729694 48.0318957 15.2220578 47.5318957 15.2220578"></polygon>
                            <polygon id="Fill-267" fill="#FFFFFF" points="48.9624783 18.9729694 49.4624783 18.9729694 49.4624783 15.2220578 48.9624783 15.2220578"></polygon>
                        </g>
                    </g>
                </g>
                <path d="M25,91 L253.002197,91" id="Line" stroke="#979797" stroke-linecap="square" stroke-dasharray="1,4"></path>
                <path d="M24,337 L252.002197,337" id="Line-Copy-2" stroke="#E4E4E4" stroke-linecap="square" stroke-dasharray="1,4"></path>
                <text id="PARIS---GARE-DE-LYON" font-family="Agenda-Bold" font-size="22" font-weight="bold" fill="#BFBFBF">
                    <tspan x="30" y="74">PARIS - GARE DE LYON</tspan>
                </text>
                <text id="KO---45--39--AVB" font-family="Roboto-Italic, Roboto" font-size="13" font-style="italic" font-weight="normal" fill="#838383">
                    <tspan x="92" y="28">KO - 45 -39 -AVB</tspan>
                </text>
                <text id="KO---45--39--AVB-Copy" transform="translate(143.000000, 353.500000) rotate(-180.000000) translate(-143.000000, -353.500000) " font-family="Roboto-Italic, Roboto" font-size="13" font-style="italic" font-weight="normal" fill="#838383">
                    <tspan x="92" y="358">KO - 45 -39 -AVB</tspan>
                </text>
                <g id="Group-2" transform="translate(140.000000, 152.000000)" fill="#FFFFFF" opacity="0.516813859">
                    <path d="M68.9302326,22.4918033 C68.9302326,10.0699233 58.8722574,0 46.4651163,0 C34.0579752,0 24,10.0699233 24,22.4918033 L68.9302326,22.4918033 Z" id="Combined-Shape"></path>
                    <path d="M44.9302326,49.4918033 C44.9302326,37.0699233 34.8722574,27 22.4651163,27 C10.0579752,27 1.7866553e-14,37.0699233 2.38030302e-29,49.4918033 L44.9302326,49.4918033 Z" id="Combined-Shape-Copy" transform="translate(22.465116, 38.245902) scale(1, -1) translate(-22.465116, -38.245902) "></path>
                </g>
                <g id="Group-3" transform="translate(46.000000, 161.000000)" fill="#FFFFFF" opacity="0.327105978">
                    <path d="M64,20.7741935 C64,9.30092326 54.6708636,0 43.1627907,0 C31.6547178,0 22.3255814,9.30092326 22.3255814,20.7741935 L64,20.7741935 Z" id="Combined-Shape-Copy-2"></path>
                    <path d="M41.6744186,46 C41.6744186,34.5267297 32.3452822,25.2258065 20.8372093,25.2258065 C9.32913638,25.2258065 1.65718752e-14,34.5267297 2.20781729e-29,46 L41.6744186,46 Z" id="Combined-Shape-Copy-3" transform="translate(20.837209, 35.612903) scale(1, -1) translate(-20.837209, -35.612903) "></path>
                </g>
                <text id="19h30-GARE-DE-LYON" font-family="Roboto-Medium, Roboto" font-size="15" font-weight="400" fill="#80CEC4">
                    <tspan x="64" y="120">19h30 GARE DE LYON</tspan>
                </text>
                <path d="M55.4131511,168.657223 C81.3705344,168.657223 102.413151,153.658762 102.413151,135.157223 C102.413151,116.655683 81.3705344,101.657223 55.4131511,101.657223 C29.4557679,101.657223 8.41315113,116.655683 8.41315113,135.157223 C8.41315113,153.658762 29.4557679,168.657223 55.4131511,168.657223 Z" id="Oval-8" stroke="#CE8080" stroke-width="2" opacity="0.320482337" transform="translate(55.413151, 135.157223) rotate(-16.000000) translate(-55.413151, -135.157223) "></path>
                <ellipse id="Oval-8" stroke="#CE8080" stroke-width="2" opacity="0.397588315" transform="translate(55.413151, 135.157223) rotate(-16.000000) translate(-55.413151, -135.157223) " cx="55.4131511" cy="135.157223" rx="32.7237804" ry="23.3243967"></ellipse>
                <g id="Group" opacity="0.342334692" transform="translate(29.000000, 134.000000)">
                    <path d="M0.5,10.5 C10,31.5 54.5,16.5 55.5,0" id="Path-4" stroke="#979797" opacity="0"></path>
                    <text id="Achievement" font-family="Roboto-Bold, Roboto" font-size="9" font-weight="bold" letter-spacing="-0.100000001" fill="#CE8080">
                        <tspan x="8" y="12">Achievemen</tspan>
                        <tspan x="56.3198242" y="12">t</tspan>
                    </text>
                </g>
                <polygon id="Star-2" fill="#CE8080" opacity="0.196614583" transform="translate(55.536215, 131.861813) rotate(-18.000000) translate(-55.536215, -131.861813) " points="55.5362151 138.412219 49.0705774 141.811406 50.3054043 134.611813 45.0745935 129.513032 52.3033963 128.462626 55.5362151 121.912219 58.769034 128.462626 65.9978368 129.513032 60.767026 134.611813 62.0018529 141.811406"></polygon>
            </g>
        </g>
    </g>
</svg>